<svg width="1964" height="1080" viewBox="0 0 1964 1080" fill="none" xmlns="http://www.w3.org/2000/svg">
<path d="M383.067 132.514L360.612 3.51449C360.292 1.67951 361.705 0 363.567 0H1556.96C1558.81 0 1560.22 1.6646 1559.92 3.49319L1538.42 132.493C1538.18 133.94 1536.93 135 1535.46 135H386.023C384.565 135 383.317 133.951 383.067 132.514Z" fill="#555555" stroke="black" stroke-width="4"/>
<path d="M394.612 122.451L378.025 13.4513C377.749 11.6356 379.154 10 380.991 10H741.677C743.263 10 744.575 11.2346 744.672 12.8177L751.306 121.818C751.411 123.543 750.04 125 748.312 125H397.578C396.095 125 394.835 123.917 394.612 122.451Z" fill="#333333" stroke="black" stroke-width="2"/>
<path d="M1522.39 122.451L1538.97 13.4513C1539.25 11.6356 1537.85 10 1536.01 10H1175.32C1173.74 10 1172.42 11.2346 1172.33 12.8177L1165.69 121.818C1165.59 123.543 1166.96 125 1168.69 125H1519.42C1520.9 125 1522.16 123.917 1522.39 122.451Z" fill="#333333" stroke="black" stroke-width="2"/>
<path d="M782.806 122.208L775.223 13.2082C775.103 11.4736 776.477 10 778.216 10H1141.28C1143.02 10 1144.4 11.4736 1144.28 13.2082L1136.69 122.208C1136.58 123.78 1135.28 125 1133.7 125H785.799C784.222 125 782.915 123.78 782.806 122.208Z" fill="#333333" stroke="black" stroke-width="2"/>
<ellipse cx="428" cy="30.5" rx="20.5" ry="15.5" fill="url(#paint0_radial_107:70)"/>
<ellipse cx="481.5" cy="30.5" rx="20" ry="15.5" fill="url(#paint1_radial_107:70)"/>
<ellipse cx="533" cy="30.5" rx="19.5" ry="15.5" fill="url(#paint2_radial_107:70)"/>
<ellipse cx="585.5" cy="30.5" rx="20" ry="15.5" fill="url(#paint3_radial_107:70)"/>
<ellipse cx="641" cy="30.5" rx="20.5" ry="15.5" fill="url(#paint4_radial_107:70)"/>
<ellipse cx="694.5" cy="30.5" rx="20" ry="15.5" fill="url(#paint5_radial_107:70)"/>
<ellipse cx="434" cy="67" rx="20.5" ry="16" fill="url(#paint6_radial_107:70)"/>
<ellipse cx="486.5" cy="67" rx="20" ry="16" fill="url(#paint7_radial_107:70)"/>
<ellipse cx="539" cy="67" rx="19.5" ry="16" fill="url(#paint8_radial_107:70)"/>
<ellipse cx="591.5" cy="67" rx="20" ry="16" fill="url(#paint9_radial_107:70)"/>
<ellipse cx="645" cy="67" rx="20.5" ry="16" fill="url(#paint10_radial_107:70)"/>
<ellipse cx="697.5" cy="67" rx="20" ry="16" fill="url(#paint11_radial_107:70)"/>
<ellipse cx="442" cy="103.5" rx="20.5" ry="15.5" fill="url(#paint12_radial_107:70)"/>
<ellipse cx="493.5" cy="103.5" rx="20" ry="15.5" fill="url(#paint13_radial_107:70)"/>
<ellipse cx="545" cy="103.5" rx="19.5" ry="15.5" fill="url(#paint14_radial_107:70)"/>
<ellipse cx="597.5" cy="103.5" rx="20" ry="15.5" fill="url(#paint15_radial_107:70)"/>
<ellipse cx="649" cy="103.5" rx="20.5" ry="15.5" fill="url(#paint16_radial_107:70)"/>
<ellipse cx="701.5" cy="103.5" rx="20" ry="15.5" fill="url(#paint17_radial_107:70)"/>
<ellipse rx="20.5" ry="15.5" transform="matrix(-1 0 0 1 1489 30.5)" fill="url(#paint18_radial_107:70)"/>
<ellipse rx="20" ry="15.5" transform="matrix(-1 0 0 1 1435.5 30.5)" fill="url(#paint19_radial_107:70)"/>
<ellipse rx="19.5" ry="15.5" transform="matrix(-1 0 0 1 1384 30.5)" fill="url(#paint20_radial_107:70)"/>
<ellipse rx="20" ry="15.5" transform="matrix(-1 0 0 1 1331.5 30.5)" fill="url(#paint21_radial_107:70)"/>
<ellipse rx="20.5" ry="15.5" transform="matrix(-1 0 0 1 1276 30.5)" fill="url(#paint22_radial_107:70)"/>
<ellipse rx="20" ry="15.5" transform="matrix(-1 0 0 1 1222.5 30.5)" fill="url(#paint23_radial_107:70)"/>
<ellipse rx="20.5" ry="16" transform="matrix(-1 0 0 1 1483 67)" fill="url(#paint24_radial_107:70)"/>
<ellipse rx="20" ry="16" transform="matrix(-1 0 0 1 1430.5 67)" fill="url(#paint25_radial_107:70)"/>
<ellipse rx="19.5" ry="16" transform="matrix(-1 0 0 1 1378 67)" fill="url(#paint26_radial_107:70)"/>
<ellipse rx="20" ry="16" transform="matrix(-1 0 0 1 1325.5 67)" fill="url(#paint27_radial_107:70)"/>
<ellipse rx="20.5" ry="16" transform="matrix(-1 0 0 1 1272 67)" fill="url(#paint28_radial_107:70)"/>
<ellipse rx="20" ry="16" transform="matrix(-1 0 0 1 1219.5 67)" fill="url(#paint29_radial_107:70)"/>
<ellipse rx="20.5" ry="15.5" transform="matrix(-1 0 0 1 1475 103.5)" fill="url(#paint30_radial_107:70)"/>
<ellipse rx="20" ry="15.5" transform="matrix(-1 0 0 1 1423.5 103.5)" fill="url(#paint31_radial_107:70)"/>
<ellipse rx="19.5" ry="15.5" transform="matrix(-1 0 0 1 1372 103.5)" fill="url(#paint32_radial_107:70)"/>
<ellipse rx="20" ry="15.5" transform="matrix(-1 0 0 1 1319.5 103.5)" fill="url(#paint33_radial_107:70)"/>
<ellipse rx="20.5" ry="15.5" transform="matrix(-1 0 0 1 1268 103.5)" fill="url(#paint34_radial_107:70)"/>
<ellipse rx="20" ry="15.5" transform="matrix(-1 0 0 1 1215.5 103.5)" fill="url(#paint35_radial_107:70)"/>
<ellipse rx="20.5" ry="15.5" transform="matrix(-1 0 0 1 1095 30.5)" fill="url(#paint36_radial_107:70)"/>
<ellipse rx="20" ry="15.5" transform="matrix(-1 0 0 1 1041.5 30.5)" fill="url(#paint37_radial_107:70)"/>
<ellipse rx="19.5" ry="15.5" transform="matrix(-1 0 0 1 988 30.5)" fill="url(#paint38_radial_107:70)"/>
<ellipse rx="20" ry="15.5" transform="matrix(-1 0 0 1 933.5 30.5)" fill="url(#paint39_radial_107:70)"/>
<ellipse rx="20.5" ry="15.5" transform="matrix(-1 0 0 1 880 30.5)" fill="url(#paint40_radial_107:70)"/>
<ellipse rx="20" ry="15.5" transform="matrix(-1 0 0 1 825.5 30.5)" fill="url(#paint41_radial_107:70)"/>
<ellipse rx="20.5" ry="16" transform="matrix(-1 0 0 1 1092 67)" fill="url(#paint42_radial_107:70)"/>
<ellipse rx="20" ry="16" transform="matrix(-1 0 0 1 1039.5 67)" fill="url(#paint43_radial_107:70)"/>
<ellipse rx="19.5" ry="16" transform="matrix(-1 0 0 1 987 67)" fill="url(#paint44_radial_107:70)"/>
<ellipse rx="20" ry="16" transform="matrix(-1 0 0 1 934.5 67)" fill="url(#paint45_radial_107:70)"/>
<ellipse rx="20.5" ry="16" transform="matrix(-1 0 0 1 882 67)" fill="url(#paint46_radial_107:70)"/>
<ellipse rx="20" ry="16" transform="matrix(-1 0 0 1 828.5 67)" fill="url(#paint47_radial_107:70)"/>
<ellipse rx="20.5" ry="15.5" transform="matrix(-1 0 0 1 1089 103.5)" fill="url(#paint48_radial_107:70)"/>
<ellipse rx="20" ry="15.5" transform="matrix(-1 0 0 1 1037.5 103.5)" fill="url(#paint49_radial_107:70)"/>
<ellipse rx="19.5" ry="15.5" transform="matrix(-1 0 0 1 986 103.5)" fill="url(#paint50_radial_107:70)"/>
<ellipse rx="20" ry="15.5" transform="matrix(-1 0 0 1 935.5 103.5)" fill="url(#paint51_radial_107:70)"/>
<ellipse rx="20.5" ry="15.5" transform="matrix(-1 0 0 1 884 103.5)" fill="url(#paint52_radial_107:70)"/>
<ellipse rx="20" ry="15.5" transform="matrix(-1 0 0 1 831.5 103.5)" fill="url(#paint53_radial_107:70)"/>
<g filter="url(#filter0_f_107:70)">
<path d="M1539.25 11H377.75L7 1080H1914L1539.25 11Z" fill="url(#paint54_linear_107:70)"/>
</g>
<defs>
<filter id="filter0_f_107:70" x="-43" y="-39" width="2007" height="1169" filterUnits="userSpaceOnUse" color-interpolation-filters="sRGB">
<feFlood flood-opacity="0" result="BackgroundImageFix"/>
<feBlend mode="normal" in="SourceGraphic" in2="BackgroundImageFix" result="shape"/>
<feGaussianBlur stdDeviation="25" result="effect1_foregroundBlur_107:70"/>
</filter>
<radialGradient id="paint0_radial_107:70" cx="0" cy="0" r="1" gradientUnits="userSpaceOnUse" gradientTransform="translate(428 30.5) rotate(90) scale(15.5 20.5)">
<stop stop-color="white"/>
<stop offset="1" stop-color="#DDDDDD"/>
</radialGradient>
<radialGradient id="paint1_radial_107:70" cx="0" cy="0" r="1" gradientUnits="userSpaceOnUse" gradientTransform="translate(481.5 30.5) rotate(90) scale(15.5 20)">
<stop stop-color="white"/>
<stop offset="1" stop-color="#DDDDDD"/>
</radialGradient>
<radialGradient id="paint2_radial_107:70" cx="0" cy="0" r="1" gradientUnits="userSpaceOnUse" gradientTransform="translate(533 30.5) rotate(90) scale(15.5 19.5)">
<stop stop-color="white"/>
<stop offset="1" stop-color="#DDDDDD"/>
</radialGradient>
<radialGradient id="paint3_radial_107:70" cx="0" cy="0" r="1" gradientUnits="userSpaceOnUse" gradientTransform="translate(585.5 30.5) rotate(90) scale(15.5 20)">
<stop stop-color="white"/>
<stop offset="1" stop-color="#DDDDDD"/>
</radialGradient>
<radialGradient id="paint4_radial_107:70" cx="0" cy="0" r="1" gradientUnits="userSpaceOnUse" gradientTransform="translate(641 30.5) rotate(90) scale(15.5 20.5)">
<stop stop-color="white"/>
<stop offset="1" stop-color="#DDDDDD"/>
</radialGradient>
<radialGradient id="paint5_radial_107:70" cx="0" cy="0" r="1" gradientUnits="userSpaceOnUse" gradientTransform="translate(694.5 30.5) rotate(90) scale(15.5 20)">
<stop stop-color="white"/>
<stop offset="1" stop-color="#DDDDDD"/>
</radialGradient>
<radialGradient id="paint6_radial_107:70" cx="0" cy="0" r="1" gradientUnits="userSpaceOnUse" gradientTransform="translate(434 67) rotate(90) scale(16 20.5)">
<stop stop-color="white"/>
<stop offset="1" stop-color="#DDDDDD"/>
</radialGradient>
<radialGradient id="paint7_radial_107:70" cx="0" cy="0" r="1" gradientUnits="userSpaceOnUse" gradientTransform="translate(486.5 67) rotate(90) scale(16 20)">
<stop stop-color="white"/>
<stop offset="1" stop-color="#DDDDDD"/>
</radialGradient>
<radialGradient id="paint8_radial_107:70" cx="0" cy="0" r="1" gradientUnits="userSpaceOnUse" gradientTransform="translate(539 67) rotate(90) scale(16 19.5)">
<stop stop-color="white"/>
<stop offset="1" stop-color="#DDDDDD"/>
</radialGradient>
<radialGradient id="paint9_radial_107:70" cx="0" cy="0" r="1" gradientUnits="userSpaceOnUse" gradientTransform="translate(591.5 67) rotate(90) scale(16 20)">
<stop stop-color="white"/>
<stop offset="1" stop-color="#DDDDDD"/>
</radialGradient>
<radialGradient id="paint10_radial_107:70" cx="0" cy="0" r="1" gradientUnits="userSpaceOnUse" gradientTransform="translate(645 67) rotate(90) scale(16 20.5)">
<stop stop-color="white"/>
<stop offset="1" stop-color="#DDDDDD"/>
</radialGradient>
<radialGradient id="paint11_radial_107:70" cx="0" cy="0" r="1" gradientUnits="userSpaceOnUse" gradientTransform="translate(697.5 67) rotate(90) scale(16 20)">
<stop stop-color="white"/>
<stop offset="1" stop-color="#DDDDDD"/>
</radialGradient>
<radialGradient id="paint12_radial_107:70" cx="0" cy="0" r="1" gradientUnits="userSpaceOnUse" gradientTransform="translate(442 103.5) rotate(90) scale(15.5 20.5)">
<stop stop-color="white"/>
<stop offset="1" stop-color="#DDDDDD"/>
</radialGradient>
<radialGradient id="paint13_radial_107:70" cx="0" cy="0" r="1" gradientUnits="userSpaceOnUse" gradientTransform="translate(493.5 103.5) rotate(90) scale(15.5 20)">
<stop stop-color="white"/>
<stop offset="1" stop-color="#DDDDDD"/>
</radialGradient>
<radialGradient id="paint14_radial_107:70" cx="0" cy="0" r="1" gradientUnits="userSpaceOnUse" gradientTransform="translate(545 103.5) rotate(90) scale(15.5 19.5)">
<stop stop-color="white"/>
<stop offset="1" stop-color="#DDDDDD"/>
</radialGradient>
<radialGradient id="paint15_radial_107:70" cx="0" cy="0" r="1" gradientUnits="userSpaceOnUse" gradientTransform="translate(597.5 103.5) rotate(90) scale(15.5 20)">
<stop stop-color="white"/>
<stop offset="1" stop-color="#DDDDDD"/>
</radialGradient>
<radialGradient id="paint16_radial_107:70" cx="0" cy="0" r="1" gradientUnits="userSpaceOnUse" gradientTransform="translate(649 103.5) rotate(90) scale(15.5 20.5)">
<stop stop-color="white"/>
<stop offset="1" stop-color="#DDDDDD"/>
</radialGradient>
<radialGradient id="paint17_radial_107:70" cx="0" cy="0" r="1" gradientUnits="userSpaceOnUse" gradientTransform="translate(701.5 103.5) rotate(90) scale(15.5 20)">
<stop stop-color="white"/>
<stop offset="1" stop-color="#DDDDDD"/>
</radialGradient>
<radialGradient id="paint18_radial_107:70" cx="0" cy="0" r="1" gradientUnits="userSpaceOnUse" gradientTransform="translate(20.5 15.5) rotate(90) scale(15.5 20.5)">
<stop stop-color="white"/>
<stop offset="1" stop-color="#DDDDDD"/>
</radialGradient>
<radialGradient id="paint19_radial_107:70" cx="0" cy="0" r="1" gradientUnits="userSpaceOnUse" gradientTransform="translate(20 15.5) rotate(90) scale(15.5 20)">
<stop stop-color="white"/>
<stop offset="1" stop-color="#DDDDDD"/>
</radialGradient>
<radialGradient id="paint20_radial_107:70" cx="0" cy="0" r="1" gradientUnits="userSpaceOnUse" gradientTransform="translate(19.5 15.5) rotate(90) scale(15.5 19.5)">
<stop stop-color="white"/>
<stop offset="1" stop-color="#DDDDDD"/>
</radialGradient>
<radialGradient id="paint21_radial_107:70" cx="0" cy="0" r="1" gradientUnits="userSpaceOnUse" gradientTransform="translate(20 15.5) rotate(90) scale(15.5 20)">
<stop stop-color="white"/>
<stop offset="1" stop-color="#DDDDDD"/>
</radialGradient>
<radialGradient id="paint22_radial_107:70" cx="0" cy="0" r="1" gradientUnits="userSpaceOnUse" gradientTransform="translate(20.5 15.5) rotate(90) scale(15.5 20.5)">
<stop stop-color="white"/>
<stop offset="1" stop-color="#DDDDDD"/>
</radialGradient>
<radialGradient id="paint23_radial_107:70" cx="0" cy="0" r="1" gradientUnits="userSpaceOnUse" gradientTransform="translate(20 15.5) rotate(90) scale(15.5 20)">
<stop stop-color="white"/>
<stop offset="1" stop-color="#DDDDDD"/>
</radialGradient>
<radialGradient id="paint24_radial_107:70" cx="0" cy="0" r="1" gradientUnits="userSpaceOnUse" gradientTransform="translate(20.5 16) rotate(90) scale(16 20.5)">
<stop stop-color="white"/>
<stop offset="1" stop-color="#DDDDDD"/>
</radialGradient>
<radialGradient id="paint25_radial_107:70" cx="0" cy="0" r="1" gradientUnits="userSpaceOnUse" gradientTransform="translate(20 16) rotate(90) scale(16 20)">
<stop stop-color="white"/>
<stop offset="1" stop-color="#DDDDDD"/>
</radialGradient>
<radialGradient id="paint26_radial_107:70" cx="0" cy="0" r="1" gradientUnits="userSpaceOnUse" gradientTransform="translate(19.5 16) rotate(90) scale(16 19.5)">
<stop stop-color="white"/>
<stop offset="1" stop-color="#DDDDDD"/>
</radialGradient>
<radialGradient id="paint27_radial_107:70" cx="0" cy="0" r="1" gradientUnits="userSpaceOnUse" gradientTransform="translate(20 16) rotate(90) scale(16 20)">
<stop stop-color="white"/>
<stop offset="1" stop-color="#DDDDDD"/>
</radialGradient>
<radialGradient id="paint28_radial_107:70" cx="0" cy="0" r="1" gradientUnits="userSpaceOnUse" gradientTransform="translate(20.5 16) rotate(90) scale(16 20.5)">
<stop stop-color="white"/>
<stop offset="1" stop-color="#DDDDDD"/>
</radialGradient>
<radialGradient id="paint29_radial_107:70" cx="0" cy="0" r="1" gradientUnits="userSpaceOnUse" gradientTransform="translate(20 16) rotate(90) scale(16 20)">
<stop stop-color="white"/>
<stop offset="1" stop-color="#DDDDDD"/>
</radialGradient>
<radialGradient id="paint30_radial_107:70" cx="0" cy="0" r="1" gradientUnits="userSpaceOnUse" gradientTransform="translate(20.5 15.5) rotate(90) scale(15.5 20.5)">
<stop stop-color="white"/>
<stop offset="1" stop-color="#DDDDDD"/>
</radialGradient>
<radialGradient id="paint31_radial_107:70" cx="0" cy="0" r="1" gradientUnits="userSpaceOnUse" gradientTransform="translate(20 15.5) rotate(90) scale(15.5 20)">
<stop stop-color="white"/>
<stop offset="1" stop-color="#DDDDDD"/>
</radialGradient>
<radialGradient id="paint32_radial_107:70" cx="0" cy="0" r="1" gradientUnits="userSpaceOnUse" gradientTransform="translate(19.5 15.5) rotate(90) scale(15.5 19.5)">
<stop stop-color="white"/>
<stop offset="1" stop-color="#DDDDDD"/>
</radialGradient>
<radialGradient id="paint33_radial_107:70" cx="0" cy="0" r="1" gradientUnits="userSpaceOnUse" gradientTransform="translate(20 15.5) rotate(90) scale(15.5 20)">
<stop stop-color="white"/>
<stop offset="1" stop-color="#DDDDDD"/>
</radialGradient>
<radialGradient id="paint34_radial_107:70" cx="0" cy="0" r="1" gradientUnits="userSpaceOnUse" gradientTransform="translate(20.5 15.5) rotate(90) scale(15.5 20.5)">
<stop stop-color="white"/>
<stop offset="1" stop-color="#DDDDDD"/>
</radialGradient>
<radialGradient id="paint35_radial_107:70" cx="0" cy="0" r="1" gradientUnits="userSpaceOnUse" gradientTransform="translate(20 15.5) rotate(90) scale(15.5 20)">
<stop stop-color="white"/>
<stop offset="1" stop-color="#DDDDDD"/>
</radialGradient>
<radialGradient id="paint36_radial_107:70" cx="0" cy="0" r="1" gradientUnits="userSpaceOnUse" gradientTransform="translate(20.5 15.5) rotate(90) scale(15.5 20.5)">
<stop stop-color="white"/>
<stop offset="1" stop-color="#DDDDDD"/>
</radialGradient>
<radialGradient id="paint37_radial_107:70" cx="0" cy="0" r="1" gradientUnits="userSpaceOnUse" gradientTransform="translate(20 15.5) rotate(90) scale(15.5 20)">
<stop stop-color="white"/>
<stop offset="1" stop-color="#DDDDDD"/>
</radialGradient>
<radialGradient id="paint38_radial_107:70" cx="0" cy="0" r="1" gradientUnits="userSpaceOnUse" gradientTransform="translate(19.5 15.5) rotate(90) scale(15.5 19.5)">
<stop stop-color="white"/>
<stop offset="1" stop-color="#DDDDDD"/>
</radialGradient>
<radialGradient id="paint39_radial_107:70" cx="0" cy="0" r="1" gradientUnits="userSpaceOnUse" gradientTransform="translate(20 15.5) rotate(90) scale(15.5 20)">
<stop stop-color="white"/>
<stop offset="1" stop-color="#DDDDDD"/>
</radialGradient>
<radialGradient id="paint40_radial_107:70" cx="0" cy="0" r="1" gradientUnits="userSpaceOnUse" gradientTransform="translate(20.5 15.5) rotate(90) scale(15.5 20.5)">
<stop stop-color="white"/>
<stop offset="1" stop-color="#DDDDDD"/>
</radialGradient>
<radialGradient id="paint41_radial_107:70" cx="0" cy="0" r="1" gradientUnits="userSpaceOnUse" gradientTransform="translate(20 15.5) rotate(90) scale(15.5 20)">
<stop stop-color="white"/>
<stop offset="1" stop-color="#DDDDDD"/>
</radialGradient>
<radialGradient id="paint42_radial_107:70" cx="0" cy="0" r="1" gradientUnits="userSpaceOnUse" gradientTransform="translate(20.5 16) rotate(90) scale(16 20.5)">
<stop stop-color="white"/>
<stop offset="1" stop-color="#DDDDDD"/>
</radialGradient>
<radialGradient id="paint43_radial_107:70" cx="0" cy="0" r="1" gradientUnits="userSpaceOnUse" gradientTransform="translate(20 16) rotate(90) scale(16 20)">
<stop stop-color="white"/>
<stop offset="1" stop-color="#DDDDDD"/>
</radialGradient>
<radialGradient id="paint44_radial_107:70" cx="0" cy="0" r="1" gradientUnits="userSpaceOnUse" gradientTransform="translate(19.5 16) rotate(90) scale(16 19.5)">
<stop stop-color="white"/>
<stop offset="1" stop-color="#DDDDDD"/>
</radialGradient>
<radialGradient id="paint45_radial_107:70" cx="0" cy="0" r="1" gradientUnits="userSpaceOnUse" gradientTransform="translate(20 16) rotate(90) scale(16 20)">
<stop stop-color="white"/>
<stop offset="1" stop-color="#DDDDDD"/>
</radialGradient>
<radialGradient id="paint46_radial_107:70" cx="0" cy="0" r="1" gradientUnits="userSpaceOnUse" gradientTransform="translate(20.5 16) rotate(90) scale(16 20.5)">
<stop stop-color="white"/>
<stop offset="1" stop-color="#DDDDDD"/>
</radialGradient>
<radialGradient id="paint47_radial_107:70" cx="0" cy="0" r="1" gradientUnits="userSpaceOnUse" gradientTransform="translate(20 16) rotate(90) scale(16 20)">
<stop stop-color="white"/>
<stop offset="1" stop-color="#DDDDDD"/>
</radialGradient>
<radialGradient id="paint48_radial_107:70" cx="0" cy="0" r="1" gradientUnits="userSpaceOnUse" gradientTransform="translate(20.5 15.5) rotate(90) scale(15.5 20.5)">
<stop stop-color="white"/>
<stop offset="1" stop-color="#DDDDDD"/>
</radialGradient>
<radialGradient id="paint49_radial_107:70" cx="0" cy="0" r="1" gradientUnits="userSpaceOnUse" gradientTransform="translate(20 15.5) rotate(90) scale(15.5 20)">
<stop stop-color="white"/>
<stop offset="1" stop-color="#DDDDDD"/>
</radialGradient>
<radialGradient id="paint50_radial_107:70" cx="0" cy="0" r="1" gradientUnits="userSpaceOnUse" gradientTransform="translate(19.5 15.5) rotate(90) scale(15.5 19.5)">
<stop stop-color="white"/>
<stop offset="1" stop-color="#DDDDDD"/>
</radialGradient>
<radialGradient id="paint51_radial_107:70" cx="0" cy="0" r="1" gradientUnits="userSpaceOnUse" gradientTransform="translate(20 15.5) rotate(90) scale(15.5 20)">
<stop stop-color="white"/>
<stop offset="1" stop-color="#DDDDDD"/>
</radialGradient>
<radialGradient id="paint52_radial_107:70" cx="0" cy="0" r="1" gradientUnits="userSpaceOnUse" gradientTransform="translate(20.5 15.5) rotate(90) scale(15.5 20.5)">
<stop stop-color="white"/>
<stop offset="1" stop-color="#DDDDDD"/>
</radialGradient>
<radialGradient id="paint53_radial_107:70" cx="0" cy="0" r="1" gradientUnits="userSpaceOnUse" gradientTransform="translate(20 15.5) rotate(90) scale(15.5 20)">
<stop stop-color="white"/>
<stop offset="1" stop-color="#DDDDDD"/>
</radialGradient>
<linearGradient id="paint54_linear_107:70" x1="960.5" y1="11" x2="960.5" y2="1080" gradientUnits="userSpaceOnUse">
<stop stop-color="white" stop-opacity="0.5"/>
<stop offset="1" stop-color="white" stop-opacity="0.2"/>
</linearGradient>
</defs>
</svg>
