<svg width="1500" height="750" viewBox="0 0 1500 750" fill="none" xmlns="http://www.w3.org/2000/svg">
<path d="M323.468 593.5V456H1199.2V583L998.696 593.5H323.468Z" fill="url(#paint0_linear)"/>
<path fill-rule="evenodd" clip-rule="evenodd" d="M998.197 593.999H546.468H536.196V567C536.196 511.772 491.425 467 436.196 467C380.968 467 336.196 511.772 336.196 567V593.886L279.022 587.407C269.311 586.306 261.818 578.35 261.302 568.591L258.042 506.982C257.514 496.994 261.998 487.399 270 481.397L279.196 474.5C279.196 403.675 327.231 393.052 458.722 377.118C459.354 377.041 459.99 376.839 460.548 376.533C486.076 362.515 509.662 348.159 532.696 334.138C626.959 276.761 711.997 225 883.196 225C998.67 225 1025.61 225 1084.94 231.383C1094.43 232.405 1103.45 236.17 1110.74 242.337C1141.02 267.925 1192 314.34 1217.9 351.141C1218.3 351.714 1218.57 352.36 1218.7 353.049C1225.11 387.108 1225.2 415.258 1225.2 465.913C1225.2 467.159 1225.97 468.292 1227.13 468.735L1228.1 469.102C1235.87 472.05 1241 479.493 1241 487.8V563C1241 574.046 1232.05 583 1221 583H1199.2L1198.2 583.055V567C1198.2 511.772 1153.43 467 1098.2 467C1042.97 467 998.197 511.772 998.197 567V593.999ZM618.385 323.64C704.889 269.209 756.838 258.222 881.172 253.57C890.739 253.212 899.247 259.738 900.487 269.23C900.487 269.23 900.487 269.231 900.487 269.231C904.912 303.131 904.746 353.207 902.196 377H609.196V340.392C609.196 333.601 612.638 327.257 618.385 323.64ZM481.93 370.5H472.696C490.265 360.063 506.547 350.187 521.906 340.87C594.849 296.623 646.981 264.999 717.196 246V250.847C717.196 252.134 716.379 253.275 715.163 253.693C648.486 276.595 581.913 317.273 508.32 362.969C500.399 367.888 491.255 370.5 481.93 370.5ZM932.455 264.697C937.196 311.221 937.196 343.256 937.196 377H1059.7C1088.06 379.239 1095.25 313.516 1097.08 280.033C1097.66 269.377 1089.32 260.597 1078.66 260.085L942.935 253.564C936.78 253.268 931.831 258.567 932.455 264.697Z" fill="url(#paint1_linear)"/>
<path d="M998.197 593.999V596.499H1000.7V593.999H998.197ZM536.196 593.999H533.696V596.499H536.196V593.999ZM336.196 593.886L335.915 596.37L338.696 596.685V593.886H336.196ZM279.022 587.407L278.74 589.891L278.74 589.891L279.022 587.407ZM261.302 568.591L258.805 568.723L258.805 568.723L261.302 568.591ZM258.042 506.982L260.539 506.85L260.539 506.85L258.042 506.982ZM270 481.397L271.5 483.397L271.5 483.397L270 481.397ZM279.196 474.5L280.696 476.5L281.696 475.75V474.5H279.196ZM458.722 377.118L459.023 379.6L459.023 379.6L458.722 377.118ZM460.548 376.533L459.344 374.342L459.344 374.342L460.548 376.533ZM532.696 334.138L531.396 332.002L531.396 332.002L532.696 334.138ZM1084.94 231.383L1084.67 233.869L1084.67 233.869L1084.94 231.383ZM1110.74 242.337L1109.13 244.246L1109.13 244.246L1110.74 242.337ZM1217.9 351.141L1215.85 352.58L1215.85 352.58L1217.9 351.141ZM1218.7 353.049L1221.16 352.587L1221.16 352.587L1218.7 353.049ZM1225.2 465.913L1227.7 465.913L1227.7 465.913L1225.2 465.913ZM1227.13 468.735L1228.02 466.397L1228.02 466.397L1227.13 468.735ZM1228.1 469.102L1227.21 471.439L1227.21 471.439L1228.1 469.102ZM1199.2 583V580.5H1199.13L1199.06 580.504L1199.2 583ZM1198.2 583.055H1195.7V585.696L1198.33 585.551L1198.2 583.055ZM881.172 253.57L881.266 256.069L881.266 256.069L881.172 253.57ZM618.385 323.64L617.053 321.524L617.053 321.524L618.385 323.64ZM900.487 269.23H902.987V269.067L902.966 268.906L900.487 269.23ZM900.487 269.231H897.987V269.393L898.008 269.554L900.487 269.231ZM902.196 377V379.5H904.443L904.682 377.266L902.196 377ZM609.196 377H606.696V379.5H609.196V377ZM472.696 370.5L471.42 368.351L463.593 373H472.696V370.5ZM521.906 340.87L520.61 338.732L520.61 338.732L521.906 340.87ZM717.196 246H719.696V242.734L716.543 243.587L717.196 246ZM715.163 253.693L714.35 251.329L714.35 251.329L715.163 253.693ZM508.32 362.969L509.639 365.093L509.639 365.093L508.32 362.969ZM937.196 377H934.696V379.5H937.196V377ZM932.455 264.697L929.968 264.95L929.968 264.95L932.455 264.697ZM1059.7 377L1059.89 374.508L1059.79 374.5H1059.7V377ZM1097.08 280.033L1094.58 279.897L1094.58 279.897L1097.08 280.033ZM1078.66 260.085L1078.54 262.582L1078.54 262.582L1078.66 260.085ZM942.935 253.564L942.815 256.061L942.815 256.061L942.935 253.564ZM546.468 596.499H998.197V591.499H546.468V596.499ZM536.196 596.499H546.468V591.499H536.196V596.499ZM533.696 567V593.999H538.696V567H533.696ZM436.196 469.5C490.044 469.5 533.696 513.152 533.696 567H538.696C538.696 510.391 492.806 464.5 436.196 464.5V469.5ZM338.696 567C338.696 513.152 382.349 469.5 436.196 469.5V464.5C379.587 464.5 333.696 510.391 333.696 567H338.696ZM338.696 593.886V567H333.696V593.886H338.696ZM278.74 589.891L335.915 596.37L336.478 591.402L279.303 584.923L278.74 589.891ZM258.805 568.723C259.386 579.701 267.816 588.653 278.74 589.891L279.303 584.923C270.807 583.96 264.25 576.998 263.798 568.459L258.805 568.723ZM255.546 507.114L258.805 568.723L263.798 568.459L260.539 506.85L255.546 507.114ZM268.5 479.397C259.831 485.899 254.973 496.293 255.546 507.114L260.539 506.85C260.054 497.694 264.165 488.899 271.5 483.397L268.5 479.397ZM277.696 472.5L268.5 479.397L271.5 483.397L280.696 476.5L277.696 472.5ZM458.421 374.636C392.82 382.586 347.472 389.253 318.578 402.966C304.027 409.873 293.472 418.639 286.599 430.383C279.742 442.098 276.696 456.527 276.696 474.5H281.696C281.696 457.061 284.655 443.602 290.914 432.908C297.156 422.242 306.829 414.077 320.722 407.483C348.719 394.196 393.133 387.584 459.023 379.6L458.421 374.636ZM459.344 374.342C459.072 374.491 458.743 374.597 458.421 374.636L459.023 379.6C459.965 379.486 460.908 379.187 461.751 378.724L459.344 374.342ZM531.396 332.002C508.356 346.027 484.817 360.354 459.344 374.342L461.751 378.724C487.336 364.675 510.967 350.291 533.996 336.273L531.396 332.002ZM883.196 222.5C711.3 222.5 625.779 274.553 531.396 332.002L533.996 336.273C628.139 278.97 712.694 227.5 883.196 227.5V222.5ZM1085.2 228.897C1025.72 222.498 998.653 222.5 883.196 222.5V227.5C998.687 227.5 1025.49 227.502 1084.67 233.869L1085.2 228.897ZM1112.36 240.427C1104.67 233.928 1095.18 229.971 1085.2 228.897L1084.67 233.869C1093.69 234.839 1102.23 238.411 1109.13 244.246L1112.36 240.427ZM1219.94 349.702C1193.84 312.611 1142.63 266.013 1112.36 240.427L1109.13 244.246C1139.41 269.837 1190.16 316.07 1215.85 352.58L1219.94 349.702ZM1221.16 352.587C1220.96 351.559 1220.56 350.578 1219.94 349.702L1215.85 352.58C1216.04 352.85 1216.18 353.161 1216.24 353.511L1221.16 352.587ZM1227.7 465.913C1227.7 415.297 1227.62 386.913 1221.16 352.587L1216.24 353.511C1222.6 387.303 1222.7 415.22 1222.7 465.913L1227.7 465.913ZM1228.02 466.397C1227.84 466.329 1227.7 466.137 1227.7 465.913H1222.7C1222.7 468.181 1224.09 470.255 1226.24 471.072L1228.02 466.397ZM1228.99 466.765L1228.02 466.397L1226.24 471.072L1227.21 471.439L1228.99 466.765ZM1243.5 487.8C1243.5 478.454 1237.72 470.082 1228.99 466.765L1227.21 471.439C1234.01 474.019 1238.5 480.531 1238.5 487.8H1243.5ZM1243.5 563V487.8H1238.5V563H1243.5ZM1221 585.5C1233.43 585.5 1243.5 575.426 1243.5 563H1238.5C1238.5 572.665 1230.67 580.5 1221 580.5V585.5ZM1199.2 585.5H1221V580.5H1199.2V585.5ZM1198.33 585.551L1199.33 585.496L1199.06 580.504L1198.06 580.559L1198.33 585.551ZM1195.7 567V583.055H1200.7V567H1195.7ZM1098.2 469.5C1152.04 469.5 1195.7 513.152 1195.7 567H1200.7C1200.7 510.391 1154.81 464.5 1098.2 464.5V469.5ZM1000.7 567C1000.7 513.152 1044.35 469.5 1098.2 469.5V464.5C1041.59 464.5 995.697 510.391 995.697 567H1000.7ZM1000.7 593.999V567H995.697V593.999H1000.7ZM881.079 251.072C818.884 253.399 774.586 257.314 734.969 267.517C695.3 277.733 660.445 294.221 617.053 321.524L619.716 325.756C662.828 298.629 697.2 282.407 736.216 272.359C775.282 262.298 819.127 258.394 881.266 256.069L881.079 251.072ZM902.966 268.906C901.542 258.008 891.805 250.671 881.079 251.072L881.266 256.069C889.673 255.754 896.952 261.468 898.008 269.554L902.966 268.906ZM902.987 269.231C902.987 269.143 902.982 269.066 902.976 269.001C902.97 268.937 902.963 268.882 902.956 268.841C902.953 268.82 902.95 268.801 902.947 268.786C902.944 268.77 902.941 268.757 902.939 268.746C902.937 268.736 902.936 268.728 902.935 268.723C902.934 268.721 902.934 268.719 902.934 268.717C902.933 268.717 902.933 268.716 902.933 268.716C902.933 268.716 902.933 268.716 902.933 268.716C902.933 268.716 902.933 268.715 902.933 268.715C902.933 268.715 902.933 268.715 902.933 268.715C902.933 268.715 902.933 268.715 902.933 268.715C902.933 268.715 902.934 268.719 902.935 268.723C902.936 268.728 902.937 268.736 902.939 268.746C902.941 268.756 902.944 268.77 902.947 268.785C902.95 268.801 902.953 268.819 902.956 268.84C902.963 268.882 902.97 268.937 902.976 269.001C902.982 269.065 902.987 269.143 902.987 269.23H897.987C897.987 269.317 897.991 269.395 897.997 269.459C898.003 269.524 898.011 269.578 898.017 269.62C898.021 269.641 898.024 269.66 898.027 269.675C898.029 269.691 898.032 269.704 898.034 269.714C898.036 269.725 898.038 269.733 898.039 269.738C898.039 269.74 898.04 269.742 898.04 269.744C898.04 269.744 898.04 269.745 898.04 269.745C898.04 269.745 898.04 269.745 898.04 269.745C898.04 269.745 898.04 269.745 898.04 269.745C898.04 269.745 898.04 269.745 898.04 269.745C898.04 269.745 898.04 269.745 898.04 269.745C898.041 269.746 898.04 269.742 898.039 269.738C898.038 269.733 898.036 269.725 898.034 269.715C898.032 269.704 898.03 269.691 898.027 269.676C898.024 269.66 898.021 269.642 898.017 269.621C898.011 269.579 898.003 269.524 897.997 269.46C897.991 269.396 897.987 269.318 897.987 269.231H902.987ZM904.682 377.266C907.252 353.283 907.417 303.009 902.966 268.907L898.008 269.554C902.407 303.253 902.24 353.131 899.711 376.734L904.682 377.266ZM609.196 379.5H902.196V374.5H609.196V379.5ZM606.696 340.392V377H611.696V340.392H606.696ZM617.053 321.524C610.565 325.607 606.696 332.758 606.696 340.392H611.696C611.696 334.445 614.71 328.907 619.716 325.756L617.053 321.524ZM472.696 373H481.93V368H472.696V373ZM520.61 338.732C505.249 348.05 488.976 357.921 471.42 368.351L473.973 372.649C491.553 362.206 507.844 352.324 523.203 343.007L520.61 338.732ZM716.543 243.587C645.935 262.693 593.511 294.51 520.61 338.732L523.203 343.007C596.187 298.735 648.028 267.306 717.849 248.413L716.543 243.587ZM719.696 250.847V246H714.696V250.847H719.696ZM715.975 256.057C718.198 255.294 719.696 253.205 719.696 250.847H714.696C714.696 251.063 714.561 251.256 714.35 251.329L715.975 256.057ZM509.639 365.093C583.282 319.366 649.612 278.852 715.975 256.057L714.35 251.329C647.359 274.339 580.544 315.18 507.001 360.845L509.639 365.093ZM481.93 373C491.722 373 501.322 370.257 509.639 365.093L507.001 360.845C499.475 365.518 490.788 368 481.93 368V373ZM939.696 377C939.696 343.242 939.697 311.101 934.942 264.443L929.968 264.95C934.696 311.341 934.696 343.27 934.696 377H939.696ZM1059.7 374.5H937.196V379.5H1059.7V374.5ZM1094.58 279.897C1093.67 296.597 1091.43 321.181 1085.93 341.252C1083.17 351.308 1079.66 360.014 1075.23 366.02C1070.84 371.978 1065.82 374.976 1059.89 374.508L1059.5 379.492C1067.75 380.144 1074.26 375.766 1079.26 368.985C1084.22 362.25 1087.93 352.853 1090.75 342.573C1096.39 321.971 1098.66 296.953 1099.57 280.169L1094.58 279.897ZM1078.54 262.582C1087.89 263.032 1095.08 270.7 1094.58 279.897L1099.57 280.169C1100.23 268.054 1090.75 258.163 1078.78 257.588L1078.54 262.582ZM942.815 256.061L1078.54 262.582L1078.78 257.588L943.055 251.067L942.815 256.061ZM934.942 264.443C934.47 259.811 938.211 255.84 942.815 256.061L943.055 251.067C935.349 250.697 929.191 257.323 929.968 264.95L934.942 264.443Z" fill="black"/>
<path d="M1218.5 352H1207.53C1205.94 352 1204.44 351.24 1203.5 349.963C1170.28 305.248 1130.54 267.757 1097.38 242.5C1095.07 240.741 1096.31 237 1099.21 237H1099.5C1109.5 240.5 1188.5 308 1218.5 352Z" fill="#C4C4C4" stroke="black" stroke-width="3"/>
<path d="M447.715 385.218C428.541 386.646 387.87 392.179 338.5 406.5H317.5C351.5 390.5 407.5 382.5 460 377.5L453.536 382.887C451.889 384.259 449.853 385.058 447.715 385.218Z" fill="#C6C6C6" stroke="black" stroke-width="3"/>
<path fill-rule="evenodd" clip-rule="evenodd" d="M561.387 389H922.196H1072.15C1078.75 389 1085.02 385.801 1088.19 380.009C1105.78 347.841 1112.44 300.277 1108.4 268.383C1106.94 256.92 1096.88 249.308 1085.36 248.432C1028.55 244.115 961.433 242.5 892.696 242.5C751.473 238.025 630.031 285.477 564.768 348.46C564.061 349.142 563.586 350.012 563.379 350.972L556.499 382.948C555.829 386.062 558.202 389 561.387 389ZM932.455 264.697C937.196 311.221 937.196 343.256 937.196 377H1059.7C1088.06 379.239 1095.25 313.516 1097.08 280.033C1097.66 269.377 1089.32 260.597 1078.66 260.085L942.935 253.564C936.78 253.268 931.831 258.567 932.455 264.697ZM618.385 323.64C704.888 269.209 756.838 258.222 881.172 253.57C890.739 253.212 899.247 259.738 900.487 269.231C904.912 303.131 904.746 353.207 902.196 377H609.196V340.392C609.196 333.601 612.637 327.257 618.385 323.64Z" fill="#545454"/>
<path d="M1088.19 380.009L1089.5 380.729L1089.5 380.729L1088.19 380.009ZM1108.4 268.383L1109.89 268.194L1109.89 268.194L1108.4 268.383ZM1085.36 248.432L1085.47 246.936L1085.47 246.936L1085.36 248.432ZM892.696 242.5L892.649 243.999L892.673 244H892.696V242.5ZM564.768 348.46L563.726 347.38L563.726 347.38L564.768 348.46ZM563.379 350.972L564.846 351.288L564.846 351.288L563.379 350.972ZM556.499 382.948L555.032 382.633L555.032 382.633L556.499 382.948ZM937.196 377H935.696V378.5H937.196V377ZM932.455 264.697L930.963 264.849L930.963 264.849L932.455 264.697ZM1059.7 377L1059.81 375.505L1059.76 375.5H1059.7V377ZM1097.08 280.033L1098.57 280.115L1098.57 280.115L1097.08 280.033ZM1078.66 260.085L1078.73 258.587L1078.73 258.587L1078.66 260.085ZM942.935 253.564L942.863 255.062L942.863 255.062L942.935 253.564ZM881.172 253.57L881.116 252.071L881.116 252.071L881.172 253.57ZM618.385 323.64L619.184 324.91L619.184 324.91L618.385 323.64ZM900.487 269.231L901.974 269.037L901.974 269.037L900.487 269.231ZM902.196 377V378.5H903.544L903.688 377.16L902.196 377ZM609.196 377H607.696V378.5H609.196V377ZM922.196 387.5H561.387V390.5H922.196V387.5ZM1072.15 387.5H922.196V390.5H1072.15V387.5ZM1086.87 379.289C1084.01 384.531 1078.28 387.5 1072.15 387.5V390.5C1079.21 390.5 1086.04 387.071 1089.5 380.729L1086.87 379.289ZM1106.91 268.572C1110.92 300.195 1104.29 347.434 1086.87 379.289L1089.5 380.729C1107.27 348.248 1113.97 300.359 1109.89 268.194L1106.91 268.572ZM1085.24 249.928C1096.23 250.763 1105.57 257.977 1106.91 268.572L1109.89 268.194C1108.32 255.862 1097.53 247.853 1085.47 246.936L1085.24 249.928ZM892.696 244C961.415 244 1028.49 245.614 1085.24 249.928L1085.47 246.936C1028.62 242.615 961.451 241 892.696 241V244ZM565.809 349.539C630.723 286.893 751.742 239.534 892.649 243.999L892.744 241.001C751.204 236.515 629.339 284.06 563.726 347.38L565.809 349.539ZM564.846 351.288C564.992 350.61 565.323 350.008 565.809 349.539L563.726 347.38C562.799 348.275 562.18 349.414 561.913 350.657L564.846 351.288ZM557.965 383.264L564.846 351.288L561.913 350.657L555.032 382.633L557.965 383.264ZM561.387 387.5C559.157 387.5 557.496 385.443 557.965 383.264L555.032 382.633C554.161 386.68 557.246 390.5 561.387 390.5V387.5ZM938.696 377C938.696 343.247 938.697 311.149 933.948 264.545L930.963 264.849C935.696 311.293 935.696 343.264 935.696 377H938.696ZM1059.7 375.5H937.196V378.5H1059.7V375.5ZM1095.58 279.952C1094.67 296.668 1092.42 321.339 1086.89 341.516C1084.12 351.617 1080.57 360.462 1076.04 366.613C1071.53 372.736 1066.21 376.009 1059.81 375.505L1059.58 378.495C1067.37 379.11 1073.58 375.008 1078.45 368.392C1083.31 361.803 1086.98 352.544 1089.78 342.309C1095.4 321.813 1097.66 296.882 1098.57 280.115L1095.58 279.952ZM1078.58 261.584C1088.46 262.058 1096.11 270.17 1095.58 279.952L1098.57 280.115C1099.2 268.583 1090.17 259.137 1078.73 258.587L1078.58 261.584ZM942.863 255.062L1078.58 261.584L1078.73 258.587L943.007 252.066L942.863 255.062ZM933.948 264.545C933.414 259.313 937.639 254.811 942.863 255.062L943.007 252.066C935.922 251.725 930.247 257.821 930.963 264.849L933.948 264.545ZM881.116 252.071C818.932 254.398 774.725 258.311 735.218 268.486C695.68 278.668 660.922 295.102 617.586 322.371L619.184 324.91C662.351 297.747 696.82 281.472 735.966 271.391C775.143 261.301 819.078 257.395 881.228 255.069L881.116 252.071ZM901.974 269.037C900.625 258.7 891.378 251.687 881.116 252.071L881.228 255.069C890.099 254.737 897.87 260.776 898.999 269.425L901.974 269.037ZM903.688 377.16C906.249 353.253 906.415 303.058 901.974 269.037L898.999 269.425C903.409 303.204 903.242 353.162 900.705 376.84L903.688 377.16ZM609.196 378.5H902.196V375.5H609.196V378.5ZM607.696 340.392V377H610.696V340.392H607.696ZM617.586 322.371C611.394 326.267 607.696 333.095 607.696 340.392H610.696C610.696 334.107 613.881 328.247 619.184 324.91L617.586 322.371Z" fill="black"/>
<path d="M1225.2 467.5H1100.2" stroke="black" stroke-width="4"/>
<path d="M277.696 474H400.196" stroke="black" stroke-width="4"/>
<path d="M577.696 574.5C555.224 574.5 551.207 539.588 551.196 408.494C551.196 408.172 551.227 407.841 551.289 407.526L562.372 350.663C562.582 349.584 563.147 348.599 563.972 347.874C655.749 267.27 769.216 242.5 881.438 242.5C924.196 242.5 917.4 263.3 921 388.5C928.333 443.167 938.196 574.5 891.196 574.5H577.696Z" stroke="black" stroke-width="4"/>
<path d="M848.196 423.067C848.196 440 899.196 440 899.196 423.067L899.196 414.5H848.196V423.067Z" fill="url(#paint2_linear)" stroke="black" stroke-width="3"/>
<path d="M848.196 415.547V421.474C862.335 421.871 892.329 422.426 899.196 421.474V415.547C899.196 406 889.191 403 873.444 403C857.696 403 848.196 406 848.196 415.547Z" fill="url(#paint3_radial)" stroke="black" stroke-width="3"/>
<path d="M366.696 418C368.696 438 357.196 457 281.196 457C281.196 440 298.196 410 319.696 407C358.796 407 365.146 402.5 366.696 418Z" fill="url(#paint4_linear)" stroke="black" stroke-width="4"/>
<path d="M351.192 446C347.439 443.433 346.963 423.381 351.192 407.044C361.036 406.538 366.196 410.388 366.196 419.05C366.196 427.713 366.196 437.338 351.192 446Z" fill="#D27D2E" stroke="black" stroke-width="4"/>
<path d="M573.296 393.21C572.209 376.479 579.955 352.03 597.789 348.445C600.329 347.935 602.519 349.979 602.747 352.56L606.066 390.119C606.143 390.995 605.641 391.825 604.814 392.125C598.736 394.333 592.233 394.959 575.247 394.998C574.225 395 573.363 394.23 573.296 393.21Z" fill="url(#paint5_linear)" stroke="black" stroke-width="3"/>
<path d="M1209.91 351.952L1218.5 353C1224 382 1224.5 409.5 1224.5 440.5H1215.74C1210.73 440.5 1206.51 436.819 1205.88 431.853C1204.16 418.138 1200.85 390.109 1198.8 362.467C1198.34 356.241 1203.71 351.196 1209.91 351.952Z" fill="#971D1D" stroke="black" stroke-width="4"/>
<path d="M1202 394.5H1224C1224.5 403.5 1224.5 404 1224.5 416H1206.1C1205.17 416 1204.35 415.351 1204.18 414.429C1203.38 410.095 1202.89 404.27 1202 394.5Z" fill="#D27D2E" stroke="black" stroke-width="4"/>
<circle cx="436" cy="570" r="90" fill="url(#paint6_radial)"/>
<circle cx="436" cy="570" r="63" fill="#E7E7E7"/>
<circle cx="436" cy="570" r="54" fill="url(#paint7_radial)"/>
<path fill-rule="evenodd" clip-rule="evenodd" d="M424.834 515C424.834 514.448 425.282 514 425.834 514H445.434C445.986 514 446.434 514.448 446.434 515V515C446.434 530.928 463.677 540.883 477.471 532.919L478.196 532.5C478.674 532.224 479.286 532.388 479.562 532.866L489.362 549.84C489.638 550.318 489.474 550.93 488.996 551.206V551.206C474.93 559.327 474.93 579.629 488.996 587.75V587.75C489.474 588.026 489.638 588.638 489.362 589.116L479.562 606.09C479.286 606.568 478.674 606.732 478.196 606.456V606.456C464.08 598.306 446.434 608.494 446.434 624.794V625.5C446.434 626.052 445.986 626.5 445.434 626.5L425.834 626.5C425.282 626.5 424.834 626.052 424.834 625.5V624.662C424.834 608.479 407.315 598.365 393.3 606.456V606.456C392.822 606.732 392.21 606.568 391.934 606.09L382.134 589.116C381.858 588.638 382.022 588.026 382.5 587.75V587.75C396.566 579.629 396.566 559.327 382.5 551.206V551.206C382.022 550.93 381.858 550.318 382.134 549.84L391.934 532.866C392.21 532.388 392.822 532.224 393.3 532.5L393.912 532.853C407.655 540.788 424.834 530.869 424.834 515V515Z" fill="url(#paint8_angular)"/>
<path fill-rule="evenodd" clip-rule="evenodd" d="M424.834 515C424.834 514.448 425.282 514 425.834 514H445.434C445.986 514 446.434 514.448 446.434 515V515C446.434 530.928 463.677 540.883 477.471 532.919L478.196 532.5C478.674 532.224 479.286 532.388 479.562 532.866L489.362 549.84C489.638 550.318 489.474 550.93 488.996 551.206V551.206C474.93 559.327 474.93 579.629 488.996 587.75V587.75C489.474 588.026 489.638 588.638 489.362 589.116L479.562 606.09C479.286 606.568 478.674 606.732 478.196 606.456V606.456C464.08 598.306 446.434 608.494 446.434 624.794V625.5C446.434 626.052 445.986 626.5 445.434 626.5L425.834 626.5C425.282 626.5 424.834 626.052 424.834 625.5V624.662C424.834 608.479 407.315 598.365 393.3 606.456V606.456C392.822 606.732 392.21 606.568 391.934 606.09L382.134 589.116C381.858 588.638 382.022 588.026 382.5 587.75V587.75C396.566 579.629 396.566 559.327 382.5 551.206V551.206C382.022 550.93 381.858 550.318 382.134 549.84L391.934 532.866C392.21 532.388 392.822 532.224 393.3 532.5L393.912 532.853C407.655 540.788 424.834 530.869 424.834 515V515Z" fill="#E7E7E7"/>
<rect x="427" y="516" width="18" height="108" fill="url(#paint9_linear)"/>
<rect x="478.265" y="535.206" width="18" height="108" transform="rotate(60 478.265 535.206)" fill="url(#paint10_linear)"/>
<rect x="487.265" y="589.206" width="18" height="108" transform="rotate(120 487.265 589.206)" fill="url(#paint11_linear)"/>
<circle cx="436" cy="570" r="26.5" fill="url(#paint12_radial)" stroke="#777777"/>
<circle cx="1098" cy="570" r="90" fill="url(#paint13_radial)"/>
<circle cx="1098" cy="570" r="63" fill="#E7E7E7"/>
<circle cx="1098" cy="570" r="54" fill="url(#paint14_radial)"/>
<path fill-rule="evenodd" clip-rule="evenodd" d="M1086.83 515C1086.83 514.448 1087.28 514 1087.83 514L1107.43 514C1107.99 514 1108.43 514.448 1108.43 515V515C1108.43 530.928 1125.68 540.883 1139.47 532.919L1140.2 532.5C1140.67 532.224 1141.29 532.388 1141.56 532.866L1151.36 549.84C1151.64 550.318 1151.47 550.93 1151 551.206V551.206C1136.93 559.327 1136.93 579.629 1151 587.75V587.75C1151.47 588.026 1151.64 588.638 1151.36 589.116L1141.56 606.09C1141.29 606.568 1140.67 606.732 1140.2 606.456V606.456C1126.08 598.306 1108.43 608.494 1108.43 624.794V625.5C1108.43 626.052 1107.99 626.5 1107.43 626.5L1087.83 626.5C1087.28 626.5 1086.83 626.052 1086.83 625.5V624.662C1086.83 608.479 1069.32 598.365 1055.3 606.456V606.456C1054.82 606.732 1054.21 606.568 1053.93 606.09L1044.13 589.116C1043.86 588.638 1044.02 588.026 1044.5 587.75V587.75C1058.57 579.629 1058.57 559.327 1044.5 551.206V551.206C1044.02 550.93 1043.86 550.318 1044.13 549.84L1053.93 532.866C1054.21 532.388 1054.82 532.224 1055.3 532.5L1055.91 532.853C1069.66 540.788 1086.83 530.869 1086.83 515V515Z" fill="url(#paint15_angular)"/>
<path fill-rule="evenodd" clip-rule="evenodd" d="M1086.83 515C1086.83 514.448 1087.28 514 1087.83 514L1107.43 514C1107.99 514 1108.43 514.448 1108.43 515V515C1108.43 530.928 1125.68 540.883 1139.47 532.919L1140.2 532.5C1140.67 532.224 1141.29 532.388 1141.56 532.866L1151.36 549.84C1151.64 550.318 1151.47 550.93 1151 551.206V551.206C1136.93 559.327 1136.93 579.629 1151 587.75V587.75C1151.47 588.026 1151.64 588.638 1151.36 589.116L1141.56 606.09C1141.29 606.568 1140.67 606.732 1140.2 606.456V606.456C1126.08 598.306 1108.43 608.494 1108.43 624.794V625.5C1108.43 626.052 1107.99 626.5 1107.43 626.5L1087.83 626.5C1087.28 626.5 1086.83 626.052 1086.83 625.5V624.662C1086.83 608.479 1069.32 598.365 1055.3 606.456V606.456C1054.82 606.732 1054.21 606.568 1053.93 606.09L1044.13 589.116C1043.86 588.638 1044.02 588.026 1044.5 587.75V587.75C1058.57 579.629 1058.57 559.327 1044.5 551.206V551.206C1044.02 550.93 1043.86 550.318 1044.13 549.84L1053.93 532.866C1054.21 532.388 1054.82 532.224 1055.3 532.5L1055.91 532.853C1069.66 540.788 1086.83 530.869 1086.83 515V515Z" fill="#E7E7E7"/>
<rect x="1089" y="516" width="18" height="108" fill="url(#paint16_linear)"/>
<rect x="1140.27" y="535.206" width="18" height="108" transform="rotate(60 1140.27 535.206)" fill="url(#paint17_linear)"/>
<rect x="1149.27" y="589.206" width="18" height="108" transform="rotate(120 1149.27 589.206)" fill="url(#paint18_linear)"/>
<circle cx="1098" cy="570" r="26.5" fill="url(#paint19_radial)" stroke="#777777"/>
<defs>
<linearGradient id="paint0_linear" x1="816.718" y1="441.5" x2="816.718" y2="593.499" gradientUnits="userSpaceOnUse">
<stop stop-color="#0E0907"/>
<stop offset="1" stop-color="#2D1710"/>
</linearGradient>
<linearGradient id="paint1_linear" x1="748.511" y1="224.5" x2="748.511" y2="593.499" gradientUnits="userSpaceOnUse">
<stop offset="0.490135" stop-color="#C7C7C7"/>
<stop offset="1" stop-color="#838383"/>
</linearGradient>
<linearGradient id="paint2_linear" x1="873.696" y1="403" x2="873.696" y2="437" gradientUnits="userSpaceOnUse">
<stop offset="0.520833" stop-color="#626262"/>
<stop offset="1" stop-color="#A6A6A6"/>
</linearGradient>
<radialGradient id="paint3_radial" cx="0" cy="0" r="1" gradientUnits="userSpaceOnUse" gradientTransform="translate(874.196 408.5) rotate(90) scale(13.5 36.2368)">
<stop stop-color="#454545"/>
<stop offset="1" stop-color="#181818"/>
</radialGradient>
<linearGradient id="paint4_linear" x1="285.196" y1="426.5" x2="387.196" y2="431" gradientUnits="userSpaceOnUse">
<stop stop-color="white"/>
<stop offset="1" stop-color="#CCCCCC"/>
</linearGradient>
<linearGradient id="paint5_linear" x1="588.104" y1="350.894" x2="595.061" y2="385.08" gradientUnits="userSpaceOnUse">
<stop stop-color="#929292"/>
<stop offset="1" stop-color="#585858"/>
</linearGradient>
<radialGradient id="paint6_radial" cx="0" cy="0" r="1" gradientUnits="userSpaceOnUse" gradientTransform="translate(436 570) rotate(90) scale(90)">
<stop offset="0.661458" stop-color="#111111"/>
<stop offset="1" stop-color="#333333"/>
</radialGradient>
<radialGradient id="paint7_radial" cx="0" cy="0" r="1" gradientUnits="userSpaceOnUse" gradientTransform="translate(436 570) rotate(90) scale(54)">
<stop stop-color="#1A110B"/>
<stop offset="1" stop-color="#3E2B1D"/>
</radialGradient>
<radialGradient id="paint8_angular" cx="0" cy="0" r="1" gradientUnits="userSpaceOnUse" gradientTransform="translate(435.72 569.8) rotate(90) scale(53.1 56.6346)">
<stop offset="0.465615" stop-color="#E7E7E7"/>
<stop offset="0.50067" stop-color="#C0C0C0"/>
<stop offset="0.534161" stop-color="#E7E7E7"/>
</radialGradient>
<linearGradient id="paint9_linear" x1="436" y1="516" x2="436" y2="624" gradientUnits="userSpaceOnUse">
<stop stop-color="#E7E7E7"/>
<stop offset="0.500163" stop-color="#C8C8C8"/>
<stop offset="1" stop-color="#E7E7E7"/>
</linearGradient>
<linearGradient id="paint10_linear" x1="487.265" y1="535.206" x2="487.265" y2="643.206" gradientUnits="userSpaceOnUse">
<stop stop-color="#E7E7E7"/>
<stop offset="0.500163" stop-color="#C8C8C8"/>
<stop offset="1" stop-color="#E7E7E7"/>
</linearGradient>
<linearGradient id="paint11_linear" x1="496.265" y1="589.206" x2="496.265" y2="697.206" gradientUnits="userSpaceOnUse">
<stop stop-color="#E7E7E7"/>
<stop offset="0.500163" stop-color="#C8C8C8"/>
<stop offset="1" stop-color="#E7E7E7"/>
</linearGradient>
<radialGradient id="paint12_radial" cx="0" cy="0" r="1" gradientUnits="userSpaceOnUse" gradientTransform="translate(436 570) rotate(90) scale(27)">
<stop stop-color="#E7E7E7"/>
<stop offset="0.609375" stop-color="#C8C8C8"/>
<stop offset="1" stop-color="#E7E7E7"/>
</radialGradient>
<radialGradient id="paint13_radial" cx="0" cy="0" r="1" gradientUnits="userSpaceOnUse" gradientTransform="translate(1098 570) rotate(90) scale(90)">
<stop offset="0.661458" stop-color="#111111"/>
<stop offset="1" stop-color="#333333"/>
</radialGradient>
<radialGradient id="paint14_radial" cx="0" cy="0" r="1" gradientUnits="userSpaceOnUse" gradientTransform="translate(1098 570) rotate(90) scale(54)">
<stop stop-color="#1A110B"/>
<stop offset="1" stop-color="#3E2B1D"/>
</radialGradient>
<radialGradient id="paint15_angular" cx="0" cy="0" r="1" gradientUnits="userSpaceOnUse" gradientTransform="translate(1097.72 569.8) rotate(90) scale(53.1 56.6346)">
<stop offset="0.465615" stop-color="#E7E7E7"/>
<stop offset="0.50067" stop-color="#C0C0C0"/>
<stop offset="0.534161" stop-color="#E7E7E7"/>
</radialGradient>
<linearGradient id="paint16_linear" x1="1098" y1="516" x2="1098" y2="624" gradientUnits="userSpaceOnUse">
<stop stop-color="#E7E7E7"/>
<stop offset="0.500163" stop-color="#C8C8C8"/>
<stop offset="1" stop-color="#E7E7E7"/>
</linearGradient>
<linearGradient id="paint17_linear" x1="1149.27" y1="535.206" x2="1149.27" y2="643.206" gradientUnits="userSpaceOnUse">
<stop stop-color="#E7E7E7"/>
<stop offset="0.500163" stop-color="#C8C8C8"/>
<stop offset="1" stop-color="#E7E7E7"/>
</linearGradient>
<linearGradient id="paint18_linear" x1="1158.27" y1="589.206" x2="1158.27" y2="697.206" gradientUnits="userSpaceOnUse">
<stop stop-color="#E7E7E7"/>
<stop offset="0.500163" stop-color="#C8C8C8"/>
<stop offset="1" stop-color="#E7E7E7"/>
</linearGradient>
<radialGradient id="paint19_radial" cx="0" cy="0" r="1" gradientUnits="userSpaceOnUse" gradientTransform="translate(1098 570) rotate(90) scale(27)">
<stop stop-color="#E7E7E7"/>
<stop offset="0.609375" stop-color="#C8C8C8"/>
<stop offset="1" stop-color="#E7E7E7"/>
</radialGradient>
</defs>
</svg>
