<svg width="1500" height="600" viewBox="0 0 1500 600" fill="none" xmlns="http://www.w3.org/2000/svg">
<path d="M323.468 533.5V396H1199.2V523L998.696 533.5H323.468Z" fill="url(#paint0_linear_113:342)"/>
<path fill-rule="evenodd" clip-rule="evenodd" d="M998.197 533.999H546.468H536.196V507C536.196 451.772 491.425 407 436.196 407C380.968 407 336.196 451.772 336.196 507V533.886L299.696 529.75L279.022 527.407C269.311 526.306 261.818 518.35 261.302 508.591L259.696 478.25L258.042 446.982C257.514 436.994 261.998 427.399 270 421.397L279.196 414.5C279.196 379.365 291.017 359.046 318.984 345.544C319.647 345.224 320.381 345.059 321.117 345.059H338.4C339.125 345.059 339.822 344.908 340.484 344.614C365.532 333.499 420.849 325.751 451.344 323.139C452.431 323.046 453.44 322.606 454.252 321.878L459.267 317.384C459.552 317.129 459.87 316.905 460.205 316.721C485.865 302.643 509.559 288.221 532.696 274.138C626.959 216.761 711.997 165 883.196 165C998.67 165 1025.61 165 1084.94 171.383C1094.43 172.405 1103.45 176.17 1110.74 182.337C1141.02 207.925 1192 254.34 1217.9 291.141C1218.3 291.714 1218.57 292.36 1218.7 293.049C1225.11 327.108 1225.2 355.258 1225.2 405.913C1225.2 407.159 1225.97 408.292 1227.13 408.735L1228.1 409.102C1235.87 412.05 1241 419.493 1241 427.8V503C1241 514.046 1232.05 523 1221 523H1199.2L1198.2 523.055V507C1198.2 451.772 1153.43 407 1098.2 407C1042.97 407 998.197 451.772 998.197 507V533.999ZM618.385 263.64C704.889 209.209 756.838 198.222 881.172 193.57C890.739 193.212 899.247 199.738 900.487 209.23C900.487 209.23 900.487 209.231 900.487 209.231C904.912 243.131 904.746 293.207 902.196 317H609.196V280.392C609.196 273.601 612.638 267.257 618.385 263.64ZM481.93 310.5H472.696C490.265 300.063 506.547 290.187 521.906 280.87C594.849 236.623 646.981 204.999 717.196 186V190.847C717.196 192.134 716.379 193.275 715.163 193.693C648.486 216.595 581.913 257.273 508.32 302.969C500.399 307.888 491.255 310.5 481.93 310.5ZM932.455 204.697C937.196 251.221 937.196 283.256 937.196 317H1059.7C1088.06 319.239 1095.25 253.516 1097.08 220.033C1097.66 209.377 1089.32 200.597 1078.66 200.085L942.935 193.564C936.78 193.268 931.831 198.567 932.455 204.697Z" fill="url(#paint1_linear_113:342)"/>
<path d="M998.197 533.999V536.499H1000.7V533.999H998.197ZM536.196 533.999H533.696V536.499H536.196V533.999ZM336.196 533.886L335.915 536.37L338.696 536.685V533.886H336.196ZM299.696 529.75L299.978 527.266L299.978 527.266L299.696 529.75ZM279.022 527.407L278.74 529.891L278.74 529.891L279.022 527.407ZM261.302 508.591L258.805 508.723L258.805 508.723L261.302 508.591ZM259.696 478.25L262.193 478.118L262.193 478.118L259.696 478.25ZM258.042 446.982L260.539 446.85L260.539 446.85L258.042 446.982ZM270 421.397L271.5 423.397L271.5 423.397L270 421.397ZM279.196 414.5L280.696 416.5L281.696 415.75V414.5H279.196ZM318.984 345.544L320.071 347.795L320.071 347.795L318.984 345.544ZM340.484 344.614L339.47 342.329L339.47 342.329L340.484 344.614ZM451.344 323.139L451.13 320.648L451.13 320.648L451.344 323.139ZM454.252 321.878L452.584 320.016L452.584 320.016L454.252 321.878ZM459.267 317.384L457.599 315.522L457.599 315.522L459.267 317.384ZM460.205 316.721L461.408 318.913L461.408 318.913L460.205 316.721ZM532.696 274.138L531.396 272.002L531.396 272.002L532.696 274.138ZM1084.94 171.383L1084.67 173.869L1084.67 173.869L1084.94 171.383ZM1110.74 182.337L1109.13 184.246L1109.13 184.246L1110.74 182.337ZM1217.9 291.141L1215.85 292.58L1215.85 292.58L1217.9 291.141ZM1218.7 293.049L1221.16 292.587L1221.16 292.587L1218.7 293.049ZM1225.2 405.913L1227.7 405.913L1227.7 405.913L1225.2 405.913ZM1227.13 408.735L1228.02 406.397L1228.02 406.397L1227.13 408.735ZM1228.1 409.102L1227.21 411.439L1227.21 411.439L1228.1 409.102ZM1199.2 523V520.5H1199.13L1199.06 520.504L1199.2 523ZM1198.2 523.055H1195.7V525.696L1198.33 525.551L1198.2 523.055ZM881.172 193.57L881.266 196.069L881.266 196.069L881.172 193.57ZM618.385 263.64L617.053 261.524L617.053 261.524L618.385 263.64ZM900.487 209.23H902.987V209.067L902.966 208.906L900.487 209.23ZM900.487 209.231H897.987V209.393L898.008 209.554L900.487 209.231ZM902.196 317V319.5H904.443L904.682 317.266L902.196 317ZM609.196 317H606.696V319.5H609.196V317ZM472.696 310.5L471.42 308.351L463.593 313H472.696V310.5ZM521.906 280.87L520.61 278.732L520.61 278.732L521.906 280.87ZM717.196 186H719.696V182.734L716.543 183.587L717.196 186ZM715.163 193.693L714.35 191.329L714.35 191.329L715.163 193.693ZM508.32 302.969L509.639 305.093L509.639 305.093L508.32 302.969ZM937.196 317H934.696V319.5H937.196V317ZM932.455 204.697L929.968 204.95L929.968 204.95L932.455 204.697ZM1059.7 317L1059.89 314.508L1059.79 314.5H1059.7V317ZM1097.08 220.033L1094.58 219.897L1094.58 219.897L1097.08 220.033ZM1078.66 200.085L1078.54 202.582L1078.54 202.582L1078.66 200.085ZM942.935 193.564L942.815 196.061L942.815 196.061L942.935 193.564ZM546.468 536.499H998.197V531.499H546.468V536.499ZM536.196 536.499H546.468V531.499H536.196V536.499ZM533.696 507V533.999H538.696V507H533.696ZM436.196 409.5C490.044 409.5 533.696 453.152 533.696 507H538.696C538.696 450.391 492.806 404.5 436.196 404.5V409.5ZM338.696 507C338.696 453.152 382.349 409.5 436.196 409.5V404.5C379.587 404.5 333.696 450.391 333.696 507H338.696ZM338.696 533.886V507H333.696V533.886H338.696ZM299.415 532.234L335.915 536.37L336.478 531.402L299.978 527.266L299.415 532.234ZM278.74 529.891L299.415 532.234L299.978 527.266L279.303 524.923L278.74 529.891ZM258.805 508.723C259.386 519.701 267.816 528.653 278.74 529.891L279.303 524.923C270.807 523.96 264.25 516.998 263.798 508.459L258.805 508.723ZM257.2 478.382L258.805 508.723L263.798 508.459L262.193 478.118L257.2 478.382ZM255.546 447.114L257.2 478.382L262.193 478.118L260.539 446.85L255.546 447.114ZM268.5 419.397C259.831 425.899 254.973 436.293 255.546 447.114L260.539 446.85C260.054 437.694 264.165 428.899 271.5 423.397L268.5 419.397ZM277.696 412.5L268.5 419.397L271.5 423.397L280.696 416.5L277.696 412.5ZM317.897 343.292C303.582 350.203 293.199 358.963 286.438 370.658C279.694 382.325 276.696 396.668 276.696 414.5H281.696C281.696 397.198 284.609 383.813 290.767 373.161C296.908 362.537 306.419 354.386 320.071 347.795L317.897 343.292ZM321.117 342.559C320.014 342.559 318.906 342.805 317.897 343.292L320.071 347.795C320.387 347.643 320.749 347.559 321.117 347.559V342.559ZM338.4 342.559H321.117V347.559H338.4V342.559ZM339.47 342.329C339.118 342.485 338.766 342.559 338.4 342.559V347.559C339.483 347.559 340.525 347.331 341.498 346.899L339.47 342.329ZM451.13 320.648C435.816 321.96 414.29 324.559 393.438 328.226C372.653 331.881 352.297 336.637 339.47 342.329L341.498 346.899C353.719 341.476 373.545 336.801 394.304 333.15C414.997 329.511 436.377 326.93 451.557 325.63L451.13 320.648ZM452.584 320.016C452.171 320.386 451.672 320.602 451.13 320.648L451.557 325.63C453.19 325.49 454.708 324.826 455.921 323.74L452.584 320.016ZM457.599 315.522L452.584 320.016L455.921 323.74L460.936 319.246L457.599 315.522ZM459.003 314.529C458.503 314.804 458.029 315.138 457.599 315.522L460.936 319.246C461.076 319.12 461.237 319.006 461.408 318.913L459.003 314.529ZM531.396 272.002C508.253 286.089 484.606 300.483 459.003 314.529L461.408 318.913C487.125 304.804 510.864 290.353 533.996 276.273L531.396 272.002ZM883.196 162.5C711.3 162.5 625.779 214.553 531.396 272.002L533.996 276.273C628.139 218.97 712.694 167.5 883.196 167.5V162.5ZM1085.2 168.897C1025.72 162.498 998.653 162.5 883.196 162.5V167.5C998.687 167.5 1025.49 167.502 1084.67 173.869L1085.2 168.897ZM1112.36 180.427C1104.67 173.928 1095.18 169.971 1085.2 168.897L1084.67 173.869C1093.69 174.839 1102.23 178.411 1109.13 184.246L1112.36 180.427ZM1219.94 289.702C1193.84 252.611 1142.63 206.013 1112.36 180.427L1109.13 184.246C1139.41 209.837 1190.16 256.07 1215.85 292.58L1219.94 289.702ZM1221.16 292.587C1220.96 291.559 1220.56 290.578 1219.94 289.702L1215.85 292.58C1216.04 292.85 1216.18 293.161 1216.24 293.511L1221.16 292.587ZM1227.7 405.913C1227.7 355.297 1227.62 326.913 1221.16 292.587L1216.24 293.511C1222.6 327.303 1222.7 355.22 1222.7 405.913L1227.7 405.913ZM1228.02 406.397C1227.84 406.329 1227.7 406.137 1227.7 405.913H1222.7C1222.7 408.181 1224.09 410.255 1226.24 411.072L1228.02 406.397ZM1228.99 406.765L1228.02 406.397L1226.24 411.072L1227.21 411.439L1228.99 406.765ZM1243.5 427.8C1243.5 418.454 1237.72 410.082 1228.99 406.765L1227.21 411.439C1234.01 414.019 1238.5 420.531 1238.5 427.8H1243.5ZM1243.5 503V427.8H1238.5V503H1243.5ZM1221 525.5C1233.43 525.5 1243.5 515.426 1243.5 503H1238.5C1238.5 512.665 1230.67 520.5 1221 520.5V525.5ZM1199.2 525.5H1221V520.5H1199.2V525.5ZM1198.33 525.551L1199.33 525.496L1199.06 520.504L1198.06 520.559L1198.33 525.551ZM1195.7 507V523.055H1200.7V507H1195.7ZM1098.2 409.5C1152.04 409.5 1195.7 453.152 1195.7 507H1200.7C1200.7 450.391 1154.81 404.5 1098.2 404.5V409.5ZM1000.7 507C1000.7 453.152 1044.35 409.5 1098.2 409.5V404.5C1041.59 404.5 995.697 450.391 995.697 507H1000.7ZM1000.7 533.999V507H995.697V533.999H1000.7ZM881.079 191.072C818.884 193.399 774.586 197.314 734.969 207.517C695.3 217.733 660.445 234.221 617.053 261.524L619.716 265.756C662.828 238.629 697.2 222.407 736.216 212.359C775.282 202.298 819.127 198.394 881.266 196.069L881.079 191.072ZM902.966 208.906C901.542 198.008 891.805 190.671 881.079 191.072L881.266 196.069C889.673 195.754 896.952 201.468 898.008 209.554L902.966 208.906ZM902.987 209.231C902.987 209.143 902.982 209.066 902.976 209.001C902.97 208.937 902.963 208.882 902.956 208.841C902.953 208.82 902.95 208.801 902.947 208.786C902.944 208.77 902.941 208.757 902.939 208.746C902.937 208.736 902.936 208.728 902.935 208.723C902.934 208.721 902.934 208.719 902.934 208.717C902.933 208.717 902.933 208.716 902.933 208.716C902.933 208.716 902.933 208.716 902.933 208.716C902.933 208.716 902.933 208.715 902.933 208.715C902.933 208.715 902.933 208.715 902.933 208.715C902.933 208.715 902.933 208.715 902.933 208.715C902.933 208.715 902.934 208.719 902.935 208.723C902.936 208.728 902.937 208.736 902.939 208.746C902.941 208.756 902.944 208.77 902.947 208.785C902.95 208.801 902.953 208.819 902.956 208.84C902.963 208.882 902.97 208.937 902.976 209.001C902.982 209.065 902.987 209.143 902.987 209.23H897.987C897.987 209.317 897.991 209.395 897.997 209.459C898.003 209.524 898.011 209.578 898.017 209.62C898.021 209.641 898.024 209.66 898.027 209.675C898.029 209.691 898.032 209.704 898.034 209.714C898.036 209.725 898.038 209.733 898.039 209.738C898.039 209.74 898.04 209.742 898.04 209.744C898.04 209.744 898.04 209.745 898.04 209.745C898.04 209.745 898.04 209.745 898.04 209.745C898.04 209.745 898.04 209.745 898.04 209.745C898.04 209.745 898.04 209.745 898.04 209.745C898.04 209.745 898.04 209.745 898.04 209.745C898.041 209.746 898.04 209.742 898.039 209.738C898.038 209.733 898.036 209.725 898.034 209.715C898.032 209.704 898.03 209.691 898.027 209.676C898.024 209.66 898.021 209.642 898.017 209.621C898.011 209.579 898.003 209.524 897.997 209.46C897.991 209.396 897.987 209.318 897.987 209.231H902.987ZM904.682 317.266C907.252 293.283 907.417 243.009 902.966 208.907L898.008 209.554C902.407 243.253 902.24 293.131 899.711 316.734L904.682 317.266ZM609.196 319.5H902.196V314.5H609.196V319.5ZM606.696 280.392V317H611.696V280.392H606.696ZM617.053 261.524C610.565 265.607 606.696 272.758 606.696 280.392H611.696C611.696 274.445 614.71 268.907 619.716 265.756L617.053 261.524ZM472.696 313H481.93V308H472.696V313ZM520.61 278.732C505.249 288.05 488.976 297.921 471.42 308.351L473.973 312.649C491.553 302.206 507.844 292.324 523.203 283.007L520.61 278.732ZM716.543 183.587C645.935 202.693 593.511 234.51 520.61 278.732L523.203 283.007C596.187 238.735 648.028 207.306 717.849 188.413L716.543 183.587ZM719.696 190.847V186H714.696V190.847H719.696ZM715.975 196.057C718.198 195.294 719.696 193.205 719.696 190.847H714.696C714.696 191.063 714.561 191.256 714.35 191.329L715.975 196.057ZM509.639 305.093C583.282 259.366 649.612 218.852 715.975 196.057L714.35 191.329C647.359 214.339 580.544 255.18 507.001 300.845L509.639 305.093ZM481.93 313C491.722 313 501.322 310.257 509.639 305.093L507.001 300.845C499.475 305.518 490.788 308 481.93 308V313ZM939.696 317C939.696 283.242 939.697 251.101 934.942 204.443L929.968 204.95C934.696 251.341 934.696 283.27 934.696 317H939.696ZM1059.7 314.5H937.196V319.5H1059.7V314.5ZM1094.58 219.897C1093.67 236.597 1091.43 261.181 1085.93 281.252C1083.17 291.308 1079.66 300.014 1075.23 306.02C1070.84 311.978 1065.82 314.976 1059.89 314.508L1059.5 319.492C1067.75 320.144 1074.26 315.766 1079.26 308.985C1084.22 302.25 1087.93 292.853 1090.75 282.573C1096.39 261.971 1098.66 236.953 1099.57 220.169L1094.58 219.897ZM1078.54 202.582C1087.89 203.032 1095.08 210.7 1094.58 219.897L1099.57 220.169C1100.23 208.054 1090.75 198.163 1078.78 197.588L1078.54 202.582ZM942.815 196.061L1078.54 202.582L1078.78 197.588L943.055 191.067L942.815 196.061ZM934.942 204.443C934.47 199.811 938.211 195.84 942.815 196.061L943.055 191.067C935.349 190.697 929.191 197.323 929.968 204.95L934.942 204.443Z" fill="black"/>
<path d="M1218.5 292H1207.53C1205.94 292 1204.44 291.24 1203.5 289.963C1170.28 245.248 1130.54 207.757 1097.38 182.5C1095.07 180.741 1096.31 177 1099.21 177H1099.5C1109.5 180.5 1188.5 248 1218.5 292Z" fill="#C4C4C4" stroke="black" stroke-width="3"/>
<path d="M460 316.5L456.786 320.518C455.013 322.734 452.383 324.085 449.552 324.289C437.906 325.132 418.907 327.126 395.35 331.5C378.959 334.543 360.362 338.739 340.5 344.5H319.5C338.731 335.45 364.362 329.279 392.5 324.721C414.108 321.221 437.196 318.672 460 316.5Z" fill="#C6C6C6" stroke="black" stroke-width="3"/>
<path fill-rule="evenodd" clip-rule="evenodd" d="M561.387 329H922.196H1072.15C1078.75 329 1085.02 325.801 1088.19 320.009C1105.78 287.841 1112.44 240.277 1108.4 208.383C1106.94 196.92 1096.88 189.308 1085.36 188.432C1028.55 184.115 961.433 182.5 892.696 182.5C751.473 178.025 630.031 225.477 564.768 288.46C564.061 289.142 563.586 290.012 563.379 290.972L556.499 322.948C555.829 326.062 558.202 329 561.387 329ZM932.455 204.697C937.196 251.221 937.196 283.256 937.196 317H1059.7C1088.06 319.239 1095.25 253.516 1097.08 220.033C1097.66 209.377 1089.32 200.597 1078.66 200.085L942.935 193.564C936.78 193.268 931.831 198.567 932.455 204.697ZM618.385 263.64C704.888 209.209 756.838 198.222 881.172 193.57C890.739 193.212 899.247 199.738 900.487 209.231C904.912 243.131 904.746 293.207 902.196 317H609.196V280.392C609.196 273.601 612.637 267.257 618.385 263.64Z" fill="#545454"/>
<path d="M1088.19 320.009L1089.5 320.729V320.729L1088.19 320.009ZM1108.4 208.383L1109.89 208.194V208.194L1108.4 208.383ZM1085.36 188.432L1085.47 186.936L1085.36 188.432ZM892.696 182.5L892.649 183.999L892.673 184H892.696V182.5ZM564.768 288.46L563.726 287.38L563.726 287.38L564.768 288.46ZM563.379 290.972L564.846 291.288H564.846L563.379 290.972ZM556.499 322.948L555.032 322.633H555.032L556.499 322.948ZM937.196 317H935.696V318.5H937.196V317ZM932.455 204.697L930.963 204.849V204.849L932.455 204.697ZM1059.7 317L1059.81 315.505L1059.76 315.5H1059.7V317ZM1097.08 220.033L1098.57 220.115L1097.08 220.033ZM1078.66 200.085L1078.73 198.587L1078.66 200.085ZM942.935 193.564L942.863 195.062L942.935 193.564ZM881.172 193.57L881.116 192.071L881.172 193.57ZM618.385 263.64L619.184 264.91L618.385 263.64ZM900.487 209.231L901.974 209.037V209.037L900.487 209.231ZM902.196 317V318.5H903.544L903.688 317.16L902.196 317ZM609.196 317H607.696V318.5H609.196V317ZM922.196 327.5H561.387V330.5H922.196V327.5ZM1072.15 327.5H922.196V330.5H1072.15V327.5ZM1086.87 319.289C1084.01 324.531 1078.28 327.5 1072.15 327.5V330.5C1079.21 330.5 1086.04 327.071 1089.5 320.729L1086.87 319.289ZM1106.91 208.572C1110.92 240.195 1104.29 287.434 1086.87 319.289L1089.5 320.729C1107.27 288.248 1113.97 240.359 1109.89 208.194L1106.91 208.572ZM1085.24 189.928C1096.23 190.763 1105.57 197.977 1106.91 208.572L1109.89 208.194C1108.32 195.862 1097.53 187.853 1085.47 186.936L1085.24 189.928ZM892.696 184C961.415 184 1028.49 185.614 1085.24 189.928L1085.47 186.936C1028.62 182.615 961.451 181 892.696 181V184ZM565.809 289.539C630.723 226.893 751.742 179.534 892.649 183.999L892.744 181.001C751.204 176.515 629.339 224.06 563.726 287.38L565.809 289.539ZM564.846 291.288C564.992 290.61 565.323 290.008 565.809 289.539L563.726 287.38C562.799 288.275 562.18 289.414 561.913 290.657L564.846 291.288ZM557.965 323.264L564.846 291.288L561.913 290.657L555.032 322.633L557.965 323.264ZM561.387 327.5C559.157 327.5 557.496 325.443 557.965 323.264L555.032 322.633C554.161 326.68 557.246 330.5 561.387 330.5V327.5ZM938.696 317C938.696 283.247 938.697 251.149 933.948 204.545L930.963 204.849C935.696 251.293 935.696 283.264 935.696 317H938.696ZM1059.7 315.5H937.196V318.5H1059.7V315.5ZM1095.58 219.952C1094.67 236.668 1092.42 261.339 1086.89 281.516C1084.12 291.617 1080.57 300.462 1076.04 306.613C1071.53 312.736 1066.21 316.009 1059.81 315.505L1059.58 318.495C1067.37 319.11 1073.58 315.008 1078.45 308.392C1083.31 301.803 1086.98 292.544 1089.78 282.309C1095.4 261.813 1097.66 236.882 1098.57 220.115L1095.58 219.952ZM1078.58 201.584C1088.46 202.058 1096.11 210.17 1095.58 219.952L1098.57 220.115C1099.2 208.583 1090.17 199.137 1078.73 198.587L1078.58 201.584ZM942.863 195.062L1078.58 201.584L1078.73 198.587L943.007 192.066L942.863 195.062ZM933.948 204.545C933.414 199.313 937.639 194.811 942.863 195.062L943.007 192.066C935.922 191.725 930.247 197.821 930.963 204.849L933.948 204.545ZM881.116 192.071C818.932 194.398 774.725 198.311 735.218 208.486C695.68 218.668 660.922 235.102 617.586 262.371L619.184 264.91C662.351 237.747 696.82 221.472 735.966 211.391C775.143 201.301 819.078 197.395 881.228 195.069L881.116 192.071ZM901.974 209.037C900.625 198.7 891.378 191.687 881.116 192.071L881.228 195.069C890.099 194.737 897.87 200.776 898.999 209.425L901.974 209.037ZM903.688 317.16C906.249 293.253 906.415 243.058 901.974 209.037L898.999 209.425C903.409 243.204 903.242 293.162 900.705 316.84L903.688 317.16ZM609.196 318.5H902.196V315.5H609.196V318.5ZM607.696 280.392V317H610.696V280.392H607.696ZM617.586 262.371C611.394 266.267 607.696 273.095 607.696 280.392H610.696C610.696 274.107 613.881 268.247 619.184 264.91L617.586 262.371Z" fill="black"/>
<path d="M1225.2 407.5H1100.2" stroke="black" stroke-width="4"/>
<path d="M277.696 414H400.196" stroke="black" stroke-width="4"/>
<path d="M577.696 514.5C555.224 514.5 551.207 479.588 551.196 348.494C551.196 348.172 551.227 347.841 551.289 347.526L562.372 290.663C562.582 289.584 563.147 288.599 563.972 287.874C655.749 207.27 769.216 182.5 881.438 182.5C924.196 182.5 917.4 203.3 921 328.5C928.333 383.167 938.196 514.5 891.196 514.5H577.696Z" stroke="black" stroke-width="4"/>
<path d="M848.196 363.067C848.196 380 899.196 380 899.196 363.067L899.196 354.5H848.196V363.067Z" fill="url(#paint2_linear_113:342)" stroke="black" stroke-width="3"/>
<path d="M848.196 355.547V361.474C862.335 361.871 892.329 362.426 899.196 361.474V355.547C899.196 346 889.191 343 873.444 343C857.696 343 848.196 346 848.196 355.547Z" fill="url(#paint3_radial_113:342)" stroke="black" stroke-width="3"/>
<path d="M366.696 358C368.696 378 357.196 397 281.196 397C281.196 380 298.196 350 319.696 347C358.796 347 365.146 342.5 366.696 358Z" fill="url(#paint4_linear_113:342)" stroke="black" stroke-width="4"/>
<path d="M351.192 386C347.439 383.433 346.963 363.381 351.192 347.044C361.036 346.538 366.196 350.388 366.196 359.05C366.196 367.713 366.196 377.338 351.192 386Z" fill="#D27D2E" stroke="black" stroke-width="4"/>
<path d="M573.296 333.21C572.209 316.479 579.955 292.03 597.789 288.445C600.329 287.935 602.519 289.979 602.747 292.56L606.066 330.119C606.143 330.995 605.641 331.825 604.814 332.125C598.736 334.333 592.233 334.959 575.247 334.998C574.225 335 573.363 334.23 573.296 333.21Z" fill="url(#paint5_linear_113:342)" stroke="black" stroke-width="3"/>
<path d="M1209.91 291.952L1218.5 293C1224 322 1224.5 349.5 1224.5 380.5H1215.74C1210.73 380.5 1206.51 376.819 1205.88 371.853C1204.16 358.138 1200.85 330.109 1198.8 302.467C1198.34 296.241 1203.71 291.196 1209.91 291.952Z" fill="#971D1D" stroke="black" stroke-width="4"/>
<path d="M1202 334.5H1224C1224.5 343.5 1224.5 344 1224.5 356H1206.1C1205.17 356 1204.35 355.351 1204.18 354.429C1203.38 350.095 1202.89 344.27 1202 334.5Z" fill="#D27D2E" stroke="black" stroke-width="4"/>
<path d="M347 510C347 559.706 386.216 600 435.701 600H436V420H435.701C386.216 420 347 460.294 347 510Z" fill="#1C1C1C"/>
<circle cx="436" cy="510" r="90" fill="url(#paint6_radial_113:342)"/>
<circle cx="436" cy="510" r="63" fill="#E7E7E7"/>
<circle cx="436" cy="510" r="54" fill="url(#paint7_radial_113:342)"/>
<path fill-rule="evenodd" clip-rule="evenodd" d="M424.834 455C424.834 454.448 425.282 454 425.834 454H445.434C445.986 454 446.434 454.448 446.434 455V455C446.434 470.928 463.677 480.883 477.47 472.919L478.196 472.5C478.674 472.224 479.286 472.388 479.562 472.866L489.362 489.84C489.638 490.318 489.474 490.93 488.996 491.206V491.206C474.93 499.327 474.93 519.629 488.996 527.75V527.75C489.474 528.026 489.638 528.638 489.362 529.116L479.562 546.09C479.286 546.568 478.674 546.732 478.196 546.456V546.456C464.08 538.306 446.434 548.494 446.434 564.794V565.5C446.434 566.052 445.986 566.5 445.434 566.5H425.834C425.282 566.5 424.834 566.052 424.834 565.5V564.662C424.834 548.479 407.315 538.365 393.3 546.456V546.456C392.822 546.732 392.21 546.568 391.934 546.09L382.134 529.116C381.858 528.638 382.022 528.026 382.5 527.75V527.75C396.566 519.629 396.566 499.327 382.5 491.206V491.206C382.022 490.93 381.858 490.318 382.134 489.84L391.934 472.866C392.21 472.388 392.822 472.224 393.3 472.5L393.912 472.853C407.655 480.788 424.834 470.869 424.834 455V455Z" fill="url(#paint8_angular_113:342)"/>
<path fill-rule="evenodd" clip-rule="evenodd" d="M424.834 455C424.834 454.448 425.282 454 425.834 454H445.434C445.986 454 446.434 454.448 446.434 455V455C446.434 470.928 463.677 480.883 477.47 472.919L478.196 472.5C478.674 472.224 479.286 472.388 479.562 472.866L489.362 489.84C489.638 490.318 489.474 490.93 488.996 491.206V491.206C474.93 499.327 474.93 519.629 488.996 527.75V527.75C489.474 528.026 489.638 528.638 489.362 529.116L479.562 546.09C479.286 546.568 478.674 546.732 478.196 546.456V546.456C464.08 538.306 446.434 548.494 446.434 564.794V565.5C446.434 566.052 445.986 566.5 445.434 566.5H425.834C425.282 566.5 424.834 566.052 424.834 565.5V564.662C424.834 548.479 407.315 538.365 393.3 546.456V546.456C392.822 546.732 392.21 546.568 391.934 546.09L382.134 529.116C381.858 528.638 382.022 528.026 382.5 527.75V527.75C396.566 519.629 396.566 499.327 382.5 491.206V491.206C382.022 490.93 381.858 490.318 382.134 489.84L391.934 472.866C392.21 472.388 392.822 472.224 393.3 472.5L393.912 472.853C407.655 480.788 424.834 470.869 424.834 455V455Z" fill="#E7E7E7"/>
<rect x="427" y="456" width="18" height="108" fill="url(#paint9_linear_113:342)"/>
<rect x="478.265" y="475.206" width="18" height="108" transform="rotate(60 478.265 475.206)" fill="url(#paint10_linear_113:342)"/>
<rect x="487.265" y="529.206" width="18" height="108" transform="rotate(120 487.265 529.206)" fill="url(#paint11_linear_113:342)"/>
<circle cx="436" cy="510" r="26.5" fill="url(#paint12_radial_113:342)" stroke="#777777"/>
<circle cx="1098" cy="510" r="90" fill="url(#paint13_radial_113:342)"/>
<circle cx="1098" cy="510" r="63" fill="#E7E7E7"/>
<circle cx="1098" cy="510" r="54" fill="url(#paint14_radial_113:342)"/>
<path fill-rule="evenodd" clip-rule="evenodd" d="M1086.83 455C1086.83 454.448 1087.28 454 1087.83 454H1107.43C1107.99 454 1108.43 454.448 1108.43 455V455C1108.43 470.928 1125.68 480.883 1139.47 472.919L1140.2 472.5C1140.67 472.224 1141.29 472.388 1141.56 472.866L1151.36 489.84C1151.64 490.318 1151.47 490.93 1151 491.206V491.206C1136.93 499.327 1136.93 519.629 1151 527.75V527.75C1151.47 528.026 1151.64 528.638 1151.36 529.116L1141.56 546.09C1141.29 546.568 1140.67 546.732 1140.2 546.456V546.456C1126.08 538.306 1108.43 548.494 1108.43 564.794V565.5C1108.43 566.052 1107.99 566.5 1107.43 566.5H1087.83C1087.28 566.5 1086.83 566.052 1086.83 565.5V564.662C1086.83 548.479 1069.32 538.365 1055.3 546.456V546.456C1054.82 546.732 1054.21 546.568 1053.93 546.09L1044.13 529.116C1043.86 528.638 1044.02 528.026 1044.5 527.75V527.75C1058.57 519.629 1058.57 499.327 1044.5 491.206V491.206C1044.02 490.93 1043.86 490.318 1044.13 489.84L1053.93 472.866C1054.21 472.388 1054.82 472.224 1055.3 472.5L1055.91 472.853C1069.66 480.788 1086.83 470.869 1086.83 455V455Z" fill="url(#paint15_angular_113:342)"/>
<path fill-rule="evenodd" clip-rule="evenodd" d="M1086.83 455C1086.83 454.448 1087.28 454 1087.83 454H1107.43C1107.99 454 1108.43 454.448 1108.43 455V455C1108.43 470.928 1125.68 480.883 1139.47 472.919L1140.2 472.5C1140.67 472.224 1141.29 472.388 1141.56 472.866L1151.36 489.84C1151.64 490.318 1151.47 490.93 1151 491.206V491.206C1136.93 499.327 1136.93 519.629 1151 527.75V527.75C1151.47 528.026 1151.64 528.638 1151.36 529.116L1141.56 546.09C1141.29 546.568 1140.67 546.732 1140.2 546.456V546.456C1126.08 538.306 1108.43 548.494 1108.43 564.794V565.5C1108.43 566.052 1107.99 566.5 1107.43 566.5H1087.83C1087.28 566.5 1086.83 566.052 1086.83 565.5V564.662C1086.83 548.479 1069.32 538.365 1055.3 546.456V546.456C1054.82 546.732 1054.21 546.568 1053.93 546.09L1044.13 529.116C1043.86 528.638 1044.02 528.026 1044.5 527.75V527.75C1058.57 519.629 1058.57 499.327 1044.5 491.206V491.206C1044.02 490.93 1043.86 490.318 1044.13 489.84L1053.93 472.866C1054.21 472.388 1054.82 472.224 1055.3 472.5L1055.91 472.853C1069.66 480.788 1086.83 470.869 1086.83 455V455Z" fill="#E7E7E7"/>
<rect x="1089" y="456" width="18" height="108" fill="url(#paint16_linear_113:342)"/>
<rect x="1140.27" y="475.206" width="18" height="108" transform="rotate(60 1140.27 475.206)" fill="url(#paint17_linear_113:342)"/>
<rect x="1149.27" y="529.206" width="18" height="108" transform="rotate(120 1149.27 529.206)" fill="url(#paint18_linear_113:342)"/>
<circle cx="1098" cy="510" r="26.5" fill="url(#paint19_radial_113:342)" stroke="#777777"/>
<circle cx="404" cy="365" r="15" fill="#FFB800"/>
<path fill-rule="evenodd" clip-rule="evenodd" d="M419 365C419 373.284 412.284 380 404 380V365H419ZM389 365H404V350C395.716 350 389 356.716 389 365Z" fill="black"/>
<circle cx="641" cy="365" r="15" fill="#FFB800"/>
<path fill-rule="evenodd" clip-rule="evenodd" d="M656 365C656 373.284 649.284 380 641 380V365H656ZM626 365H641V350C632.716 350 626 356.716 626 365Z" fill="black"/>
<circle cx="807" cy="365" r="15" fill="#FFB800"/>
<path fill-rule="evenodd" clip-rule="evenodd" d="M822 365C822 373.284 815.284 380 807 380V365H822ZM792 365H807V350C798.716 350 792 356.716 792 365Z" fill="black"/>
<circle cx="514" cy="365" r="15" fill="#FFB800"/>
<path fill-rule="evenodd" clip-rule="evenodd" d="M529 365C529 373.284 522.284 380 514 380V365H529ZM499 365H514V350C505.716 350 499 356.716 499 365Z" fill="black"/>
<circle cx="956" cy="365" r="15" fill="#FFB800"/>
<path fill-rule="evenodd" clip-rule="evenodd" d="M971 365C971 373.284 964.284 380 956 380V365H971ZM941 365H956V350C947.716 350 941 356.716 941 365Z" fill="black"/>
<circle cx="1066" cy="365" r="15" fill="#FFB800"/>
<path fill-rule="evenodd" clip-rule="evenodd" d="M1081 365C1081 373.284 1074.28 380 1066 380V365H1081ZM1051 365H1066V350C1057.72 350 1051 356.716 1051 365Z" fill="black"/>
<circle cx="1177" cy="365" r="15" fill="#FFB800"/>
<path fill-rule="evenodd" clip-rule="evenodd" d="M1192 365C1192 373.284 1185.28 380 1177 380V365H1192ZM1162 365H1177V350C1168.72 350 1162 356.716 1162 365Z" fill="black"/>
<circle cx="729.5" cy="443.5" r="62.5" fill="#FFB800"/>
<path fill-rule="evenodd" clip-rule="evenodd" d="M792 443.5C792 478.018 764.018 506 729.5 506V443.5H792ZM667 443.5H729.5V381C694.982 381 667 408.982 667 443.5Z" fill="black"/>
<path d="M693.947 427.398C693.947 427.111 694.002 426.841 694.111 426.588C694.22 426.328 694.371 426.106 694.562 425.921C694.754 425.73 694.976 425.58 695.229 425.47C695.488 425.354 695.762 425.296 696.049 425.296H704.026C704.314 425.296 704.584 425.354 704.837 425.47C705.096 425.58 705.322 425.73 705.513 425.921C705.705 426.106 705.855 426.328 705.964 426.588C706.074 426.841 706.129 427.111 706.129 427.398V429.295H704.026V427.398H696.049V437.898H704.026V436.011H706.129V437.898C706.129 438.185 706.074 438.458 705.964 438.718C705.855 438.971 705.705 439.193 705.513 439.385C705.322 439.576 705.096 439.727 704.837 439.836C704.584 439.945 704.314 440 704.026 440H696.049C695.762 440 695.488 439.945 695.229 439.836C694.976 439.727 694.754 439.576 694.562 439.385C694.371 439.193 694.22 438.971 694.111 438.718C694.002 438.458 693.947 438.185 693.947 437.898V427.398ZM725.309 430.546C725.309 432.597 724.434 433.766 722.684 434.053L725.453 440H723.125L720.398 434.125H715.794V440H713.692V425.296H721.741C724.12 425.296 725.309 426.489 725.309 428.875V430.546ZM715.794 432.022H721.628C722.189 432.022 722.592 431.899 722.838 431.653C723.084 431.407 723.207 431.004 723.207 430.443V428.977C723.207 428.417 723.084 428.013 722.838 427.767C722.592 427.521 722.189 427.398 721.628 427.398H715.794V432.022Z" fill="#FFB800"/>
<path d="M694.111 426.588L695.029 426.985L695.033 426.976L694.111 426.588ZM694.562 425.921L695.256 426.641L695.263 426.635L695.269 426.628L694.562 425.921ZM695.229 425.47L695.626 426.388L695.637 426.383L695.229 425.47ZM704.837 425.47L704.419 426.379L704.434 426.386L704.448 426.392L704.837 425.47ZM705.513 425.921L704.806 426.628L704.813 426.635L704.819 426.641L705.513 425.921ZM705.964 426.588L705.043 426.976L705.047 426.985L705.964 426.588ZM706.129 429.295V430.295H707.129V429.295H706.129ZM704.026 429.295H703.026V430.295H704.026V429.295ZM704.026 427.398H705.026V426.398H704.026V427.398ZM696.049 427.398V426.398H695.049V427.398H696.049ZM696.049 437.898H695.049V438.898H696.049V437.898ZM704.026 437.898V438.898H705.026V437.898H704.026ZM704.026 436.011V435.011H703.026V436.011H704.026ZM706.129 436.011H707.129V435.011H706.129V436.011ZM705.964 438.718L706.882 439.115L706.886 439.106L705.964 438.718ZM704.837 439.836L704.448 438.914L704.44 438.918L704.837 439.836ZM695.229 439.836L694.832 440.754L694.841 440.758L695.229 439.836ZM694.111 438.718L693.189 439.106L693.193 439.115L694.111 438.718ZM694.947 427.398C694.947 427.242 694.976 427.107 695.029 426.985L693.193 426.191C693.027 426.574 692.947 426.98 692.947 427.398H694.947ZM695.033 426.976C695.093 426.833 695.168 426.726 695.256 426.641L693.868 425.202C693.573 425.486 693.348 425.823 693.189 426.2L695.033 426.976ZM695.269 426.628C695.37 426.528 695.486 426.448 695.626 426.388L694.832 424.552C694.465 424.711 694.137 424.932 693.855 425.214L695.269 426.628ZM695.637 426.383C695.767 426.325 695.901 426.296 696.049 426.296V424.296C695.622 424.296 695.21 424.383 694.82 424.557L695.637 426.383ZM696.049 426.296H704.026V424.296H696.049V426.296ZM704.026 426.296C704.174 426.296 704.301 426.325 704.419 426.379L705.254 424.562C704.866 424.383 704.453 424.296 704.026 424.296V426.296ZM704.448 426.392C704.594 426.453 704.71 426.532 704.806 426.628L706.22 425.214C705.934 424.928 705.599 424.706 705.225 424.549L704.448 426.392ZM704.819 426.641C704.907 426.726 704.983 426.833 705.043 426.976L706.886 426.2C706.727 425.823 706.502 425.486 706.207 425.202L704.819 426.641ZM705.047 426.985C705.1 427.107 705.129 427.242 705.129 427.398H707.129C707.129 426.98 707.048 426.574 706.882 426.191L705.047 426.985ZM705.129 427.398V429.295H707.129V427.398H705.129ZM706.129 428.295H704.026V430.295H706.129V428.295ZM705.026 429.295V427.398H703.026V429.295H705.026ZM704.026 426.398H696.049V428.398H704.026V426.398ZM695.049 427.398V437.898H697.049V427.398H695.049ZM696.049 438.898H704.026V436.898H696.049V438.898ZM705.026 437.898V436.011H703.026V437.898H705.026ZM704.026 437.011H706.129V435.011H704.026V437.011ZM705.129 436.011V437.898H707.129V436.011H705.129ZM705.129 437.898C705.129 438.054 705.099 438.196 705.043 438.33L706.886 439.106C707.048 438.721 707.129 438.316 707.129 437.898H705.129ZM705.047 438.321C704.986 438.461 704.907 438.577 704.806 438.678L706.22 440.092C706.503 439.81 706.724 439.482 706.882 439.115L705.047 438.321ZM704.806 438.678C704.71 438.774 704.594 438.853 704.448 438.914L705.225 440.758C705.599 440.6 705.934 440.379 706.22 440.092L704.806 438.678ZM704.44 438.918C704.317 438.971 704.183 439 704.026 439V441C704.444 441 704.85 440.92 705.233 440.754L704.44 438.918ZM704.026 439H696.049V441H704.026V439ZM696.049 439C695.893 439 695.751 438.971 695.617 438.914L694.841 440.758C695.225 440.92 695.631 441 696.049 441V439ZM695.626 438.918C695.486 438.858 695.37 438.778 695.269 438.678L693.855 440.092C694.137 440.374 694.465 440.595 694.832 440.754L695.626 438.918ZM695.269 438.678C695.169 438.577 695.089 438.461 695.029 438.321L693.193 439.115C693.352 439.482 693.573 439.81 693.855 440.092L695.269 438.678ZM695.033 438.33C694.976 438.196 694.947 438.054 694.947 437.898H692.947C692.947 438.316 693.027 438.721 693.189 439.106L695.033 438.33ZM694.947 437.898V427.398H692.947V437.898H694.947ZM722.684 434.053L722.523 433.066L721.221 433.279L721.778 434.475L722.684 434.053ZM725.453 440V441H727.022L726.36 439.578L725.453 440ZM723.125 440L722.218 440.421L722.487 441H723.125V440ZM720.398 434.125L721.305 433.703L721.036 433.125H720.398V434.125ZM715.794 434.125V433.125H714.794V434.125H715.794ZM715.794 440V441H716.794V440H715.794ZM713.692 440H712.692V441H713.692V440ZM713.692 425.296V424.296H712.692V425.296H713.692ZM715.794 432.022H714.794V433.022H715.794V432.022ZM715.794 427.398V426.398H714.794V427.398H715.794ZM724.309 430.546C724.309 431.44 724.118 432.008 723.853 432.361C723.602 432.696 723.201 432.955 722.523 433.066L722.846 435.04C723.918 434.864 724.83 434.394 725.454 433.56C726.064 432.745 726.309 431.702 726.309 430.546H724.309ZM721.778 434.475L724.546 440.422L726.36 439.578L723.591 433.631L721.778 434.475ZM725.453 439H723.125V441H725.453V439ZM724.032 439.579L721.305 433.703L719.491 434.546L722.218 440.421L724.032 439.579ZM720.398 433.125H715.794V435.125H720.398V433.125ZM714.794 434.125V440H716.794V434.125H714.794ZM715.794 439H713.692V441H715.794V439ZM714.692 440V425.296H712.692V440H714.692ZM713.692 426.296H721.741V424.296H713.692V426.296ZM721.741 426.296C722.776 426.296 723.368 426.555 723.709 426.897C724.051 427.239 724.309 427.835 724.309 428.875H726.309C726.309 427.528 725.973 426.335 725.126 425.484C724.277 424.634 723.085 424.296 721.741 424.296V426.296ZM724.309 428.875V430.546H726.309V428.875H724.309ZM715.794 433.022H721.628V431.022H715.794V433.022ZM721.628 433.022C722.299 433.022 723.025 432.881 723.545 432.36L722.131 430.946C722.146 430.931 722.137 430.95 722.059 430.974C721.978 430.999 721.84 431.022 721.628 431.022V433.022ZM723.545 432.36C724.066 431.84 724.207 431.114 724.207 430.443H722.207C722.207 430.655 722.184 430.793 722.159 430.874C722.135 430.952 722.116 430.961 722.131 430.946L723.545 432.36ZM724.207 430.443V428.977H722.207V430.443H724.207ZM724.207 428.977C724.207 428.307 724.066 427.581 723.545 427.06L722.131 428.474C722.116 428.459 722.135 428.468 722.159 428.546C722.184 428.628 722.207 428.765 722.207 428.977H724.207ZM723.545 427.06C723.025 426.539 722.299 426.398 721.628 426.398V428.398C721.84 428.398 721.978 428.422 722.059 428.447C722.137 428.47 722.146 428.489 722.131 428.474L723.545 427.06ZM721.628 426.398H715.794V428.398H721.628V426.398ZM714.794 427.398V432.022H716.794V427.398H714.794Z" fill="#FFB800"/>
<path d="M741.075 425.296L746.746 440H744.644L743.342 436.616H736.707L735.405 440H733.303L738.973 425.296H741.075ZM737.507 434.514H742.531L740.029 428.034L737.507 434.514ZM755.57 433.704C755.283 433.704 755.01 433.649 754.75 433.54C754.497 433.424 754.275 433.273 754.083 433.089C753.892 432.897 753.742 432.675 753.632 432.422C753.523 432.163 753.468 431.889 753.468 431.602V427.398C753.468 427.111 753.523 426.841 753.632 426.588C753.742 426.328 753.892 426.106 754.083 425.921C754.275 425.73 754.497 425.58 754.75 425.47C755.01 425.354 755.283 425.296 755.57 425.296H762.707C762.994 425.296 763.264 425.354 763.517 425.47C763.777 425.58 764.002 425.73 764.194 425.921C764.385 426.106 764.536 426.328 764.645 426.588C764.754 426.841 764.809 427.111 764.809 427.398V429.295H762.707V427.398H755.57V431.602H762.707C762.994 431.602 763.264 431.657 763.517 431.766C763.777 431.875 764.002 432.026 764.194 432.217C764.385 432.409 764.536 432.634 764.645 432.894C764.754 433.147 764.809 433.417 764.809 433.704V437.898C764.809 438.185 764.754 438.458 764.645 438.718C764.536 438.971 764.385 439.193 764.194 439.385C764.002 439.576 763.777 439.727 763.517 439.836C763.264 439.945 762.994 440 762.707 440H755.365C755.078 440 754.805 439.945 754.545 439.836C754.292 439.727 754.07 439.576 753.878 439.385C753.687 439.193 753.537 438.971 753.427 438.718C753.318 438.458 753.263 438.185 753.263 437.898V436.011H755.365V437.898H762.707V433.704H755.57ZM785.426 425.296V440H783.324V433.704H774.905V440H772.803V425.296H774.905V431.602H783.324V425.296H785.426Z" fill="black"/>
<path d="M741.075 425.296L742.008 424.936L741.762 424.296H741.075V425.296ZM746.746 440V441H748.203L747.679 439.64L746.746 440ZM744.644 440L743.71 440.359L743.957 441H744.644V440ZM743.342 436.616L744.275 436.257L744.028 435.616H743.342V436.616ZM736.707 436.616V435.616H736.021L735.774 436.257L736.707 436.616ZM735.405 440V441H736.092L736.338 440.359L735.405 440ZM733.303 440L732.37 439.64L731.846 441H733.303V440ZM738.973 425.296V424.296H738.287L738.04 424.936L738.973 425.296ZM737.507 434.514L736.575 434.151L736.045 435.514H737.507V434.514ZM742.531 434.514V435.514H743.989L743.464 434.154L742.531 434.514ZM740.029 428.034L740.962 427.674L740.033 425.267L739.098 427.671L740.029 428.034ZM740.142 425.656L745.813 440.36L747.679 439.64L742.008 424.936L740.142 425.656ZM746.746 439H744.644V441H746.746V439ZM745.577 439.641L744.275 436.257L742.408 436.975L743.71 440.359L745.577 439.641ZM743.342 435.616H736.707V437.616H743.342V435.616ZM735.774 436.257L734.472 439.641L736.338 440.359L737.64 436.975L735.774 436.257ZM735.405 439H733.303V441H735.405V439ZM734.236 440.36L739.906 425.656L738.04 424.936L732.37 439.64L734.236 440.36ZM738.973 426.296H741.075V424.296H738.973V426.296ZM737.507 435.514H742.531V433.514H737.507V435.514ZM743.464 434.154L740.962 427.674L739.097 428.394L741.599 434.874L743.464 434.154ZM739.098 427.671L736.575 434.151L738.439 434.877L740.961 428.396L739.098 427.671ZM754.75 433.54L754.333 434.449L754.347 434.455L754.362 434.462L754.75 433.54ZM754.083 433.089L753.376 433.796L753.383 433.802L753.389 433.809L754.083 433.089ZM753.632 432.422L752.711 432.81L752.714 432.819L753.632 432.422ZM753.632 426.588L754.55 426.985L754.554 426.976L753.632 426.588ZM754.083 425.921L754.778 426.641L754.784 426.635L754.791 426.628L754.083 425.921ZM754.75 425.47L755.147 426.388L755.158 426.383L754.75 425.47ZM763.517 425.47L763.1 426.379L763.114 426.386L763.129 426.392L763.517 425.47ZM764.194 425.921L763.487 426.628L763.493 426.635L763.5 426.641L764.194 425.921ZM764.645 426.588L763.723 426.976L763.727 426.985L764.645 426.588ZM764.809 429.295V430.295H765.809V429.295H764.809ZM762.707 429.295H761.707V430.295H762.707V429.295ZM762.707 427.398H763.707V426.398H762.707V427.398ZM755.57 427.398V426.398H754.57V427.398H755.57ZM755.57 431.602H754.57V432.602H755.57V431.602ZM763.517 431.766L763.12 432.684L763.129 432.688L763.517 431.766ZM764.645 432.894L763.723 433.282L763.727 433.291L764.645 432.894ZM764.645 438.718L765.563 439.115L765.567 439.106L764.645 438.718ZM763.517 439.836L763.129 438.914L763.12 438.918L763.517 439.836ZM754.545 439.836L754.148 440.754L754.157 440.758L754.545 439.836ZM753.427 438.718L752.506 439.106L752.509 439.115L753.427 438.718ZM753.263 436.011V435.011H752.263V436.011H753.263ZM755.365 436.011H756.365V435.011H755.365V436.011ZM755.365 437.898H754.365V438.898H755.365V437.898ZM762.707 437.898V438.898H763.707V437.898H762.707ZM762.707 433.704H763.707V432.704H762.707V433.704ZM755.57 432.704C755.414 432.704 755.273 432.675 755.138 432.618L754.362 434.462C754.747 434.624 755.152 434.704 755.57 434.704V432.704ZM755.167 432.631C755.012 432.56 754.884 432.472 754.778 432.369L753.389 433.809C753.665 434.075 753.982 434.288 754.333 434.449L755.167 432.631ZM754.791 432.382C754.69 432.281 754.61 432.165 754.55 432.025L752.714 432.819C752.873 433.186 753.094 433.514 753.376 433.796L754.791 432.382ZM754.554 432.034C754.497 431.9 754.468 431.758 754.468 431.602H752.468C752.468 432.02 752.549 432.425 752.711 432.81L754.554 432.034ZM754.468 431.602V427.398H752.468V431.602H754.468ZM754.468 427.398C754.468 427.242 754.497 427.107 754.55 426.985L752.714 426.191C752.549 426.574 752.468 426.98 752.468 427.398H754.468ZM754.554 426.976C754.614 426.833 754.69 426.726 754.778 426.641L753.389 425.202C753.095 425.486 752.869 425.823 752.711 426.2L754.554 426.976ZM754.791 426.628C754.891 426.528 755.008 426.448 755.147 426.388L754.353 424.552C753.987 424.711 753.659 424.932 753.376 425.214L754.791 426.628ZM755.158 426.383C755.288 426.325 755.423 426.296 755.57 426.296V424.296C755.144 424.296 754.731 424.383 754.342 424.557L755.158 426.383ZM755.57 426.296H762.707V424.296H755.57V426.296ZM762.707 426.296C762.855 426.296 762.982 426.325 763.1 426.379L763.935 424.562C763.547 424.383 763.134 424.296 762.707 424.296V426.296ZM763.129 426.392C763.275 426.453 763.391 426.532 763.487 426.628L764.901 425.214C764.614 424.928 764.279 424.706 763.905 424.549L763.129 426.392ZM763.5 426.641C763.588 426.726 763.663 426.833 763.723 426.976L765.567 426.2C765.408 425.823 765.183 425.486 764.888 425.202L763.5 426.641ZM763.727 426.985C763.78 427.107 763.809 427.242 763.809 427.398H765.809C765.809 426.98 765.729 426.574 765.563 426.191L763.727 426.985ZM763.809 427.398V429.295H765.809V427.398H763.809ZM764.809 428.295H762.707V430.295H764.809V428.295ZM763.707 429.295V427.398H761.707V429.295H763.707ZM762.707 426.398H755.57V428.398H762.707V426.398ZM754.57 427.398V431.602H756.57V427.398H754.57ZM755.57 432.602H762.707V430.602H755.57V432.602ZM762.707 432.602C762.863 432.602 762.998 432.631 763.12 432.684L763.914 430.848C763.531 430.682 763.125 430.602 762.707 430.602V432.602ZM763.129 432.688C763.275 432.749 763.391 432.828 763.487 432.924L764.901 431.51C764.614 431.224 764.279 431.002 763.905 430.844L763.129 432.688ZM763.487 432.924C763.583 433.021 763.662 433.137 763.723 433.282L765.567 432.506C765.409 432.132 765.188 431.797 764.901 431.51L763.487 432.924ZM763.727 433.291C763.78 433.413 763.809 433.548 763.809 433.704H765.809C765.809 433.286 765.729 432.881 765.563 432.497L763.727 433.291ZM763.809 433.704V437.898H765.809V433.704H763.809ZM763.809 437.898C763.809 438.054 763.78 438.196 763.723 438.33L765.567 439.106C765.729 438.721 765.809 438.316 765.809 437.898H763.809ZM763.727 438.321C763.667 438.461 763.587 438.577 763.487 438.678L764.901 440.092C765.183 439.81 765.404 439.482 765.563 439.115L763.727 438.321ZM763.487 438.678C763.391 438.774 763.275 438.853 763.129 438.914L763.905 440.758C764.279 440.6 764.614 440.379 764.901 440.092L763.487 438.678ZM763.12 438.918C762.998 438.971 762.863 439 762.707 439V441C763.125 441 763.531 440.92 763.914 440.754L763.12 438.918ZM762.707 439H755.365V441H762.707V439ZM755.365 439C755.209 439 755.068 438.971 754.933 438.914L754.157 440.758C754.542 440.92 754.947 441 755.365 441V439ZM754.942 438.918C754.803 438.858 754.686 438.778 754.586 438.678L753.171 440.092C753.454 440.374 753.781 440.595 754.148 440.754L754.942 438.918ZM754.586 438.678C754.485 438.577 754.405 438.461 754.345 438.321L752.509 439.115C752.668 439.482 752.889 439.81 753.171 440.092L754.586 438.678ZM754.349 438.33C754.292 438.196 754.263 438.054 754.263 437.898H752.263C752.263 438.316 752.344 438.721 752.506 439.106L754.349 438.33ZM754.263 437.898V436.011H752.263V437.898H754.263ZM753.263 437.011H755.365V435.011H753.263V437.011ZM754.365 436.011V437.898H756.365V436.011H754.365ZM755.365 438.898H762.707V436.898H755.365V438.898ZM763.707 437.898V433.704H761.707V437.898H763.707ZM762.707 432.704H755.57V434.704H762.707V432.704ZM785.426 425.296H786.426V424.296H785.426V425.296ZM785.426 440V441H786.426V440H785.426ZM783.324 440H782.324V441H783.324V440ZM783.324 433.704H784.324V432.704H783.324V433.704ZM774.905 433.704V432.704H773.905V433.704H774.905ZM774.905 440V441H775.905V440H774.905ZM772.803 440H771.803V441H772.803V440ZM772.803 425.296V424.296H771.803V425.296H772.803ZM774.905 425.296H775.905V424.296H774.905V425.296ZM774.905 431.602H773.905V432.602H774.905V431.602ZM783.324 431.602V432.602H784.324V431.602H783.324ZM783.324 425.296V424.296H782.324V425.296H783.324ZM784.426 425.296V440H786.426V425.296H784.426ZM785.426 439H783.324V441H785.426V439ZM784.324 440V433.704H782.324V440H784.324ZM783.324 432.704H774.905V434.704H783.324V432.704ZM773.905 433.704V440H775.905V433.704H773.905ZM774.905 439H772.803V441H774.905V439ZM773.803 440V425.296H771.803V440H773.803ZM772.803 426.296H774.905V424.296H772.803V426.296ZM773.905 425.296V431.602H775.905V425.296H773.905ZM774.905 432.602H783.324V430.602H774.905V432.602ZM784.324 431.602V425.296H782.324V431.602H784.324ZM783.324 426.296H785.426V424.296H783.324V426.296Z" fill="black"/>
<path d="M744.892 459.898C744.892 460.185 744.837 460.458 744.728 460.718C744.618 460.971 744.468 461.193 744.277 461.385C744.085 461.576 743.86 461.727 743.6 461.836C743.347 461.945 743.077 462 742.79 462H734.392C734.105 462 733.831 461.945 733.571 461.836C733.319 461.727 733.096 461.576 732.905 461.385C732.714 461.193 732.563 460.971 732.454 460.718C732.344 460.458 732.29 460.185 732.29 459.898V449.398C732.29 449.111 732.344 448.841 732.454 448.588C732.563 448.328 732.714 448.106 732.905 447.921C733.096 447.73 733.319 447.58 733.571 447.47C733.831 447.354 734.105 447.296 734.392 447.296H742.79C743.077 447.296 743.347 447.354 743.6 447.47C743.86 447.58 744.085 447.73 744.277 447.921C744.468 448.106 744.618 448.328 744.728 448.588C744.837 448.841 744.892 449.111 744.892 449.398V459.898ZM734.392 449.398V459.898H742.79V449.398H734.392ZM752.875 447.296H754.978V459.898H763.375V447.296H765.478V459.898C765.478 460.185 765.423 460.458 765.313 460.718C765.204 460.971 765.054 461.193 764.862 461.385C764.671 461.576 764.445 461.727 764.186 461.836C763.933 461.945 763.663 462 763.375 462H754.978C754.69 462 754.417 461.945 754.157 461.836C753.904 461.727 753.682 461.576 753.491 461.385C753.299 461.193 753.149 460.971 753.04 460.718C752.93 460.458 752.875 460.185 752.875 459.898V447.296ZM772.2 447.296H783.961V449.398H779.132V462H777.03V449.398H772.2V447.296Z" fill="#FFB800"/>
<path d="M744.728 460.718L745.646 461.115L745.649 461.106L744.728 460.718ZM743.6 461.836L743.212 460.914L743.203 460.918L743.6 461.836ZM733.571 461.836L733.175 462.754L733.183 462.758L733.571 461.836ZM732.454 460.718L731.532 461.106L731.536 461.115L732.454 460.718ZM732.454 448.588L733.372 448.985L733.375 448.976L732.454 448.588ZM732.905 447.921L733.599 448.641L733.606 448.635L733.612 448.628L732.905 447.921ZM733.571 447.47L733.968 448.388L733.98 448.383L733.571 447.47ZM743.6 447.47L743.182 448.379L743.197 448.386L743.212 448.392L743.6 447.47ZM744.277 447.921L743.569 448.628L743.576 448.635L743.582 448.641L744.277 447.921ZM744.728 448.588L743.806 448.976L743.81 448.985L744.728 448.588ZM734.392 449.398V448.398H733.392V449.398H734.392ZM734.392 459.898H733.392V460.898H734.392V459.898ZM742.79 459.898V460.898H743.79V459.898H742.79ZM742.79 449.398H743.79V448.398H742.79V449.398ZM743.892 459.898C743.892 460.054 743.863 460.196 743.806 460.33L745.649 461.106C745.811 460.721 745.892 460.316 745.892 459.898H743.892ZM743.81 460.321C743.75 460.461 743.67 460.577 743.569 460.678L744.984 462.092C745.266 461.81 745.487 461.482 745.646 461.115L743.81 460.321ZM743.569 460.678C743.473 460.774 743.357 460.853 743.212 460.914L743.988 462.758C744.362 462.6 744.697 462.379 744.984 462.092L743.569 460.678ZM743.203 460.918C743.081 460.971 742.946 461 742.79 461V463C743.208 463 743.613 462.92 743.997 462.754L743.203 460.918ZM742.79 461H734.392V463H742.79V461ZM734.392 461C734.235 461 734.094 460.971 733.96 460.914L733.183 462.758C733.568 462.92 733.974 463 734.392 463V461ZM733.968 460.918C733.829 460.858 733.713 460.778 733.612 460.678L732.198 462.092C732.48 462.374 732.808 462.595 733.175 462.754L733.968 460.918ZM733.612 460.678C733.511 460.577 733.432 460.461 733.372 460.321L731.536 461.115C731.694 461.482 731.916 461.81 732.198 462.092L733.612 460.678ZM733.375 460.33C733.319 460.196 733.29 460.054 733.29 459.898H731.29C731.29 460.316 731.37 460.721 731.532 461.106L733.375 460.33ZM733.29 459.898V449.398H731.29V459.898H733.29ZM733.29 449.398C733.29 449.242 733.319 449.107 733.372 448.985L731.536 448.191C731.37 448.574 731.29 448.98 731.29 449.398H733.29ZM733.375 448.976C733.435 448.833 733.511 448.726 733.599 448.641L732.211 447.202C731.916 447.486 731.691 447.823 731.532 448.2L733.375 448.976ZM733.612 448.628C733.713 448.528 733.829 448.448 733.968 448.388L733.175 446.552C732.808 446.711 732.48 446.932 732.198 447.214L733.612 448.628ZM733.98 448.383C734.11 448.325 734.244 448.296 734.392 448.296V446.296C733.965 446.296 733.553 446.383 733.163 446.557L733.98 448.383ZM734.392 448.296H742.79V446.296H734.392V448.296ZM742.79 448.296C742.937 448.296 743.065 448.325 743.182 448.379L744.017 446.562C743.629 446.383 743.216 446.296 742.79 446.296V448.296ZM743.212 448.392C743.357 448.453 743.473 448.532 743.569 448.628L744.984 447.214C744.697 446.928 744.362 446.706 743.988 446.549L743.212 448.392ZM743.582 448.641C743.671 448.726 743.746 448.833 743.806 448.976L745.649 448.2C745.491 447.823 745.265 447.486 744.971 447.202L743.582 448.641ZM743.81 448.985C743.863 449.107 743.892 449.242 743.892 449.398H745.892C745.892 448.98 745.811 448.574 745.646 448.191L743.81 448.985ZM743.892 449.398V459.898H745.892V449.398H743.892ZM733.392 449.398V459.898H735.392V449.398H733.392ZM734.392 460.898H742.79V458.898H734.392V460.898ZM743.79 459.898V449.398H741.79V459.898H743.79ZM742.79 448.398H734.392V450.398H742.79V448.398ZM752.875 447.296V446.296H751.875V447.296H752.875ZM754.978 447.296H755.978V446.296H754.978V447.296ZM754.978 459.898H753.978V460.898H754.978V459.898ZM763.375 459.898V460.898H764.375V459.898H763.375ZM763.375 447.296V446.296H762.375V447.296H763.375ZM765.478 447.296H766.478V446.296H765.478V447.296ZM765.313 460.718L766.231 461.115L766.235 461.106L765.313 460.718ZM764.186 461.836L763.797 460.914L763.789 460.918L764.186 461.836ZM754.157 461.836L753.76 462.754L753.769 462.758L754.157 461.836ZM753.04 460.718L752.118 461.106L752.122 461.115L753.04 460.718ZM752.875 448.296H754.978V446.296H752.875V448.296ZM753.978 447.296V459.898H755.978V447.296H753.978ZM754.978 460.898H763.375V458.898H754.978V460.898ZM764.375 459.898V447.296H762.375V459.898H764.375ZM763.375 448.296H765.478V446.296H763.375V448.296ZM764.478 447.296V459.898H766.478V447.296H764.478ZM764.478 459.898C764.478 460.054 764.449 460.196 764.392 460.33L766.235 461.106C766.397 460.721 766.478 460.316 766.478 459.898H764.478ZM764.396 460.321C764.335 460.461 764.256 460.577 764.155 460.678L765.569 462.092C765.852 461.81 766.073 461.482 766.231 461.115L764.396 460.321ZM764.155 460.678C764.059 460.774 763.943 460.853 763.797 460.914L764.574 462.758C764.948 462.6 765.283 462.379 765.569 462.092L764.155 460.678ZM763.789 460.918C763.666 460.971 763.532 461 763.375 461V463C763.793 463 764.199 462.92 764.582 462.754L763.789 460.918ZM763.375 461H754.978V463H763.375V461ZM754.978 461C754.821 461 754.68 460.971 754.545 460.914L753.769 462.758C754.154 462.92 754.56 463 754.978 463V461ZM754.554 460.918C754.415 460.858 754.298 460.778 754.198 460.678L752.784 462.092C753.066 462.374 753.394 462.595 753.76 462.754L754.554 460.918ZM754.198 460.678C754.097 460.577 754.018 460.461 753.957 460.321L752.122 461.115C752.28 461.482 752.501 461.81 752.784 462.092L754.198 460.678ZM753.961 460.33C753.905 460.196 753.875 460.054 753.875 459.898H751.875C751.875 460.316 751.956 460.721 752.118 461.106L753.961 460.33ZM753.875 459.898V447.296H751.875V459.898H753.875ZM772.2 447.296V446.296H771.2V447.296H772.2ZM783.961 447.296H784.961V446.296H783.961V447.296ZM783.961 449.398V450.398H784.961V449.398H783.961ZM779.132 449.398V448.398H778.132V449.398H779.132ZM779.132 462V463H780.132V462H779.132ZM777.03 462H776.03V463H777.03V462ZM777.03 449.398H778.03V448.398H777.03V449.398ZM772.2 449.398H771.2V450.398H772.2V449.398ZM772.2 448.296H783.961V446.296H772.2V448.296ZM782.961 447.296V449.398H784.961V447.296H782.961ZM783.961 448.398H779.132V450.398H783.961V448.398ZM778.132 449.398V462H780.132V449.398H778.132ZM779.132 461H777.03V463H779.132V461ZM778.03 462V449.398H776.03V462H778.03ZM777.03 448.398H772.2V450.398H777.03V448.398ZM773.2 449.398V447.296H771.2V449.398H773.2Z" fill="#FFB800"/>
<path d="M712.247 468.299L694.25 473.062C692.668 467.156 684.625 468.75 686.299 475.026C685.566 475.327 684.768 474.763 684.808 473.971L684.932 471.554C684.936 471.477 684.93 471.399 684.913 471.323L684.375 468.875L684.102 467.508C684.013 467.062 684.487 466.717 684.884 466.939C685.173 467.101 685.538 466.963 685.647 466.65L685.683 466.544C685.808 466.186 686.248 466.058 686.545 466.293L686.669 466.391C686.98 466.637 687.438 466.416 687.438 466.019C687.438 465.666 687.81 465.436 688.125 465.595L688.55 465.808C688.902 465.984 689.33 465.866 689.541 465.535L693.489 459.354C694.295 458.091 695.545 457.175 696.993 456.788L705.24 454.578C706.632 454.205 708.112 454.345 709.409 454.974L716.188 458.259C716.725 458.519 717.326 458.613 717.917 458.53L720.6 458.151C721.1 458.08 721.575 458.394 721.706 458.882L722.909 463.372C723.195 464.439 722.562 465.535 721.495 465.821L720.579 466.067C719.011 460.213 710.707 462.551 712.247 468.299Z" fill="black"/>
<circle cx="689.971" cy="473.595" r="3.5485" transform="rotate(-15 689.971 473.595)" fill="black"/>
<ellipse cx="689.971" cy="473.596" rx="2.67502" ry="2.67502" transform="rotate(-15 689.971 473.596)" fill="#FFB800"/>
<circle cx="716.343" cy="466.919" r="3.5485" transform="rotate(-15 716.343 466.919)" fill="black"/>
<ellipse cx="716.342" cy="466.919" rx="2.67502" ry="2.67502" transform="rotate(-15 716.342 466.919)" fill="#FFB800"/>
<path d="M679.305 464.182L682.425 466.317C682.604 466.44 682.691 466.658 682.645 466.869C682.575 467.195 682.227 467.377 681.919 467.249L678.43 465.793C677.953 465.595 677.733 465.043 677.941 464.571C678.174 464.043 678.829 463.856 679.305 464.182Z" fill="black"/>
<path d="M678.68 468.579L682.408 469.206C682.622 469.242 682.792 469.403 682.84 469.614C682.913 469.939 682.673 470.251 682.34 470.264L678.562 470.409C678.047 470.429 677.615 470.022 677.605 469.505C677.595 468.928 678.111 468.483 678.68 468.579Z" fill="black"/>
<path d="M682.948 460.504L684.562 463.923C684.654 464.119 684.619 464.351 684.473 464.51C684.248 464.756 683.855 464.737 683.655 464.471L681.379 461.452C681.068 461.04 681.156 460.453 681.574 460.15C682.042 459.812 682.702 459.982 682.948 460.504Z" fill="black"/>
<circle cx="729.5" cy="443.5" r="62.5" fill="url(#paint20_linear_113:342)"/>
<defs>
<linearGradient id="paint0_linear_113:342" x1="816.718" y1="381.5" x2="816.718" y2="533.499" gradientUnits="userSpaceOnUse">
<stop stop-color="#0E0907"/>
<stop offset="1" stop-color="#2D1710"/>
</linearGradient>
<linearGradient id="paint1_linear_113:342" x1="748.511" y1="164.5" x2="748.511" y2="533.499" gradientUnits="userSpaceOnUse">
<stop offset="0.490135" stop-color="#C7C7C7"/>
<stop offset="1" stop-color="#838383"/>
</linearGradient>
<linearGradient id="paint2_linear_113:342" x1="873.696" y1="343" x2="873.696" y2="377" gradientUnits="userSpaceOnUse">
<stop offset="0.520833" stop-color="#626262"/>
<stop offset="1" stop-color="#A6A6A6"/>
</linearGradient>
<radialGradient id="paint3_radial_113:342" cx="0" cy="0" r="1" gradientUnits="userSpaceOnUse" gradientTransform="translate(874.196 348.5) rotate(90) scale(13.5 36.2368)">
<stop stop-color="#454545"/>
<stop offset="1" stop-color="#181818"/>
</radialGradient>
<linearGradient id="paint4_linear_113:342" x1="285.196" y1="366.5" x2="387.196" y2="371" gradientUnits="userSpaceOnUse">
<stop stop-color="white"/>
<stop offset="1" stop-color="#CCCCCC"/>
</linearGradient>
<linearGradient id="paint5_linear_113:342" x1="588.104" y1="290.894" x2="595.061" y2="325.08" gradientUnits="userSpaceOnUse">
<stop stop-color="#929292"/>
<stop offset="1" stop-color="#585858"/>
</linearGradient>
<radialGradient id="paint6_radial_113:342" cx="0" cy="0" r="1" gradientUnits="userSpaceOnUse" gradientTransform="translate(436 510) rotate(90) scale(90)">
<stop offset="0.661458" stop-color="#111111"/>
<stop offset="1" stop-color="#333333"/>
</radialGradient>
<radialGradient id="paint7_radial_113:342" cx="0" cy="0" r="1" gradientUnits="userSpaceOnUse" gradientTransform="translate(436 510) rotate(90) scale(54)">
<stop stop-color="#1A110B"/>
<stop offset="1" stop-color="#3E2B1D"/>
</radialGradient>
<radialGradient id="paint8_angular_113:342" cx="0" cy="0" r="1" gradientUnits="userSpaceOnUse" gradientTransform="translate(435.72 509.8) rotate(90) scale(53.1 56.6346)">
<stop offset="0.465615" stop-color="#E7E7E7"/>
<stop offset="0.50067" stop-color="#C0C0C0"/>
<stop offset="0.534161" stop-color="#E7E7E7"/>
</radialGradient>
<linearGradient id="paint9_linear_113:342" x1="436" y1="456" x2="436" y2="564" gradientUnits="userSpaceOnUse">
<stop stop-color="#E7E7E7"/>
<stop offset="0.500163" stop-color="#C8C8C8"/>
<stop offset="1" stop-color="#E7E7E7"/>
</linearGradient>
<linearGradient id="paint10_linear_113:342" x1="487.265" y1="475.206" x2="487.265" y2="583.206" gradientUnits="userSpaceOnUse">
<stop stop-color="#E7E7E7"/>
<stop offset="0.500163" stop-color="#C8C8C8"/>
<stop offset="1" stop-color="#E7E7E7"/>
</linearGradient>
<linearGradient id="paint11_linear_113:342" x1="496.265" y1="529.206" x2="496.265" y2="637.206" gradientUnits="userSpaceOnUse">
<stop stop-color="#E7E7E7"/>
<stop offset="0.500163" stop-color="#C8C8C8"/>
<stop offset="1" stop-color="#E7E7E7"/>
</linearGradient>
<radialGradient id="paint12_radial_113:342" cx="0" cy="0" r="1" gradientUnits="userSpaceOnUse" gradientTransform="translate(436 510) rotate(90) scale(27)">
<stop stop-color="#E7E7E7"/>
<stop offset="0.609375" stop-color="#C8C8C8"/>
<stop offset="1" stop-color="#E7E7E7"/>
</radialGradient>
<radialGradient id="paint13_radial_113:342" cx="0" cy="0" r="1" gradientUnits="userSpaceOnUse" gradientTransform="translate(1098 510) rotate(90) scale(90)">
<stop offset="0.661458" stop-color="#111111"/>
<stop offset="1" stop-color="#333333"/>
</radialGradient>
<radialGradient id="paint14_radial_113:342" cx="0" cy="0" r="1" gradientUnits="userSpaceOnUse" gradientTransform="translate(1098 510) rotate(90) scale(54)">
<stop stop-color="#1A110B"/>
<stop offset="1" stop-color="#3E2B1D"/>
</radialGradient>
<radialGradient id="paint15_angular_113:342" cx="0" cy="0" r="1" gradientUnits="userSpaceOnUse" gradientTransform="translate(1097.72 509.8) rotate(90) scale(53.1 56.6346)">
<stop offset="0.465615" stop-color="#E7E7E7"/>
<stop offset="0.50067" stop-color="#C0C0C0"/>
<stop offset="0.534161" stop-color="#E7E7E7"/>
</radialGradient>
<linearGradient id="paint16_linear_113:342" x1="1098" y1="456" x2="1098" y2="564" gradientUnits="userSpaceOnUse">
<stop stop-color="#E7E7E7"/>
<stop offset="0.500163" stop-color="#C8C8C8"/>
<stop offset="1" stop-color="#E7E7E7"/>
</linearGradient>
<linearGradient id="paint17_linear_113:342" x1="1149.27" y1="475.206" x2="1149.27" y2="583.206" gradientUnits="userSpaceOnUse">
<stop stop-color="#E7E7E7"/>
<stop offset="0.500163" stop-color="#C8C8C8"/>
<stop offset="1" stop-color="#E7E7E7"/>
</linearGradient>
<linearGradient id="paint18_linear_113:342" x1="1158.27" y1="529.206" x2="1158.27" y2="637.206" gradientUnits="userSpaceOnUse">
<stop stop-color="#E7E7E7"/>
<stop offset="0.500163" stop-color="#C8C8C8"/>
<stop offset="1" stop-color="#E7E7E7"/>
</linearGradient>
<radialGradient id="paint19_radial_113:342" cx="0" cy="0" r="1" gradientUnits="userSpaceOnUse" gradientTransform="translate(1098 510) rotate(90) scale(27)">
<stop stop-color="#E7E7E7"/>
<stop offset="0.609375" stop-color="#C8C8C8"/>
<stop offset="1" stop-color="#E7E7E7"/>
</radialGradient>
<linearGradient id="paint20_linear_113:342" x1="729.5" y1="381" x2="729.5" y2="506" gradientUnits="userSpaceOnUse">
<stop stop-color="white" stop-opacity="0.15"/>
<stop offset="1" stop-opacity="0.2"/>
</linearGradient>
</defs>
</svg>
