<svg width="1500" height="600" viewBox="0 0 1500 600" fill="none" xmlns="http://www.w3.org/2000/svg">
<g clip-path="url(#clip0_516_2)">
<path d="M269.272 532.5V380.5H1255.77V515.5L1035.27 532.5H269.272Z" fill="url(#paint0_linear_516_2)"/>
<path fill-rule="evenodd" clip-rule="evenodd" d="M1032.5 532.499H492.391C491.654 532.499 490.926 532.337 490.26 532.022L486 530.015V499H485.499C485.23 441.24 438.323 394.5 380.5 394.5C344.388 394.5 312.534 412.73 293.638 440.489L273.143 432.922C272.392 432.645 271.586 432.552 270.791 432.651L242.524 436.185C239.244 436.595 236.476 433.766 236.957 430.496L243.5 386C254.736 357.799 266.34 343.693 294.908 340.563C295.296 340.521 295.693 340.528 296.081 340.568C312.163 342.239 332.61 326.233 338.405 321.373C339.443 320.503 340.739 320.05 342.09 320.132C352.13 320.743 396.012 323.141 422.557 320.11C423.189 320.038 423.792 319.84 424.351 319.533C441.56 310.093 458.108 300.655 474.364 291.384L474.364 291.384L474.364 291.384C580.952 230.595 674.927 177 859.772 177C1062.91 177 1121.37 214.482 1197.13 263.051C1214.48 274.172 1232.73 285.875 1253.84 297.842C1254.59 298.267 1255.45 298.5 1256.31 298.5H1327.5C1338.55 298.5 1347.5 307.454 1347.5 318.5V408.5L1365.09 414.154C1371.29 416.147 1375.5 421.918 1375.5 428.434V477.113C1375.5 492.625 1363.67 505.579 1348.23 506.989L1255 515.499L1250 515.881V499H1249.5C1249.23 441.24 1202.32 394.5 1144.5 394.5C1086.51 394.5 1039.5 441.51 1039.5 499.5C1039.5 502.979 1039.67 506.419 1040 509.812V531.926L1032.5 532.499ZM1165.16 281.662C1158.77 269.177 1143.27 257.557 1081.3 230.756C1076.62 228.731 1072.3 234.194 1075.37 238.273L1108.27 282.076C1111.1 285.848 1115.55 288.067 1120.27 288.067H1160.84C1164.25 288.067 1166.71 284.698 1165.16 281.662ZM855.5 199.212C914.638 197.636 979.473 202.59 1013.6 207.287C1018.86 208.01 1023.52 210.916 1026.62 215.217L1051.72 249.97C1054.18 253.378 1055.5 257.474 1055.5 261.678V300.5L843.772 310.5L855.5 199.212ZM825 199.212C743.732 201.785 646.748 236.567 574.447 281.496C573.205 282.268 572.377 283.545 572.164 284.992L566.272 325L808.772 313L825 199.212ZM462 313.574L431.272 316C442.915 309.531 454.075 303.288 464.83 297.272L464.834 297.27C557.997 245.156 620.691 210.085 702.272 193.5L694.015 202.583C692.872 203.84 691.431 204.783 689.823 205.332C621.458 228.678 551.378 262.515 475.482 309.162C471.398 311.672 466.778 313.196 462 313.574ZM1176.33 263.186C1160.53 251.484 1144.25 239.434 1102.63 221.115C1099.62 219.792 1097.39 217.077 1096.74 213.857L1095.77 209C1136.38 223.998 1169.22 245.153 1200.37 265.217C1211.8 272.577 1223 279.791 1234.27 286.5C1224.26 288.762 1213.66 287.563 1204.79 282.393C1192.96 275.5 1184.71 269.392 1176.33 263.186Z" fill="url(#paint1_linear_516_2)"/>
<path d="M1032.5 532.499V534.999H1032.6L1032.69 534.992L1032.5 532.499ZM490.26 532.022L491.325 529.761L491.325 529.761L490.26 532.022ZM486 530.015H483.5V531.601L484.935 532.277L486 530.015ZM486 499H488.5V496.5H486V499ZM485.499 499L482.999 499.012L483.011 501.5H485.499V499ZM293.638 440.489L292.772 442.835L294.605 443.512L295.705 441.896L293.638 440.489ZM273.143 432.922L272.277 435.267H272.277L273.143 432.922ZM270.791 432.651L270.481 430.17H270.481L270.791 432.651ZM242.524 436.185L242.834 438.665H242.834L242.524 436.185ZM236.957 430.496L239.43 430.859L236.957 430.496ZM243.5 386L241.178 385.075L241.069 385.347L241.027 385.636L243.5 386ZM294.908 340.563L294.636 338.078H294.636L294.908 340.563ZM296.081 340.568L296.34 338.082L296.34 338.082L296.081 340.568ZM338.405 321.373L340.012 323.288L338.405 321.373ZM342.09 320.132L342.242 317.636H342.242L342.09 320.132ZM422.557 320.11L422.273 317.627L422.557 320.11ZM424.351 319.533L425.553 321.725H425.553L424.351 319.533ZM474.364 291.384L475.602 293.556L475.626 293.542L475.65 293.528L474.364 291.384ZM474.364 291.384L473.246 289.148L473.16 289.191L473.078 289.24L474.364 291.384ZM474.364 291.384L475.482 293.62L475.544 293.589L475.603 293.555L474.364 291.384ZM1197.13 263.051L1195.78 265.156L1197.13 263.051ZM1253.84 297.842L1252.61 300.017L1252.61 300.017L1253.84 297.842ZM1347.5 408.5H1345V410.322L1346.74 410.88L1347.5 408.5ZM1365.09 414.154L1364.33 416.534V416.534L1365.09 414.154ZM1348.23 506.989L1348 504.499L1348.23 506.989ZM1255 515.499L1255.19 517.992L1255.21 517.991L1255.23 517.989L1255 515.499ZM1250 515.881H1247.5V518.58L1250.19 518.374L1250 515.881ZM1250 499H1252.5V496.5H1250V499ZM1249.5 499L1247 499.012L1247.01 501.5H1249.5V499ZM1040 509.812H1042.5V509.691L1042.49 509.57L1040 509.812ZM1040 531.926L1040.19 534.419L1042.5 534.243V531.926H1040ZM1081.3 230.756L1080.31 233.051V233.051L1081.3 230.756ZM1165.16 281.662L1167.38 280.523V280.523L1165.16 281.662ZM1075.37 238.273L1073.37 239.775V239.775L1075.37 238.273ZM1108.27 282.076L1110.27 280.575V280.575L1108.27 282.076ZM1013.6 207.287L1013.94 204.81L1013.6 207.287ZM855.5 199.212L855.434 196.713L853.244 196.771L853.014 198.95L855.5 199.212ZM1026.62 215.217L1024.6 216.681V216.681L1026.62 215.217ZM1051.72 249.97L1053.74 248.506V248.506L1051.72 249.97ZM1055.5 300.5L1055.62 302.997L1058 302.884V300.5H1055.5ZM843.772 310.5L841.286 310.238L840.981 313.134L843.89 312.997L843.772 310.5ZM574.447 281.496L573.128 279.372L573.128 279.372L574.447 281.496ZM825 199.212L827.475 199.565L827.895 196.619L824.921 196.713L825 199.212ZM572.164 284.992L569.691 284.628V284.628L572.164 284.992ZM566.272 325L563.799 324.635L563.355 327.647L566.396 327.497L566.272 325ZM808.772 313L808.896 315.497L810.956 315.395L811.247 313.353L808.772 313ZM431.272 316L430.058 313.814L431.469 318.492L431.272 316ZM462 313.574L462.196 316.066L462 313.574ZM464.83 297.272L463.615 295.087L463.61 295.09L464.83 297.272ZM464.834 297.27L466.049 299.455L466.054 299.452L464.834 297.27ZM702.272 193.5L704.122 195.182L709.262 189.528L701.774 191.05L702.272 193.5ZM694.015 202.583L692.165 200.901V200.901L694.015 202.583ZM689.823 205.332L689.015 202.966V202.966L689.823 205.332ZM475.482 309.162L476.791 311.292L476.791 311.292L475.482 309.162ZM1102.63 221.115L1101.62 223.403V223.403L1102.63 221.115ZM1176.33 263.186L1174.85 265.195L1176.33 263.186ZM1096.74 213.857L1094.29 214.347V214.347L1096.74 213.857ZM1095.77 209L1096.64 206.655L1092.44 205.106L1093.32 209.49L1095.77 209ZM1200.37 265.217L1199.02 267.319L1200.37 265.217ZM1234.27 286.5L1234.82 288.939L1240.94 287.558L1235.55 284.352L1234.27 286.5ZM1204.79 282.393L1203.53 284.553H1203.53L1204.79 282.393ZM492.391 534.999H1032.5V529.999H492.391V534.999ZM489.194 534.284C490.194 534.755 491.286 534.999 492.391 534.999V529.999C492.023 529.999 491.659 529.918 491.325 529.761L489.194 534.284ZM484.935 532.277L489.194 534.284L491.325 529.761L487.066 527.754L484.935 532.277ZM483.5 499V530.015H488.5V499H483.5ZM485.499 501.5H486V496.5H485.499V501.5ZM380.5 397C436.947 397 482.736 442.627 482.999 499.012L487.999 498.988C487.724 439.853 439.7 392 380.5 392V397ZM295.705 441.896C314.155 414.791 345.25 397 380.5 397V392C343.526 392 310.913 410.668 291.572 439.083L295.705 441.896ZM272.277 435.267L292.772 442.835L294.504 438.144L274.009 430.577L272.277 435.267ZM271.101 435.132C271.498 435.082 271.902 435.129 272.277 435.267L274.009 430.577C272.883 430.161 271.673 430.021 270.481 430.17L271.101 435.132ZM242.834 438.665L271.101 435.132L270.481 430.17L242.214 433.704L242.834 438.665ZM234.483 430.132C233.762 435.037 237.914 439.28 242.834 438.665L242.214 433.704C240.574 433.909 239.19 432.495 239.43 430.859L234.483 430.132ZM241.027 385.636L234.483 430.132L239.43 430.859L245.974 386.364L241.027 385.636ZM294.636 338.078C279.95 339.687 269.352 344.16 260.988 352.063C252.704 359.891 246.831 370.886 241.178 385.075L245.823 386.925C251.406 372.913 256.953 362.755 264.422 355.697C271.811 348.715 281.298 344.569 295.18 343.048L294.636 338.078ZM296.34 338.082C295.814 338.027 295.235 338.012 294.636 338.078L295.18 343.048C295.357 343.029 295.573 343.029 295.823 343.055L296.34 338.082ZM336.799 319.457C333.958 321.84 327.532 326.947 319.878 331.239C312.127 335.586 303.573 338.833 296.34 338.082L295.823 343.055C304.672 343.974 314.382 340.053 322.324 335.6C330.362 331.092 337.057 325.766 340.012 323.288L336.799 319.457ZM342.242 317.636C340.219 317.513 338.3 318.198 336.799 319.457L340.012 323.288C340.585 322.808 341.259 322.586 341.938 322.627L342.242 317.636ZM422.273 317.627C395.985 320.628 352.328 318.251 342.242 317.636L341.938 322.627C351.932 323.236 396.039 325.654 422.841 322.594L422.273 317.627ZM423.148 317.341C422.858 317.5 422.566 317.593 422.273 317.627L422.841 322.594C423.813 322.483 424.727 322.179 425.553 321.725L423.148 317.341ZM473.125 289.212C456.867 298.484 440.336 307.912 423.148 317.341L425.553 321.725C442.783 312.273 459.35 302.825 475.602 293.556L473.125 289.212ZM473.078 289.24L473.078 289.24L475.65 293.528L475.65 293.528L473.078 289.24ZM473.246 289.148L473.246 289.148L475.482 293.62L475.482 293.62L473.246 289.148ZM859.772 174.5C674.263 174.5 579.824 228.361 473.126 289.212L475.603 293.555C582.081 232.829 675.59 179.5 859.772 179.5V174.5ZM1198.48 260.946C1160.6 236.663 1126.79 214.978 1076.96 199.426C1027.15 183.881 961.478 174.5 859.772 174.5V179.5C961.2 179.5 1026.32 188.86 1075.47 204.199C1124.6 219.53 1157.9 240.87 1195.78 265.156L1198.48 260.946ZM1255.07 295.667C1234.03 283.738 1215.83 272.07 1198.48 260.946L1195.78 265.156C1213.13 276.274 1231.43 288.012 1252.61 300.017L1255.07 295.667ZM1256.31 296C1255.89 296 1255.45 295.883 1255.07 295.667L1252.61 300.017C1253.72 300.651 1255.01 301 1256.31 301V296ZM1327.5 296H1256.31V301H1327.5V296ZM1350 318.5C1350 306.073 1339.93 296 1327.5 296V301C1337.17 301 1345 308.835 1345 318.5H1350ZM1350 408.5V318.5H1345V408.5H1350ZM1365.86 411.773L1348.27 406.119L1346.74 410.88L1364.33 416.534L1365.86 411.773ZM1378 428.434C1378 420.832 1373.09 414.1 1365.86 411.773L1364.33 416.534C1369.49 418.195 1373 423.004 1373 428.434H1378ZM1378 477.113V428.434H1373V477.113H1378ZM1348.45 509.479C1365.19 507.951 1378 493.918 1378 477.113H1373C1373 491.332 1362.16 503.207 1348 504.499L1348.45 509.479ZM1255.23 517.989L1348.45 509.479L1348 504.499L1254.77 513.01L1255.23 517.989ZM1250.19 518.374L1255.19 517.992L1254.81 513.007L1249.81 513.389L1250.19 518.374ZM1247.5 499V515.881H1252.5V499H1247.5ZM1249.5 501.5H1250V496.5H1249.5V501.5ZM1144.5 397C1200.95 397 1246.74 442.627 1247 499.012L1252 498.988C1251.72 439.853 1203.7 392 1144.5 392V397ZM1042 499.5C1042 442.89 1087.89 397 1144.5 397V392C1085.13 392 1037 440.129 1037 499.5H1042ZM1042.49 509.57C1042.17 506.257 1042 502.898 1042 499.5H1037C1037 503.06 1037.17 506.581 1037.51 510.055L1042.49 509.57ZM1042.5 531.926V509.812H1037.5V531.926H1042.5ZM1032.69 534.992L1040.19 534.419L1039.81 529.434L1032.31 530.007L1032.69 534.992ZM1080.31 233.051C1111.28 246.444 1130.49 255.986 1142.74 263.693C1154.95 271.376 1160.02 277.105 1162.93 282.801L1167.38 280.523C1163.91 273.733 1158.03 267.41 1145.4 259.462C1132.81 251.537 1113.3 241.87 1082.29 228.462L1080.31 233.051ZM1077.37 236.772C1075.85 234.753 1077.97 232.039 1080.31 233.051L1082.29 228.462C1075.27 225.423 1068.76 233.635 1073.37 239.775L1077.37 236.772ZM1110.27 280.575L1077.37 236.772L1073.37 239.775L1106.27 283.578L1110.27 280.575ZM1120.27 285.567C1116.33 285.567 1112.63 283.718 1110.27 280.575L1106.27 283.577C1109.58 287.978 1114.76 290.567 1120.27 290.567V285.567ZM1160.84 285.567H1120.27V290.567H1160.84V285.567ZM1162.93 282.801C1163.25 283.427 1163.18 284.046 1162.81 284.579C1162.42 285.142 1161.71 285.567 1160.84 285.567V290.567C1165.75 290.567 1169.95 285.54 1167.38 280.523L1162.93 282.801ZM1013.94 204.81C979.69 200.097 914.719 195.133 855.434 196.713L855.567 201.711C914.558 200.139 979.256 205.084 1013.26 209.763L1013.94 204.81ZM1028.65 213.754C1025.16 208.925 1019.91 205.631 1013.94 204.81L1013.26 209.763C1017.81 210.389 1021.87 212.907 1024.6 216.681L1028.65 213.754ZM1053.74 248.506L1028.65 213.754L1024.6 216.681L1049.69 251.433L1053.74 248.506ZM1058 261.678C1058 256.949 1056.51 252.34 1053.74 248.506L1049.69 251.433C1051.84 254.415 1053 258 1053 261.678H1058ZM1058 300.5V261.678H1053V300.5H1058ZM843.89 312.997L1055.62 302.997L1055.38 298.002L843.654 308.002L843.89 312.997ZM853.014 198.95L841.286 310.238L846.258 310.762L857.986 199.474L853.014 198.95ZM575.767 283.619C647.791 238.862 744.351 204.266 825.079 201.71L824.921 196.713C743.113 199.303 645.705 234.271 573.128 279.372L575.767 283.619ZM574.638 285.357C574.745 284.626 575.158 283.997 575.767 283.619L573.128 279.372C571.251 280.538 570.01 282.464 569.691 284.628L574.638 285.357ZM568.745 325.364L574.638 285.356L569.691 284.628L563.799 324.635L568.745 325.364ZM808.649 310.503L566.149 322.503L566.396 327.497L808.896 315.497L808.649 310.503ZM822.525 198.859L806.297 312.647L811.247 313.353L827.475 199.565L822.525 198.859ZM431.469 318.492L462.196 316.066L461.803 311.081L431.075 313.507L431.469 318.492ZM463.61 295.09C452.855 301.107 441.697 307.348 430.058 313.814L432.486 318.185C444.133 311.715 455.296 305.47 466.051 299.454L463.61 295.09ZM463.618 295.085L463.615 295.087L466.045 299.457L466.049 299.455L463.618 295.085ZM701.774 191.05C619.746 207.726 556.715 243.008 463.613 295.088L466.054 299.452C559.278 247.303 621.635 212.444 702.77 195.95L701.774 191.05ZM695.865 204.264L704.122 195.182L700.422 191.818L692.165 200.901L695.865 204.264ZM690.631 207.698C692.635 207.013 694.436 205.836 695.865 204.264L692.165 200.901C691.308 201.843 690.226 202.552 689.015 202.966L690.631 207.698ZM476.791 311.292C552.561 264.723 622.474 230.973 690.631 207.698L689.015 202.966C620.443 226.383 550.194 260.308 474.173 307.032L476.791 311.292ZM462.196 316.066C467.376 315.657 472.376 314.006 476.791 311.292L474.173 307.032C470.421 309.339 466.181 310.736 461.803 311.081L462.196 316.066ZM1101.62 223.403C1143.03 241.628 1159.15 253.571 1174.85 265.195L1177.82 261.176C1161.91 249.397 1145.48 237.24 1103.63 218.827L1101.62 223.403ZM1094.29 214.347C1095.1 218.39 1097.89 221.761 1101.62 223.403L1103.63 218.827C1101.35 217.822 1099.67 215.765 1099.19 213.366L1094.29 214.347ZM1093.32 209.49L1094.29 214.347L1099.19 213.366L1098.22 208.51L1093.32 209.49ZM1201.73 263.116C1170.59 243.063 1137.54 221.761 1096.64 206.655L1094.91 211.345C1135.22 226.236 1167.85 247.242 1199.02 267.319L1201.73 263.116ZM1235.55 284.352C1224.32 277.669 1213.16 270.48 1201.73 263.116L1199.02 267.319C1210.44 274.675 1221.68 281.913 1232.99 288.648L1235.55 284.352ZM1203.53 284.553C1213.02 290.078 1224.27 291.322 1234.82 288.939L1233.72 284.061C1224.25 286.201 1214.31 285.047 1206.05 280.233L1203.53 284.553ZM1174.85 265.195C1183.23 271.405 1191.58 277.585 1203.53 284.553L1206.05 280.233C1194.35 273.414 1186.2 267.378 1177.82 261.176L1174.85 265.195Z" fill="black"/>
<path fill-rule="evenodd" clip-rule="evenodd" d="M534.517 327.743L1167.37 296.706C1174.34 296.365 1178.82 289.167 1176.06 282.758L1172.76 275.115C1171.46 272.085 1169.44 269.415 1166.8 267.434C1132.38 241.58 1077.19 217.569 1044.77 210.5C983.32 197.101 890.274 197.364 848.882 197.482C845.481 197.491 842.429 197.5 839.772 197.5C734.138 196.508 612.762 248.642 531.267 309.014C530.001 309.952 529.272 311.427 529.272 313.003V322.749C529.272 325.606 531.663 327.883 534.517 327.743ZM1013.6 207.287C979.473 202.59 914.638 197.636 855.5 199.212L843.772 310.5L1055.5 300.5V261.678C1055.5 257.474 1054.18 253.378 1051.71 249.97L1026.62 215.217C1023.52 210.916 1018.86 208.01 1013.6 207.287ZM574.447 281.496C646.748 236.567 743.732 201.785 825 199.212L808.772 313L566.272 325L572.164 284.992C572.377 283.545 573.205 282.268 574.447 281.496ZM1165.16 281.662C1158.77 269.177 1143.27 257.557 1081.3 230.756C1076.62 228.731 1072.3 234.194 1075.37 238.273L1108.27 282.076C1111.1 285.848 1115.55 288.067 1120.27 288.067H1160.84C1164.25 288.067 1166.71 284.698 1165.16 281.662Z" fill="#545454"/>
<path d="M1167.37 296.706L1167.29 295.208L1167.37 296.706ZM534.517 327.743L534.59 329.241H534.59L534.517 327.743ZM1176.06 282.758L1174.68 283.352V283.352L1176.06 282.758ZM1172.76 275.115L1174.14 274.521L1172.76 275.115ZM1166.8 267.434L1165.9 268.633V268.633L1166.8 267.434ZM1044.77 210.5L1045.09 209.034L1044.77 210.5ZM848.882 197.482L848.886 198.982L848.882 197.482ZM839.772 197.5L839.758 199H839.772V197.5ZM531.267 309.014L532.16 310.219H532.16L531.267 309.014ZM855.5 199.212L855.46 197.712L854.146 197.747L854.008 199.055L855.5 199.212ZM1013.6 207.287L1013.81 205.801L1013.6 207.287ZM843.772 310.5L842.28 310.342L842.097 312.08L843.843 311.998L843.772 310.5ZM1055.5 300.5L1055.57 301.998L1057 301.93V300.5H1055.5ZM1051.71 249.97L1050.5 250.848V250.848L1051.71 249.97ZM1026.62 215.217L1025.41 216.095V216.095L1026.62 215.217ZM825 199.212L826.485 199.424L826.737 197.656L824.953 197.713L825 199.212ZM574.447 281.496L573.655 280.222L574.447 281.496ZM808.772 313L808.846 314.498L810.082 314.437L810.257 313.211L808.772 313ZM566.272 325L564.788 324.781L564.522 326.588L566.346 326.498L566.272 325ZM572.164 284.992L570.68 284.774L572.164 284.992ZM1081.3 230.756L1080.71 232.133L1081.3 230.756ZM1165.16 281.662L1166.49 280.978V280.978L1165.16 281.662ZM1075.37 238.273L1074.17 239.174L1075.37 238.273ZM1108.27 282.076L1109.47 281.175V281.175L1108.27 282.076ZM1167.29 295.208L534.443 326.245L534.59 329.241L1167.44 298.205L1167.29 295.208ZM1174.68 283.352C1177.03 288.799 1173.22 294.918 1167.29 295.208L1167.44 298.205C1175.46 297.811 1180.62 289.534 1177.44 282.163L1174.68 283.352ZM1171.39 275.709L1174.68 283.352L1177.44 282.163L1174.14 274.521L1171.39 275.709ZM1165.9 268.633C1168.31 270.446 1170.17 272.9 1171.39 275.709L1174.14 274.521C1172.74 271.271 1170.56 268.385 1167.7 266.235L1165.9 268.633ZM1044.45 211.966C1076.66 218.989 1131.66 242.91 1165.9 268.633L1167.7 266.235C1133.11 240.25 1077.72 216.149 1045.09 209.034L1044.45 211.966ZM848.886 198.982C890.329 198.864 983.194 198.609 1044.45 211.966L1045.09 209.034C983.447 195.593 890.219 195.865 848.877 195.982L848.886 198.982ZM839.772 199C842.432 199 845.486 198.991 848.886 198.982L848.877 195.982C845.476 195.991 842.427 196 839.772 196V199ZM532.16 310.219C613.483 249.975 734.547 198.012 839.758 199L839.786 196C733.728 195.004 612.041 247.309 530.374 307.809L532.16 310.219ZM530.772 313.003C530.772 311.894 531.283 310.869 532.16 310.219L530.374 307.809C528.719 309.035 527.772 310.961 527.772 313.003H530.772ZM530.772 322.749V313.003H527.772V322.749H530.772ZM534.443 326.245C532.445 326.343 530.772 324.749 530.772 322.749H527.772C527.772 326.464 530.88 329.423 534.59 329.241L534.443 326.245ZM855.54 200.711C914.59 199.138 979.343 204.087 1013.4 208.773L1013.81 205.801C979.603 201.094 914.687 196.135 855.46 197.712L855.54 200.711ZM845.264 310.657L856.992 199.369L854.008 199.055L842.28 310.342L845.264 310.657ZM1055.43 299.001L843.701 309.001L843.843 311.998L1055.57 301.998L1055.43 299.001ZM1054 261.678V300.5H1057V261.678H1054ZM1050.5 250.848C1052.77 254 1054 257.789 1054 261.678H1057C1057 257.159 1055.58 252.755 1052.93 249.092L1050.5 250.848ZM1025.41 216.095L1050.5 250.848L1052.93 249.092L1027.84 214.339L1025.41 216.095ZM1013.4 208.773C1018.23 209.438 1022.53 212.111 1025.41 216.095L1027.84 214.339C1024.5 209.721 1019.49 206.583 1013.81 205.801L1013.4 208.773ZM824.953 197.713C743.36 200.296 646.122 235.19 573.655 280.222L575.239 282.77C647.373 237.944 744.103 203.274 825.047 200.711L824.953 197.713ZM810.257 313.211L826.485 199.424L823.515 199L807.287 312.788L810.257 313.211ZM566.346 326.498L808.846 314.498L808.698 311.501L566.198 323.501L566.346 326.498ZM570.68 284.774L564.788 324.781L567.756 325.218L573.648 285.211L570.68 284.774ZM573.655 280.222C572.033 281.23 570.957 282.897 570.68 284.774L573.648 285.211C573.798 284.194 574.377 283.305 575.239 282.77L573.655 280.222ZM1080.71 232.133C1111.68 245.529 1130.96 255.096 1143.27 262.847C1155.56 270.583 1160.8 276.431 1163.82 282.345L1166.49 280.978C1163.13 274.408 1157.42 268.203 1144.87 260.308C1132.35 252.427 1112.89 242.785 1081.9 229.38L1080.71 232.133ZM1076.57 237.373C1074.43 234.529 1077.43 230.716 1080.71 232.133L1081.9 229.38C1075.81 226.746 1070.18 233.858 1074.17 239.174L1076.57 237.373ZM1109.47 281.175L1076.57 237.373L1074.17 239.174L1107.07 282.977L1109.47 281.175ZM1120.27 286.567C1116.02 286.567 1112.02 284.57 1109.47 281.175L1107.07 282.977C1110.19 287.126 1115.08 289.567 1120.27 289.567V286.567ZM1160.84 286.567H1120.27V289.567H1160.84V286.567ZM1163.82 282.345C1164.77 284.192 1163.35 286.567 1160.84 286.567V289.567C1165.15 289.567 1168.66 285.203 1166.49 280.978L1163.82 282.345Z" fill="black"/>
<path d="M515.242 336C512.868 445.608 515.191 507.166 537.023 515.255C537.495 515.43 537.998 515.5 538.502 515.5H827.242M515.242 336V307.201C515.242 305.515 516.093 303.941 517.506 303.02C619.849 236.306 728.824 189.5 840.742 189.5M515.242 336C512.868 445.608 515.191 507.167 537.023 515.255C537.495 515.43 537.998 515.5 538.502 515.5H827.242M840.742 189.5C929.05 189.5 982.311 189.5 1031.26 199.586C1032.53 199.848 1033.65 200.602 1034.37 201.678L1100.39 299.733C1100.95 300.559 1101.24 301.531 1101.24 302.526V376.358C1101.24 378.529 1099.85 380.438 1097.8 381.161C1068.29 391.591 1019.11 421.057 1017.32 510.452C1017.27 513.213 1015.03 515.5 1012.27 515.5H827.242M840.742 189.5L827.242 316.5V515.5" stroke="black" stroke-width="4"/>
<path d="M1292.77 333.5H1346.77V395.5H1333.99C1331.77 395.5 1329.82 394.036 1329.19 391.906L1324 374.187L1291.66 366.837C1289.39 366.32 1287.77 364.296 1287.77 361.962V338.5C1287.77 335.738 1290.01 333.5 1292.77 333.5Z" fill="#971D1D" stroke="black" stroke-width="4"/>
<path d="M1347.54 373.5V394.812H1333.76C1331.54 394.812 1329.59 393.349 1328.97 391.219L1323.77 373.5H1347.54Z" fill="#D27D2E" stroke="black" stroke-width="4"/>
<path d="M305.729 400H287.222C286.229 400 285.259 400.296 284.434 400.85L279 404.5L270 403.5L266.5 411L265.084 412.322C261.506 415.662 256.117 416.147 252 413.5L243.137 416.824C241.72 417.356 240.239 416.18 240.405 414.676C241.632 403.607 242.428 388.072 246.5 384L266.5 380L320.619 383.464C323.432 383.644 324.466 387.252 322.176 388.895L307.477 399.438C306.968 399.803 306.356 400 305.729 400Z" fill="url(#paint2_diamond_516_2)" stroke="black" stroke-width="4"/>
<path d="M295.873 382.604L286 400H305.542C306.165 400 306.773 399.806 307.281 399.445L322.249 388.801C324.536 387.175 323.538 383.58 320.741 383.365L297.766 381.597C296.994 381.538 296.256 381.93 295.873 382.604Z" fill="#D27D2E" stroke="black" stroke-width="4"/>
<path d="M1221 427L1255.71 410.459C1257.73 409.498 1259.93 409 1262.16 409H1347.77" stroke="black" stroke-width="4"/>
<path d="M545.084 331.664C543.466 308.528 547.492 285.956 572.542 291.291C573.37 291.467 573.995 292.175 574.079 293.017L577.617 328.537C577.708 329.45 577.169 330.309 576.304 330.615C569.692 332.958 559.325 336.215 546.59 333.425C545.752 333.242 545.144 332.52 545.084 331.664Z" fill="url(#paint3_linear_516_2)" stroke="black" stroke-width="3"/>
<path d="M743.75 358.406C742.464 332.43 793.328 328.424 794.687 355.884C795.606 374.439 744.668 376.961 743.75 358.406Z" fill="url(#paint4_linear_516_2)" stroke="black" stroke-width="3"/>
<path d="M737.424 362.424C731.962 362.695 727.916 351.346 736.853 350.903C747.777 350.363 786.011 348.47 800.3 345.527C813.21 344.887 814.498 360.843 801.092 361.507C787.078 359.966 747.355 361.933 737.424 362.424Z" fill="#4C4C4C" stroke="black" stroke-width="3"/>
<path d="M1017.41 344.856C1016.13 318.88 1066.99 314.873 1068.35 342.334C1069.27 360.888 1018.33 363.41 1017.41 344.856Z" fill="url(#paint5_linear_516_2)" stroke="black" stroke-width="3"/>
<path d="M1011.09 348.874C1005.63 349.144 1001.58 337.796 1010.52 337.353C1021.44 336.812 1059.68 334.919 1073.97 331.976C1086.88 331.337 1088.16 347.293 1074.76 347.957C1060.74 346.415 1021.02 348.382 1011.09 348.874Z" fill="#4C4C4C" stroke="black" stroke-width="3"/>
<path d="M425.081 319.917L415.349 321.595C413.863 321.851 412.373 321.438 411.18 320.516C397.963 310.304 353.436 284.961 340.225 277.504C338.068 276.287 335.379 276.859 333.864 278.819L321.598 294.691C321.533 294.776 321.461 294.855 321.383 294.928L308.782 306.736C308.596 306.91 308.445 307.119 308.337 307.35L301.567 321.856C301.522 321.952 301.47 322.044 301.411 322.132L291.527 336.722C291.193 337.215 290.657 337.533 290.064 337.591L275.5 339L289.859 319.689C289.953 319.564 290.031 319.427 290.093 319.284L297.333 302.39C297.443 302.133 297.606 301.902 297.811 301.711L315.5 285.318L331.339 266.211C332.88 264.351 335.496 263.841 337.597 265.032C350.93 272.589 398.165 299.586 425.489 318.126C426.231 318.63 425.964 319.765 425.081 319.917Z" fill="#C6C6C6" stroke="black" stroke-width="3"/>
<path d="M466.403 464.445C487.845 512.33 477.85 563.408 444.078 578.531L407.571 594.878L329.921 421.47L366.428 405.122C400.2 390 444.96 416.559 466.403 464.445Z" fill="#202020"/>
<ellipse cx="368.746" cy="508.174" rx="67" ry="95" transform="rotate(-24.1222 368.746 508.174)" fill="url(#paint6_radial_516_2)"/>
<ellipse cx="368.746" cy="508.174" rx="46.9" ry="66.5" transform="rotate(-24.1222 368.746 508.174)" fill="#E7E7E7"/>
<ellipse cx="368.747" cy="508.174" rx="40.2" ry="57" transform="rotate(-24.1222 368.747 508.174)" fill="url(#paint7_radial_516_2)"/>
<path fill-rule="evenodd" clip-rule="evenodd" d="M337.337 457.703L352.013 451.131L367.904 486.62L381.946 458.545L397.354 473.281L383.361 501.257L413.55 509.45L414.282 530.756L383.987 522.535L400.544 559.511L385.868 566.083L369.368 529.234L355.423 557.112L340.016 542.377L354.009 514.4L323.82 506.208L323.088 484.901L353.172 493.065L337.337 457.703Z" fill="url(#paint8_radial_516_2)"/>
<rect x="344.335" y="461.855" width="6.7" height="104.5" transform="rotate(-24.1222 344.335 461.855)" fill="url(#paint9_linear_516_2)"/>
<rect width="8.88313" height="82.4853" transform="matrix(0.722696 0.691166 -0.447338 0.894365 383.986 468.218)" fill="url(#paint10_linear_516_2)"/>
<rect width="8.88313" height="82.4853" transform="matrix(0.0343205 0.999411 -0.965096 -0.261897 408.397 514.536)" fill="url(#paint11_linear_516_2)"/>
<path d="M381.743 502.354C384.065 507.538 384.675 512.877 383.808 517.306C382.941 521.737 380.61 525.213 377.084 526.792C373.557 528.371 369.412 527.795 365.529 525.491C361.647 523.188 358.072 519.178 355.75 513.993C353.428 508.809 352.818 503.47 353.685 499.041C354.552 494.61 356.883 491.134 360.409 489.555C363.936 487.976 368.081 488.552 371.964 490.856C375.846 493.159 379.421 497.169 381.743 502.354Z" fill="url(#paint12_radial_516_2)" stroke="#777777"/>
<ellipse cx="368.746" cy="508.174" rx="67" ry="95" transform="rotate(-24.1222 368.746 508.174)" fill="url(#paint13_linear_516_2)"/>
<path d="M254.339 435.89L268.364 437.363L309.083 473.27C309.599 473.725 310.204 474.069 310.858 474.28L349.819 486.822C350.435 487.021 351.008 487.337 351.504 487.754L387.95 518.385C388.661 518.982 388.244 520.178 387.32 520.268C368.763 522.074 352.451 541.279 320.55 596.667L307.133 588.94C306.705 588.693 306.316 588.385 305.978 588.024L296.661 578.074C296.181 577.561 295.598 577.155 294.95 576.883L278.618 570.013C277.79 569.664 277.072 569.1 276.538 568.378L265.632 553.645C265.024 552.823 264.179 552.208 263.211 551.881L236.511 542.881C235.979 542.701 235.481 542.434 235.038 542.089L206.64 519.995C204.028 517.963 204.075 513.999 206.735 512.03L214.522 506.266C217.05 504.395 218.551 501.443 218.573 498.298L218.647 487.748C218.654 486.649 219.024 485.583 219.698 484.715L228.928 472.836C229.503 472.096 229.859 471.209 229.954 470.277L231.817 452.058C231.888 451.358 232.107 450.681 232.458 450.072L234.919 445.799C238.865 438.948 246.476 435.064 254.339 435.89Z" fill="url(#paint14_linear_516_2)" stroke="black" stroke-width="5"/>
<circle cx="1145" cy="505" r="95" fill="url(#paint15_radial_516_2)"/>
<circle cx="1145" cy="505" r="66.5" fill="#E7E7E7"/>
<circle cx="1145" cy="505" r="57" fill="url(#paint16_radial_516_2)"/>
<path fill-rule="evenodd" clip-rule="evenodd" d="M1133.6 446.1H1156.4V484.984L1190.84 465.1L1202.24 484.845L1167.92 504.66L1202.24 524.475L1190.84 544.22L1156.4 524.336V564.85H1133.6V524.475L1099.4 544.22L1088 524.475L1122.32 504.66L1088 484.845L1099.4 465.1L1133.6 484.845V446.1Z" fill="url(#paint17_radial_516_2)"/>
<rect x="1140.25" y="452.75" width="9.5" height="104.5" fill="url(#paint18_linear_516_2)"/>
<rect x="1187.88" y="474.761" width="9.5" height="104.5" transform="rotate(60 1187.88 474.761)" fill="url(#paint19_linear_516_2)"/>
<rect x="1192.62" y="527.011" width="9.5" height="104.5" transform="rotate(120 1192.62 527.011)" fill="url(#paint20_linear_516_2)"/>
<circle cx="1145" cy="505" r="20.4" fill="url(#paint21_radial_516_2)" stroke="#777777"/>
<circle cx="704" cy="357" r="15" fill="#FFB800"/>
<path fill-rule="evenodd" clip-rule="evenodd" d="M719 357C719 365.284 712.284 372 704 372V357H719ZM689 357H704V342C695.716 342 689 348.716 689 357Z" fill="black"/>
<circle cx="862" cy="349" r="15" fill="#FFB800"/>
<path fill-rule="evenodd" clip-rule="evenodd" d="M877 349C877 357.284 870.284 364 862 364V349H877ZM847 349H862V334C853.716 334 847 340.716 847 349Z" fill="black"/>
<circle cx="982" cy="349" r="15" fill="#FFB800"/>
<path fill-rule="evenodd" clip-rule="evenodd" d="M997 349C997 357.284 990.284 364 982 364V349H997ZM967 349H982V334C973.716 334 967 340.716 967 349Z" fill="black"/>
<circle cx="1137" cy="342" r="15" fill="#FFB800"/>
<path fill-rule="evenodd" clip-rule="evenodd" d="M1152 342C1152 350.284 1145.28 357 1137 357V342H1152ZM1122 342H1137V327C1128.72 327 1122 333.716 1122 342Z" fill="black"/>
<circle cx="1257" cy="340" r="15" fill="#FFB800"/>
<path fill-rule="evenodd" clip-rule="evenodd" d="M1272 340C1272 348.284 1265.28 355 1257 355V340H1272ZM1242 340H1257V325C1248.72 325 1242 331.716 1242 340Z" fill="black"/>
<circle cx="584" cy="357" r="15" fill="#FFB800"/>
<path fill-rule="evenodd" clip-rule="evenodd" d="M599 357C599 365.284 592.284 372 584 372V357H599ZM569 357H584V342C575.716 342 569 348.716 569 357Z" fill="black"/>
<circle cx="455" cy="361" r="15" fill="#FFB800"/>
<path fill-rule="evenodd" clip-rule="evenodd" d="M470 361C470 369.284 463.284 376 455 376V361H470ZM440 361H455V346C446.716 346 440 352.716 440 361Z" fill="black"/>
<ellipse cx="352.86" cy="360.544" rx="10.5" ry="15" transform="rotate(9.62269 352.86 360.544)" fill="#FFB800"/>
<path fill-rule="evenodd" clip-rule="evenodd" d="M342.508 358.789C343.893 350.621 349.65 344.786 355.367 345.755L352.86 360.544L342.508 358.789ZM350.334 375.33L350.353 375.333L352.86 360.544L363.212 362.299L363.227 362.214L363.213 362.299C361.828 370.467 356.07 376.302 350.353 375.333C350.347 375.332 350.34 375.331 350.334 375.33Z" fill="black"/>
<circle cx="661.5" cy="442.5" r="62.5" fill="#FFB800"/>
<path fill-rule="evenodd" clip-rule="evenodd" d="M724 442.5C724 477.018 696.018 505 661.5 505V442.5H724ZM599 442.5H661.5V380C626.982 380 599 407.982 599 442.5Z" fill="black"/>
<path d="M625.947 426.398C625.947 426.111 626.002 425.841 626.111 425.588C626.22 425.328 626.371 425.106 626.562 424.921C626.754 424.73 626.976 424.58 627.229 424.47C627.488 424.354 627.762 424.296 628.049 424.296H636.026C636.314 424.296 636.584 424.354 636.837 424.47C637.096 424.58 637.322 424.73 637.513 424.921C637.705 425.106 637.855 425.328 637.964 425.588C638.074 425.841 638.129 426.111 638.129 426.398V428.295H636.026V426.398H628.049V436.898H636.026V435.011H638.129V436.898C638.129 437.185 638.074 437.458 637.964 437.718C637.855 437.971 637.705 438.193 637.513 438.385C637.322 438.576 637.096 438.727 636.837 438.836C636.584 438.945 636.314 439 636.026 439H628.049C627.762 439 627.488 438.945 627.229 438.836C626.976 438.727 626.754 438.576 626.562 438.385C626.371 438.193 626.22 437.971 626.111 437.718C626.002 437.458 625.947 437.185 625.947 436.898V426.398ZM657.309 429.546C657.309 431.597 656.434 432.766 654.684 433.053L657.453 439H655.125L652.398 433.125H647.794V439H645.692V424.296H653.741C656.12 424.296 657.309 425.489 657.309 427.875V429.546ZM647.794 431.022H653.628C654.189 431.022 654.592 430.899 654.838 430.653C655.084 430.407 655.207 430.004 655.207 429.443V427.977C655.207 427.417 655.084 427.013 654.838 426.767C654.592 426.521 654.189 426.398 653.628 426.398H647.794V431.022Z" fill="#FFB800"/>
<path d="M626.111 425.588L627.029 425.985L627.033 425.976L626.111 425.588ZM626.562 424.921L627.256 425.641L627.263 425.635L627.269 425.628L626.562 424.921ZM627.229 424.47L627.626 425.388L627.637 425.383L627.229 424.47ZM636.837 424.47L636.419 425.379L636.434 425.386L636.448 425.392L636.837 424.47ZM637.513 424.921L636.806 425.628L636.813 425.635L636.819 425.641L637.513 424.921ZM637.964 425.588L637.043 425.976L637.047 425.985L637.964 425.588ZM638.129 428.295V429.295H639.129V428.295H638.129ZM636.026 428.295H635.026V429.295H636.026V428.295ZM636.026 426.398H637.026V425.398H636.026V426.398ZM628.049 426.398V425.398H627.049V426.398H628.049ZM628.049 436.898H627.049V437.898H628.049V436.898ZM636.026 436.898V437.898H637.026V436.898H636.026ZM636.026 435.011V434.011H635.026V435.011H636.026ZM638.129 435.011H639.129V434.011H638.129V435.011ZM637.964 437.718L638.882 438.115L638.886 438.106L637.964 437.718ZM636.837 438.836L636.448 437.914L636.44 437.918L636.837 438.836ZM627.229 438.836L626.832 439.754L626.841 439.758L627.229 438.836ZM626.111 437.718L625.189 438.106L625.193 438.115L626.111 437.718ZM626.947 426.398C626.947 426.242 626.976 426.107 627.029 425.985L625.193 425.191C625.027 425.574 624.947 425.98 624.947 426.398H626.947ZM627.033 425.976C627.093 425.833 627.168 425.726 627.256 425.641L625.868 424.202C625.573 424.486 625.348 424.823 625.189 425.2L627.033 425.976ZM627.269 425.628C627.37 425.528 627.486 425.448 627.626 425.388L626.832 423.552C626.465 423.711 626.137 423.932 625.855 424.214L627.269 425.628ZM627.637 425.383C627.767 425.325 627.901 425.296 628.049 425.296V423.296C627.622 423.296 627.21 423.383 626.82 423.557L627.637 425.383ZM628.049 425.296H636.026V423.296H628.049V425.296ZM636.026 425.296C636.174 425.296 636.301 425.325 636.419 425.379L637.254 423.562C636.866 423.383 636.453 423.296 636.026 423.296V425.296ZM636.448 425.392C636.594 425.453 636.71 425.532 636.806 425.628L638.22 424.214C637.934 423.928 637.599 423.706 637.225 423.549L636.448 425.392ZM636.819 425.641C636.907 425.726 636.983 425.833 637.043 425.976L638.886 425.2C638.727 424.823 638.502 424.486 638.207 424.202L636.819 425.641ZM637.047 425.985C637.1 426.107 637.129 426.242 637.129 426.398H639.129C639.129 425.98 639.048 425.574 638.882 425.191L637.047 425.985ZM637.129 426.398V428.295H639.129V426.398H637.129ZM638.129 427.295H636.026V429.295H638.129V427.295ZM637.026 428.295V426.398H635.026V428.295H637.026ZM636.026 425.398H628.049V427.398H636.026V425.398ZM627.049 426.398V436.898H629.049V426.398H627.049ZM628.049 437.898H636.026V435.898H628.049V437.898ZM637.026 436.898V435.011H635.026V436.898H637.026ZM636.026 436.011H638.129V434.011H636.026V436.011ZM637.129 435.011V436.898H639.129V435.011H637.129ZM637.129 436.898C637.129 437.054 637.099 437.196 637.043 437.33L638.886 438.106C639.048 437.721 639.129 437.316 639.129 436.898H637.129ZM637.047 437.321C636.986 437.461 636.907 437.577 636.806 437.678L638.22 439.092C638.503 438.81 638.724 438.482 638.882 438.115L637.047 437.321ZM636.806 437.678C636.71 437.774 636.594 437.853 636.448 437.914L637.225 439.758C637.599 439.6 637.934 439.379 638.22 439.092L636.806 437.678ZM636.44 437.918C636.317 437.971 636.183 438 636.026 438V440C636.444 440 636.85 439.92 637.233 439.754L636.44 437.918ZM636.026 438H628.049V440H636.026V438ZM628.049 438C627.893 438 627.751 437.971 627.617 437.914L626.841 439.758C627.225 439.92 627.631 440 628.049 440V438ZM627.626 437.918C627.486 437.858 627.37 437.778 627.269 437.678L625.855 439.092C626.137 439.374 626.465 439.595 626.832 439.754L627.626 437.918ZM627.269 437.678C627.169 437.577 627.089 437.461 627.029 437.321L625.193 438.115C625.352 438.482 625.573 438.81 625.855 439.092L627.269 437.678ZM627.033 437.33C626.976 437.196 626.947 437.054 626.947 436.898H624.947C624.947 437.316 625.027 437.721 625.189 438.106L627.033 437.33ZM626.947 436.898V426.398H624.947V436.898H626.947ZM654.684 433.053L654.523 432.066L653.221 432.279L653.778 433.475L654.684 433.053ZM657.453 439V440H659.022L658.36 438.578L657.453 439ZM655.125 439L654.218 439.421L654.487 440H655.125V439ZM652.398 433.125L653.305 432.703L653.036 432.125H652.398V433.125ZM647.794 433.125V432.125H646.794V433.125H647.794ZM647.794 439V440H648.794V439H647.794ZM645.692 439H644.692V440H645.692V439ZM645.692 424.296V423.296H644.692V424.296H645.692ZM647.794 431.022H646.794V432.022H647.794V431.022ZM647.794 426.398V425.398H646.794V426.398H647.794ZM656.309 429.546C656.309 430.44 656.118 431.008 655.853 431.361C655.602 431.696 655.201 431.955 654.523 432.066L654.846 434.04C655.918 433.864 656.83 433.394 657.454 432.56C658.064 431.745 658.309 430.702 658.309 429.546H656.309ZM653.778 433.475L656.546 439.422L658.36 438.578L655.591 432.631L653.778 433.475ZM657.453 438H655.125V440H657.453V438ZM656.032 438.579L653.305 432.703L651.491 433.546L654.218 439.421L656.032 438.579ZM652.398 432.125H647.794V434.125H652.398V432.125ZM646.794 433.125V439H648.794V433.125H646.794ZM647.794 438H645.692V440H647.794V438ZM646.692 439V424.296H644.692V439H646.692ZM645.692 425.296H653.741V423.296H645.692V425.296ZM653.741 425.296C654.776 425.296 655.368 425.555 655.709 425.897C656.051 426.239 656.309 426.835 656.309 427.875H658.309C658.309 426.528 657.973 425.335 657.126 424.484C656.277 423.634 655.085 423.296 653.741 423.296V425.296ZM656.309 427.875V429.546H658.309V427.875H656.309ZM647.794 432.022H653.628V430.022H647.794V432.022ZM653.628 432.022C654.299 432.022 655.025 431.881 655.545 431.36L654.131 429.946C654.146 429.931 654.137 429.95 654.059 429.974C653.978 429.999 653.84 430.022 653.628 430.022V432.022ZM655.545 431.36C656.066 430.84 656.207 430.114 656.207 429.443H654.207C654.207 429.655 654.184 429.793 654.159 429.874C654.135 429.952 654.116 429.961 654.131 429.946L655.545 431.36ZM656.207 429.443V427.977H654.207V429.443H656.207ZM656.207 427.977C656.207 427.307 656.066 426.581 655.545 426.06L654.131 427.474C654.116 427.459 654.135 427.468 654.159 427.546C654.184 427.628 654.207 427.765 654.207 427.977H656.207ZM655.545 426.06C655.025 425.539 654.299 425.398 653.628 425.398V427.398C653.84 427.398 653.978 427.422 654.059 427.447C654.137 427.47 654.146 427.489 654.131 427.474L655.545 426.06ZM653.628 425.398H647.794V427.398H653.628V425.398ZM646.794 426.398V431.022H648.794V426.398H646.794Z" fill="#FFB800"/>
<path d="M673.075 424.296L678.746 439H676.644L675.342 435.616H668.707L667.405 439H665.303L670.973 424.296H673.075ZM669.507 433.514H674.531L672.029 427.034L669.507 433.514ZM687.57 432.704C687.283 432.704 687.01 432.649 686.75 432.54C686.497 432.424 686.275 432.273 686.083 432.089C685.892 431.897 685.742 431.675 685.632 431.422C685.523 431.163 685.468 430.889 685.468 430.602V426.398C685.468 426.111 685.523 425.841 685.632 425.588C685.742 425.328 685.892 425.106 686.083 424.921C686.275 424.73 686.497 424.58 686.75 424.47C687.01 424.354 687.283 424.296 687.57 424.296H694.707C694.994 424.296 695.264 424.354 695.517 424.47C695.777 424.58 696.002 424.73 696.194 424.921C696.385 425.106 696.536 425.328 696.645 425.588C696.754 425.841 696.809 426.111 696.809 426.398V428.295H694.707V426.398H687.57V430.602H694.707C694.994 430.602 695.264 430.657 695.517 430.766C695.777 430.875 696.002 431.026 696.194 431.217C696.385 431.409 696.536 431.634 696.645 431.894C696.754 432.147 696.809 432.417 696.809 432.704V436.898C696.809 437.185 696.754 437.458 696.645 437.718C696.536 437.971 696.385 438.193 696.194 438.385C696.002 438.576 695.777 438.727 695.517 438.836C695.264 438.945 694.994 439 694.707 439H687.365C687.078 439 686.805 438.945 686.545 438.836C686.292 438.727 686.07 438.576 685.878 438.385C685.687 438.193 685.537 437.971 685.427 437.718C685.318 437.458 685.263 437.185 685.263 436.898V435.011H687.365V436.898H694.707V432.704H687.57ZM717.426 424.296V439H715.324V432.704H706.905V439H704.803V424.296H706.905V430.602H715.324V424.296H717.426Z" fill="black"/>
<path d="M673.075 424.296L674.008 423.936L673.762 423.296H673.075V424.296ZM678.746 439V440H680.203L679.679 438.64L678.746 439ZM676.644 439L675.71 439.359L675.957 440H676.644V439ZM675.342 435.616L676.275 435.257L676.028 434.616H675.342V435.616ZM668.707 435.616V434.616H668.021L667.774 435.257L668.707 435.616ZM667.405 439V440H668.092L668.338 439.359L667.405 439ZM665.303 439L664.37 438.64L663.846 440H665.303V439ZM670.973 424.296V423.296H670.287L670.04 423.936L670.973 424.296ZM669.507 433.514L668.575 433.151L668.045 434.514H669.507V433.514ZM674.531 433.514V434.514H675.989L675.464 433.154L674.531 433.514ZM672.029 427.034L672.962 426.674L672.033 424.267L671.098 426.671L672.029 427.034ZM672.142 424.656L677.813 439.36L679.679 438.64L674.008 423.936L672.142 424.656ZM678.746 438H676.644V440H678.746V438ZM677.577 438.641L676.275 435.257L674.408 435.975L675.71 439.359L677.577 438.641ZM675.342 434.616H668.707V436.616H675.342V434.616ZM667.774 435.257L666.472 438.641L668.338 439.359L669.64 435.975L667.774 435.257ZM667.405 438H665.303V440H667.405V438ZM666.236 439.36L671.906 424.656L670.04 423.936L664.37 438.64L666.236 439.36ZM670.973 425.296H673.075V423.296H670.973V425.296ZM669.507 434.514H674.531V432.514H669.507V434.514ZM675.464 433.154L672.962 426.674L671.097 427.394L673.599 433.874L675.464 433.154ZM671.098 426.671L668.575 433.151L670.439 433.877L672.961 427.396L671.098 426.671ZM686.75 432.54L686.333 433.449L686.347 433.455L686.362 433.462L686.75 432.54ZM686.083 432.089L685.376 432.796L685.383 432.802L685.389 432.809L686.083 432.089ZM685.632 431.422L684.711 431.81L684.714 431.819L685.632 431.422ZM685.632 425.588L686.55 425.985L686.554 425.976L685.632 425.588ZM686.083 424.921L686.778 425.641L686.784 425.635L686.791 425.628L686.083 424.921ZM686.75 424.47L687.147 425.388L687.158 425.383L686.75 424.47ZM695.517 424.47L695.1 425.379L695.114 425.386L695.129 425.392L695.517 424.47ZM696.194 424.921L695.487 425.628L695.493 425.635L695.5 425.641L696.194 424.921ZM696.645 425.588L695.723 425.976L695.727 425.985L696.645 425.588ZM696.809 428.295V429.295H697.809V428.295H696.809ZM694.707 428.295H693.707V429.295H694.707V428.295ZM694.707 426.398H695.707V425.398H694.707V426.398ZM687.57 426.398V425.398H686.57V426.398H687.57ZM687.57 430.602H686.57V431.602H687.57V430.602ZM695.517 430.766L695.12 431.684L695.129 431.688L695.517 430.766ZM696.645 431.894L695.723 432.282L695.727 432.291L696.645 431.894ZM696.645 437.718L697.563 438.115L697.567 438.106L696.645 437.718ZM695.517 438.836L695.129 437.914L695.12 437.918L695.517 438.836ZM686.545 438.836L686.148 439.754L686.157 439.758L686.545 438.836ZM685.427 437.718L684.506 438.106L684.509 438.115L685.427 437.718ZM685.263 435.011V434.011H684.263V435.011H685.263ZM687.365 435.011H688.365V434.011H687.365V435.011ZM687.365 436.898H686.365V437.898H687.365V436.898ZM694.707 436.898V437.898H695.707V436.898H694.707ZM694.707 432.704H695.707V431.704H694.707V432.704ZM687.57 431.704C687.414 431.704 687.273 431.675 687.138 431.618L686.362 433.462C686.747 433.624 687.152 433.704 687.57 433.704V431.704ZM687.167 431.631C687.012 431.56 686.884 431.472 686.778 431.369L685.389 432.809C685.665 433.075 685.982 433.288 686.333 433.449L687.167 431.631ZM686.791 431.382C686.69 431.281 686.61 431.165 686.55 431.025L684.714 431.819C684.873 432.186 685.094 432.514 685.376 432.796L686.791 431.382ZM686.554 431.034C686.497 430.9 686.468 430.758 686.468 430.602H684.468C684.468 431.02 684.549 431.425 684.711 431.81L686.554 431.034ZM686.468 430.602V426.398H684.468V430.602H686.468ZM686.468 426.398C686.468 426.242 686.497 426.107 686.55 425.985L684.714 425.191C684.549 425.574 684.468 425.98 684.468 426.398H686.468ZM686.554 425.976C686.614 425.833 686.69 425.726 686.778 425.641L685.389 424.202C685.095 424.486 684.869 424.823 684.711 425.2L686.554 425.976ZM686.791 425.628C686.891 425.528 687.008 425.448 687.147 425.388L686.353 423.552C685.987 423.711 685.659 423.932 685.376 424.214L686.791 425.628ZM687.158 425.383C687.288 425.325 687.423 425.296 687.57 425.296V423.296C687.144 423.296 686.731 423.383 686.342 423.557L687.158 425.383ZM687.57 425.296H694.707V423.296H687.57V425.296ZM694.707 425.296C694.855 425.296 694.982 425.325 695.1 425.379L695.935 423.562C695.547 423.383 695.134 423.296 694.707 423.296V425.296ZM695.129 425.392C695.275 425.453 695.391 425.532 695.487 425.628L696.901 424.214C696.614 423.928 696.279 423.706 695.905 423.549L695.129 425.392ZM695.5 425.641C695.588 425.726 695.663 425.833 695.723 425.976L697.567 425.2C697.408 424.823 697.183 424.486 696.888 424.202L695.5 425.641ZM695.727 425.985C695.78 426.107 695.809 426.242 695.809 426.398H697.809C697.809 425.98 697.729 425.574 697.563 425.191L695.727 425.985ZM695.809 426.398V428.295H697.809V426.398H695.809ZM696.809 427.295H694.707V429.295H696.809V427.295ZM695.707 428.295V426.398H693.707V428.295H695.707ZM694.707 425.398H687.57V427.398H694.707V425.398ZM686.57 426.398V430.602H688.57V426.398H686.57ZM687.57 431.602H694.707V429.602H687.57V431.602ZM694.707 431.602C694.863 431.602 694.998 431.631 695.12 431.684L695.914 429.848C695.531 429.682 695.125 429.602 694.707 429.602V431.602ZM695.129 431.688C695.275 431.749 695.391 431.828 695.487 431.924L696.901 430.51C696.614 430.224 696.279 430.002 695.905 429.844L695.129 431.688ZM695.487 431.924C695.583 432.021 695.662 432.137 695.723 432.282L697.567 431.506C697.409 431.132 697.188 430.797 696.901 430.51L695.487 431.924ZM695.727 432.291C695.78 432.413 695.809 432.548 695.809 432.704H697.809C697.809 432.286 697.729 431.881 697.563 431.497L695.727 432.291ZM695.809 432.704V436.898H697.809V432.704H695.809ZM695.809 436.898C695.809 437.054 695.78 437.196 695.723 437.33L697.567 438.106C697.729 437.721 697.809 437.316 697.809 436.898H695.809ZM695.727 437.321C695.667 437.461 695.587 437.577 695.487 437.678L696.901 439.092C697.183 438.81 697.404 438.482 697.563 438.115L695.727 437.321ZM695.487 437.678C695.391 437.774 695.275 437.853 695.129 437.914L695.905 439.758C696.279 439.6 696.614 439.379 696.901 439.092L695.487 437.678ZM695.12 437.918C694.998 437.971 694.863 438 694.707 438V440C695.125 440 695.531 439.92 695.914 439.754L695.12 437.918ZM694.707 438H687.365V440H694.707V438ZM687.365 438C687.209 438 687.068 437.971 686.933 437.914L686.157 439.758C686.542 439.92 686.947 440 687.365 440V438ZM686.942 437.918C686.803 437.858 686.686 437.778 686.586 437.678L685.171 439.092C685.454 439.374 685.781 439.595 686.148 439.754L686.942 437.918ZM686.586 437.678C686.485 437.577 686.405 437.461 686.345 437.321L684.509 438.115C684.668 438.482 684.889 438.81 685.171 439.092L686.586 437.678ZM686.349 437.33C686.292 437.196 686.263 437.054 686.263 436.898H684.263C684.263 437.316 684.344 437.721 684.506 438.106L686.349 437.33ZM686.263 436.898V435.011H684.263V436.898H686.263ZM685.263 436.011H687.365V434.011H685.263V436.011ZM686.365 435.011V436.898H688.365V435.011H686.365ZM687.365 437.898H694.707V435.898H687.365V437.898ZM695.707 436.898V432.704H693.707V436.898H695.707ZM694.707 431.704H687.57V433.704H694.707V431.704ZM717.426 424.296H718.426V423.296H717.426V424.296ZM717.426 439V440H718.426V439H717.426ZM715.324 439H714.324V440H715.324V439ZM715.324 432.704H716.324V431.704H715.324V432.704ZM706.905 432.704V431.704H705.905V432.704H706.905ZM706.905 439V440H707.905V439H706.905ZM704.803 439H703.803V440H704.803V439ZM704.803 424.296V423.296H703.803V424.296H704.803ZM706.905 424.296H707.905V423.296H706.905V424.296ZM706.905 430.602H705.905V431.602H706.905V430.602ZM715.324 430.602V431.602H716.324V430.602H715.324ZM715.324 424.296V423.296H714.324V424.296H715.324ZM716.426 424.296V439H718.426V424.296H716.426ZM717.426 438H715.324V440H717.426V438ZM716.324 439V432.704H714.324V439H716.324ZM715.324 431.704H706.905V433.704H715.324V431.704ZM705.905 432.704V439H707.905V432.704H705.905ZM706.905 438H704.803V440H706.905V438ZM705.803 439V424.296H703.803V439H705.803ZM704.803 425.296H706.905V423.296H704.803V425.296ZM705.905 424.296V430.602H707.905V424.296H705.905ZM706.905 431.602H715.324V429.602H706.905V431.602ZM716.324 430.602V424.296H714.324V430.602H716.324ZM715.324 425.296H717.426V423.296H715.324V425.296Z" fill="black"/>
<path d="M676.892 458.898C676.892 459.185 676.837 459.458 676.728 459.718C676.618 459.971 676.468 460.193 676.277 460.385C676.085 460.576 675.86 460.727 675.6 460.836C675.347 460.945 675.077 461 674.79 461H666.392C666.105 461 665.831 460.945 665.571 460.836C665.319 460.727 665.096 460.576 664.905 460.385C664.714 460.193 664.563 459.971 664.454 459.718C664.344 459.458 664.29 459.185 664.29 458.898V448.398C664.29 448.111 664.344 447.841 664.454 447.588C664.563 447.328 664.714 447.106 664.905 446.921C665.096 446.73 665.319 446.58 665.571 446.47C665.831 446.354 666.105 446.296 666.392 446.296H674.79C675.077 446.296 675.347 446.354 675.6 446.47C675.86 446.58 676.085 446.73 676.277 446.921C676.468 447.106 676.618 447.328 676.728 447.588C676.837 447.841 676.892 448.111 676.892 448.398V458.898ZM666.392 448.398V458.898H674.79V448.398H666.392ZM684.875 446.296H686.978V458.898H695.375V446.296H697.478V458.898C697.478 459.185 697.423 459.458 697.313 459.718C697.204 459.971 697.054 460.193 696.862 460.385C696.671 460.576 696.445 460.727 696.186 460.836C695.933 460.945 695.663 461 695.375 461H686.978C686.69 461 686.417 460.945 686.157 460.836C685.904 460.727 685.682 460.576 685.491 460.385C685.299 460.193 685.149 459.971 685.04 459.718C684.93 459.458 684.875 459.185 684.875 458.898V446.296ZM704.2 446.296H715.961V448.398H711.132V461H709.03V448.398H704.2V446.296Z" fill="#FFB800"/>
<path d="M676.728 459.718L677.646 460.115L677.649 460.106L676.728 459.718ZM675.6 460.836L675.212 459.914L675.203 459.918L675.6 460.836ZM665.571 460.836L665.175 461.754L665.183 461.758L665.571 460.836ZM664.454 459.718L663.532 460.106L663.536 460.115L664.454 459.718ZM664.454 447.588L665.372 447.985L665.375 447.976L664.454 447.588ZM664.905 446.921L665.599 447.641L665.606 447.635L665.612 447.628L664.905 446.921ZM665.571 446.47L665.968 447.388L665.98 447.383L665.571 446.47ZM675.6 446.47L675.182 447.379L675.197 447.386L675.212 447.392L675.6 446.47ZM676.277 446.921L675.569 447.628L675.576 447.635L675.582 447.641L676.277 446.921ZM676.728 447.588L675.806 447.976L675.81 447.985L676.728 447.588ZM666.392 448.398V447.398H665.392V448.398H666.392ZM666.392 458.898H665.392V459.898H666.392V458.898ZM674.79 458.898V459.898H675.79V458.898H674.79ZM674.79 448.398H675.79V447.398H674.79V448.398ZM675.892 458.898C675.892 459.054 675.863 459.196 675.806 459.33L677.649 460.106C677.811 459.721 677.892 459.316 677.892 458.898H675.892ZM675.81 459.321C675.75 459.461 675.67 459.577 675.569 459.678L676.984 461.092C677.266 460.81 677.487 460.482 677.646 460.115L675.81 459.321ZM675.569 459.678C675.473 459.774 675.357 459.853 675.212 459.914L675.988 461.758C676.362 461.6 676.697 461.379 676.984 461.092L675.569 459.678ZM675.203 459.918C675.081 459.971 674.946 460 674.79 460V462C675.208 462 675.613 461.92 675.997 461.754L675.203 459.918ZM674.79 460H666.392V462H674.79V460ZM666.392 460C666.235 460 666.094 459.971 665.96 459.914L665.183 461.758C665.568 461.92 665.974 462 666.392 462V460ZM665.968 459.918C665.829 459.858 665.713 459.778 665.612 459.678L664.198 461.092C664.48 461.374 664.808 461.595 665.175 461.754L665.968 459.918ZM665.612 459.678C665.511 459.577 665.432 459.461 665.372 459.321L663.536 460.115C663.694 460.482 663.916 460.81 664.198 461.092L665.612 459.678ZM665.375 459.33C665.319 459.196 665.29 459.054 665.29 458.898H663.29C663.29 459.316 663.37 459.721 663.532 460.106L665.375 459.33ZM665.29 458.898V448.398H663.29V458.898H665.29ZM665.29 448.398C665.29 448.242 665.319 448.107 665.372 447.985L663.536 447.191C663.37 447.574 663.29 447.98 663.29 448.398H665.29ZM665.375 447.976C665.435 447.833 665.511 447.726 665.599 447.641L664.211 446.202C663.916 446.486 663.691 446.823 663.532 447.2L665.375 447.976ZM665.612 447.628C665.713 447.528 665.829 447.448 665.968 447.388L665.175 445.552C664.808 445.711 664.48 445.932 664.198 446.214L665.612 447.628ZM665.98 447.383C666.11 447.325 666.244 447.296 666.392 447.296V445.296C665.965 445.296 665.553 445.383 665.163 445.557L665.98 447.383ZM666.392 447.296H674.79V445.296H666.392V447.296ZM674.79 447.296C674.937 447.296 675.065 447.325 675.182 447.379L676.017 445.562C675.629 445.383 675.216 445.296 674.79 445.296V447.296ZM675.212 447.392C675.357 447.453 675.473 447.532 675.569 447.628L676.984 446.214C676.697 445.928 676.362 445.706 675.988 445.549L675.212 447.392ZM675.582 447.641C675.671 447.726 675.746 447.833 675.806 447.976L677.649 447.2C677.491 446.823 677.265 446.486 676.971 446.202L675.582 447.641ZM675.81 447.985C675.863 448.107 675.892 448.242 675.892 448.398H677.892C677.892 447.98 677.811 447.574 677.646 447.191L675.81 447.985ZM675.892 448.398V458.898H677.892V448.398H675.892ZM665.392 448.398V458.898H667.392V448.398H665.392ZM666.392 459.898H674.79V457.898H666.392V459.898ZM675.79 458.898V448.398H673.79V458.898H675.79ZM674.79 447.398H666.392V449.398H674.79V447.398ZM684.875 446.296V445.296H683.875V446.296H684.875ZM686.978 446.296H687.978V445.296H686.978V446.296ZM686.978 458.898H685.978V459.898H686.978V458.898ZM695.375 458.898V459.898H696.375V458.898H695.375ZM695.375 446.296V445.296H694.375V446.296H695.375ZM697.478 446.296H698.478V445.296H697.478V446.296ZM697.313 459.718L698.231 460.115L698.235 460.106L697.313 459.718ZM696.186 460.836L695.797 459.914L695.789 459.918L696.186 460.836ZM686.157 460.836L685.76 461.754L685.769 461.758L686.157 460.836ZM685.04 459.718L684.118 460.106L684.122 460.115L685.04 459.718ZM684.875 447.296H686.978V445.296H684.875V447.296ZM685.978 446.296V458.898H687.978V446.296H685.978ZM686.978 459.898H695.375V457.898H686.978V459.898ZM696.375 458.898V446.296H694.375V458.898H696.375ZM695.375 447.296H697.478V445.296H695.375V447.296ZM696.478 446.296V458.898H698.478V446.296H696.478ZM696.478 458.898C696.478 459.054 696.449 459.196 696.392 459.33L698.235 460.106C698.397 459.721 698.478 459.316 698.478 458.898H696.478ZM696.396 459.321C696.335 459.461 696.256 459.577 696.155 459.678L697.569 461.092C697.852 460.81 698.073 460.482 698.231 460.115L696.396 459.321ZM696.155 459.678C696.059 459.774 695.943 459.853 695.797 459.914L696.574 461.758C696.948 461.6 697.283 461.379 697.569 461.092L696.155 459.678ZM695.789 459.918C695.666 459.971 695.532 460 695.375 460V462C695.793 462 696.199 461.92 696.582 461.754L695.789 459.918ZM695.375 460H686.978V462H695.375V460ZM686.978 460C686.821 460 686.68 459.971 686.545 459.914L685.769 461.758C686.154 461.92 686.56 462 686.978 462V460ZM686.554 459.918C686.415 459.858 686.298 459.778 686.198 459.678L684.784 461.092C685.066 461.374 685.394 461.595 685.76 461.754L686.554 459.918ZM686.198 459.678C686.097 459.577 686.018 459.461 685.957 459.321L684.122 460.115C684.28 460.482 684.501 460.81 684.784 461.092L686.198 459.678ZM685.961 459.33C685.905 459.196 685.875 459.054 685.875 458.898H683.875C683.875 459.316 683.956 459.721 684.118 460.106L685.961 459.33ZM685.875 458.898V446.296H683.875V458.898H685.875ZM704.2 446.296V445.296H703.2V446.296H704.2ZM715.961 446.296H716.961V445.296H715.961V446.296ZM715.961 448.398V449.398H716.961V448.398H715.961ZM711.132 448.398V447.398H710.132V448.398H711.132ZM711.132 461V462H712.132V461H711.132ZM709.03 461H708.03V462H709.03V461ZM709.03 448.398H710.03V447.398H709.03V448.398ZM704.2 448.398H703.2V449.398H704.2V448.398ZM704.2 447.296H715.961V445.296H704.2V447.296ZM714.961 446.296V448.398H716.961V446.296H714.961ZM715.961 447.398H711.132V449.398H715.961V447.398ZM710.132 448.398V461H712.132V448.398H710.132ZM711.132 460H709.03V462H711.132V460ZM710.03 461V448.398H708.03V461H710.03ZM709.03 447.398H704.2V449.398H709.03V447.398ZM705.2 448.398V446.296H703.2V448.398H705.2Z" fill="#FFB800" style="mix-blend-mode:difference"/>
<path d="M644.247 467.299L626.25 472.062C624.668 466.156 616.625 467.75 618.299 474.026C617.566 474.327 616.768 473.763 616.808 472.971L616.932 470.554C616.936 470.477 616.929 470.399 616.913 470.323L616.375 467.875L616.102 466.508C616.013 466.062 616.487 465.717 616.884 465.939C617.173 466.101 617.538 465.963 617.646 465.65L617.683 465.544C617.808 465.186 618.248 465.058 618.545 465.293L618.669 465.391C618.98 465.637 619.438 465.416 619.438 465.019C619.438 464.666 619.81 464.436 620.125 464.595L620.55 464.808C620.901 464.984 621.33 464.866 621.541 464.535L625.489 458.354C626.295 457.091 627.545 456.175 628.993 455.788L637.24 453.578C638.632 453.205 640.112 453.345 641.409 453.974L648.188 457.259C648.725 457.519 649.326 457.613 649.917 457.53L652.6 457.151C653.1 457.08 653.575 457.394 653.706 457.882L654.909 462.372C655.195 463.439 654.561 464.535 653.495 464.821L652.579 465.067C651.01 459.213 642.707 461.551 644.247 467.299Z" fill="black"/>
<circle cx="621.971" cy="472.595" r="3.5485" transform="rotate(-15 621.971 472.595)" fill="black"/>
<ellipse cx="621.972" cy="472.596" rx="2.67502" ry="2.67502" transform="rotate(-15 621.972 472.596)" fill="#FFB800"/>
<circle cx="648.343" cy="465.919" r="3.5485" transform="rotate(-15 648.343 465.919)" fill="black"/>
<ellipse cx="648.342" cy="465.919" rx="2.67502" ry="2.67502" transform="rotate(-15 648.342 465.919)" fill="#FFB800"/>
<path d="M611.305 463.182L614.425 465.317C614.604 465.44 614.691 465.658 614.645 465.869C614.575 466.195 614.227 466.377 613.919 466.249L610.43 464.793C609.953 464.595 609.733 464.043 609.941 463.571C610.174 463.043 610.829 462.856 611.305 463.182Z" fill="black"/>
<path d="M610.68 467.579L614.408 468.206C614.622 468.242 614.792 468.403 614.84 468.614C614.913 468.939 614.673 469.251 614.34 469.264L610.562 469.409C610.047 469.429 609.615 469.022 609.605 468.505C609.595 467.928 610.111 467.483 610.68 467.579Z" fill="black"/>
<path d="M614.949 459.504L616.562 462.923C616.654 463.119 616.619 463.351 616.473 463.51C616.248 463.756 615.855 463.737 615.655 463.471L613.379 460.452C613.068 460.04 613.156 459.453 613.575 459.15C614.042 458.812 614.702 458.982 614.949 459.504Z" fill="black"/>
<circle cx="661.5" cy="442.5" r="62.5" fill="url(#paint22_linear_516_2)"/>
</g>
<defs>
<linearGradient id="paint0_linear_516_2" x1="762.522" y1="380.5" x2="762.522" y2="532.5" gradientUnits="userSpaceOnUse">
<stop stop-color="#0E0907"/>
<stop offset="1" stop-color="#2D1710"/>
</linearGradient>
<linearGradient id="paint1_linear_516_2" x1="806.201" y1="177" x2="806.201" y2="532.499" gradientUnits="userSpaceOnUse">
<stop offset="0.490135" stop-color="#C7C7C7"/>
<stop offset="1" stop-color="#838383"/>
</linearGradient>
<radialGradient id="paint2_diamond_516_2" cx="0" cy="0" r="1" gradientUnits="userSpaceOnUse" gradientTransform="translate(271.228 396) rotate(-24.5672) scale(38.4838 26.4511)">
<stop/>
<stop offset="1" stop-color="#252525"/>
</radialGradient>
<linearGradient id="paint3_linear_516_2" x1="559.772" y1="294.167" x2="565.267" y2="324.598" gradientUnits="userSpaceOnUse">
<stop stop-color="#929292"/>
<stop offset="1" stop-color="#585858"/>
</linearGradient>
<linearGradient id="paint4_linear_516_2" x1="768.226" y1="337.103" x2="769.908" y2="371.061" gradientUnits="userSpaceOnUse">
<stop stop-color="#A6A6A6"/>
<stop offset="0.505208" stop-color="#626262"/>
<stop offset="1" stop-color="#A6A6A6"/>
</linearGradient>
<linearGradient id="paint5_linear_516_2" x1="1041.89" y1="323.552" x2="1043.57" y2="357.511" gradientUnits="userSpaceOnUse">
<stop stop-color="#A6A6A6"/>
<stop offset="0.505208" stop-color="#626262"/>
<stop offset="1" stop-color="#A6A6A6"/>
</linearGradient>
<radialGradient id="paint6_radial_516_2" cx="0" cy="0" r="1" gradientUnits="userSpaceOnUse" gradientTransform="translate(368.746 508.174) rotate(90) scale(95 67)">
<stop offset="0.661458" stop-color="#111111"/>
<stop offset="1" stop-color="#333333"/>
</radialGradient>
<radialGradient id="paint7_radial_516_2" cx="0" cy="0" r="1" gradientUnits="userSpaceOnUse" gradientTransform="translate(368.747 508.174) rotate(90) scale(57 40.2)">
<stop stop-color="#1A110B"/>
<stop offset="1" stop-color="#3E2B1D"/>
</radialGradient>
<radialGradient id="paint8_radial_516_2" cx="0" cy="0" r="1" gradientUnits="userSpaceOnUse" gradientTransform="translate(368.805 508.147) rotate(65.8778) scale(56.05 38.254)">
<stop offset="0.177083" stop-color="#E7E7E7"/>
<stop offset="0.364583" stop-color="#C0C0C0"/>
<stop offset="0.921875" stop-color="#E7E7E7"/>
</radialGradient>
<linearGradient id="paint9_linear_516_2" x1="347.685" y1="461.855" x2="347.685" y2="566.355" gradientUnits="userSpaceOnUse">
<stop stop-color="#E3E3E3"/>
<stop offset="0.505208" stop-color="#575757"/>
<stop offset="1" stop-color="#E3E3E3"/>
</linearGradient>
<linearGradient id="paint10_linear_516_2" x1="4.44157" y1="0" x2="4.44157" y2="82.4853" gradientUnits="userSpaceOnUse">
<stop stop-color="#E3E3E3"/>
<stop offset="0.505208" stop-color="#575757"/>
<stop offset="1" stop-color="#E3E3E3"/>
</linearGradient>
<linearGradient id="paint11_linear_516_2" x1="4.44157" y1="0" x2="4.44157" y2="82.4853" gradientUnits="userSpaceOnUse">
<stop stop-color="#E3E3E3"/>
<stop offset="0.505208" stop-color="#575757"/>
<stop offset="1" stop-color="#E3E3E3"/>
</linearGradient>
<radialGradient id="paint12_radial_516_2" cx="0" cy="0" r="1" gradientUnits="userSpaceOnUse" gradientTransform="translate(368.747 508.174) rotate(65.8778) scale(19.475 14.28)">
<stop stop-color="#B8B8B8"/>
<stop offset="1" stop-color="#E7E7E7"/>
</radialGradient>
<linearGradient id="paint13_linear_516_2" x1="289.793" y1="502.821" x2="423.5" y2="562.693" gradientUnits="userSpaceOnUse">
<stop stop-opacity="0.75"/>
<stop offset="1" stop-opacity="0"/>
</linearGradient>
<linearGradient id="paint14_linear_516_2" x1="324.021" y1="469.419" x2="268.123" y2="566.473" gradientUnits="userSpaceOnUse">
<stop stop-color="#ABABAB"/>
<stop offset="1" stop-color="#848484"/>
</linearGradient>
<radialGradient id="paint15_radial_516_2" cx="0" cy="0" r="1" gradientUnits="userSpaceOnUse" gradientTransform="translate(1145 505) rotate(90) scale(95)">
<stop offset="0.661458" stop-color="#111111"/>
<stop offset="1" stop-color="#333333"/>
</radialGradient>
<radialGradient id="paint16_radial_516_2" cx="0" cy="0" r="1" gradientUnits="userSpaceOnUse" gradientTransform="translate(1145 505) rotate(90) scale(57)">
<stop stop-color="#1A110B"/>
<stop offset="1" stop-color="#3E2B1D"/>
</radialGradient>
<radialGradient id="paint17_radial_516_2" cx="0" cy="0" r="1" gradientUnits="userSpaceOnUse" gradientTransform="translate(1145.09 505) rotate(90) scale(56.05 54.2407)">
<stop offset="0.177083" stop-color="#E7E7E7"/>
<stop offset="0.364583" stop-color="#C0C0C0"/>
<stop offset="0.921875" stop-color="#E7E7E7"/>
</radialGradient>
<linearGradient id="paint18_linear_516_2" x1="1145" y1="452.75" x2="1145" y2="557.25" gradientUnits="userSpaceOnUse">
<stop stop-color="#E3E3E3"/>
<stop offset="0.505208" stop-color="#575757"/>
<stop offset="1" stop-color="#E3E3E3"/>
</linearGradient>
<linearGradient id="paint19_linear_516_2" x1="1192.63" y1="474.761" x2="1192.63" y2="579.261" gradientUnits="userSpaceOnUse">
<stop stop-color="#E3E3E3"/>
<stop offset="0.505208" stop-color="#575757"/>
<stop offset="1" stop-color="#E3E3E3"/>
</linearGradient>
<linearGradient id="paint20_linear_516_2" x1="1197.38" y1="527.011" x2="1197.38" y2="631.511" gradientUnits="userSpaceOnUse">
<stop stop-color="#E3E3E3"/>
<stop offset="0.505208" stop-color="#575757"/>
<stop offset="1" stop-color="#E3E3E3"/>
</linearGradient>
<radialGradient id="paint21_radial_516_2" cx="0" cy="0" r="1" gradientUnits="userSpaceOnUse" gradientTransform="translate(1145 505) rotate(90) scale(19.475 20.2477)">
<stop stop-color="#B8B8B8"/>
<stop offset="1" stop-color="#E7E7E7"/>
</radialGradient>
<linearGradient id="paint22_linear_516_2" x1="661.5" y1="380" x2="661.5" y2="505" gradientUnits="userSpaceOnUse">
<stop stop-color="white" stop-opacity="0.15"/>
<stop offset="1" stop-opacity="0.2"/>
</linearGradient>
<clipPath id="clip0_516_2">
<rect width="1500" height="600" fill="white"/>
</clipPath>
</defs>
</svg>
