<svg width="1500" height="600" viewBox="0 0 1500 600" fill="none" xmlns="http://www.w3.org/2000/svg">
<path d="M203.479 513.486L203 358H1305L1285.85 501.448L1063.73 508.972L430.389 518L203.479 513.486Z" fill="url(#paint0_linear_516_127)"/>
<path d="M310 387C263.608 387 226 434.01 226 492C226 549.99 263.608 597 310 597L350 597L350 387L310 387Z" fill="#252525"/>
<ellipse cx="350" cy="492" rx="105" ry="84" transform="rotate(90 350 492)" fill="url(#paint1_radial_516_127)"/>
<ellipse cx="350" cy="492" rx="80" ry="64" transform="rotate(90 350 492)" fill="#E7E7E7"/>
<ellipse cx="350" cy="492" rx="70" ry="56" transform="rotate(90 350 492)" fill="url(#paint2_radial_516_127)"/>
<path fill-rule="evenodd" clip-rule="evenodd" d="M408.367 496.76C409.552 496.796 410.507 495.799 410.421 494.617L409.129 476.753C409.039 475.508 407.842 474.648 406.633 474.961L372.757 483.733C370.605 484.29 369.286 481.446 371.102 480.163L402.349 458.098C403.196 457.5 403.446 456.355 402.925 455.459L394.64 441.204C393.951 440.02 392.303 439.863 391.403 440.895L360.843 475.944C359.441 477.551 356.833 476.141 357.41 474.088L371.598 423.645C371.896 422.584 371.28 421.481 370.22 421.18L356.869 417.378C355.661 417.034 354.439 417.875 354.329 419.125L350.81 458.979C350.604 461.324 347.221 461.447 346.844 459.123L340.442 419.663C340.237 418.395 338.906 417.647 337.716 418.13L324.665 423.431C323.667 423.836 323.17 424.958 323.539 425.97L341.762 475.869C342.488 477.857 340.033 479.463 338.503 478.002L305.114 446.127C304.13 445.187 302.515 445.484 301.928 446.712L294.673 461.906C294.22 462.855 294.579 463.992 295.495 464.509L326.596 482.06C328.522 483.147 327.519 486.095 325.329 485.781L292.283 481.048C291.078 480.876 290 481.811 290 483.028L290 500.973C290 502.19 291.078 503.125 292.283 502.953L335.504 496.762C337.482 496.479 338.607 498.951 337.095 500.256L300.272 532.044C299.496 532.715 299.352 533.864 299.94 534.705L309.178 547.91C309.965 549.035 311.626 549.051 312.434 547.941L333.737 518.672C335.102 516.797 338.028 518.357 337.233 520.535L323.539 558.031C323.17 559.043 323.668 560.165 324.665 560.571L337.716 565.871C338.906 566.354 340.237 565.606 340.443 564.338L348.769 513.013C349.119 510.856 352.181 510.743 352.688 512.869L364.719 563.215C365.023 564.49 366.451 565.132 367.607 564.514L380.257 557.748C381.188 557.25 381.571 556.114 381.133 555.154L364.025 517.667C363.067 515.569 365.836 513.784 367.352 515.522L391.403 543.106C392.303 544.138 393.951 543.981 394.64 542.797L402.925 528.542C403.446 527.646 403.196 526.501 402.349 525.903L364.415 499.116C362.796 497.972 363.648 495.424 365.629 495.483L408.367 496.76Z" fill="url(#paint3_radial_516_127)"/>
<ellipse cx="350" cy="492" rx="105" ry="84" transform="rotate(90 350 492)" fill="url(#paint4_linear_516_127)"/>
<path fill-rule="evenodd" clip-rule="evenodd" d="M1017.5 510.048L431 522.048H408V482V479H408C407.971 416.92 406.183 368.5 293 368.5C287.813 368.5 282.861 368.602 278.132 368.802L218 329.5H191.5C191.5 252.522 244.003 247.267 422.996 229.353C428.861 228.766 434.861 228.165 441 227.548C465.621 215.048 489.955 199.033 516.204 181.758L516.204 181.758C559.251 153.427 607.447 121.707 670.5 96.548C759.5 73.548 946.001 56.048 1282.5 85.5481C1320 106.048 1356.5 137.048 1409.5 218.548C1409.5 218.548 1425.7 257.948 1418.5 361.548C1435 365.548 1457 391.048 1427.5 464.048C1427.5 464.048 1399.5 492.148 1299.5 500.548L1282 501.138V485.5C1282 484.329 1282 483.162 1282 482C1281.96 420.16 1279.88 372 1167 372C1054.12 372 1052.04 420.16 1052 482H1052V485.5V508.886L1017.5 510.048ZM456.498 226.5L444.5 227.5C462.934 217.37 483.739 203.544 506.715 188.276C552.915 157.575 607.889 121.043 670 97L676.958 98.0986C680.055 98.5876 680.463 103.006 677.532 104.119C627.12 123.273 576.799 155.86 523.128 190.616C508.592 200.029 493.81 209.602 478.714 219.11C472.016 223.329 464.387 225.843 456.498 226.5ZM1115.76 110.703C1133.88 135.656 1170.44 194.903 1181.08 222.508C1182.75 226.838 1186.78 230 1191.42 230H1279.5C1282.45 230 1284.74 227.472 1283.79 224.681C1272.9 192.666 1195.25 132.091 1158.1 105.604C1154.77 103.226 1150.8 102 1146.71 102H1120.05C1115.75 102 1113.24 107.222 1115.76 110.703ZM849.5 98C747.2 101.426 700.963 124.499 617.91 167.686C614.601 169.407 612.5 172.84 612.5 176.57V230.048H832.5L832.501 230.04C833.277 222.799 833.651 219.305 834.074 215.816C834.468 212.568 834.905 209.324 835.747 203.064L835.748 203.06L835.748 203.057L835.749 203.051L835.75 203.045C837.5 190.04 840.999 164.029 849.5 98ZM881.5 230.048L888.5 98L1057.4 101.774C1063.75 101.916 1069.65 105.063 1073.22 110.322C1092.49 138.718 1152.21 230.048 1123.5 230.048H881.5ZM1389.25 201.5H1398L1395.69 198.394C1357.76 147.491 1339.03 122.359 1291 90.5L1283.98 90.2659C1281.9 90.1966 1281.02 93.0636 1282.75 94.2216C1319.67 118.947 1366.2 175.14 1379.84 196.13C1381.93 199.338 1385.43 201.5 1389.25 201.5Z" fill="url(#paint5_linear_516_127)"/>
<path d="M431 522.048V524.548H431.026L431.051 524.548L431 522.048ZM1017.5 510.048L1017.55 512.547L1017.57 512.547L1017.58 512.547L1017.5 510.048ZM408 522.048H405.5V524.548H408V522.048ZM408 479H410.5V476.5H408V479ZM408 479L405.5 479.001L405.501 481.5H408V479ZM278.132 368.802L276.764 370.894L277.435 371.333L278.237 371.299L278.132 368.802ZM218 329.5L219.368 327.407L218.745 327H218V329.5ZM191.5 329.5H189V332H191.5V329.5ZM422.996 229.353L422.747 226.865L422.996 229.353ZM441 227.548L441.25 230.036L441.715 229.989L442.132 229.777L441 227.548ZM516.204 181.758L514.879 179.638L514.854 179.653L514.829 179.67L516.204 181.758ZM516.204 181.758L517.529 183.878L517.554 183.862L517.578 183.846L516.204 181.758ZM670.5 96.548L669.874 94.1276L669.721 94.1673L669.573 94.2261L670.5 96.548ZM1282.5 85.5481L1283.7 83.3545L1283.24 83.1034L1282.72 83.0577L1282.5 85.5481ZM1409.5 218.548L1411.81 217.597L1411.72 217.381L1411.6 217.185L1409.5 218.548ZM1418.5 361.548L1416.01 361.375L1415.86 363.481L1417.91 363.978L1418.5 361.548ZM1427.5 464.048L1429.27 465.813L1429.63 465.454L1429.82 464.985L1427.5 464.048ZM1299.5 500.548L1299.59 503.047L1299.65 503.045L1299.71 503.039L1299.5 500.548ZM1282 501.138H1279.5V503.723L1282.08 503.636L1282 501.138ZM1282 482L1279.5 482.002V482.002L1282 482ZM1052 482V484.5H1054.5L1054.5 482.002L1052 482ZM1052 482V479.5H1049.5V482H1052ZM1052 508.886L1052.08 511.384L1054.5 511.303V508.886H1052ZM444.5 227.5L443.296 225.309L444.708 229.991L444.5 227.5ZM456.498 226.5L456.706 228.992L456.498 226.5ZM506.715 188.276L508.099 190.358L506.715 188.276ZM670 97L670.39 94.5306L669.725 94.4256L669.098 94.6686L670 97ZM676.958 98.0986L677.348 95.6292L677.348 95.6292L676.958 98.0986ZM677.532 104.119L678.42 106.456V106.456L677.532 104.119ZM523.128 190.616L524.487 192.715L523.128 190.616ZM478.714 219.11L480.046 221.225L478.714 219.11ZM1181.08 222.508L1178.74 223.407V223.407L1181.08 222.508ZM1115.76 110.703L1113.74 112.171V112.171L1115.76 110.703ZM1283.79 224.681L1281.43 225.487V225.487L1283.79 224.681ZM1158.1 105.604L1159.56 103.569V103.569L1158.1 105.604ZM617.91 167.686L619.064 169.904V169.904L617.91 167.686ZM849.5 98L851.98 98.3192L852.355 95.403L849.416 95.5014L849.5 98ZM612.5 230.048H610V232.548H612.5V230.048ZM832.5 230.048V232.548H834.744L834.986 230.317L832.5 230.048ZM832.501 230.04L834.987 230.308L834.987 230.306L832.501 230.04ZM834.074 215.816L831.593 215.515V215.515L834.074 215.816ZM835.747 203.064L838.225 203.398L838.228 203.377L838.23 203.356L835.747 203.064ZM835.748 203.06L833.274 202.7L833.269 202.734L833.265 202.768L835.748 203.06ZM835.748 203.057L838.222 203.417L838.227 203.385L838.231 203.354L835.748 203.057ZM835.749 203.051L833.268 202.746L833.267 202.755L835.749 203.051ZM835.75 203.045L833.272 202.712L833.27 202.726L833.268 202.74L835.75 203.045ZM888.5 98L888.556 95.5006L886.132 95.4465L886.004 97.8677L888.5 98ZM881.5 230.048L879.004 229.916L878.864 232.548H881.5V230.048ZM1057.4 101.774L1057.34 104.274L1057.4 101.774ZM1073.22 110.322L1075.29 108.918V108.918L1073.22 110.322ZM1398 201.5V204H1402.98L1400 200.006L1398 201.5ZM1395.69 198.394L1393.68 199.888L1393.68 199.888L1395.69 198.394ZM1291 90.5L1292.38 88.4166L1291.79 88.025L1291.08 88.0014L1291 90.5ZM1283.98 90.2659L1284.06 87.7673L1283.98 90.2659ZM1282.75 94.2216L1284.14 92.1444L1284.14 92.1444L1282.75 94.2216ZM1379.84 196.13L1381.94 194.768V194.768L1379.84 196.13ZM431.051 524.548L1017.55 512.547L1017.45 507.548L430.949 519.549L431.051 524.548ZM408 524.548H431V519.548H408V524.548ZM405.5 482V522.048H410.5V482H405.5ZM405.5 479V482H410.5V479H405.5ZM408 481.5H408V476.5H408V481.5ZM293 371C349.383 371 377.055 383.085 390.918 401.951C397.89 411.437 401.555 422.869 403.462 435.906C405.371 448.968 405.492 463.455 405.5 479.001L410.5 478.999C410.492 463.505 410.379 448.66 408.409 435.183C406.435 421.681 402.575 409.368 394.947 398.99C379.614 378.125 349.8 366 293 366V371ZM278.237 371.299C282.929 371.101 287.846 371 293 371V366C287.781 366 282.793 366.102 278.026 366.304L278.237 371.299ZM216.632 331.593L276.764 370.894L279.499 366.709L219.368 327.407L216.632 331.593ZM191.5 332H218V327H191.5V332ZM422.747 226.865C378.017 231.342 341.118 235.035 310.966 239.258C280.833 243.478 257.269 248.249 239.256 254.934C221.211 261.631 208.53 270.325 200.419 282.511C192.321 294.679 189 309.998 189 329.5H194C194 310.513 197.242 296.309 204.582 285.281C211.909 274.272 223.541 266.1 240.996 259.621C258.482 253.131 281.606 248.418 311.659 244.209C341.693 240.003 378.479 236.321 423.245 231.84L422.747 226.865ZM440.75 225.061C434.612 225.678 428.612 226.278 422.747 226.865L423.245 231.84C429.11 231.253 435.111 230.653 441.25 230.036L440.75 225.061ZM514.829 179.67C488.554 196.962 464.341 212.894 439.869 225.319L442.132 229.777C466.902 217.202 491.356 201.104 517.578 183.846L514.829 179.67ZM514.879 179.638L514.879 179.638L517.529 183.878L517.529 183.878L514.879 179.638ZM669.573 94.2261C606.258 119.49 557.873 151.341 514.83 179.669L517.578 183.846C560.63 155.512 608.635 123.925 671.426 98.87L669.573 94.2261ZM1282.72 83.0577C946.116 53.5485 759.283 71.0221 669.874 94.1276L671.125 98.9685C759.717 76.074 945.885 58.5474 1282.28 88.0386L1282.72 83.0577ZM1411.6 217.185C1358.45 135.462 1321.67 104.113 1283.7 83.3545L1281.3 87.7417C1318.33 107.983 1354.55 138.634 1407.41 219.911L1411.6 217.185ZM1421 361.722C1424.61 309.771 1422.35 273.847 1419.18 250.856C1417.59 239.36 1415.77 231.098 1414.34 225.683C1413.62 222.976 1413 220.981 1412.55 219.649C1412.33 218.983 1412.15 218.483 1412.02 218.143C1411.96 217.973 1411.91 217.843 1411.88 217.753C1411.86 217.707 1411.84 217.672 1411.83 217.646C1411.83 217.633 1411.82 217.623 1411.82 217.614C1411.82 217.61 1411.82 217.607 1411.82 217.604C1411.82 217.603 1411.81 217.601 1411.81 217.6C1411.81 217.599 1411.81 217.597 1409.5 218.548C1407.19 219.499 1407.19 219.498 1407.19 219.497C1407.19 219.497 1407.19 219.496 1407.19 219.496C1407.19 219.495 1407.19 219.496 1407.19 219.496C1407.19 219.498 1407.19 219.502 1407.19 219.508C1407.2 219.521 1407.21 219.544 1407.22 219.576C1407.24 219.641 1407.28 219.745 1407.34 219.888C1407.45 220.176 1407.61 220.624 1407.81 221.238C1408.22 222.466 1408.81 224.358 1409.5 226.963C1410.88 232.173 1412.66 240.236 1414.22 251.54C1417.35 274.149 1419.6 309.725 1416.01 361.375L1421 361.722ZM1429.82 464.985C1444.66 428.251 1446.73 403.053 1442.68 386.335C1438.61 369.507 1428.33 361.358 1419.09 359.119L1417.91 363.978C1425.17 365.738 1434.15 372.339 1437.82 387.512C1441.52 402.793 1439.84 426.846 1425.18 463.112L1429.82 464.985ZM1299.71 503.039C1349.92 498.822 1382.18 489.648 1401.96 481.458C1411.85 477.363 1418.61 473.514 1422.94 470.656C1425.1 469.227 1426.66 468.047 1427.68 467.208C1428.2 466.789 1428.58 466.455 1428.84 466.219C1428.97 466.101 1429.07 466.007 1429.14 465.938C1429.18 465.904 1429.21 465.877 1429.23 465.856C1429.24 465.845 1429.25 465.836 1429.26 465.829C1429.26 465.826 1429.26 465.823 1429.27 465.82C1429.27 465.818 1429.27 465.817 1429.27 465.816C1429.27 465.814 1429.27 465.813 1427.5 464.048C1425.73 462.284 1425.73 462.282 1425.73 462.281C1425.73 462.281 1425.73 462.28 1425.73 462.279C1425.74 462.278 1425.74 462.278 1425.74 462.277C1425.74 462.277 1425.74 462.278 1425.73 462.282C1425.73 462.288 1425.71 462.3 1425.69 462.32C1425.65 462.358 1425.58 462.423 1425.48 462.513C1425.29 462.692 1424.97 462.97 1424.52 463.336C1423.63 464.067 1422.21 465.147 1420.19 466.484C1416.14 469.157 1409.65 472.859 1400.04 476.838C1380.82 484.798 1349.08 493.875 1299.29 498.057L1299.71 503.039ZM1282.08 503.636L1299.59 503.047L1299.42 498.05L1281.92 498.639L1282.08 503.636ZM1279.5 485.5V501.138H1284.5V485.5H1279.5ZM1279.5 482.002C1279.5 483.163 1279.5 484.326 1279.5 485.5H1284.5C1284.5 484.331 1284.5 483.161 1284.5 481.998L1279.5 482.002ZM1167 374.5C1223.23 374.5 1250.91 386.521 1264.81 405.298C1271.79 414.738 1275.49 426.115 1277.42 439.092C1279.35 452.093 1279.49 466.518 1279.5 482.002L1284.5 481.998C1284.49 466.562 1284.36 451.777 1282.36 438.356C1280.36 424.91 1276.47 412.653 1268.82 402.323C1253.45 381.56 1223.65 369.5 1167 369.5V374.5ZM1054.5 482.002C1054.51 466.518 1054.65 452.093 1056.58 439.092C1058.51 426.115 1062.21 414.738 1069.19 405.298C1083.09 386.521 1110.77 374.5 1167 374.5V369.5C1110.35 369.5 1080.55 381.56 1065.18 402.323C1057.53 412.653 1053.64 424.91 1051.64 438.356C1049.64 451.777 1049.51 466.562 1049.5 481.998L1054.5 482.002ZM1052 484.5H1052V479.5H1052V484.5ZM1054.5 485.5V482H1049.5V485.5H1054.5ZM1054.5 508.886V485.5H1049.5V508.886H1054.5ZM1017.58 512.547L1052.08 511.384L1051.92 506.387L1017.42 507.549L1017.58 512.547ZM444.708 229.991L456.706 228.992L456.291 224.009L444.292 225.009L444.708 229.991ZM505.332 186.194C482.328 201.48 461.618 215.24 443.296 225.309L445.704 229.691C464.249 219.499 485.151 205.608 508.099 190.358L505.332 186.194ZM669.098 94.6686C606.694 118.825 551.503 155.512 505.332 186.194L508.099 190.358C554.326 159.638 609.084 123.261 670.903 99.3314L669.098 94.6686ZM677.348 95.6292L670.39 94.5306L669.61 99.4694L676.568 100.568L677.348 95.6292ZM678.42 106.456C683.632 104.476 683.097 96.537 677.348 95.6292L676.568 100.568C676.746 100.596 676.819 100.659 676.866 100.714C676.931 100.79 676.999 100.925 677.016 101.109C677.034 101.293 676.993 101.449 676.935 101.552C676.89 101.632 676.817 101.717 676.644 101.782L678.42 106.456ZM524.487 192.715C578.217 157.92 628.304 125.497 678.42 106.456L676.644 101.782C625.935 121.049 575.381 153.8 521.769 188.518L524.487 192.715ZM480.046 221.225C495.158 211.708 509.953 202.127 524.487 192.715L521.769 188.518C507.231 197.932 492.462 207.496 477.381 216.995L480.046 221.225ZM456.706 228.992C464.986 228.301 473.002 225.662 480.046 221.225L477.381 216.995C471.029 220.995 463.787 223.384 456.291 224.009L456.706 228.992ZM1183.41 221.609C1178.01 207.588 1166.11 185.714 1153.37 164.332C1140.61 142.912 1126.9 121.793 1117.79 109.234L1113.74 112.171C1122.74 124.566 1136.36 145.547 1149.08 166.89C1161.81 188.271 1173.51 209.822 1178.74 223.407L1183.41 221.609ZM1191.42 227.5C1187.96 227.5 1184.76 225.115 1183.41 221.609L1178.74 223.407C1180.73 228.562 1185.6 232.5 1191.42 232.5V227.5ZM1279.5 227.5H1191.42V232.5H1279.5V227.5ZM1281.43 225.487C1281.6 226.002 1281.49 226.425 1281.19 226.78C1280.87 227.172 1280.27 227.5 1279.5 227.5V232.5C1281.68 232.5 1283.71 231.564 1285.02 229.995C1286.37 228.388 1286.94 226.152 1286.16 223.875L1281.43 225.487ZM1156.65 107.64C1175.18 120.85 1203.81 142.561 1229.14 164.943C1241.81 176.136 1253.61 187.462 1262.91 197.952C1272.27 208.506 1278.87 217.982 1281.43 225.487L1286.16 223.876C1283.27 215.372 1276.08 205.271 1266.65 194.635C1257.17 183.935 1245.2 172.46 1232.45 161.196C1206.95 138.665 1178.18 116.845 1159.56 103.569L1156.65 107.64ZM1146.71 104.5C1150.3 104.5 1153.76 105.574 1156.65 107.64L1159.56 103.569C1155.78 100.878 1151.31 99.5 1146.71 99.5V104.5ZM1120.05 104.5H1146.71V99.5H1120.05V104.5ZM1117.79 109.234C1116.39 107.303 1117.92 104.5 1120.05 104.5V99.5C1113.58 99.5 1110.09 107.141 1113.74 112.171L1117.79 109.234ZM619.064 169.904C660.618 148.296 692.768 131.826 727.279 120.304C761.738 108.799 798.627 102.205 849.584 100.499L849.416 95.5014C798.073 97.221 760.694 103.876 725.696 115.561C690.75 127.229 658.255 143.889 616.757 165.468L619.064 169.904ZM615 176.57C615 173.78 616.575 171.198 619.064 169.904L616.757 165.468C612.627 167.615 610 171.9 610 176.57H615ZM615 230.048V176.57H610V230.048H615ZM832.5 227.548H612.5V232.548H832.5V227.548ZM830.016 229.771L830.015 229.779L834.986 230.317L834.987 230.308L830.016 229.771ZM831.593 215.515C831.167 219.025 830.79 222.539 830.015 229.773L834.987 230.306C835.763 223.059 836.136 219.585 836.556 216.117L831.593 215.515ZM833.27 202.731C832.428 208.985 831.989 212.247 831.593 215.515L836.556 216.117C836.948 212.889 837.382 209.663 838.225 203.398L833.27 202.731ZM833.265 202.768L833.264 202.772L838.23 203.356L838.231 203.352L833.265 202.768ZM833.274 202.697L833.274 202.7L838.222 203.42L838.222 203.417L833.274 202.697ZM833.267 202.755L833.266 202.761L838.231 203.354L838.231 203.347L833.267 202.755ZM833.268 202.74L833.268 202.746L838.23 203.356L838.231 203.351L833.268 202.74ZM847.021 97.6808C838.521 163.705 835.021 189.712 833.272 202.712L838.227 203.379C839.978 190.369 843.478 164.353 851.98 98.3192L847.021 97.6808ZM886.004 97.8677L879.004 229.916L883.997 230.18L890.997 98.1323L886.004 97.8677ZM1057.45 99.2748L888.556 95.5006L888.444 100.499L1057.34 104.274L1057.45 99.2748ZM1075.29 108.918C1071.26 102.975 1064.6 99.4345 1057.45 99.2748L1057.34 104.274C1062.9 104.398 1068.05 107.151 1071.15 111.725L1075.29 108.918ZM1123.5 232.548C1125.62 232.548 1127.54 232.127 1129.16 231.163C1130.8 230.185 1131.96 228.751 1132.68 227.04C1134.06 223.762 1133.87 219.453 1132.92 214.828C1130.98 205.456 1125.46 192.888 1118.57 179.678C1104.75 153.16 1084.93 123.127 1075.29 108.918L1071.15 111.725C1080.78 125.912 1100.46 155.743 1114.14 181.989C1121 195.161 1126.23 207.201 1128.02 215.84C1128.92 220.221 1128.84 223.268 1128.07 225.096C1127.72 225.938 1127.23 226.494 1126.6 226.867C1125.95 227.256 1124.97 227.548 1123.5 227.548V232.548ZM881.5 232.548H1123.5V227.548H881.5V232.548ZM1398 199H1389.25V204H1398V199ZM1393.68 199.888L1396 202.994L1400 200.006L1397.69 196.9L1393.68 199.888ZM1289.62 92.5834C1337.26 124.184 1355.77 149.007 1393.68 199.888L1397.69 196.9C1359.75 145.975 1340.8 120.533 1292.38 88.4166L1289.62 92.5834ZM1283.89 92.7645L1290.92 92.9986L1291.08 88.0014L1284.06 87.7673L1283.89 92.7645ZM1284.14 92.1444C1284.21 92.1919 1284.28 92.2877 1284.31 92.3915C1284.34 92.4716 1284.33 92.5133 1284.32 92.5217C1284.32 92.5299 1284.3 92.583 1284.22 92.6473C1284.18 92.6817 1284.12 92.7149 1284.06 92.7376C1283.99 92.7609 1283.93 92.7657 1283.89 92.7645L1284.06 87.7673C1281.68 87.6878 1280.07 89.3388 1279.55 91.0453C1279.02 92.7447 1279.4 94.9911 1281.36 96.2988L1284.14 92.1444ZM1381.94 194.768C1375.02 184.12 1359.88 164.714 1341.87 144.896C1323.88 125.088 1302.85 104.678 1284.14 92.1444L1281.36 96.2987C1299.56 108.49 1320.26 128.54 1338.17 148.258C1356.08 167.964 1371.03 187.15 1377.75 197.492L1381.94 194.768ZM1389.25 199C1386.39 199 1383.63 197.367 1381.94 194.768L1377.75 197.492C1380.23 201.309 1384.47 204 1389.25 204V199Z" fill="black"/>
<path fill-rule="evenodd" clip-rule="evenodd" d="M1139.5 239.5H541C538.239 239.5 536 237.262 536 234.5V213.856C536 212.364 536.639 210.97 537.794 210.027C604.31 155.754 731.718 87.3568 866 91.0001C878.667 91.3438 912.308 91.7663 953.54 92.2841C1024.67 93.1775 1118.4 94.3546 1166 95.9001C1168.01 95.9654 1169.83 96.6075 1171.45 97.8053C1203.31 121.446 1302.85 200.126 1306.11 235.295C1306.34 237.733 1304.2 239.5 1301.75 239.5H1139.5ZM849.5 98.0001C747.2 101.426 700.963 124.499 617.91 167.686C614.601 169.407 612.5 172.84 612.5 176.57V230.048H832.5C833.276 222.802 833.651 219.306 834.074 215.816C834.468 212.568 834.905 209.324 835.747 203.065L835.749 203.052L835.75 203.042C837.5 190.036 841 164.024 849.5 98.0001ZM881.5 230.048L888.5 98.0001L1057.4 101.774C1063.75 101.916 1069.65 105.063 1073.22 110.322C1092.49 138.718 1152.21 230.048 1123.5 230.048H881.5ZM1116.76 110.703C1134.88 135.656 1171.44 194.903 1182.08 222.508C1183.75 226.838 1187.78 230 1192.42 230H1280.5C1283.45 230 1285.74 227.473 1284.79 224.681C1273.9 192.666 1196.25 132.091 1159.1 105.605C1155.77 103.226 1151.8 102 1147.71 102H1121.05C1116.75 102 1114.24 107.222 1116.76 110.703Z" fill="#545454"/>
<path d="M537.794 210.027L538.743 211.189H538.743L537.794 210.027ZM866 91.0001L865.959 92.4995L866 91.0001ZM953.54 92.2841L953.559 90.7842L953.54 92.2841ZM1166 95.9001L1165.95 97.3993L1166 95.9001ZM1171.45 97.8053L1172.34 96.6007L1171.45 97.8053ZM1306.11 235.295L1304.62 235.433V235.433L1306.11 235.295ZM617.91 167.686L618.602 169.017H618.602L617.91 167.686ZM849.5 98.0001L850.988 98.1916L851.213 96.4419L849.45 96.5009L849.5 98.0001ZM612.5 230.048H611V231.548H612.5V230.048ZM832.5 230.048V231.548H833.848L833.991 230.208L832.5 230.048ZM834.074 215.816L835.563 215.997V215.997L834.074 215.816ZM835.747 203.065L834.261 202.861L834.26 202.865L835.747 203.065ZM835.749 203.052L837.235 203.256L837.236 203.247L835.749 203.052ZM835.75 203.042L834.263 202.842L834.263 202.846L835.75 203.042ZM888.5 98.0001L888.534 96.5004L887.079 96.4679L887.002 97.9207L888.5 98.0001ZM881.5 230.048L880.002 229.969L879.918 231.548H881.5V230.048ZM1057.4 101.774L1057.36 103.274L1057.4 101.774ZM1073.22 110.322L1074.46 109.48L1073.22 110.322ZM1182.08 222.508L1183.48 221.969V221.969L1182.08 222.508ZM1116.76 110.703L1115.55 111.584L1115.55 111.584L1116.76 110.703ZM1284.79 224.681L1283.37 225.164V225.164L1284.79 224.681ZM1159.1 105.605L1159.98 104.383V104.383L1159.1 105.605ZM541 241H1139.5V238H541V241ZM534.5 234.5C534.5 238.09 537.41 241 541 241V238C539.067 238 537.5 236.433 537.5 234.5H534.5ZM534.5 213.856V234.5H537.5V213.856H534.5ZM536.846 208.865C535.329 210.103 534.5 211.929 534.5 213.856H537.5C537.5 212.798 537.948 211.838 538.743 211.189L536.846 208.865ZM866.041 89.5006C731.278 85.8443 603.53 154.454 536.846 208.865L538.743 211.189C605.09 157.053 732.157 88.8693 865.959 92.4995L866.041 89.5006ZM953.559 90.7842C912.318 90.2663 878.693 89.8439 866.041 89.5006L865.959 92.4995C878.64 92.8436 912.298 93.2663 953.522 93.784L953.559 90.7842ZM1166.05 94.4009C1118.43 92.8547 1024.68 91.6775 953.559 90.7842L953.522 93.784C1024.66 94.6774 1118.37 95.8544 1165.95 97.3993L1166.05 94.4009ZM1172.34 96.6007C1170.48 95.223 1168.37 94.4762 1166.05 94.4009L1165.95 97.3993C1167.65 97.4545 1169.18 97.9919 1170.55 99.0099L1172.34 96.6007ZM1307.61 235.156C1307.17 230.464 1305.15 225.177 1302.01 219.53C1298.86 213.865 1294.52 207.741 1289.34 201.355C1278.99 188.584 1265.18 174.657 1250.52 161.125C1221.19 134.055 1188.29 108.44 1172.34 96.6007L1170.55 99.0099C1186.46 110.812 1219.26 136.357 1248.49 163.329C1263.1 176.818 1276.79 190.633 1287.01 203.244C1292.12 209.55 1296.35 215.527 1299.39 220.989C1302.44 226.468 1304.24 231.333 1304.62 235.433L1307.61 235.156ZM1301.75 241C1304.81 241 1307.94 238.724 1307.61 235.156L1304.62 235.433C1304.74 236.742 1303.59 238 1301.75 238V241ZM1139.5 241H1301.75V238H1139.5V241ZM618.602 169.017C660.145 147.414 692.364 130.907 726.962 119.355C761.529 107.815 798.516 101.209 849.55 99.4992L849.45 96.5009C798.184 98.218 760.903 104.861 726.012 116.51C691.153 128.148 658.728 144.77 617.218 166.355L618.602 169.017ZM614 176.57C614 173.404 615.785 170.481 618.602 169.017L617.218 166.355C613.416 168.332 611 172.276 611 176.57H614ZM614 230.048V176.57H611V230.048H614ZM832.5 228.548H612.5V231.548H832.5V228.548ZM832.585 215.636C832.16 219.138 831.784 222.646 831.009 229.888L833.991 230.208C834.768 222.958 835.142 219.474 835.563 215.997L832.585 215.636ZM834.26 202.865C833.419 209.121 832.981 212.375 832.585 215.636L835.563 215.997C835.956 212.76 836.391 209.528 837.234 203.265L834.26 202.865ZM834.263 202.847L834.261 202.861L837.233 203.269L837.235 203.256L834.263 202.847ZM834.263 202.846L834.262 202.856L837.236 203.247L837.237 203.237L834.263 202.846ZM848.012 97.8085C839.513 163.829 836.013 189.839 834.263 202.842L837.237 203.242C838.987 190.233 842.487 164.218 850.988 98.1916L848.012 97.8085ZM887.002 97.9207L880.002 229.969L882.998 230.127L889.998 98.0795L887.002 97.9207ZM1057.43 100.275L888.534 96.5004L888.466 99.4997L1057.36 103.274L1057.43 100.275ZM1074.46 109.48C1070.62 103.81 1064.26 100.427 1057.43 100.275L1057.36 103.274C1063.24 103.405 1068.69 106.316 1071.98 111.164L1074.46 109.48ZM1123.5 231.548C1125.49 231.548 1127.22 231.153 1128.65 230.304C1130.09 229.447 1131.11 228.188 1131.76 226.651C1133.02 223.664 1132.88 219.607 1131.94 215.03C1130.03 205.805 1124.56 193.343 1117.68 180.14C1103.89 153.676 1084.1 123.685 1074.46 109.48L1071.98 111.164C1081.61 125.356 1101.31 155.227 1115.02 181.527C1121.89 194.706 1127.18 206.852 1129 215.638C1129.91 220.067 1129.89 223.367 1128.99 225.485C1128.56 226.501 1127.94 227.232 1127.11 227.727C1126.27 228.23 1125.1 228.548 1123.5 228.548V231.548ZM881.5 231.548H1123.5V228.548H881.5V231.548ZM1183.48 221.969C1178.11 208.035 1166.25 186.226 1153.51 164.844C1140.76 143.439 1127.07 122.347 1117.98 109.821L1115.55 111.584C1124.57 124.011 1138.21 145.02 1150.93 166.379C1163.67 187.76 1175.41 209.376 1180.68 223.048L1183.48 221.969ZM1192.42 228.5C1188.49 228.5 1184.95 225.804 1183.48 221.969L1180.68 223.048C1182.54 227.872 1187.07 231.5 1192.42 231.5V228.5ZM1280.5 228.5H1192.42V231.5H1280.5V228.5ZM1283.37 225.164C1283.67 226.032 1283.47 226.818 1282.96 227.423C1282.43 228.051 1281.55 228.5 1280.5 228.5V231.5C1282.4 231.5 1284.14 230.686 1285.26 229.352C1286.4 227.995 1286.87 226.122 1286.21 224.198L1283.37 225.164ZM1158.23 106.826C1176.78 120.049 1205.43 141.782 1230.8 164.194C1243.48 175.401 1255.32 186.757 1264.66 197.289C1274.03 207.859 1280.75 217.46 1283.37 225.164L1286.21 224.198C1283.39 215.894 1276.32 205.918 1266.9 195.299C1257.46 184.641 1245.52 173.195 1232.79 161.946C1207.32 139.445 1178.58 117.646 1159.98 104.383L1158.23 106.826ZM1147.71 103.5C1151.5 103.5 1155.16 104.635 1158.23 106.826L1159.98 104.383C1156.38 101.817 1152.1 100.5 1147.71 100.5V103.5ZM1121.05 103.5H1147.71V100.5H1121.05V103.5ZM1117.98 109.821C1116.13 107.27 1118.05 103.5 1121.05 103.5V100.5C1115.45 100.5 1112.35 107.173 1115.55 111.584L1117.98 109.821Z" fill="black"/>
<path d="M866.5 86.0001C913.051 85.8502 1010.96 83.9819 1071.01 88.3885C1071.99 88.461 1072.88 88.7905 1073.64 89.433C1094.76 107.43 1144.78 185.688 1160.68 233.825C1161.6 236.589 1162 239.48 1162 242.39C1162 284.713 1161.86 308.582 1157.89 353.635C1157.67 356.132 1155.61 358.075 1153.11 358.199C1082.93 361.669 1033.59 378.743 1038 487L845 491.5M866.5 86.0001C851.534 86.0482 853.504 86.0001 848.5 86.0001C736.33 86.0001 598.889 133.534 506.895 228.552C505.998 229.479 505.5 230.735 505.499 232.025C505.392 385.845 493.1 497 515.5 497L845 491.5M866.5 86.0001C866.5 127.636 859.498 205.133 857 238C853.846 279.5 843.5 459.184 845 491.5" stroke="black" stroke-width="4"/>
<path d="M195.119 290.444C236.767 296.79 220.132 294.155 265.13 301.342C265.13 301.342 258.596 343.522 201.175 329.087C191.55 339.041 189.28 337.955 183.538 336.511C184.776 331.586 183.29 325.046 185.647 320.028C188.985 312.917 183.618 308.49 187.877 303.06C190.675 299.492 192.479 292.504 195.119 290.444Z" fill="url(#paint6_linear_516_127)" stroke="black" stroke-width="4"/>
<path d="M219 332.793C229.009 317.265 229.853 315.93 240.227 298.947L263.204 302.661C255.805 324.001 242.108 333.962 219 332.793Z" fill="url(#paint7_linear_516_127)" stroke="black" stroke-width="4"/>
<path d="M564.228 219.249C565.632 201.661 574.001 183.206 592.606 179.128C595.121 178.577 597.459 180.378 597.93 182.909L606.541 229.15C606.708 230.044 606.251 230.944 605.414 231.302C599.717 233.734 594.333 234.469 582.94 235.455C572.836 236.329 563.42 229.359 564.228 219.249Z" fill="url(#paint8_linear_516_127)" stroke="black" stroke-width="3"/>
<path d="M1377.72 247.5L1416.5 247.5C1418.5 260 1420 290 1420 318.5H1399.5C1393.98 318.5 1389.5 314.023 1389.5 308.5L1389.5 298C1389.5 295.239 1387.25 293.068 1384.49 292.924C1374.19 292.386 1374.23 288.03 1372.73 252.745C1372.61 249.9 1374.88 247.5 1377.72 247.5Z" fill="#971D1D" stroke="black" stroke-width="4"/>
<path d="M1418.5 361.5H1268L1238 381.5" stroke="black" stroke-width="4"/>
<path d="M757 282.067C757 256.059 808 254.573 808 282.067C808 300.644 757 300.644 757 282.067Z" fill="url(#paint9_linear_516_127)" stroke="black" stroke-width="3"/>
<path d="M750.483 285.767C745.014 285.767 741.535 274.233 750.483 274.233L814.118 274.233C822.5 274.233 822.997 285.767 814.118 285.767L750.483 285.767Z" fill="#C6C6C6" stroke="black" stroke-width="3"/>
<path d="M1067 282.067C1067 256.059 1118 254.573 1118 282.067C1118 300.644 1067 300.644 1067 282.067Z" fill="url(#paint10_linear_516_127)" stroke="black" stroke-width="3"/>
<path d="M1060.48 285.767C1055.01 285.767 1051.53 274.233 1060.48 274.233L1124.12 274.233C1132.5 274.233 1133 285.767 1124.12 285.767L1060.48 285.767Z" fill="#C6C6C6" stroke="black" stroke-width="3"/>
<path d="M167.571 436.501C153.046 389.704 148.931 391.52 156.143 379.334C171.794 372.065 173.103 369.882 176.232 356.346C188.783 352.45 191.374 350.295 197.76 344.983L197.819 344.934L225.198 337.267L269.5 368C254.12 372.425 254.397 415.177 265.183 453.695L269.615 525.147L230.859 521.587C219.556 519.982 223.664 536.095 206.477 534.646C199.102 534.024 182.489 526.798 175.42 522.297C168.569 517.934 175.308 494.424 169.517 484.245C165.747 477.618 170.625 446.342 167.571 436.501Z" fill="url(#paint11_linear_516_127)" stroke="black" stroke-width="4"/>
<circle cx="1167" cy="495" r="105" transform="rotate(90 1167 495)" fill="url(#paint12_radial_516_127)"/>
<circle cx="1167" cy="495" r="80" transform="rotate(90 1167 495)" fill="#E7E7E7"/>
<circle cx="1167" cy="495" r="70" transform="rotate(90 1167 495)" fill="url(#paint13_radial_516_127)"/>
<path fill-rule="evenodd" clip-rule="evenodd" d="M1240.48 499.773C1241.68 499.801 1242.63 498.783 1242.52 497.593L1240.9 479.593C1240.79 478.403 1239.67 477.572 1238.5 477.815L1194.74 486.88C1192.5 487.343 1191.36 484.303 1193.35 483.18L1232.35 461.144C1233.39 460.557 1233.69 459.194 1232.99 458.227L1222.36 443.605C1221.66 442.639 1220.27 442.5 1219.39 443.307L1179.15 480.235C1177.61 481.642 1175.22 480.061 1175.91 478.098L1193.93 426.841C1194.32 425.714 1193.65 424.493 1192.49 424.228L1174.86 420.213C1173.7 419.948 1172.56 420.756 1172.43 421.944L1167.66 465.183C1167.41 467.451 1164.17 467.597 1163.71 465.361L1155 422.383C1154.76 421.212 1153.55 420.51 1152.42 420.879L1135.23 426.464C1134.09 426.833 1133.53 428.11 1134.03 429.197L1157.06 479.649C1157.92 481.543 1155.68 483.332 1154.03 482.069L1110.18 448.582C1109.23 447.857 1107.86 448.121 1107.25 449.146L1097.98 464.666C1097.37 465.692 1097.79 467.022 1098.88 467.514L1137.66 485.023C1139.74 485.962 1138.88 489.093 1136.61 488.833L1094.23 483.976C1093.04 483.84 1092 484.769 1092 485.963L1092 504.037C1092 505.232 1093.04 506.16 1094.23 506.024L1149.39 499.704C1151.46 499.467 1152.46 502.154 1150.75 503.337L1104.98 534.951C1103.99 535.629 1103.82 537.013 1104.61 537.913L1116.5 551.519C1117.29 552.418 1118.69 552.432 1119.49 551.548L1148.53 519.625C1150.07 517.937 1152.78 519.725 1151.83 521.802L1134.03 560.804C1133.53 561.891 1134.09 563.168 1135.23 563.537L1152.42 569.122C1153.55 569.491 1154.76 568.789 1155 567.618L1165.87 513.991C1166.28 511.951 1169.15 511.822 1169.75 513.817L1185.51 566.588C1185.85 567.733 1187.11 568.325 1188.21 567.855L1204.83 560.744C1205.93 560.274 1206.37 558.952 1205.78 557.914L1183.74 519.28C1182.61 517.297 1185.15 515.272 1186.83 516.815L1219.39 546.694C1220.27 547.501 1221.66 547.362 1222.36 546.396L1232.99 531.773C1233.69 530.807 1233.39 529.444 1232.35 528.857L1185.2 502.216C1183.38 501.192 1184.15 498.426 1186.23 498.475L1240.48 499.773Z" fill="url(#paint14_radial_516_127)"/>
<path d="M426.706 229.978L448.44 227.607C449.549 227.486 449.669 225.898 448.589 225.616C408.145 215.064 358.106 197.564 308.339 187.417C308.119 187.372 307.898 187.4 307.697 187.501C301.8 190.491 211.654 236.503 207.552 257.525C207.418 258.215 208.113 258.68 208.769 258.426L221.066 253.668C221.341 253.562 221.545 253.359 221.654 253.085C229.016 234.622 309.98 202.194 315.233 200.106C315.412 200.035 315.603 200.021 315.792 200.059C362.215 209.443 393.375 219.724 426.301 229.938C426.432 229.979 426.57 229.992 426.706 229.978Z" fill="#C6C6C6" stroke="black" stroke-width="4"/>
<path d="M1381.5 199C1397 221 1396 216.5 1396 247.5" stroke="black" stroke-width="4"/>
<ellipse cx="283.605" cy="305" rx="9.56771" ry="13.9128" transform="rotate(15.8825 283.605 305)" fill="#FFB800"/>
<path fill-rule="evenodd" clip-rule="evenodd" d="M292.807 307.618C290.705 315.009 284.88 319.828 279.798 318.382C279.796 318.381 279.794 318.381 279.793 318.38L279.798 318.382L283.605 305L292.807 307.618L292.811 307.606L292.807 307.618ZM274.403 302.382C276.505 294.991 282.33 290.172 287.412 291.618L283.605 305L274.403 302.382Z" fill="black"/>
<ellipse cx="366.145" cy="296.356" rx="13.152" ry="15" transform="rotate(-12.7839 366.145 296.356)" fill="#FFB800"/>
<path fill-rule="evenodd" clip-rule="evenodd" d="M378.971 293.446C380.804 301.525 376.548 309.377 369.464 310.984L366.145 296.356L378.971 293.446L378.969 293.435L378.971 293.446ZM353.319 299.266L366.145 296.356L362.826 281.728L362.853 281.722L362.826 281.728C355.742 283.335 351.486 291.188 353.319 299.266Z" fill="black"/>
<circle cx="469" cy="296" r="15" fill="#FFB800"/>
<path fill-rule="evenodd" clip-rule="evenodd" d="M484 296C484 304.284 477.284 311 469 311V296H484ZM454 296H469V281C460.716 281 454 287.716 454 296Z" fill="black"/>
<circle cx="599" cy="296" r="15" fill="#FFB800"/>
<path fill-rule="evenodd" clip-rule="evenodd" d="M614 296C614 304.284 607.284 311 599 311V296H614ZM584 296H599V281C590.716 281 584 287.716 584 296Z" fill="black"/>
<circle cx="729" cy="296" r="15" fill="#FFB800"/>
<path fill-rule="evenodd" clip-rule="evenodd" d="M744 296C744 304.284 737.284 311 729 311V296H744ZM714 296H729V281C720.716 281 714 287.716 714 296Z" fill="black"/>
<circle cx="599" cy="296" r="15" fill="#FFB800"/>
<path fill-rule="evenodd" clip-rule="evenodd" d="M614 296C614 304.284 607.284 311 599 311V296H614ZM584 296H599V281C590.716 281 584 287.716 584 296Z" fill="black"/>
<circle cx="729" cy="296" r="15" fill="#FFB800"/>
<path fill-rule="evenodd" clip-rule="evenodd" d="M744 296C744 304.284 737.284 311 729 311V296H744ZM714 296H729V281C720.716 281 714 287.716 714 296Z" fill="black"/>
<circle cx="900" cy="291" r="15" fill="#FFB800"/>
<path fill-rule="evenodd" clip-rule="evenodd" d="M915 291C915 299.284 908.284 306 900 306V291H915ZM885 291H900V276C891.716 276 885 282.716 885 291Z" fill="black"/>
<circle cx="1030" cy="291" r="15" fill="#FFB800"/>
<path fill-rule="evenodd" clip-rule="evenodd" d="M1045 291C1045 299.284 1038.28 306 1030 306V291H1045ZM1015 291H1030V276C1021.72 276 1015 282.716 1015 291Z" fill="black"/>
<circle cx="1207" cy="291" r="15" fill="#FFB800"/>
<path fill-rule="evenodd" clip-rule="evenodd" d="M1222 291C1222 299.284 1215.28 306 1207 306V291H1222ZM1192 291H1207V276C1198.72 276 1192 282.716 1192 291Z" fill="black"/>
<circle cx="1337" cy="291" r="15" fill="#FFB800"/>
<path fill-rule="evenodd" clip-rule="evenodd" d="M1352 291C1352 299.284 1345.28 306 1337 306V291H1352ZM1322 291H1337V276C1328.72 276 1322 282.716 1322 291Z" fill="black"/>
<circle cx="669.5" cy="405.5" r="62.5" fill="#FFB800"/>
<path fill-rule="evenodd" clip-rule="evenodd" d="M732 405.5C732 440.018 704.018 468 669.5 468V405.5H732ZM607 405.5H669.5V343C634.982 343 607 370.982 607 405.5Z" fill="black"/>
<path d="M633.947 389.398C633.947 389.111 634.002 388.841 634.111 388.588C634.22 388.328 634.371 388.106 634.562 387.921C634.754 387.73 634.976 387.58 635.229 387.47C635.489 387.354 635.762 387.296 636.049 387.296H644.027C644.314 387.296 644.584 387.354 644.837 387.47C645.096 387.58 645.322 387.73 645.513 387.921C645.705 388.106 645.855 388.328 645.965 388.588C646.074 388.841 646.129 389.111 646.129 389.398V391.295H644.027V389.398H636.049V399.898H644.027V398.011H646.129V399.898C646.129 400.185 646.074 400.458 645.965 400.718C645.855 400.971 645.705 401.193 645.513 401.385C645.322 401.576 645.096 401.727 644.837 401.836C644.584 401.945 644.314 402 644.027 402H636.049C635.762 402 635.489 401.945 635.229 401.836C634.976 401.727 634.754 401.576 634.562 401.385C634.371 401.193 634.22 400.971 634.111 400.718C634.002 400.458 633.947 400.185 633.947 399.898V389.398ZM665.31 392.546C665.31 394.597 664.435 395.766 662.685 396.053L665.453 402H663.126L660.398 396.125H655.794V402H653.692V387.296H661.741C664.12 387.296 665.31 388.489 665.31 390.875V392.546ZM655.794 394.022H661.628C662.189 394.022 662.592 393.899 662.838 393.653C663.084 393.407 663.208 393.004 663.208 392.443V390.977C663.208 390.417 663.084 390.013 662.838 389.767C662.592 389.521 662.189 389.398 661.628 389.398H655.794V394.022Z" fill="#FFB800"/>
<path d="M634.111 388.588L635.029 388.985L635.033 388.976L634.111 388.588ZM634.562 387.921L635.256 388.641L635.263 388.635L635.269 388.628L634.562 387.921ZM635.229 387.47L635.626 388.388L635.637 388.383L635.229 387.47ZM644.837 387.47L644.419 388.379L644.434 388.386L644.449 388.392L644.837 387.47ZM645.513 387.921L644.806 388.628L644.813 388.635L644.819 388.641L645.513 387.921ZM645.965 388.588L645.043 388.976L645.047 388.985L645.965 388.588ZM646.129 391.295V392.295H647.129V391.295H646.129ZM644.027 391.295H643.027V392.295H644.027V391.295ZM644.027 389.398H645.027V388.398H644.027V389.398ZM636.049 389.398V388.398H635.049V389.398H636.049ZM636.049 399.898H635.049V400.898H636.049V399.898ZM644.027 399.898V400.898H645.027V399.898H644.027ZM644.027 398.011V397.011H643.027V398.011H644.027ZM646.129 398.011H647.129V397.011H646.129V398.011ZM645.965 400.718L646.882 401.115L646.886 401.106L645.965 400.718ZM644.837 401.836L644.449 400.914L644.44 400.918L644.837 401.836ZM635.229 401.836L634.832 402.754L634.841 402.758L635.229 401.836ZM634.111 400.718L633.189 401.106L633.193 401.115L634.111 400.718ZM634.947 389.398C634.947 389.242 634.976 389.107 635.029 388.985L633.193 388.191C633.027 388.574 632.947 388.98 632.947 389.398H634.947ZM635.033 388.976C635.093 388.833 635.168 388.726 635.256 388.641L633.868 387.202C633.573 387.486 633.348 387.823 633.189 388.2L635.033 388.976ZM635.269 388.628C635.37 388.528 635.486 388.448 635.626 388.388L634.832 386.552C634.465 386.711 634.137 386.932 633.855 387.214L635.269 388.628ZM635.637 388.383C635.767 388.325 635.901 388.296 636.049 388.296V386.296C635.622 386.296 635.21 386.383 634.82 386.557L635.637 388.383ZM636.049 388.296H644.027V386.296H636.049V388.296ZM644.027 388.296C644.174 388.296 644.301 388.325 644.419 388.379L645.254 386.562C644.866 386.383 644.453 386.296 644.027 386.296V388.296ZM644.449 388.392C644.594 388.453 644.71 388.532 644.806 388.628L646.221 387.214C645.934 386.928 645.599 386.706 645.225 386.549L644.449 388.392ZM644.819 388.641C644.907 388.726 644.983 388.833 645.043 388.976L646.886 388.2C646.727 387.823 646.502 387.486 646.208 387.202L644.819 388.641ZM645.047 388.985C645.1 389.107 645.129 389.242 645.129 389.398H647.129C647.129 388.98 647.048 388.574 646.882 388.191L645.047 388.985ZM645.129 389.398V391.295H647.129V389.398H645.129ZM646.129 390.295H644.027V392.295H646.129V390.295ZM645.027 391.295V389.398H643.027V391.295H645.027ZM644.027 388.398H636.049V390.398H644.027V388.398ZM635.049 389.398V399.898H637.049V389.398H635.049ZM636.049 400.898H644.027V398.898H636.049V400.898ZM645.027 399.898V398.011H643.027V399.898H645.027ZM644.027 399.011H646.129V397.011H644.027V399.011ZM645.129 398.011V399.898H647.129V398.011H645.129ZM645.129 399.898C645.129 400.054 645.1 400.196 645.043 400.33L646.886 401.106C647.048 400.721 647.129 400.316 647.129 399.898H645.129ZM645.047 400.321C644.986 400.461 644.907 400.577 644.806 400.678L646.221 402.092C646.503 401.81 646.724 401.482 646.882 401.115L645.047 400.321ZM644.806 400.678C644.71 400.774 644.594 400.853 644.449 400.914L645.225 402.758C645.599 402.6 645.934 402.379 646.221 402.092L644.806 400.678ZM644.44 400.918C644.317 400.971 644.183 401 644.027 401V403C644.444 403 644.85 402.92 645.234 402.754L644.44 400.918ZM644.027 401H636.049V403H644.027V401ZM636.049 401C635.893 401 635.751 400.971 635.617 400.914L634.841 402.758C635.226 402.92 635.631 403 636.049 403V401ZM635.626 400.918C635.486 400.858 635.37 400.778 635.269 400.678L633.855 402.092C634.137 402.374 634.465 402.595 634.832 402.754L635.626 400.918ZM635.269 400.678C635.169 400.577 635.089 400.461 635.029 400.321L633.193 401.115C633.352 401.482 633.573 401.81 633.855 402.092L635.269 400.678ZM635.033 400.33C634.976 400.196 634.947 400.054 634.947 399.898H632.947C632.947 400.316 633.027 400.721 633.189 401.106L635.033 400.33ZM634.947 399.898V389.398H632.947V399.898H634.947ZM662.685 396.053L662.523 395.066L661.222 395.279L661.778 396.475L662.685 396.053ZM665.453 402V403H667.022L666.36 401.578L665.453 402ZM663.126 402L662.218 402.421L662.487 403H663.126V402ZM660.398 396.125L661.305 395.703L661.036 395.125H660.398V396.125ZM655.794 396.125V395.125H654.794V396.125H655.794ZM655.794 402V403H656.794V402H655.794ZM653.692 402H652.692V403H653.692V402ZM653.692 387.296V386.296H652.692V387.296H653.692ZM655.794 394.022H654.794V395.022H655.794V394.022ZM655.794 389.398V388.398H654.794V389.398H655.794ZM664.31 392.546C664.31 393.44 664.118 394.008 663.853 394.361C663.602 394.696 663.201 394.955 662.523 395.066L662.846 397.04C663.918 396.864 664.83 396.394 665.454 395.56C666.064 394.745 666.31 393.702 666.31 392.546H664.31ZM661.778 396.475L664.547 402.422L666.36 401.578L663.591 395.631L661.778 396.475ZM665.453 401H663.126V403H665.453V401ZM664.033 401.579L661.305 395.703L659.491 396.546L662.218 402.421L664.033 401.579ZM660.398 395.125H655.794V397.125H660.398V395.125ZM654.794 396.125V402H656.794V396.125H654.794ZM655.794 401H653.692V403H655.794V401ZM654.692 402V387.296H652.692V402H654.692ZM653.692 388.296H661.741V386.296H653.692V388.296ZM661.741 388.296C662.776 388.296 663.368 388.555 663.709 388.897C664.051 389.239 664.31 389.835 664.31 390.875H666.31C666.31 389.528 665.973 388.335 665.126 387.484C664.277 386.634 663.086 386.296 661.741 386.296V388.296ZM664.31 390.875V392.546H666.31V390.875H664.31ZM655.794 395.022H661.628V393.022H655.794V395.022ZM661.628 395.022C662.299 395.022 663.025 394.881 663.546 394.36L662.131 392.946C662.146 392.931 662.137 392.95 662.06 392.974C661.978 392.999 661.84 393.022 661.628 393.022V395.022ZM663.546 394.36C664.066 393.84 664.208 393.114 664.208 392.443H662.208C662.208 392.655 662.184 392.793 662.159 392.874C662.135 392.952 662.116 392.961 662.131 392.946L663.546 394.36ZM664.208 392.443V390.977H662.208V392.443H664.208ZM664.208 390.977C664.208 390.307 664.066 389.581 663.546 389.06L662.131 390.474C662.116 390.459 662.135 390.468 662.159 390.546C662.184 390.628 662.208 390.765 662.208 390.977H664.208ZM663.546 389.06C663.025 388.539 662.299 388.398 661.628 388.398V390.398C661.84 390.398 661.978 390.422 662.06 390.447C662.137 390.47 662.146 390.489 662.131 390.474L663.546 389.06ZM661.628 388.398H655.794V390.398H661.628V388.398ZM654.794 389.398V394.022H656.794V389.398H654.794Z" fill="#FFB800"/>
<path d="M681.076 387.296L686.746 402H684.644L683.342 398.616H676.707L675.405 402H673.303L678.973 387.296H681.076ZM677.507 396.514H682.532L680.03 390.034L677.507 396.514ZM695.57 395.704C695.283 395.704 695.01 395.649 694.75 395.54C694.497 395.424 694.275 395.273 694.084 395.089C693.892 394.897 693.742 394.675 693.632 394.422C693.523 394.163 693.468 393.889 693.468 393.602V389.398C693.468 389.111 693.523 388.841 693.632 388.588C693.742 388.328 693.892 388.106 694.084 387.921C694.275 387.73 694.497 387.58 694.75 387.47C695.01 387.354 695.283 387.296 695.57 387.296H702.707C702.994 387.296 703.264 387.354 703.517 387.47C703.777 387.58 704.003 387.73 704.194 387.921C704.385 388.106 704.536 388.328 704.645 388.588C704.755 388.841 704.809 389.111 704.809 389.398V391.295H702.707V389.398H695.57V393.602H702.707C702.994 393.602 703.264 393.657 703.517 393.766C703.777 393.875 704.003 394.026 704.194 394.217C704.385 394.409 704.536 394.634 704.645 394.894C704.755 395.147 704.809 395.417 704.809 395.704V399.898C704.809 400.185 704.755 400.458 704.645 400.718C704.536 400.971 704.385 401.193 704.194 401.385C704.003 401.576 703.777 401.727 703.517 401.836C703.264 401.945 702.994 402 702.707 402H695.365C695.078 402 694.805 401.945 694.545 401.836C694.292 401.727 694.07 401.576 693.879 401.385C693.687 401.193 693.537 400.971 693.427 400.718C693.318 400.458 693.263 400.185 693.263 399.898V398.011H695.365V399.898H702.707V395.704H695.57ZM725.426 387.296V402H723.324V395.704H714.905V402H712.803V387.296H714.905V393.602H723.324V387.296H725.426Z" fill="black"/>
<path d="M681.076 387.296L682.009 386.936L681.762 386.296H681.076V387.296ZM686.746 402V403H688.203L687.679 401.64L686.746 402ZM684.644 402L683.711 402.359L683.957 403H684.644V402ZM683.342 398.616L684.275 398.257L684.028 397.616H683.342V398.616ZM676.707 398.616V397.616H676.021L675.774 398.257L676.707 398.616ZM675.405 402V403H676.092L676.338 402.359L675.405 402ZM673.303 402L672.37 401.64L671.846 403H673.303V402ZM678.973 387.296V386.296H678.287L678.04 386.936L678.973 387.296ZM677.507 396.514L676.575 396.151L676.045 397.514H677.507V396.514ZM682.532 396.514V397.514H683.99L683.464 396.154L682.532 396.514ZM680.03 390.034L680.963 389.674L680.033 387.267L679.098 389.671L680.03 390.034ZM680.142 387.656L685.813 402.36L687.679 401.64L682.009 386.936L680.142 387.656ZM686.746 401H684.644V403H686.746V401ZM685.577 401.641L684.275 398.257L682.408 398.975L683.711 402.359L685.577 401.641ZM683.342 397.616H676.707V399.616H683.342V397.616ZM675.774 398.257L674.472 401.641L676.338 402.359L677.641 398.975L675.774 398.257ZM675.405 401H673.303V403H675.405V401ZM674.236 402.36L679.906 387.656L678.04 386.936L672.37 401.64L674.236 402.36ZM678.973 388.296H681.076V386.296H678.973V388.296ZM677.507 397.514H682.532V395.514H677.507V397.514ZM683.464 396.154L680.963 389.674L679.097 390.394L681.599 396.874L683.464 396.154ZM679.098 389.671L676.575 396.151L678.439 396.877L680.962 390.396L679.098 389.671ZM694.75 395.54L694.333 396.449L694.347 396.455L694.362 396.462L694.75 395.54ZM694.084 395.089L693.377 395.796L693.383 395.802L693.389 395.809L694.084 395.089ZM693.632 394.422L692.711 394.81L692.715 394.819L693.632 394.422ZM693.632 388.588L694.55 388.985L694.554 388.976L693.632 388.588ZM694.084 387.921L694.778 388.641L694.784 388.635L694.791 388.628L694.084 387.921ZM694.75 387.47L695.147 388.388L695.158 388.383L694.75 387.47ZM703.517 387.47L703.1 388.379L703.114 388.386L703.129 388.392L703.517 387.47ZM704.194 387.921L703.487 388.628L703.493 388.635L703.5 388.641L704.194 387.921ZM704.645 388.588L703.723 388.976L703.727 388.985L704.645 388.588ZM704.809 391.295V392.295H705.809V391.295H704.809ZM702.707 391.295H701.707V392.295H702.707V391.295ZM702.707 389.398H703.707V388.398H702.707V389.398ZM695.57 389.398V388.398H694.57V389.398H695.57ZM695.57 393.602H694.57V394.602H695.57V393.602ZM703.517 393.766L703.12 394.684L703.129 394.688L703.517 393.766ZM704.645 394.894L703.723 395.282L703.727 395.291L704.645 394.894ZM704.645 400.718L705.563 401.115L705.567 401.106L704.645 400.718ZM703.517 401.836L703.129 400.914L703.12 400.918L703.517 401.836ZM694.545 401.836L694.148 402.754L694.157 402.758L694.545 401.836ZM693.427 400.718L692.506 401.106L692.51 401.115L693.427 400.718ZM693.263 398.011V397.011H692.263V398.011H693.263ZM695.365 398.011H696.365V397.011H695.365V398.011ZM695.365 399.898H694.365V400.898H695.365V399.898ZM702.707 399.898V400.898H703.707V399.898H702.707ZM702.707 395.704H703.707V394.704H702.707V395.704ZM695.57 394.704C695.414 394.704 695.273 394.675 695.138 394.618L694.362 396.462C694.747 396.624 695.153 396.704 695.57 396.704V394.704ZM695.168 394.631C695.012 394.56 694.884 394.472 694.778 394.369L693.389 395.809C693.666 396.075 693.982 396.288 694.333 396.449L695.168 394.631ZM694.791 394.382C694.69 394.281 694.611 394.165 694.55 394.025L692.715 394.819C692.873 395.186 693.094 395.514 693.377 395.796L694.791 394.382ZM694.554 394.034C694.497 393.9 694.468 393.758 694.468 393.602H692.468C692.468 394.02 692.549 394.425 692.711 394.81L694.554 394.034ZM694.468 393.602V389.398H692.468V393.602H694.468ZM694.468 389.398C694.468 389.242 694.497 389.107 694.55 388.985L692.715 388.191C692.549 388.574 692.468 388.98 692.468 389.398H694.468ZM694.554 388.976C694.614 388.833 694.69 388.726 694.778 388.641L693.389 387.202C693.095 387.486 692.87 387.823 692.711 388.2L694.554 388.976ZM694.791 388.628C694.891 388.528 695.008 388.448 695.147 388.388L694.353 386.552C693.987 386.711 693.659 386.932 693.377 387.214L694.791 388.628ZM695.158 388.383C695.289 388.325 695.423 388.296 695.57 388.296V386.296C695.144 386.296 694.731 386.383 694.342 386.557L695.158 388.383ZM695.57 388.296H702.707V386.296H695.57V388.296ZM702.707 388.296C702.855 388.296 702.982 388.325 703.1 388.379L703.935 386.562C703.547 386.383 703.134 386.296 702.707 386.296V388.296ZM703.129 388.392C703.275 388.453 703.391 388.532 703.487 388.628L704.901 387.214C704.614 386.928 704.279 386.706 703.905 386.549L703.129 388.392ZM703.5 388.641C703.588 388.726 703.664 388.833 703.724 388.976L705.567 388.2C705.408 387.823 705.183 387.486 704.888 387.202L703.5 388.641ZM703.727 388.985C703.78 389.107 703.809 389.242 703.809 389.398H705.809C705.809 388.98 705.729 388.574 705.563 388.191L703.727 388.985ZM703.809 389.398V391.295H705.809V389.398H703.809ZM704.809 390.295H702.707V392.295H704.809V390.295ZM703.707 391.295V389.398H701.707V391.295H703.707ZM702.707 388.398H695.57V390.398H702.707V388.398ZM694.57 389.398V393.602H696.57V389.398H694.57ZM695.57 394.602H702.707V392.602H695.57V394.602ZM702.707 394.602C702.864 394.602 702.998 394.631 703.12 394.684L703.914 392.848C703.531 392.682 703.125 392.602 702.707 392.602V394.602ZM703.129 394.688C703.275 394.749 703.391 394.828 703.487 394.924L704.901 393.51C704.614 393.224 704.279 393.002 703.905 392.844L703.129 394.688ZM703.487 394.924C703.583 395.021 703.662 395.137 703.724 395.282L705.567 394.506C705.409 394.132 705.188 393.797 704.901 393.51L703.487 394.924ZM703.727 395.291C703.78 395.413 703.809 395.548 703.809 395.704H705.809C705.809 395.286 705.729 394.881 705.563 394.497L703.727 395.291ZM703.809 395.704V399.898H705.809V395.704H703.809ZM703.809 399.898C703.809 400.054 703.78 400.196 703.724 400.33L705.567 401.106C705.729 400.721 705.809 400.316 705.809 399.898H703.809ZM703.727 400.321C703.667 400.461 703.587 400.577 703.487 400.678L704.901 402.092C705.183 401.81 705.404 401.482 705.563 401.115L703.727 400.321ZM703.487 400.678C703.391 400.774 703.275 400.853 703.129 400.914L703.905 402.758C704.279 402.6 704.614 402.379 704.901 402.092L703.487 400.678ZM703.12 400.918C702.998 400.971 702.864 401 702.707 401V403C703.125 403 703.531 402.92 703.914 402.754L703.12 400.918ZM702.707 401H695.365V403H702.707V401ZM695.365 401C695.209 401 695.068 400.971 694.933 400.914L694.157 402.758C694.542 402.92 694.948 403 695.365 403V401ZM694.942 400.918C694.803 400.858 694.686 400.778 694.586 400.678L693.171 402.092C693.454 402.374 693.782 402.595 694.148 402.754L694.942 400.918ZM694.586 400.678C694.485 400.577 694.405 400.461 694.345 400.321L692.51 401.115C692.668 401.482 692.889 401.81 693.171 402.092L694.586 400.678ZM694.349 400.33C694.292 400.196 694.263 400.054 694.263 399.898H692.263C692.263 400.316 692.344 400.721 692.506 401.106L694.349 400.33ZM694.263 399.898V398.011H692.263V399.898H694.263ZM693.263 399.011H695.365V397.011H693.263V399.011ZM694.365 398.011V399.898H696.365V398.011H694.365ZM695.365 400.898H702.707V398.898H695.365V400.898ZM703.707 399.898V395.704H701.707V399.898H703.707ZM702.707 394.704H695.57V396.704H702.707V394.704ZM725.426 387.296H726.426V386.296H725.426V387.296ZM725.426 402V403H726.426V402H725.426ZM723.324 402H722.324V403H723.324V402ZM723.324 395.704H724.324V394.704H723.324V395.704ZM714.905 395.704V394.704H713.905V395.704H714.905ZM714.905 402V403H715.905V402H714.905ZM712.803 402H711.803V403H712.803V402ZM712.803 387.296V386.296H711.803V387.296H712.803ZM714.905 387.296H715.905V386.296H714.905V387.296ZM714.905 393.602H713.905V394.602H714.905V393.602ZM723.324 393.602V394.602H724.324V393.602H723.324ZM723.324 387.296V386.296H722.324V387.296H723.324ZM724.426 387.296V402H726.426V387.296H724.426ZM725.426 401H723.324V403H725.426V401ZM724.324 402V395.704H722.324V402H724.324ZM723.324 394.704H714.905V396.704H723.324V394.704ZM713.905 395.704V402H715.905V395.704H713.905ZM714.905 401H712.803V403H714.905V401ZM713.803 402V387.296H711.803V402H713.803ZM712.803 388.296H714.905V386.296H712.803V388.296ZM713.905 387.296V393.602H715.905V387.296H713.905ZM714.905 394.602H723.324V392.602H714.905V394.602ZM724.324 393.602V387.296H722.324V393.602H724.324ZM723.324 388.296H725.426V386.296H723.324V388.296Z" fill="black"/>
<path d="M684.892 421.898C684.892 422.185 684.837 422.458 684.728 422.718C684.618 422.971 684.468 423.193 684.277 423.385C684.085 423.576 683.86 423.727 683.6 423.836C683.347 423.945 683.077 424 682.79 424H674.392C674.105 424 673.831 423.945 673.572 423.836C673.319 423.727 673.097 423.576 672.905 423.385C672.714 423.193 672.563 422.971 672.454 422.718C672.345 422.458 672.29 422.185 672.29 421.898V411.398C672.29 411.111 672.345 410.841 672.454 410.588C672.563 410.328 672.714 410.106 672.905 409.921C673.097 409.73 673.319 409.58 673.572 409.47C673.831 409.354 674.105 409.296 674.392 409.296H682.79C683.077 409.296 683.347 409.354 683.6 409.47C683.86 409.58 684.085 409.73 684.277 409.921C684.468 410.106 684.618 410.328 684.728 410.588C684.837 410.841 684.892 411.111 684.892 411.398V421.898ZM674.392 411.398V421.898H682.79V411.398H674.392ZM692.876 409.296H694.978V421.898H703.376V409.296H705.478V421.898C705.478 422.185 705.423 422.458 705.314 422.718C705.204 422.971 705.054 423.193 704.862 423.385C704.671 423.576 704.445 423.727 704.186 423.836C703.933 423.945 703.663 424 703.376 424H694.978C694.691 424 694.417 423.945 694.157 423.836C693.904 423.727 693.682 423.576 693.491 423.385C693.299 423.193 693.149 422.971 693.04 422.718C692.93 422.458 692.876 422.185 692.876 421.898V409.296ZM712.2 409.296H723.961V411.398H719.132V424H717.03V411.398H712.2V409.296Z" fill="#FFB800"/>
<path d="M684.728 422.718L685.646 423.115L685.649 423.106L684.728 422.718ZM683.6 423.836L683.212 422.914L683.203 422.918L683.6 423.836ZM673.572 423.836L673.175 424.754L673.184 424.758L673.572 423.836ZM672.454 422.718L671.532 423.106L671.536 423.115L672.454 422.718ZM672.454 410.588L673.372 410.985L673.376 410.976L672.454 410.588ZM672.905 409.921L673.599 410.641L673.606 410.635L673.612 410.628L672.905 409.921ZM673.572 409.47L673.969 410.388L673.98 410.383L673.572 409.47ZM683.6 409.47L683.182 410.379L683.197 410.386L683.212 410.392L683.6 409.47ZM684.277 409.921L683.57 410.628L683.576 410.635L683.583 410.641L684.277 409.921ZM684.728 410.588L683.806 410.976L683.81 410.985L684.728 410.588ZM674.392 411.398V410.398H673.392V411.398H674.392ZM674.392 421.898H673.392V422.898H674.392V421.898ZM682.79 421.898V422.898H683.79V421.898H682.79ZM682.79 411.398H683.79V410.398H682.79V411.398ZM683.892 421.898C683.892 422.054 683.863 422.196 683.806 422.33L685.649 423.106C685.812 422.721 685.892 422.316 685.892 421.898H683.892ZM683.81 422.321C683.75 422.461 683.67 422.577 683.57 422.678L684.984 424.092C685.266 423.81 685.487 423.482 685.646 423.115L683.81 422.321ZM683.57 422.678C683.473 422.774 683.357 422.853 683.212 422.914L683.988 424.758C684.362 424.6 684.697 424.379 684.984 424.092L683.57 422.678ZM683.203 422.918C683.081 422.971 682.946 423 682.79 423V425C683.208 425 683.613 424.92 683.997 424.754L683.203 422.918ZM682.79 423H674.392V425H682.79V423ZM674.392 423C674.236 423 674.094 422.971 673.96 422.914L673.184 424.758C673.568 424.92 673.974 425 674.392 425V423ZM673.969 422.918C673.829 422.858 673.713 422.778 673.612 422.678L672.198 424.092C672.48 424.374 672.808 424.595 673.175 424.754L673.969 422.918ZM673.612 422.678C673.512 422.577 673.432 422.461 673.372 422.321L671.536 423.115C671.695 423.482 671.916 423.81 672.198 424.092L673.612 422.678ZM673.376 422.33C673.319 422.196 673.29 422.054 673.29 421.898H671.29C671.29 422.316 671.37 422.721 671.532 423.106L673.376 422.33ZM673.29 421.898V411.398H671.29V421.898H673.29ZM673.29 411.398C673.29 411.242 673.319 411.107 673.372 410.985L671.536 410.191C671.37 410.574 671.29 410.98 671.29 411.398H673.29ZM673.376 410.976C673.436 410.833 673.511 410.726 673.599 410.641L672.211 409.202C671.916 409.486 671.691 409.823 671.532 410.2L673.376 410.976ZM673.612 410.628C673.713 410.528 673.829 410.448 673.969 410.388L673.175 408.552C672.808 408.711 672.48 408.932 672.198 409.214L673.612 410.628ZM673.98 410.383C674.11 410.325 674.244 410.296 674.392 410.296V408.296C673.965 408.296 673.553 408.383 673.163 408.557L673.98 410.383ZM674.392 410.296H682.79V408.296H674.392V410.296ZM682.79 410.296C682.938 410.296 683.065 410.325 683.182 410.379L684.017 408.562C683.629 408.383 683.216 408.296 682.79 408.296V410.296ZM683.212 410.392C683.357 410.453 683.473 410.532 683.57 410.628L684.984 409.214C684.697 408.928 684.362 408.706 683.988 408.549L683.212 410.392ZM683.583 410.641C683.671 410.726 683.746 410.833 683.806 410.976L685.649 410.2C685.491 409.823 685.266 409.486 684.971 409.202L683.583 410.641ZM683.81 410.985C683.863 411.107 683.892 411.242 683.892 411.398H685.892C685.892 410.98 685.812 410.574 685.646 410.191L683.81 410.985ZM683.892 411.398V421.898H685.892V411.398H683.892ZM673.392 411.398V421.898H675.392V411.398H673.392ZM674.392 422.898H682.79V420.898H674.392V422.898ZM683.79 421.898V411.398H681.79V421.898H683.79ZM682.79 410.398H674.392V412.398H682.79V410.398ZM692.876 409.296V408.296H691.876V409.296H692.876ZM694.978 409.296H695.978V408.296H694.978V409.296ZM694.978 421.898H693.978V422.898H694.978V421.898ZM703.376 421.898V422.898H704.376V421.898H703.376ZM703.376 409.296V408.296H702.376V409.296H703.376ZM705.478 409.296H706.478V408.296H705.478V409.296ZM705.314 422.718L706.231 423.115L706.235 423.106L705.314 422.718ZM704.186 423.836L703.798 422.914L703.789 422.918L704.186 423.836ZM694.157 423.836L693.76 424.754L693.769 424.758L694.157 423.836ZM693.04 422.718L692.118 423.106L692.122 423.115L693.04 422.718ZM692.876 410.296H694.978V408.296H692.876V410.296ZM693.978 409.296V421.898H695.978V409.296H693.978ZM694.978 422.898H703.376V420.898H694.978V422.898ZM704.376 421.898V409.296H702.376V421.898H704.376ZM703.376 410.296H705.478V408.296H703.376V410.296ZM704.478 409.296V421.898H706.478V409.296H704.478ZM704.478 421.898C704.478 422.054 704.449 422.196 704.392 422.33L706.235 423.106C706.397 422.721 706.478 422.316 706.478 421.898H704.478ZM704.396 422.321C704.336 422.461 704.256 422.577 704.155 422.678L705.57 424.092C705.852 423.81 706.073 423.482 706.231 423.115L704.396 422.321ZM704.155 422.678C704.059 422.774 703.943 422.853 703.798 422.914L704.574 424.758C704.948 424.6 705.283 424.379 705.57 424.092L704.155 422.678ZM703.789 422.918C703.666 422.971 703.532 423 703.376 423V425C703.793 425 704.199 424.92 704.583 424.754L703.789 422.918ZM703.376 423H694.978V425H703.376V423ZM694.978 423C694.821 423 694.68 422.971 694.545 422.914L693.769 424.758C694.154 424.92 694.56 425 694.978 425V423ZM694.554 422.918C694.415 422.858 694.299 422.778 694.198 422.678L692.784 424.092C693.066 424.374 693.394 424.595 693.76 424.754L694.554 422.918ZM694.198 422.678C694.097 422.577 694.018 422.461 693.958 422.321L692.122 423.115C692.28 423.482 692.502 423.81 692.784 424.092L694.198 422.678ZM693.961 422.33C693.905 422.196 693.876 422.054 693.876 421.898H691.876C691.876 422.316 691.956 422.721 692.118 423.106L693.961 422.33ZM693.876 421.898V409.296H691.876V421.898H693.876ZM712.2 409.296V408.296H711.2V409.296H712.2ZM723.961 409.296H724.961V408.296H723.961V409.296ZM723.961 411.398V412.398H724.961V411.398H723.961ZM719.132 411.398V410.398H718.132V411.398H719.132ZM719.132 424V425H720.132V424H719.132ZM717.03 424H716.03V425H717.03V424ZM717.03 411.398H718.03V410.398H717.03V411.398ZM712.2 411.398H711.2V412.398H712.2V411.398ZM712.2 410.296H723.961V408.296H712.2V410.296ZM722.961 409.296V411.398H724.961V409.296H722.961ZM723.961 410.398H719.132V412.398H723.961V410.398ZM718.132 411.398V424H720.132V411.398H718.132ZM719.132 423H717.03V425H719.132V423ZM718.03 424V411.398H716.03V424H718.03ZM717.03 410.398H712.2V412.398H717.03V410.398ZM713.2 411.398V409.296H711.2V411.398H713.2Z" fill="#FFB800" style="mix-blend-mode:difference"/>
<path d="M652.247 430.299L634.251 435.062C632.668 429.156 624.626 430.75 626.299 437.026C625.566 437.327 624.768 436.763 624.809 435.971L624.932 433.554C624.936 433.477 624.93 433.399 624.913 433.323L624.376 430.875L624.102 429.508C624.013 429.062 624.488 428.717 624.884 428.939C625.173 429.101 625.538 428.963 625.647 428.65L625.684 428.544C625.808 428.186 626.248 428.058 626.546 428.293L626.669 428.391C626.98 428.637 627.438 428.416 627.438 428.019C627.438 427.666 627.81 427.436 628.126 427.595L628.55 427.808C628.902 427.984 629.33 427.866 629.542 427.535L633.489 421.354C634.296 420.091 635.545 419.175 636.993 418.788L645.24 416.578C646.632 416.205 648.112 416.345 649.41 416.974L656.189 420.259C656.725 420.519 657.327 420.613 657.917 420.53L660.6 420.151C661.101 420.08 661.575 420.394 661.706 420.882L662.909 425.372C663.195 426.439 662.562 427.535 661.495 427.821L660.579 428.067C659.011 422.213 650.707 424.551 652.247 430.299Z" fill="black"/>
<circle cx="629.971" cy="435.595" r="3.5485" transform="rotate(-15 629.971 435.595)" fill="black"/>
<ellipse cx="629.972" cy="435.596" rx="2.67502" ry="2.67502" transform="rotate(-15 629.972 435.596)" fill="#FFB800"/>
<circle cx="656.343" cy="428.919" r="3.5485" transform="rotate(-15 656.343 428.919)" fill="black"/>
<ellipse cx="656.342" cy="428.919" rx="2.67502" ry="2.67502" transform="rotate(-15 656.342 428.919)" fill="#FFB800"/>
<path d="M619.305 426.182L622.425 428.317C622.604 428.44 622.691 428.658 622.645 428.869C622.575 429.195 622.227 429.377 621.919 429.249L618.43 427.793C617.954 427.595 617.733 427.043 617.941 426.571C618.174 426.043 618.829 425.856 619.305 426.182Z" fill="black"/>
<path d="M618.68 430.579L622.408 431.206C622.622 431.242 622.792 431.403 622.84 431.614C622.913 431.939 622.673 432.251 622.341 432.264L618.563 432.409C618.047 432.429 617.615 432.022 617.606 431.505C617.595 430.928 618.111 430.483 618.68 430.579Z" fill="black"/>
<path d="M622.949 422.504L624.562 425.923C624.654 426.119 624.619 426.351 624.473 426.51C624.248 426.756 623.856 426.737 623.655 426.471L621.379 423.452C621.068 423.04 621.156 422.453 621.575 422.15C622.042 421.812 622.702 421.982 622.949 422.504Z" fill="black"/>
<circle cx="669.5" cy="405.5" r="62.5" fill="url(#paint15_linear_516_127)"/>
<defs>
<linearGradient id="paint0_linear_516_127" x1="823.697" y1="340.651" x2="823.697" y2="522.514" gradientUnits="userSpaceOnUse">
<stop stop-color="#0E0907"/>
<stop offset="1" stop-color="#2D1710"/>
</linearGradient>
<radialGradient id="paint1_radial_516_127" cx="0" cy="0" r="1" gradientUnits="userSpaceOnUse" gradientTransform="translate(350 492) rotate(90) scale(84 105)">
<stop offset="0.661458" stop-color="#111111"/>
<stop offset="1" stop-color="#333333"/>
</radialGradient>
<radialGradient id="paint2_radial_516_127" cx="0" cy="0" r="1" gradientUnits="userSpaceOnUse" gradientTransform="translate(350 492) rotate(90) scale(56 70)">
<stop stop-color="#1A110B"/>
<stop offset="1" stop-color="#3E2B1D"/>
</radialGradient>
<radialGradient id="paint3_radial_516_127" cx="0" cy="0" r="1" gradientUnits="userSpaceOnUse" gradientTransform="translate(349.923 491.893) rotate(-180) scale(59.9231 74.3102)">
<stop offset="0.213542" stop-color="#C5C5C5"/>
<stop offset="1" stop-color="#E7E7E7"/>
</radialGradient>
<linearGradient id="paint4_linear_516_127" x1="350" y1="408" x2="350" y2="576" gradientUnits="userSpaceOnUse">
<stop stop-opacity="0.9"/>
<stop offset="0.531553" stop-opacity="0"/>
</linearGradient>
<linearGradient id="paint5_linear_516_127" x1="815.49" y1="69.3875" x2="815.49" y2="521.436" gradientUnits="userSpaceOnUse">
<stop offset="0.490135" stop-color="#C7C7C7"/>
<stop offset="1" stop-color="#838383"/>
</linearGradient>
<linearGradient id="paint6_linear_516_127" x1="235.809" y1="327.826" x2="194.082" y2="293.419" gradientUnits="userSpaceOnUse">
<stop/>
<stop offset="1" stop-color="#333333"/>
</linearGradient>
<linearGradient id="paint7_linear_516_127" x1="229.489" y1="318.046" x2="254.653" y2="321.049" gradientUnits="userSpaceOnUse">
<stop stop-color="#222222"/>
<stop offset="1"/>
</linearGradient>
<linearGradient id="paint8_linear_516_127" x1="578.491" y1="183.599" x2="589.828" y2="224.512" gradientUnits="userSpaceOnUse">
<stop stop-color="#929292"/>
<stop offset="1" stop-color="#585858"/>
</linearGradient>
<linearGradient id="paint9_linear_516_127" x1="782.5" y1="262" x2="782.5" y2="296" gradientUnits="userSpaceOnUse">
<stop stop-color="#A6A6A6"/>
<stop offset="0.505208" stop-color="#626262"/>
<stop offset="1" stop-color="#A6A6A6"/>
</linearGradient>
<linearGradient id="paint10_linear_516_127" x1="1092.5" y1="262" x2="1092.5" y2="296" gradientUnits="userSpaceOnUse">
<stop stop-color="#A6A6A6"/>
<stop offset="0.505208" stop-color="#626262"/>
<stop offset="1" stop-color="#A6A6A6"/>
</linearGradient>
<linearGradient id="paint11_linear_516_127" x1="200.923" y1="343.971" x2="253.392" y2="513.015" gradientUnits="userSpaceOnUse">
<stop stop-color="#B8B8B8"/>
<stop offset="1" stop-color="#868686"/>
</linearGradient>
<radialGradient id="paint12_radial_516_127" cx="0" cy="0" r="1" gradientUnits="userSpaceOnUse" gradientTransform="translate(1167 495) rotate(90) scale(105)">
<stop offset="0.661458" stop-color="#111111"/>
<stop offset="1" stop-color="#333333"/>
</radialGradient>
<radialGradient id="paint13_radial_516_127" cx="0" cy="0" r="1" gradientUnits="userSpaceOnUse" gradientTransform="translate(1167 495) rotate(90) scale(70)">
<stop stop-color="#1A110B"/>
<stop offset="1" stop-color="#3E2B1D"/>
</radialGradient>
<radialGradient id="paint14_radial_516_127" cx="0" cy="0" r="1" gradientUnits="userSpaceOnUse" gradientTransform="translate(1166.9 494.926) rotate(-180) scale(74.9036 74.4799)">
<stop offset="0.213542" stop-color="#C5C5C5"/>
<stop offset="1" stop-color="#E7E7E7"/>
</radialGradient>
<linearGradient id="paint15_linear_516_127" x1="669.5" y1="343" x2="669.5" y2="468" gradientUnits="userSpaceOnUse">
<stop stop-color="white" stop-opacity="0.15"/>
<stop offset="1" stop-opacity="0.2"/>
</linearGradient>
</defs>
</svg>
