<svg width="1921" height="30" viewBox="0 0 1921 30" fill="none" xmlns="http://www.w3.org/2000/svg">
<rect x="0.111328" width="1920" height="30" fill="url(#paint0_linear_194_300)"/>
<path d="M10 30L30 0H70L50 30H10Z" fill="#111111"/>
<path d="M90 30L110 0H150L130 30H90Z" fill="#111111"/>
<path d="M170 30L190 0H230L210 30H170Z" fill="#111111"/>
<path d="M250 30L270 0H310L290 30H250Z" fill="#111111"/>
<path d="M330 30L350 0H390L370 30H330Z" fill="#111111"/>
<path d="M410 30L430 0H470L450 30H410Z" fill="#111111"/>
<path d="M490 30L510 0H550L530 30H490Z" fill="#111111"/>
<path d="M570 30L590 0H630L610 30H570Z" fill="#111111"/>
<path d="M650 30L670 0H710L690 30H650Z" fill="#111111"/>
<path d="M730 30L750 0H790L770 30H730Z" fill="#111111"/>
<path d="M810 30L830 0H870L850 30H810Z" fill="#111111"/>
<path d="M890 30L910 0H950L930 30H890Z" fill="#111111"/>
<path d="M970 30L990 0H1030L1010 30H970Z" fill="#111111"/>
<path d="M1050 30L1070 0H1110L1090 30H1050Z" fill="#111111"/>
<path d="M1130 30L1150 0H1190L1170 30H1130Z" fill="#111111"/>
<path d="M1210 30L1230 0H1270L1250 30H1210Z" fill="#111111"/>
<path d="M1290 30L1310 0H1350L1330 30H1290Z" fill="#111111"/>
<path d="M1370 30L1390 0H1430L1410 30H1370Z" fill="#111111"/>
<path d="M1450 30L1470 0H1510L1490 30H1450Z" fill="#111111"/>
<path d="M1530 30L1550 0H1590L1570 30H1530Z" fill="#111111"/>
<path d="M1610 30L1630 0H1670L1650 30H1610Z" fill="#111111"/>
<path d="M1690 30L1710 0H1750L1730 30H1690Z" fill="#111111"/>
<path d="M1770 30L1790 0H1830L1810 30H1770Z" fill="#111111"/>
<path d="M1850 30L1870 0H1910L1890 30H1850Z" fill="#111111"/>
<defs>
<linearGradient id="paint0_linear_194_300" x1="960.111" y1="0" x2="960.111" y2="30" gradientUnits="userSpaceOnUse">
<stop stop-color="#FFB800"/>
<stop offset="1" stop-color="#B58200"/>
</linearGradient>
</defs>
</svg>
