<svg width="1500" height="750" viewBox="0 0 1500 750" fill="none" xmlns="http://www.w3.org/2000/svg">
<path d="M269.272 592.5V440.5H1255.77V575.5L1035.27 592.5H269.272Z" fill="url(#paint0_linear)"/>
<path fill-rule="evenodd" clip-rule="evenodd" d="M491.272 592.499H1032.5L1040 591.926V569.812C1039.67 566.419 1039.5 562.979 1039.5 559.5C1039.5 501.51 1086.51 454.5 1144.5 454.5C1202.32 454.5 1249.23 501.24 1249.5 559H1250V575.881L1255 575.499L1348.23 566.989C1363.67 565.579 1375.5 552.625 1375.5 537.113V488.434C1375.5 481.918 1371.29 476.147 1365.09 474.154L1347.5 468.5V378.5C1347.5 367.454 1338.55 358.5 1327.5 358.5H1256.31C1255.45 358.5 1254.59 358.267 1253.84 357.842C1232.73 345.875 1214.48 334.172 1197.13 323.051C1121.37 274.482 1062.91 237 859.772 237C674.927 237 580.952 290.595 474.364 351.384L474.364 351.384L474.364 351.384L474.363 351.384L474.363 351.384L474.363 351.384C458.108 360.655 441.559 370.093 424.35 379.533C423.792 379.84 423.172 380.039 422.54 380.116L417.67 380.705C287.876 396.395 174.897 410.053 149.772 480.5L142.825 483.584C131.986 488.397 125 499.143 125 511.003V548.279C125 563.296 136.103 575.999 150.985 578.009L258.272 592.499H276V569.812C275.669 566.419 275.5 562.979 275.5 559.5C275.5 501.51 322.51 454.5 380.5 454.5C438.323 454.5 485.23 501.24 485.499 559H486V592.499H491.272ZM431.272 376L461.999 373.574C466.778 373.196 471.398 371.672 475.482 369.162C551.378 322.515 621.458 288.678 689.823 265.332C691.43 264.783 692.872 263.84 694.015 262.583L702.272 253.5C620.691 270.085 557.996 305.156 464.834 357.27L464.823 357.276L464.821 357.277L464.81 357.283C454.062 363.296 442.908 369.535 431.272 376ZM1102.63 281.115C1144.25 299.434 1160.53 311.484 1176.33 323.185C1184.71 329.392 1192.96 335.5 1204.79 342.393C1213.66 347.563 1224.26 348.762 1234.27 346.5C1223 339.791 1211.8 332.577 1200.37 325.217C1169.22 305.153 1136.38 283.998 1095.77 269L1096.74 273.857C1097.39 277.077 1099.62 279.792 1102.63 281.115ZM1013.6 267.287C979.473 262.59 914.638 257.636 855.5 259.212L843.772 370.5L1055.5 360.5V321.678C1055.5 317.474 1054.18 313.378 1051.71 309.97L1026.62 275.217C1023.52 270.916 1018.86 268.01 1013.6 267.287ZM574.447 341.496C646.748 296.567 743.732 261.785 825 259.212L808.772 373L566.272 385L572.164 344.992C572.377 343.545 573.205 342.268 574.447 341.496ZM1165.16 341.662C1158.77 329.177 1143.27 317.557 1081.3 290.756C1076.62 288.731 1072.3 294.194 1075.37 298.273L1108.27 342.076C1111.1 345.848 1115.55 348.067 1120.27 348.067H1160.84C1164.25 348.067 1166.71 344.697 1165.16 341.662Z" fill="url(#paint1_linear)"/>
<path d="M1032.5 592.499V594.999H1032.6L1032.69 594.992L1032.5 592.499ZM1040 591.926L1040.19 594.419L1042.5 594.243V591.926H1040ZM1040 569.812H1042.5V569.69L1042.49 569.569L1040 569.812ZM1249.5 559L1247 559.012L1247.01 561.5H1249.5V559ZM1250 559H1252.5V556.5H1250V559ZM1250 575.881H1247.5V578.58L1250.19 578.374L1250 575.881ZM1255 575.499L1255.19 577.992L1255.21 577.991L1255.23 577.989L1255 575.499ZM1348.23 566.989L1348 564.499L1348 564.499L1348.23 566.989ZM1365.09 474.154L1364.33 476.534L1364.33 476.534L1365.09 474.154ZM1347.5 468.5H1345V470.322L1346.73 470.88L1347.5 468.5ZM1253.84 357.842L1252.6 360.017L1252.6 360.017L1253.84 357.842ZM1197.13 323.051L1198.48 320.946L1198.48 320.946L1197.13 323.051ZM474.364 351.384L475.482 353.62L475.543 353.589L475.603 353.555L474.364 351.384ZM474.364 351.384L473.246 349.148L473.125 349.208L473.012 349.281L474.364 351.384ZM474.363 351.384L475.481 353.62L475.602 353.56L475.715 353.487L474.363 351.384ZM474.363 351.384L473.245 349.148L473.184 349.179L473.124 349.213L474.363 351.384ZM424.35 379.533L425.553 381.725L425.553 381.725L424.35 379.533ZM422.54 380.116L422.84 382.598L422.84 382.598L422.54 380.116ZM417.67 380.705L417.97 383.186L417.97 383.186L417.67 380.705ZM149.772 480.5L150.787 482.784L151.767 482.349L152.127 481.339L149.772 480.5ZM142.825 483.584L141.81 481.3L141.81 481.3L142.825 483.584ZM150.985 578.009L151.319 575.532L151.319 575.532L150.985 578.009ZM258.272 592.499L257.937 594.977L258.104 594.999H258.272V592.499ZM276 592.499V594.999H278.5V592.499H276ZM276 569.812H278.5V569.691L278.488 569.57L276 569.812ZM485.499 559L482.999 559.012L483.01 561.5H485.499V559ZM486 559H488.5V556.5H486V559ZM486 592.499H483.5V594.999H486V592.499ZM461.999 373.574L462.196 376.066L462.196 376.066L461.999 373.574ZM431.272 376L430.058 373.814L431.469 378.492L431.272 376ZM475.482 369.162L474.173 367.032L474.173 367.032L475.482 369.162ZM689.823 265.332L689.015 262.966L689.015 262.966L689.823 265.332ZM694.015 262.583L692.165 260.901L692.165 260.901L694.015 262.583ZM702.272 253.5L704.122 255.182L709.262 249.528L701.774 251.05L702.272 253.5ZM464.834 357.27L466.05 359.454L466.054 359.452L464.834 357.27ZM464.823 357.276L463.607 355.092L463.599 355.096L463.59 355.101L464.823 357.276ZM464.821 357.277L466.041 359.459L466.048 359.455L466.055 359.452L464.821 357.277ZM464.81 357.283L463.59 355.101L463.59 355.101L464.81 357.283ZM1176.33 323.185L1174.85 325.195L1174.85 325.195L1176.33 323.185ZM1102.63 281.115L1101.62 283.403L1101.62 283.403L1102.63 281.115ZM1204.79 342.393L1206.05 340.233L1206.05 340.233L1204.79 342.393ZM1234.27 346.5L1234.82 348.939L1240.94 347.558L1235.55 344.352L1234.27 346.5ZM1200.37 325.217L1199.02 327.319L1199.02 327.319L1200.37 325.217ZM1095.77 269L1096.64 266.655L1092.44 265.106L1093.32 269.49L1095.77 269ZM1096.74 273.857L1094.29 274.347L1094.29 274.347L1096.74 273.857ZM855.5 259.212L855.433 256.713L853.243 256.771L853.014 258.95L855.5 259.212ZM1013.6 267.287L1013.94 264.81L1013.94 264.81L1013.6 267.287ZM843.772 370.5L841.286 370.238L840.98 373.134L843.89 372.997L843.772 370.5ZM1055.5 360.5L1055.62 362.997L1058 362.884V360.5H1055.5ZM1051.71 309.97L1049.69 311.433L1049.69 311.433L1051.71 309.97ZM1026.62 275.217L1024.6 276.681L1024.6 276.681L1026.62 275.217ZM825 259.212L827.475 259.565L827.895 256.619L824.921 256.713L825 259.212ZM574.447 341.496L573.128 339.372L573.128 339.372L574.447 341.496ZM808.772 373L808.896 375.497L810.956 375.395L811.247 373.353L808.772 373ZM566.272 385L563.799 384.635L563.355 387.647L566.396 387.497L566.272 385ZM572.164 344.992L569.691 344.628L569.691 344.628L572.164 344.992ZM1081.3 290.756L1080.31 293.051L1080.31 293.051L1081.3 290.756ZM1165.16 341.662L1167.38 340.523L1167.38 340.523L1165.16 341.662ZM1075.37 298.273L1073.37 299.775L1073.37 299.775L1075.37 298.273ZM1108.27 342.076L1110.27 340.575L1110.27 340.575L1108.27 342.076ZM1032.5 589.999H491.272V594.999H1032.5V589.999ZM1039.81 589.434L1032.31 590.007L1032.69 594.992L1040.19 594.419L1039.81 589.434ZM1037.5 569.812V591.926H1042.5V569.812H1037.5ZM1037 559.5C1037 563.06 1037.17 566.581 1037.51 570.055L1042.49 569.569C1042.17 566.257 1042 562.898 1042 559.5H1037ZM1144.5 452C1085.13 452 1037 500.129 1037 559.5H1042C1042 502.89 1087.89 457 1144.5 457V452ZM1252 558.988C1251.72 499.853 1203.7 452 1144.5 452V457C1200.95 457 1246.74 502.627 1247 559.012L1252 558.988ZM1250 556.5H1249.5V561.5H1250V556.5ZM1252.5 575.881V559H1247.5V575.881H1252.5ZM1254.81 573.007L1249.81 573.389L1250.19 578.374L1255.19 577.992L1254.81 573.007ZM1348 564.499L1254.77 573.01L1255.23 577.989L1348.45 569.479L1348 564.499ZM1373 537.113C1373 551.332 1362.16 563.207 1348 564.499L1348.45 569.479C1365.19 567.951 1378 553.918 1378 537.113H1373ZM1373 488.434V537.113H1378V488.434H1373ZM1364.33 476.534C1369.49 478.195 1373 483.004 1373 488.434H1378C1378 480.832 1373.09 474.1 1365.86 471.773L1364.33 476.534ZM1346.73 470.88L1364.33 476.534L1365.86 471.773L1348.27 466.119L1346.73 470.88ZM1345 378.5V468.5H1350V378.5H1345ZM1327.5 361C1337.16 361 1345 368.835 1345 378.5H1350C1350 366.073 1339.93 356 1327.5 356V361ZM1256.31 361H1327.5V356H1256.31V361ZM1252.6 360.017C1253.72 360.651 1255.01 361 1256.31 361V356C1255.89 356 1255.45 355.883 1255.07 355.667L1252.6 360.017ZM1195.78 325.156C1213.13 336.274 1231.43 348.012 1252.6 360.017L1255.07 355.667C1234.03 343.738 1215.83 332.07 1198.48 320.946L1195.78 325.156ZM859.772 239.5C961.2 239.5 1026.32 248.86 1075.47 264.199C1124.6 279.53 1157.9 300.87 1195.78 325.156L1198.48 320.946C1160.6 296.663 1126.79 274.978 1076.96 259.426C1027.15 243.881 961.478 234.5 859.772 234.5V239.5ZM475.603 353.555C582.081 292.829 675.59 239.5 859.772 239.5V234.5C674.263 234.5 579.823 288.361 473.126 349.212L475.603 353.555ZM475.482 353.62L475.482 353.62L473.246 349.148L473.246 349.148L475.482 353.62ZM475.482 353.62L475.482 353.62L473.246 349.148L473.246 349.148L475.482 353.62ZM475.715 353.487L475.716 353.487L473.012 349.281L473.012 349.281L475.715 353.487ZM475.481 353.62L475.481 353.62L473.245 349.148L473.245 349.148L475.481 353.62ZM475.481 353.62L475.481 353.62L473.245 349.148L473.245 349.148L475.481 353.62ZM425.553 381.725C442.783 372.273 459.349 362.825 475.601 353.556L473.124 349.213C456.867 358.485 440.336 367.912 423.148 377.341L425.553 381.725ZM422.84 382.598C423.789 382.483 424.716 382.184 425.553 381.725L423.148 377.341C422.869 377.495 422.554 377.596 422.239 377.634L422.84 382.598ZM417.97 383.186L422.84 382.598L422.24 377.634L417.37 378.223L417.97 383.186ZM152.127 481.339C164.268 447.297 197.755 426.592 245.183 412.464C292.546 398.356 353.002 391.04 417.97 383.186L417.37 378.223C352.544 386.059 291.613 393.417 243.756 407.672C195.965 421.908 160.401 443.255 147.417 479.66L152.127 481.339ZM143.839 485.869L150.787 482.784L148.757 478.215L141.81 481.3L143.839 485.869ZM127.5 511.003C127.5 500.132 133.904 490.281 143.839 485.869L141.81 481.3C130.068 486.514 122.5 498.155 122.5 511.003H127.5ZM127.5 548.279V511.003H122.5V548.279H127.5ZM151.319 575.532C137.678 573.689 127.5 562.044 127.5 548.279H122.5C122.5 564.547 134.528 578.309 150.65 580.487L151.319 575.532ZM258.607 590.022L151.319 575.532L150.65 580.487L257.937 594.977L258.607 590.022ZM276 589.999H258.272V594.999H276V589.999ZM273.5 569.812V592.499H278.5V569.812H273.5ZM273 559.5C273 563.06 273.173 566.581 273.512 570.055L278.488 569.57C278.165 566.257 278 562.898 278 559.5H273ZM380.5 452C321.129 452 273 500.129 273 559.5H278C278 502.89 323.891 457 380.5 457V452ZM487.999 558.988C487.723 499.853 439.7 452 380.5 452V457C436.946 457 482.736 502.627 482.999 559.012L487.999 558.988ZM486 556.5H485.499V561.5H486V556.5ZM488.5 592.499V559H483.5V592.499H488.5ZM491.272 589.999H486V594.999H491.272V589.999ZM461.803 371.081L431.075 373.507L431.469 378.492L462.196 376.066L461.803 371.081ZM474.173 367.032C470.421 369.339 466.181 370.736 461.803 371.081L462.196 376.066C467.376 375.657 472.376 374.006 476.791 371.292L474.173 367.032ZM689.015 262.966C620.442 286.383 550.194 320.308 474.173 367.032L476.791 371.292C552.561 324.723 622.474 290.973 690.63 267.698L689.015 262.966ZM692.165 260.901C691.308 261.844 690.226 262.552 689.015 262.966L690.63 267.698C692.635 267.013 694.436 265.836 695.864 264.264L692.165 260.901ZM700.422 251.818L692.165 260.901L695.864 264.264L704.122 255.182L700.422 251.818ZM466.054 359.452C559.278 307.303 621.635 272.444 702.77 255.95L701.774 251.05C619.746 267.726 556.715 303.008 463.613 355.088L466.054 359.452ZM466.04 359.46L466.05 359.454L463.617 355.086L463.607 355.092L466.04 359.46ZM466.055 359.452L466.057 359.45L463.59 355.101L463.587 355.103L466.055 359.452ZM466.031 359.465L466.041 359.459L463.601 355.095L463.59 355.101L466.031 359.465ZM432.486 378.185C444.125 371.719 455.283 365.477 466.031 359.465L463.59 355.101C452.841 361.114 441.69 367.352 430.058 373.814L432.486 378.185ZM1177.82 321.176C1161.91 309.397 1145.48 297.24 1103.63 278.827L1101.62 283.403C1143.03 301.628 1159.15 313.57 1174.85 325.195L1177.82 321.176ZM1206.05 340.233C1194.35 333.414 1186.2 327.378 1177.82 321.176L1174.85 325.195C1183.23 331.405 1191.58 337.585 1203.53 344.553L1206.05 340.233ZM1233.72 344.061C1224.25 346.201 1214.31 345.047 1206.05 340.233L1203.53 344.553C1213.02 350.078 1224.27 351.322 1234.82 348.939L1233.72 344.061ZM1199.02 327.319C1210.44 334.675 1221.68 341.913 1232.99 348.648L1235.55 344.352C1224.32 337.669 1213.16 330.48 1201.73 323.116L1199.02 327.319ZM1094.91 271.345C1135.22 286.236 1167.85 307.242 1199.02 327.319L1201.73 323.116C1170.59 303.063 1137.54 281.761 1096.64 266.655L1094.91 271.345ZM1099.19 273.366L1098.22 268.51L1093.32 269.49L1094.29 274.347L1099.19 273.366ZM1103.63 278.827C1101.35 277.822 1099.67 275.765 1099.19 273.366L1094.29 274.347C1095.1 278.39 1097.89 281.761 1101.62 283.403L1103.63 278.827ZM855.567 261.711C914.558 260.139 979.256 265.084 1013.26 269.763L1013.94 264.81C979.69 260.097 914.719 255.133 855.433 256.713L855.567 261.711ZM846.258 370.762L857.986 259.474L853.014 258.95L841.286 370.238L846.258 370.762ZM1055.38 358.002L843.654 368.002L843.89 372.997L1055.62 362.997L1055.38 358.002ZM1053 321.678V360.5H1058V321.678H1053ZM1049.69 311.433C1051.84 314.415 1053 318 1053 321.678H1058C1058 316.949 1056.51 312.34 1053.74 308.506L1049.69 311.433ZM1024.6 276.681L1049.69 311.433L1053.74 308.506L1028.65 273.754L1024.6 276.681ZM1013.26 269.763C1017.81 270.389 1021.87 272.907 1024.6 276.681L1028.65 273.754C1025.16 268.925 1019.91 265.631 1013.94 264.81L1013.26 269.763ZM824.921 256.713C743.112 259.303 645.705 294.271 573.128 339.372L575.767 343.619C647.791 298.862 744.351 264.266 825.079 261.71L824.921 256.713ZM811.247 373.353L827.475 259.565L822.525 258.859L806.297 372.647L811.247 373.353ZM566.396 387.497L808.896 375.497L808.648 370.503L566.148 382.503L566.396 387.497ZM569.691 344.628L563.799 384.635L568.745 385.364L574.637 345.356L569.691 344.628ZM573.128 339.372C571.251 340.538 570.009 342.464 569.691 344.628L574.637 345.357C574.745 344.626 575.158 343.997 575.767 343.619L573.128 339.372ZM1080.31 293.051C1111.28 306.443 1130.49 315.986 1142.74 323.693C1154.95 331.376 1160.02 337.105 1162.93 342.801L1167.38 340.523C1163.91 333.733 1158.03 327.41 1145.4 319.461C1132.81 311.537 1113.3 301.87 1082.29 288.462L1080.31 293.051ZM1077.37 296.772C1075.85 294.753 1077.97 292.039 1080.31 293.051L1082.29 288.462C1075.27 285.423 1068.76 293.635 1073.37 299.775L1077.37 296.772ZM1110.27 340.575L1077.37 296.772L1073.37 299.775L1106.27 343.577L1110.27 340.575ZM1120.27 345.567C1116.33 345.567 1112.63 343.718 1110.27 340.575L1106.27 343.577C1109.58 347.978 1114.76 350.567 1120.27 350.567V345.567ZM1160.84 345.567H1120.27V350.567H1160.84V345.567ZM1162.93 342.801C1163.25 343.427 1163.18 344.046 1162.81 344.579C1162.42 345.142 1161.71 345.567 1160.84 345.567V350.567C1165.75 350.567 1169.95 345.54 1167.38 340.523L1162.93 342.801Z" fill="black"/>
<path fill-rule="evenodd" clip-rule="evenodd" d="M534.517 387.743L1167.37 356.706C1174.34 356.365 1178.82 349.167 1176.06 342.758L1172.76 335.115C1171.46 332.085 1169.44 329.415 1166.8 327.434C1132.38 301.58 1077.19 277.569 1044.77 270.5C983.32 257.101 890.274 257.364 848.882 257.482C845.481 257.491 842.429 257.5 839.772 257.5C734.138 256.508 612.762 308.642 531.267 369.014C530.001 369.952 529.272 371.427 529.272 373.003V382.749C529.272 385.606 531.663 387.883 534.517 387.743ZM1013.6 267.287C979.473 262.59 914.638 257.636 855.5 259.212L843.772 370.5L1055.5 360.5V321.678C1055.5 317.474 1054.18 313.378 1051.71 309.97L1026.62 275.217C1023.52 270.916 1018.86 268.01 1013.6 267.287ZM574.447 341.496C646.748 296.567 743.732 261.785 825 259.212L808.772 373L566.272 385L572.164 344.992C572.377 343.545 573.205 342.268 574.447 341.496ZM1165.16 341.662C1158.77 329.177 1143.27 317.557 1081.3 290.756C1076.62 288.731 1072.3 294.194 1075.37 298.273L1108.27 342.076C1111.1 345.848 1115.55 348.067 1120.27 348.067H1160.84C1164.25 348.067 1166.71 344.697 1165.16 341.662Z" fill="#545454"/>
<path d="M1167.37 356.706L1167.29 355.208L1167.29 355.208L1167.37 356.706ZM534.517 387.743L534.59 389.241L534.59 389.241L534.517 387.743ZM1176.06 342.758L1174.68 343.352L1174.68 343.352L1176.06 342.758ZM1172.76 335.115L1174.14 334.521L1174.14 334.521L1172.76 335.115ZM1166.8 327.434L1165.9 328.633L1165.9 328.633L1166.8 327.434ZM1044.77 270.5L1045.09 269.034L1045.09 269.034L1044.77 270.5ZM848.882 257.482L848.886 258.982L848.882 257.482ZM839.772 257.5L839.758 259H839.772V257.5ZM531.267 369.014L532.16 370.219L532.16 370.219L531.267 369.014ZM855.5 259.212L855.46 257.712L854.146 257.747L854.008 259.055L855.5 259.212ZM1013.6 267.287L1013.81 265.801L1013.81 265.801L1013.6 267.287ZM843.772 370.5L842.28 370.342L842.097 372.08L843.843 371.998L843.772 370.5ZM1055.5 360.5L1055.57 361.998L1057 361.93V360.5H1055.5ZM1051.71 309.97L1050.5 310.848L1050.5 310.848L1051.71 309.97ZM1026.62 275.217L1025.41 276.095L1025.41 276.095L1026.62 275.217ZM825 259.212L826.485 259.424L826.737 257.656L824.953 257.712L825 259.212ZM574.447 341.496L573.655 340.222L573.655 340.222L574.447 341.496ZM808.772 373L808.846 374.498L810.082 374.437L810.257 373.211L808.772 373ZM566.272 385L564.788 384.781L564.522 386.588L566.346 386.498L566.272 385ZM572.164 344.992L570.68 344.774L570.68 344.774L572.164 344.992ZM1081.3 290.756L1080.71 292.133L1080.71 292.133L1081.3 290.756ZM1165.16 341.662L1166.49 340.978L1166.49 340.978L1165.16 341.662ZM1075.37 298.273L1074.17 299.174L1074.17 299.174L1075.37 298.273ZM1108.27 342.076L1109.47 341.175L1109.47 341.175L1108.27 342.076ZM1167.29 355.208L534.443 386.245L534.59 389.241L1167.44 358.205L1167.29 355.208ZM1174.68 343.352C1177.03 348.799 1173.22 354.918 1167.29 355.208L1167.44 358.205C1175.46 357.811 1180.62 349.534 1177.44 342.163L1174.68 343.352ZM1171.39 335.709L1174.68 343.352L1177.44 342.163L1174.14 334.521L1171.39 335.709ZM1165.9 328.633C1168.31 330.446 1170.17 332.9 1171.39 335.709L1174.14 334.521C1172.74 331.271 1170.56 328.385 1167.7 326.235L1165.9 328.633ZM1044.45 271.966C1076.66 278.989 1131.66 302.91 1165.9 328.633L1167.7 326.235C1133.11 300.25 1077.72 276.149 1045.09 269.034L1044.45 271.966ZM848.886 258.982C890.329 258.864 983.194 258.609 1044.45 271.966L1045.09 269.034C983.447 255.593 890.219 255.865 848.877 255.982L848.886 258.982ZM839.772 259C842.432 259 845.486 258.991 848.886 258.982L848.877 255.982C845.476 255.991 842.427 256 839.772 256V259ZM532.16 370.219C613.483 309.975 734.547 258.012 839.758 259L839.786 256C733.728 255.004 612.041 307.309 530.374 367.809L532.16 370.219ZM530.772 373.003C530.772 371.894 531.283 370.869 532.16 370.219L530.374 367.809C528.719 369.035 527.772 370.961 527.772 373.003H530.772ZM530.772 382.749V373.003H527.772V382.749H530.772ZM534.443 386.245C532.445 386.343 530.772 384.749 530.772 382.749H527.772C527.772 386.464 530.88 389.423 534.59 389.241L534.443 386.245ZM855.54 260.711C914.59 259.138 979.343 264.087 1013.4 268.773L1013.81 265.801C979.603 261.094 914.687 256.135 855.46 257.712L855.54 260.711ZM845.264 370.657L856.992 259.369L854.008 259.055L842.28 370.342L845.264 370.657ZM1055.43 359.001L843.701 369.001L843.843 371.998L1055.57 361.998L1055.43 359.001ZM1054 321.678V360.5H1057V321.678H1054ZM1050.5 310.848C1052.77 314 1054 317.789 1054 321.678H1057C1057 317.159 1055.58 312.755 1052.93 309.092L1050.5 310.848ZM1025.41 276.095L1050.5 310.848L1052.93 309.092L1027.84 274.339L1025.41 276.095ZM1013.4 268.773C1018.23 269.438 1022.53 272.111 1025.41 276.095L1027.84 274.339C1024.5 269.721 1019.49 266.582 1013.81 265.801L1013.4 268.773ZM824.953 257.712C743.36 260.296 646.122 295.19 573.655 340.222L575.239 342.77C647.373 297.944 744.103 263.274 825.047 260.711L824.953 257.712ZM810.257 373.211L826.485 259.424L823.515 259L807.287 372.788L810.257 373.211ZM566.346 386.498L808.846 374.498L808.698 371.501L566.198 383.501L566.346 386.498ZM570.68 344.774L564.788 384.781L567.756 385.218L573.648 345.211L570.68 344.774ZM573.655 340.222C572.033 341.23 570.957 342.897 570.68 344.774L573.648 345.211C573.798 344.193 574.377 343.305 575.239 342.77L573.655 340.222ZM1080.71 292.133C1111.68 305.529 1130.96 315.096 1143.27 322.847C1155.56 330.583 1160.8 336.431 1163.82 342.345L1166.49 340.978C1163.13 334.408 1157.42 328.203 1144.87 320.308C1132.35 312.427 1112.89 302.784 1081.9 289.38L1080.71 292.133ZM1076.57 297.372C1074.43 294.529 1077.43 290.716 1080.71 292.133L1081.9 289.38C1075.81 286.746 1070.18 293.858 1074.17 299.174L1076.57 297.372ZM1109.47 341.175L1076.57 297.372L1074.17 299.174L1107.07 342.977L1109.47 341.175ZM1120.27 346.567C1116.02 346.567 1112.02 344.57 1109.47 341.175L1107.07 342.977C1110.19 347.126 1115.08 349.567 1120.27 349.567V346.567ZM1160.84 346.567H1120.27V349.567H1160.84V346.567ZM1163.82 342.345C1164.77 344.192 1163.35 346.567 1160.84 346.567V349.567C1165.15 349.567 1168.66 345.203 1166.49 340.978L1163.82 342.345Z" fill="black"/>
<path d="M515.242 396C512.868 505.608 515.191 567.166 537.023 575.255C537.495 575.43 537.998 575.5 538.502 575.5H827.242M515.242 396V367.201C515.242 365.515 516.093 363.941 517.506 363.02C619.849 296.306 728.824 249.5 840.742 249.5M515.242 396C512.868 505.608 515.191 567.167 537.023 575.255C537.495 575.43 537.998 575.5 538.502 575.5H827.242M840.742 249.5C929.05 249.5 982.311 249.5 1031.26 259.586C1032.53 259.848 1033.65 260.602 1034.37 261.678L1100.39 359.733C1100.95 360.559 1101.24 361.531 1101.24 362.526V436.358C1101.24 438.529 1099.85 440.438 1097.8 441.161C1068.29 451.591 1019.11 481.057 1017.32 570.452C1017.27 573.213 1015.03 575.5 1012.27 575.5H827.242M840.742 249.5L827.242 376.5V575.5" stroke="black" stroke-width="4"/>
<path d="M1292.77 393.5H1346.77V455.5H1333.99C1331.77 455.5 1329.82 454.036 1329.19 451.906L1324 434.187L1291.66 426.837C1289.39 426.32 1287.77 424.296 1287.77 421.962V398.5C1287.77 395.738 1290.01 393.5 1292.77 393.5Z" fill="#971D1D" stroke="black" stroke-width="4"/>
<path d="M1347.54 433.5V454.812H1333.76C1331.54 454.812 1329.59 453.349 1328.97 451.219L1323.77 433.5H1347.54Z" fill="#D27D2E" stroke="black" stroke-width="4"/>
<path d="M194.272 430.5H267.442C270.358 430.5 271.56 434.238 269.191 435.937L255.249 445.937C254.739 446.303 254.128 446.5 253.5 446.5H234.975C233.994 446.5 233.034 446.788 232.216 447.33L210.036 462.009C207.581 463.634 204.702 464.5 201.758 464.5H157.772C170.724 447.5 184.272 436.5 194.272 430.5Z" fill="url(#paint2_linear)" stroke="black" stroke-width="4"/>
<path d="M243.42 431.422L233.772 446.5H253.314C253.937 446.5 254.545 446.306 255.053 445.945L269.115 435.945C271.496 434.252 270.298 430.5 267.377 430.5H245.105C244.423 430.5 243.788 430.848 243.42 431.422Z" fill="#D27D2E" stroke="black" stroke-width="4"/>
<path d="M145.772 481.5C254.772 481.5 218 478.5 302.5 488.5" stroke="black" stroke-width="4"/>
<path d="M1221 487L1255.71 470.459C1257.73 469.498 1259.93 469 1262.16 469H1347.77" stroke="black" stroke-width="4"/>
<path d="M545.084 391.664C543.466 368.528 547.492 345.956 572.542 351.291C573.37 351.467 573.995 352.175 574.079 353.017L577.617 388.537C577.708 389.45 577.169 390.309 576.304 390.615C569.692 392.958 559.325 396.215 546.59 393.425C545.752 393.242 545.144 392.52 545.084 391.664Z" fill="url(#paint3_linear)" stroke="black" stroke-width="3"/>
<path d="M743.75 418.406C742.464 392.43 793.328 388.424 794.687 415.884C795.606 434.439 744.668 436.961 743.75 418.406Z" fill="url(#paint4_linear)" stroke="black" stroke-width="3"/>
<path d="M737.424 422.424C731.962 422.695 727.916 411.346 736.853 410.903C747.777 410.363 786.011 408.47 800.3 405.527C813.21 404.887 814.498 420.843 801.092 421.507C787.078 419.966 747.355 421.933 737.424 422.424Z" fill="#4C4C4C" stroke="black" stroke-width="3"/>
<path d="M1017.41 404.856C1016.13 378.88 1066.99 374.873 1068.35 402.334C1069.27 420.888 1018.33 423.41 1017.41 404.856Z" fill="url(#paint5_linear)" stroke="black" stroke-width="3"/>
<path d="M1011.09 408.874C1005.63 409.144 1001.58 397.796 1010.52 397.353C1021.44 396.812 1059.68 394.919 1073.97 391.976C1086.88 391.337 1088.16 407.293 1074.76 407.957C1060.74 406.415 1021.02 408.382 1011.09 408.874Z" fill="#4C4C4C" stroke="black" stroke-width="3"/>
<path d="M410.286 388.598C371.569 392.558 277.985 403.943 213.133 430.353C212.892 430.451 212.638 430.5 212.379 430.5H195.772C233.311 407.285 294.272 392.365 429.75 378.51C430.837 378.398 431.339 379.856 430.378 380.375L421.598 385.121C418.083 387.021 414.261 388.191 410.286 388.598Z" fill="#C6C6C6" stroke="black" stroke-width="3"/>
<circle cx="380" cy="565" r="95" fill="url(#paint6_radial)"/>
<circle cx="380" cy="565" r="66.5" fill="#E7E7E7"/>
<circle cx="380" cy="565" r="57" fill="url(#paint7_radial)"/>
<path fill-rule="evenodd" clip-rule="evenodd" d="M368.6 506.1H391.4V544.984L425.841 525.1L437.241 544.845L402.92 564.66L437.241 584.475L425.841 604.22L391.4 584.336V624.85H368.6V584.475L334.4 604.22L323 584.475L357.32 564.66L323 544.845L334.4 525.1L368.6 544.845V506.1Z" fill="url(#paint8_radial)"/>
<rect x="375.25" y="512.75" width="9.5" height="104.5" fill="url(#paint9_linear)"/>
<rect x="422.875" y="534.761" width="9.5" height="104.5" transform="rotate(60 422.875 534.761)" fill="url(#paint10_linear)"/>
<rect x="427.625" y="587.011" width="9.5" height="104.5" transform="rotate(120 427.625 587.011)" fill="url(#paint11_linear)"/>
<circle cx="380" cy="565" r="20.4" fill="url(#paint12_radial)" stroke="#777777"/>
<circle cx="1145" cy="565" r="95" fill="url(#paint13_radial)"/>
<circle cx="1145" cy="565" r="66.5" fill="#E7E7E7"/>
<circle cx="1145" cy="565" r="57" fill="url(#paint14_radial)"/>
<path fill-rule="evenodd" clip-rule="evenodd" d="M1133.6 506.1H1156.4V544.984L1190.84 525.1L1202.24 544.845L1167.92 564.66L1202.24 584.475L1190.84 604.22L1156.4 584.336V624.85H1133.6V584.475L1099.4 604.22L1088 584.475L1122.32 564.66L1088 544.845L1099.4 525.1L1133.6 544.845V506.1Z" fill="url(#paint15_radial)"/>
<rect x="1140.25" y="512.75" width="9.5" height="104.5" fill="url(#paint16_linear)"/>
<rect x="1187.88" y="534.761" width="9.5" height="104.5" transform="rotate(60 1187.88 534.761)" fill="url(#paint17_linear)"/>
<rect x="1192.62" y="587.011" width="9.5" height="104.5" transform="rotate(120 1192.62 587.011)" fill="url(#paint18_linear)"/>
<circle cx="1145" cy="565" r="20.4" fill="url(#paint19_radial)" stroke="#777777"/>
<defs>
<linearGradient id="paint0_linear" x1="762.522" y1="440.5" x2="762.522" y2="592.5" gradientUnits="userSpaceOnUse">
<stop stop-color="#0E0907"/>
<stop offset="1" stop-color="#2D1710"/>
</linearGradient>
<linearGradient id="paint1_linear" x1="750.25" y1="237" x2="750.25" y2="592.499" gradientUnits="userSpaceOnUse">
<stop offset="0.490135" stop-color="#C7C7C7"/>
<stop offset="1" stop-color="#838383"/>
</linearGradient>
<linearGradient id="paint2_linear" x1="169.83" y1="439.499" x2="251.705" y2="444.656" gradientUnits="userSpaceOnUse">
<stop stop-color="white"/>
<stop offset="1" stop-color="#C0C0C0"/>
</linearGradient>
<linearGradient id="paint3_linear" x1="559.772" y1="354.167" x2="565.267" y2="384.598" gradientUnits="userSpaceOnUse">
<stop stop-color="#929292"/>
<stop offset="1" stop-color="#585858"/>
</linearGradient>
<linearGradient id="paint4_linear" x1="768.226" y1="397.103" x2="769.908" y2="431.061" gradientUnits="userSpaceOnUse">
<stop stop-color="#A6A6A6"/>
<stop offset="0.505208" stop-color="#626262"/>
<stop offset="1" stop-color="#A6A6A6"/>
</linearGradient>
<linearGradient id="paint5_linear" x1="1041.89" y1="383.552" x2="1043.57" y2="417.511" gradientUnits="userSpaceOnUse">
<stop stop-color="#A6A6A6"/>
<stop offset="0.505208" stop-color="#626262"/>
<stop offset="1" stop-color="#A6A6A6"/>
</linearGradient>
<radialGradient id="paint6_radial" cx="0" cy="0" r="1" gradientUnits="userSpaceOnUse" gradientTransform="translate(380 565) rotate(90) scale(95)">
<stop offset="0.661458" stop-color="#111111"/>
<stop offset="1" stop-color="#333333"/>
</radialGradient>
<radialGradient id="paint7_radial" cx="0" cy="0" r="1" gradientUnits="userSpaceOnUse" gradientTransform="translate(380 565) rotate(90) scale(57)">
<stop stop-color="#1A110B"/>
<stop offset="1" stop-color="#3E2B1D"/>
</radialGradient>
<radialGradient id="paint8_radial" cx="0" cy="0" r="1" gradientUnits="userSpaceOnUse" gradientTransform="translate(380.091 565) rotate(90) scale(56.05 54.2407)">
<stop offset="0.177083" stop-color="#E7E7E7"/>
<stop offset="0.364583" stop-color="#C0C0C0"/>
<stop offset="0.921875" stop-color="#E7E7E7"/>
</radialGradient>
<linearGradient id="paint9_linear" x1="380" y1="512.75" x2="380" y2="617.25" gradientUnits="userSpaceOnUse">
<stop stop-color="#E3E3E3"/>
<stop offset="0.505208" stop-color="#575757"/>
<stop offset="1" stop-color="#E3E3E3"/>
</linearGradient>
<linearGradient id="paint10_linear" x1="427.625" y1="534.761" x2="427.625" y2="639.261" gradientUnits="userSpaceOnUse">
<stop stop-color="#E3E3E3"/>
<stop offset="0.505208" stop-color="#575757"/>
<stop offset="1" stop-color="#E3E3E3"/>
</linearGradient>
<linearGradient id="paint11_linear" x1="432.375" y1="587.011" x2="432.375" y2="691.511" gradientUnits="userSpaceOnUse">
<stop stop-color="#E3E3E3"/>
<stop offset="0.505208" stop-color="#575757"/>
<stop offset="1" stop-color="#E3E3E3"/>
</linearGradient>
<radialGradient id="paint12_radial" cx="0" cy="0" r="1" gradientUnits="userSpaceOnUse" gradientTransform="translate(380 565) rotate(90) scale(19.475 20.2477)">
<stop stop-color="#B8B8B8"/>
<stop offset="1" stop-color="#E7E7E7"/>
</radialGradient>
<radialGradient id="paint13_radial" cx="0" cy="0" r="1" gradientUnits="userSpaceOnUse" gradientTransform="translate(1145 565) rotate(90) scale(95)">
<stop offset="0.661458" stop-color="#111111"/>
<stop offset="1" stop-color="#333333"/>
</radialGradient>
<radialGradient id="paint14_radial" cx="0" cy="0" r="1" gradientUnits="userSpaceOnUse" gradientTransform="translate(1145 565) rotate(90) scale(57)">
<stop stop-color="#1A110B"/>
<stop offset="1" stop-color="#3E2B1D"/>
</radialGradient>
<radialGradient id="paint15_radial" cx="0" cy="0" r="1" gradientUnits="userSpaceOnUse" gradientTransform="translate(1145.09 565) rotate(90) scale(56.05 54.2407)">
<stop offset="0.177083" stop-color="#E7E7E7"/>
<stop offset="0.364583" stop-color="#C0C0C0"/>
<stop offset="0.921875" stop-color="#E7E7E7"/>
</radialGradient>
<linearGradient id="paint16_linear" x1="1145" y1="512.75" x2="1145" y2="617.25" gradientUnits="userSpaceOnUse">
<stop stop-color="#E3E3E3"/>
<stop offset="0.505208" stop-color="#575757"/>
<stop offset="1" stop-color="#E3E3E3"/>
</linearGradient>
<linearGradient id="paint17_linear" x1="1192.63" y1="534.761" x2="1192.63" y2="639.261" gradientUnits="userSpaceOnUse">
<stop stop-color="#E3E3E3"/>
<stop offset="0.505208" stop-color="#575757"/>
<stop offset="1" stop-color="#E3E3E3"/>
</linearGradient>
<linearGradient id="paint18_linear" x1="1197.38" y1="587.011" x2="1197.38" y2="691.511" gradientUnits="userSpaceOnUse">
<stop stop-color="#E3E3E3"/>
<stop offset="0.505208" stop-color="#575757"/>
<stop offset="1" stop-color="#E3E3E3"/>
</linearGradient>
<radialGradient id="paint19_radial" cx="0" cy="0" r="1" gradientUnits="userSpaceOnUse" gradientTransform="translate(1145 565) rotate(90) scale(19.475 20.2477)">
<stop stop-color="#B8B8B8"/>
<stop offset="1" stop-color="#E7E7E7"/>
</radialGradient>
</defs>
</svg>
