<svg width="1920" height="1080" viewBox="0 0 1920 1080" fill="none" xmlns="http://www.w3.org/2000/svg">
<g clip-path="url(#clip0_107:72)">
<rect width="1920" height="1080" fill="url(#paint0_linear_107:72)"/>
<g filter="url(#filter0_i_107:72)">
<rect x="722" y="459" width="475" height="250" fill="#2B3F4E"/>
</g>
<path fill-rule="evenodd" clip-rule="evenodd" d="M948.623 572.965C948.002 567.464 948.171 564.689 949.5 563.221C949.5 563.94 949.799 564.088 950.108 564.241C950.307 564.34 950.51 564.441 950.642 564.699C950.642 564.699 951.099 564 951.5 564C951.98 563.791 951.909 563.62 951.809 563.385C951.672 563.057 951.481 562.602 952.648 561.743C955.729 561.743 956.159 559.772 956.159 558.294C957.199 558.41 957.492 557.924 957.76 557.479C957.967 557.135 958.159 556.816 958.668 556.816C959.336 558.134 960.172 557.802 960.674 557.309C961.176 556.816 962.179 556.816 962.681 556.816C962.813 556.816 962.98 556.885 963.182 556.968C963.464 557.083 963.814 557.226 964.231 557.251C964.5 557.209 964.765 557.174 965.025 557.144C965.235 557.075 965.457 556.969 965.69 556.816C967.195 555.831 967.697 555.831 968.199 556.324C968.379 556.501 968.794 556.444 969.237 556.382C970.006 556.275 970.86 556.157 970.716 557.243C970.752 557.248 970.788 557.253 970.824 557.259C971.229 557.108 971.86 557.071 972.447 557.036C973.452 556.975 974.327 556.923 973.716 556.324C973.215 555.831 977.478 556.324 977.228 557.309C977.083 557.881 977.613 557.789 978.083 557.707C978.424 557.648 978.733 557.595 978.733 557.801C978.733 557.95 978.849 557.874 979.058 557.736C979.542 557.418 980.527 556.77 981.743 557.801C980.739 559.772 980.739 561.25 981.241 560.757C981.743 560.265 984.752 560.757 983.247 561.25C981.743 561.743 982.244 563.221 982.746 563.221C983.247 563.221 987.26 564.206 986.759 564.206C986.257 564.206 985.254 565.191 985.254 565.684C985.254 566.176 985.254 566.669 985.756 566.669C986.257 566.669 987.762 568.147 987.26 568.147C986.759 568.147 985.254 569.625 985.756 570.118C986.157 570.512 987.26 570.939 987.762 571.103C987.26 571.76 986.358 573.074 986.759 573.074C987.26 573.074 989.769 573.566 988.765 574.059C988.264 574.305 987.888 574.675 987.574 574.983C987.274 575.277 987.032 575.515 986.792 575.535C986.8 575.603 986.808 575.672 986.816 575.74C986.912 575.825 987.05 575.931 987.198 576.045C987.657 576.397 988.224 576.832 988 577C987.405 577.446 987.143 577.981 987.035 578.552C987.283 584.39 986.388 591.766 983.81 601.074C982.645 604.949 980.058 612.648 977.111 613.333C978.043 621.416 979.039 623.02 981.81 623.556C984.929 624.16 986.75 624.507 988.461 625.146C991.224 626.178 993.702 627.974 1000.9 632.85C1024.82 649.068 1023.5 681.98 1022.63 703.501C1022.56 705.211 1022.5 706.849 1022.45 708.401L967.5 709L912.552 708.4C912.502 706.849 912.437 705.211 912.368 703.501C911.504 681.98 910.182 649.067 934.105 632.85C941.298 627.974 943.776 626.178 946.539 625.146C948.25 624.506 950.071 624.16 953.19 623.556C955.961 623.02 956.957 621.416 957.889 613.333C954.942 612.648 952.355 604.949 951.19 601.074C948.864 592.677 947.909 585.852 947.926 580.311C947.92 580.294 947.914 580.278 947.908 580.262C947.13 578.037 946.083 575.044 946.628 575.044C947.012 575.044 947.395 575.188 947.722 575.311C947.908 575.38 948.076 575.443 948.216 575.469C948.324 574.595 948.46 573.761 948.623 572.965Z" fill="black"/>
<rect y="930" width="1920" height="150" fill="url(#paint1_linear_107:72)"/>
<path d="M0 891L1920 891" stroke="#555555" stroke-width="2"/>
<path d="M1281 459H1491V897H1481V891H1291V897H1281V459Z" fill="url(#paint2_linear_107:72)"/>
<g filter="url(#filter1_i_107:72)">
<rect x="1291" y="469" width="190" height="422" fill="url(#paint3_linear_107:72)"/>
</g>
<circle cx="1314" cy="676" r="10" fill="#484329"/>
<path d="M1309 684H1319V689C1319 691.761 1316.76 694 1314 694V694C1311.24 694 1309 691.761 1309 689V684Z" fill="#484329"/>
<g filter="url(#filter2_d_107:72)">
<rect x="1310" y="672" width="40" height="8" rx="4" fill="#888676"/>
</g>
<circle cx="1314" cy="689" r="4" fill="url(#paint4_linear_107:72)"/>
<rect x="1313" y="687" width="2" height="4" fill="black"/>
<rect y="891" width="1920" height="70" fill="url(#paint5_linear_107:72)"/>
<rect y="391" width="1920" height="500" fill="url(#paint6_linear_107:72)"/>
<path d="M0 980H280M1920 980H1640M280 980L120 1080M280 980H620M620 980L540 1080M620 980H960M960 980V1080M960 980H1300M1300 980L1380 1080M1300 980H1640M1640 980L1800 1080M0 1044.52H1920M0 1012.26H1920" stroke="#111111" stroke-opacity="0.1" stroke-width="10"/>
<path d="M622 978.329L545 1075H50.5V826.5L158.5 804H523.5V709.866L603.5 694H622V978.329Z" fill="url(#paint7_linear_107:72)"/>
<path d="M545 1075L622 978.329V694M545 1075V709.866M545 1075H50.5V826.5M622 694L545 709.866M622 694H603.5L523.5 709.866M545 709.866H523.5M523.5 709.866V804M50.5 826.5H523.5V804M50.5 826.5L158.5 804H523.5" stroke="#111111" stroke-width="5"/>
<path d="M622 977.329L545 1075V709.866L622 695V977.329Z" fill="black" fill-opacity="0.2"/>
<rect width="1920" height="160" fill="url(#paint8_linear_107:72)"/>
<rect y="160" width="1920" height="150" fill="url(#paint9_linear_107:72)"/>
<circle cx="306" cy="955" r="75" fill="#FFB800"/>
<path fill-rule="evenodd" clip-rule="evenodd" d="M381 955C381 996.421 347.421 1030 306 1030V955H381ZM231 955H306V880C264.579 880 231 913.579 231 955Z" fill="black"/>
<path d="M263.178 934.797C263.178 934.428 263.248 934.081 263.389 933.756C263.53 933.422 263.723 933.136 263.969 932.899C264.215 932.653 264.501 932.459 264.826 932.319C265.16 932.169 265.512 932.095 265.881 932.095H276.138C276.507 932.095 276.854 932.169 277.179 932.319C277.513 932.459 277.803 932.653 278.049 932.899C278.295 933.136 278.489 933.422 278.629 933.756C278.77 934.081 278.84 934.428 278.84 934.797V937.236H276.138V934.797H265.881V948.297H276.138V945.872H278.84V948.297C278.84 948.667 278.77 949.018 278.629 949.352C278.489 949.677 278.295 949.963 278.049 950.209C277.803 950.455 277.513 950.648 277.179 950.789C276.854 950.93 276.507 951 276.138 951H265.881C265.512 951 265.16 950.93 264.826 950.789C264.501 950.648 264.215 950.455 263.969 950.209C263.723 949.963 263.53 949.677 263.389 949.352C263.248 949.018 263.178 948.667 263.178 948.297V934.797ZM302.151 938.845C302.151 941.481 301.026 942.984 298.776 943.354L302.336 951H299.343L295.837 943.446H289.917V951H287.214V932.095H297.564C300.622 932.095 302.151 933.628 302.151 936.696V938.845ZM289.917 940.743H297.419C298.139 940.743 298.658 940.585 298.974 940.269C299.291 939.952 299.449 939.434 299.449 938.713V936.828C299.449 936.107 299.291 935.588 298.974 935.272C298.658 934.956 298.139 934.797 297.419 934.797H289.917V940.743Z" fill="#FFB800"/>
<path d="M263.389 933.756L264.307 934.153L264.311 934.144L263.389 933.756ZM263.969 932.899L264.663 933.619L264.67 933.612L264.676 933.606L263.969 932.899ZM264.826 932.319L265.223 933.237L265.234 933.232L264.826 932.319ZM277.179 932.319L276.762 933.228L276.776 933.234L276.791 933.24L277.179 932.319ZM278.049 932.899L277.342 933.606L277.349 933.612L277.355 933.619L278.049 932.899ZM278.629 933.756L277.708 934.144L277.711 934.153L278.629 933.756ZM278.84 937.236V938.236H279.84V937.236H278.84ZM276.138 937.236H275.138V938.236H276.138V937.236ZM276.138 934.797H277.138V933.797H276.138V934.797ZM265.881 934.797V933.797H264.881V934.797H265.881ZM265.881 948.297H264.881V949.297H265.881V948.297ZM276.138 948.297V949.297H277.138V948.297H276.138ZM276.138 945.872V944.872H275.138V945.872H276.138ZM278.84 945.872H279.84V944.872H278.84V945.872ZM278.629 949.352L279.547 949.749L279.551 949.74L278.629 949.352ZM277.179 950.789L276.791 949.867L276.782 949.871L277.179 950.789ZM264.826 950.789L264.429 951.707L264.438 951.711L264.826 950.789ZM263.969 950.209L263.262 950.916L263.969 950.209ZM263.389 949.352L262.467 949.74L262.471 949.749L263.389 949.352ZM264.178 934.797C264.178 934.559 264.223 934.347 264.307 934.153L262.471 933.359C262.274 933.815 262.178 934.298 262.178 934.797H264.178ZM264.311 934.144C264.402 933.927 264.52 933.756 264.663 933.619L263.275 932.179C262.926 932.516 262.657 932.917 262.467 933.368L264.311 934.144ZM264.676 933.606C264.832 933.451 265.011 933.328 265.223 933.237L264.429 931.401C263.99 931.591 263.599 931.855 263.262 932.192L264.676 933.606ZM265.234 933.232C265.439 933.14 265.651 933.095 265.881 933.095V931.095C265.372 931.095 264.881 931.199 264.418 931.406L265.234 933.232ZM265.881 933.095H276.138V931.095H265.881V933.095ZM276.138 933.095C276.367 933.095 276.572 933.14 276.762 933.228L277.597 931.41C277.136 931.199 276.646 931.095 276.138 931.095V933.095ZM276.791 933.24C277.011 933.333 277.191 933.455 277.342 933.606L278.756 932.192C278.415 931.85 278.015 931.586 277.567 931.397L276.791 933.24ZM277.355 933.619C277.498 933.756 277.616 933.927 277.708 934.144L279.551 933.368C279.361 932.917 279.093 932.516 278.743 932.179L277.355 933.619ZM277.711 934.153C277.796 934.347 277.84 934.559 277.84 934.797H279.84C279.84 934.298 279.744 933.815 279.547 933.359L277.711 934.153ZM277.84 934.797V937.236H279.84V934.797H277.84ZM278.84 936.236H276.138V938.236H278.84V936.236ZM277.138 937.236V934.797H275.138V937.236H277.138ZM276.138 933.797H265.881V935.797H276.138V933.797ZM264.881 934.797V948.297H266.881V934.797H264.881ZM265.881 949.297H276.138V947.297H265.881V949.297ZM277.138 948.297V945.872H275.138V948.297H277.138ZM276.138 946.872H278.84V944.872H276.138V946.872ZM277.84 945.872V948.297H279.84V945.872H277.84ZM277.84 948.297C277.84 948.536 277.796 948.755 277.708 948.964L279.551 949.74C279.744 949.281 279.84 948.797 279.84 948.297H277.84ZM277.711 948.955C277.62 949.167 277.497 949.347 277.342 949.502L278.756 950.916C279.093 950.579 279.357 950.188 279.547 949.749L277.711 948.955ZM277.342 949.502C277.191 949.653 277.011 949.775 276.791 949.867L277.567 951.711C278.015 951.522 278.415 951.257 278.756 950.916L277.342 949.502ZM276.782 949.871C276.588 949.955 276.376 950 276.138 950V952C276.637 952 277.12 951.904 277.576 951.707L276.782 949.871ZM276.138 950H265.881V952H276.138V950ZM265.881 950C265.642 950 265.423 949.955 265.214 949.867L264.438 951.711C264.897 951.904 265.381 952 265.881 952V950ZM265.223 949.871C265.011 949.78 264.832 949.657 264.676 949.502L263.262 950.916C263.599 951.253 263.99 951.517 264.429 951.707L265.223 949.871ZM264.676 949.502C264.521 949.347 264.398 949.167 264.307 948.955L262.471 949.749C262.661 950.188 262.925 950.579 263.262 950.916L264.676 949.502ZM264.311 948.964C264.223 948.755 264.178 948.536 264.178 948.297H262.178C262.178 948.797 262.274 949.281 262.467 949.74L264.311 948.964ZM264.178 948.297V934.797H262.178V948.297H264.178ZM298.776 943.354L298.615 942.367L297.313 942.58L297.87 943.776L298.776 943.354ZM302.336 951V952H303.905L303.243 950.578L302.336 951ZM299.343 951L298.436 951.421L298.705 952H299.343V951ZM295.837 943.446L296.744 943.025L296.475 942.446H295.837V943.446ZM289.917 943.446V942.446H288.917V943.446H289.917ZM289.917 951V952H290.917V951H289.917ZM287.214 951H286.214V952H287.214V951ZM287.214 932.095V931.095H286.214V932.095H287.214ZM289.917 940.743H288.917V941.743H289.917V940.743ZM289.917 934.797V933.797H288.917V934.797H289.917ZM301.151 938.845C301.151 940.032 300.897 940.829 300.507 941.35C300.131 941.852 299.543 942.214 298.615 942.367L298.938 944.34C300.26 944.123 301.359 943.55 302.108 942.549C302.843 941.567 303.151 940.294 303.151 938.845H301.151ZM297.87 943.776L301.429 951.422L303.243 950.578L299.683 942.931L297.87 943.776ZM302.336 950H299.343V952H302.336V950ZM300.25 950.579L296.744 943.025L294.929 943.867L298.436 951.421L300.25 950.579ZM295.837 942.446H289.917V944.446H295.837V942.446ZM288.917 943.446V951H290.917V943.446H288.917ZM289.917 950H287.214V952H289.917V950ZM288.214 951V932.095H286.214V951H288.214ZM287.214 933.095H297.564V931.095H287.214V933.095ZM297.564 933.095C298.938 933.095 299.785 933.439 300.296 933.951C300.808 934.464 301.151 935.316 301.151 936.696H303.151C303.151 935.009 302.73 933.56 301.713 932.539C300.694 931.518 299.248 931.095 297.564 931.095V933.095ZM301.151 936.696V938.845H303.151V936.696H301.151ZM289.917 941.743H297.419V939.743H289.917V941.743ZM297.419 941.743C298.249 941.743 299.09 941.567 299.681 940.976L298.267 939.561C298.225 939.603 298.029 939.743 297.419 939.743V941.743ZM299.681 940.976C300.272 940.385 300.449 939.543 300.449 938.713H298.449C298.449 939.324 298.309 939.52 298.267 939.561L299.681 940.976ZM300.449 938.713V936.828H298.449V938.713H300.449ZM300.449 936.828C300.449 935.997 300.272 935.156 299.681 934.565L298.267 935.979C298.309 936.021 298.449 936.217 298.449 936.828H300.449ZM299.681 934.565C299.09 933.974 298.249 933.797 297.419 933.797V935.797C298.029 935.797 298.225 935.937 298.267 935.979L299.681 934.565ZM297.419 933.797H289.917V935.797H297.419V933.797ZM288.917 934.797V940.743H290.917V934.797H288.917Z" fill="#FFB800"/>
<path d="M319.518 932.095L326.809 951H324.106L322.432 946.649H313.902L312.228 951H309.525L316.816 932.095H319.518ZM314.93 943.947H321.39L318.174 935.615L314.93 943.947ZM336.805 942.905C336.436 942.905 336.084 942.835 335.75 942.694C335.425 942.545 335.139 942.352 334.893 942.114C334.647 941.868 334.454 941.583 334.313 941.257C334.172 940.923 334.102 940.572 334.102 940.203V934.797C334.102 934.428 334.172 934.081 334.313 933.756C334.454 933.422 334.647 933.136 334.893 932.899C335.139 932.653 335.425 932.459 335.75 932.319C336.084 932.169 336.436 932.095 336.805 932.095H345.98C346.35 932.095 346.697 932.169 347.022 932.319C347.356 932.459 347.646 932.653 347.892 932.899C348.138 933.136 348.332 933.422 348.472 933.756C348.613 934.081 348.683 934.428 348.683 934.797V937.236H345.98V934.797H336.805V940.203H345.98C346.35 940.203 346.697 940.273 347.022 940.414C347.356 940.554 347.646 940.748 347.892 940.994C348.138 941.24 348.332 941.53 348.472 941.864C348.613 942.189 348.683 942.536 348.683 942.905V948.297C348.683 948.667 348.613 949.018 348.472 949.352C348.332 949.677 348.138 949.963 347.892 950.209C347.646 950.455 347.356 950.648 347.022 950.789C346.697 950.93 346.35 951 345.98 951H336.541C336.172 951 335.82 950.93 335.486 950.789C335.161 950.648 334.875 950.455 334.629 950.209C334.383 949.963 334.19 949.677 334.049 949.352C333.909 949.018 333.838 948.667 333.838 948.297V945.872H336.541V948.297H345.98V942.905H336.805ZM373.84 932.095V951H371.137V942.905H360.314V951H357.611V932.095H360.314V940.203H371.137V932.095H373.84Z" fill="black"/>
<path d="M319.518 932.095L320.451 931.735L320.205 931.095H319.518V932.095ZM326.809 951V952H328.266L327.742 950.64L326.809 951ZM324.106 951L323.173 951.359L323.42 952H324.106V951ZM322.432 946.649L323.365 946.29L323.119 945.649H322.432V946.649ZM313.902 946.649V945.649H313.215L312.969 946.29L313.902 946.649ZM312.228 951V952H312.914L313.161 951.359L312.228 951ZM309.525 951L308.592 950.64L308.068 952H309.525V951ZM316.816 932.095V931.095H316.13L315.883 931.735L316.816 932.095ZM314.93 943.947L313.999 943.584L313.468 944.947H314.93V943.947ZM321.39 943.947V944.947H322.848L322.323 943.587L321.39 943.947ZM318.174 935.615L319.107 935.255L318.177 932.848L317.242 935.252L318.174 935.615ZM318.585 932.455L325.876 951.36L327.742 950.64L320.451 931.735L318.585 932.455ZM326.809 950H324.106V952H326.809V950ZM325.04 950.641L323.365 946.29L321.499 947.009L323.173 951.359L325.04 950.641ZM322.432 945.649H313.902V947.649H322.432V945.649ZM312.969 946.29L311.295 950.641L313.161 951.359L314.835 947.009L312.969 946.29ZM312.228 950H309.525V952H312.228V950ZM310.458 951.36L317.749 932.455L315.883 931.735L308.592 950.64L310.458 951.36ZM316.816 933.095H319.518V931.095H316.816V933.095ZM314.93 944.947H321.39V942.947H314.93V944.947ZM322.323 943.587L319.107 935.255L317.241 935.975L320.458 944.307L322.323 943.587ZM317.242 935.252L313.999 943.584L315.862 944.31L319.106 935.977L317.242 935.252ZM335.75 942.694L335.332 943.603L335.347 943.61L335.362 943.616L335.75 942.694ZM334.893 942.114L334.186 942.821L334.192 942.828L334.199 942.834L334.893 942.114ZM334.313 941.257L333.391 941.645L333.395 941.654L334.313 941.257ZM334.313 933.756L335.231 934.153L335.235 934.144L334.313 933.756ZM334.893 932.899L335.587 933.619L335.594 933.612L335.6 933.606L334.893 932.899ZM335.75 932.319L336.147 933.237L336.158 933.232L335.75 932.319ZM347.022 932.319L346.604 933.228L346.619 933.234L346.634 933.24L347.022 932.319ZM347.892 932.899L347.185 933.606L347.191 933.612L347.198 933.619L347.892 932.899ZM348.472 933.756L347.55 934.144L347.554 934.153L348.472 933.756ZM348.683 937.236V938.236H349.683V937.236H348.683ZM345.98 937.236H344.98V938.236H345.98V937.236ZM345.98 934.797H346.98V933.797H345.98V934.797ZM336.805 934.797V933.797H335.805V934.797H336.805ZM336.805 940.203H335.805V941.203H336.805V940.203ZM347.022 940.414L346.625 941.331L346.634 941.335L347.022 940.414ZM347.892 940.994L348.599 940.287L347.892 940.994ZM348.472 941.864L347.55 942.252L347.554 942.261L348.472 941.864ZM348.472 949.352L349.39 949.749L349.394 949.74L348.472 949.352ZM347.892 950.209L348.599 950.916L347.892 950.209ZM347.022 950.789L346.634 949.867L346.625 949.871L347.022 950.789ZM335.486 950.789L335.089 951.707L335.098 951.711L335.486 950.789ZM334.049 949.352L333.128 949.74L333.131 949.749L334.049 949.352ZM333.838 945.872V944.872H332.838V945.872H333.838ZM336.541 945.872H337.541V944.872H336.541V945.872ZM336.541 948.297H335.541V949.297H336.541V948.297ZM345.98 948.297V949.297H346.98V948.297H345.98ZM345.98 942.905H346.98V941.905H345.98V942.905ZM336.805 941.905C336.566 941.905 336.347 941.861 336.138 941.773L335.362 943.616C335.821 943.809 336.305 943.905 336.805 943.905V941.905ZM336.168 941.786C335.94 941.681 335.749 941.55 335.587 941.394L334.199 942.834C334.53 943.153 334.91 943.409 335.332 943.603L336.168 941.786ZM335.6 941.407C335.445 941.252 335.322 941.072 335.231 940.86L333.395 941.654C333.585 942.093 333.849 942.484 334.186 942.821L335.6 941.407ZM335.235 940.869C335.147 940.66 335.102 940.441 335.102 940.203H333.102C333.102 940.703 333.198 941.186 333.391 941.645L335.235 940.869ZM335.102 940.203V934.797H333.102V940.203H335.102ZM335.102 934.797C335.102 934.559 335.147 934.347 335.231 934.153L333.395 933.359C333.198 933.815 333.102 934.298 333.102 934.797H335.102ZM335.235 934.144C335.326 933.927 335.444 933.756 335.587 933.619L334.199 932.179C333.85 932.516 333.581 932.917 333.391 933.368L335.235 934.144ZM335.6 933.606C335.755 933.451 335.935 933.328 336.147 933.237L335.353 931.401C334.914 931.591 334.523 931.855 334.186 932.192L335.6 933.606ZM336.158 933.232C336.363 933.14 336.575 933.095 336.805 933.095V931.095C336.296 931.095 335.805 931.199 335.342 931.406L336.158 933.232ZM336.805 933.095H345.98V931.095H336.805V933.095ZM345.98 933.095C346.21 933.095 346.414 933.14 346.604 933.228L347.439 931.41C346.979 931.199 346.489 931.095 345.98 931.095V933.095ZM346.634 933.24C346.854 933.333 347.034 933.455 347.185 933.606L348.599 932.192C348.258 931.85 347.858 931.586 347.41 931.397L346.634 933.24ZM347.198 933.619C347.341 933.756 347.459 933.927 347.551 934.144L349.394 933.368C349.204 932.917 348.936 932.516 348.586 932.179L347.198 933.619ZM347.554 934.153C347.638 934.347 347.683 934.559 347.683 934.797H349.683C349.683 934.298 349.587 933.815 349.39 933.359L347.554 934.153ZM347.683 934.797V937.236H349.683V934.797H347.683ZM348.683 936.236H345.98V938.236H348.683V936.236ZM346.98 937.236V934.797H344.98V937.236H346.98ZM345.98 933.797H336.805V935.797H345.98V933.797ZM335.805 934.797V940.203H337.805V934.797H335.805ZM336.805 941.203H345.98V939.203H336.805V941.203ZM345.98 941.203C346.219 941.203 346.43 941.247 346.625 941.331L347.419 939.496C346.963 939.299 346.48 939.203 345.98 939.203V941.203ZM346.634 941.335C346.854 941.428 347.034 941.55 347.185 941.701L348.599 940.287C348.258 939.945 347.858 939.681 347.41 939.492L346.634 941.335ZM347.185 941.701C347.336 941.852 347.458 942.032 347.551 942.252L349.394 941.476C349.205 941.028 348.941 940.628 348.599 940.287L347.185 941.701ZM347.554 942.261C347.638 942.455 347.683 942.667 347.683 942.905H349.683C349.683 942.405 349.587 941.923 349.39 941.467L347.554 942.261ZM347.683 942.905V948.297H349.683V942.905H347.683ZM347.683 948.297C347.683 948.536 347.638 948.755 347.551 948.964L349.394 949.74C349.587 949.281 349.683 948.797 349.683 948.297H347.683ZM347.554 948.955C347.463 949.167 347.34 949.347 347.185 949.502L348.599 950.916C348.936 950.579 349.2 950.188 349.39 949.749L347.554 948.955ZM347.185 949.502C347.034 949.653 346.854 949.775 346.634 949.867L347.41 951.711C347.858 951.522 348.258 951.257 348.599 950.916L347.185 949.502ZM346.625 949.871C346.43 949.955 346.219 950 345.98 950V952C346.48 952 346.963 951.904 347.419 951.707L346.625 949.871ZM345.98 950H336.541V952H345.98V950ZM336.541 950C336.303 950 336.083 949.955 335.874 949.867L335.098 951.711C335.557 951.904 336.041 952 336.541 952V950ZM335.883 949.871C335.672 949.78 335.492 949.657 335.337 949.502L333.922 950.916C334.259 951.253 334.651 951.517 335.089 951.707L335.883 949.871ZM335.337 949.502C335.181 949.347 335.059 949.167 334.967 948.955L333.131 949.749C333.321 950.188 333.585 950.579 333.922 950.916L335.337 949.502ZM334.971 948.964C334.883 948.755 334.838 948.536 334.838 948.297H332.838C332.838 948.797 332.934 949.281 333.128 949.74L334.971 948.964ZM334.838 948.297V945.872H332.838V948.297H334.838ZM333.838 946.872H336.541V944.872H333.838V946.872ZM335.541 945.872V948.297H337.541V945.872H335.541ZM336.541 949.297H345.98V947.297H336.541V949.297ZM346.98 948.297V942.905H344.98V948.297H346.98ZM345.98 941.905H336.805V943.905H345.98V941.905ZM373.84 932.095H374.84V931.095H373.84V932.095ZM373.84 951V952H374.84V951H373.84ZM371.137 951H370.137V952H371.137V951ZM371.137 942.905H372.137V941.905H371.137V942.905ZM360.314 942.905V941.905H359.314V942.905H360.314ZM360.314 951V952H361.314V951H360.314ZM357.611 951H356.611V952H357.611V951ZM357.611 932.095V931.095H356.611V932.095H357.611ZM360.314 932.095H361.314V931.095H360.314V932.095ZM360.314 940.203H359.314V941.203H360.314V940.203ZM371.137 940.203V941.203H372.137V940.203H371.137ZM371.137 932.095V931.095H370.137V932.095H371.137ZM372.84 932.095V951H374.84V932.095H372.84ZM373.84 950H371.137V952H373.84V950ZM372.137 951V942.905H370.137V951H372.137ZM371.137 941.905H360.314V943.905H371.137V941.905ZM359.314 942.905V951H361.314V942.905H359.314ZM360.314 950H357.611V952H360.314V950ZM358.611 951V932.095H356.611V951H358.611ZM357.611 933.095H360.314V931.095H357.611V933.095ZM359.314 932.095V940.203H361.314V932.095H359.314ZM360.314 941.203H371.137V939.203H360.314V941.203ZM372.137 940.203V932.095H370.137V940.203H372.137ZM371.137 933.095H373.84V931.095H371.137V933.095Z" fill="black"/>
<path d="M325.639 975.297C325.639 975.667 325.569 976.018 325.429 976.352C325.288 976.677 325.095 976.963 324.848 977.209C324.602 977.455 324.312 977.648 323.978 977.789C323.653 977.93 323.306 978 322.937 978H312.139C311.77 978 311.419 977.93 311.085 977.789C310.76 977.648 310.474 977.455 310.228 977.209C309.982 976.963 309.788 976.677 309.648 976.352C309.507 976.018 309.437 975.667 309.437 975.297V961.797C309.437 961.428 309.507 961.081 309.648 960.756C309.788 960.422 309.982 960.136 310.228 959.899C310.474 959.653 310.76 959.459 311.085 959.319C311.419 959.169 311.77 959.095 312.139 959.095H322.937C323.306 959.095 323.653 959.169 323.978 959.319C324.312 959.459 324.602 959.653 324.848 959.899C325.095 960.136 325.288 960.422 325.429 960.756C325.569 961.081 325.639 961.428 325.639 961.797V975.297ZM312.139 961.797V975.297H322.937V961.797H312.139ZM334.554 959.095H337.257V975.297H348.054V959.095H350.757V975.297C350.757 975.667 350.687 976.018 350.546 976.352C350.405 976.677 350.212 976.963 349.966 977.209C349.72 977.455 349.43 977.648 349.096 977.789C348.771 977.93 348.423 978 348.054 978H337.257C336.888 978 336.536 977.93 336.202 977.789C335.877 977.648 335.591 977.455 335.345 977.209C335.099 976.963 334.906 976.677 334.765 976.352C334.625 976.018 334.554 975.667 334.554 975.297V959.095ZM358.05 959.095H373.172V961.797H366.962V978H364.259V961.797H358.05V959.095Z" fill="#FFB800"/>
<path d="M325.429 976.352L326.346 976.749L326.35 976.74L325.429 976.352ZM323.978 977.789L323.59 976.867L323.581 976.871L323.978 977.789ZM311.085 977.789L310.688 978.707L310.697 978.711L311.085 977.789ZM310.228 977.209L309.521 977.916L310.228 977.209ZM309.648 976.352L308.726 976.74L308.73 976.749L309.648 976.352ZM309.648 960.756L310.566 961.153L310.569 961.144L309.648 960.756ZM310.228 959.899L310.922 960.619L310.929 960.612L310.935 960.606L310.228 959.899ZM311.085 959.319L311.482 960.237L311.493 960.232L311.085 959.319ZM323.978 959.319L323.561 960.228L323.575 960.234L323.59 960.24L323.978 959.319ZM324.848 959.899L324.141 960.606L324.148 960.612L324.154 960.619L324.848 959.899ZM325.429 960.756L324.507 961.144L324.511 961.153L325.429 960.756ZM312.139 961.797V960.797H311.139V961.797H312.139ZM312.139 975.297H311.139V976.297H312.139V975.297ZM322.937 975.297V976.297H323.937V975.297H322.937ZM322.937 961.797H323.937V960.797H322.937V961.797ZM324.639 975.297C324.639 975.536 324.595 975.755 324.507 975.964L326.35 976.74C326.543 976.281 326.639 975.797 326.639 975.297H324.639ZM324.511 975.955C324.419 976.167 324.297 976.347 324.141 976.502L325.556 977.916C325.892 977.579 326.157 977.188 326.346 976.749L324.511 975.955ZM324.141 976.502C323.99 976.653 323.81 976.775 323.59 976.867L324.366 978.711C324.815 978.522 325.214 978.257 325.556 977.916L324.141 976.502ZM323.581 976.871C323.387 976.955 323.175 977 322.937 977V979C323.437 979 323.919 978.904 324.375 978.707L323.581 976.871ZM322.937 977H312.139V979H322.937V977ZM312.139 977C311.901 977 311.682 976.955 311.473 976.867L310.697 978.711C311.156 978.904 311.64 979 312.139 979V977ZM311.482 976.871C311.27 976.78 311.09 976.657 310.935 976.502L309.521 977.916C309.858 978.253 310.249 978.517 310.688 978.707L311.482 976.871ZM310.935 976.502C310.78 976.347 310.657 976.167 310.566 975.955L308.73 976.749C308.92 977.188 309.184 977.579 309.521 977.916L310.935 976.502ZM310.569 975.964C310.481 975.755 310.437 975.536 310.437 975.297H308.437C308.437 975.797 308.533 976.281 308.726 976.74L310.569 975.964ZM310.437 975.297V961.797H308.437V975.297H310.437ZM310.437 961.797C310.437 961.559 310.481 961.347 310.566 961.153L308.73 960.359C308.533 960.815 308.437 961.298 308.437 961.797H310.437ZM310.569 961.144C310.661 960.927 310.779 960.756 310.922 960.619L309.534 959.179C309.184 959.516 308.916 959.917 308.726 960.368L310.569 961.144ZM310.935 960.606C311.09 960.451 311.27 960.328 311.482 960.237L310.688 958.401C310.249 958.591 309.858 958.855 309.521 959.192L310.935 960.606ZM311.493 960.232C311.697 960.14 311.91 960.095 312.139 960.095V958.095C311.631 958.095 311.14 958.199 310.676 958.406L311.493 960.232ZM312.139 960.095H322.937V958.095H312.139V960.095ZM322.937 960.095C323.166 960.095 323.371 960.14 323.561 960.228L324.396 958.41C323.935 958.199 323.445 958.095 322.937 958.095V960.095ZM323.59 960.24C323.81 960.333 323.99 960.455 324.141 960.606L325.556 959.192C325.214 958.85 324.815 958.586 324.366 958.397L323.59 960.24ZM324.154 960.619C324.297 960.756 324.416 960.927 324.507 961.144L326.35 960.368C326.16 959.917 325.892 959.516 325.543 959.179L324.154 960.619ZM324.511 961.153C324.595 961.347 324.639 961.559 324.639 961.797H326.639C326.639 961.298 326.543 960.815 326.346 960.359L324.511 961.153ZM324.639 961.797V975.297H326.639V961.797H324.639ZM311.139 961.797V975.297H313.139V961.797H311.139ZM312.139 976.297H322.937V974.297H312.139V976.297ZM323.937 975.297V961.797H321.937V975.297H323.937ZM322.937 960.797H312.139V962.797H322.937V960.797ZM334.554 959.095V958.095H333.554V959.095H334.554ZM337.257 959.095H338.257V958.095H337.257V959.095ZM337.257 975.297H336.257V976.297H337.257V975.297ZM348.054 975.297V976.297H349.054V975.297H348.054ZM348.054 959.095V958.095H347.054V959.095H348.054ZM350.757 959.095H351.757V958.095H350.757V959.095ZM350.546 976.352L351.464 976.749L351.468 976.74L350.546 976.352ZM349.096 977.789L348.708 976.867L348.699 976.871L349.096 977.789ZM336.202 977.789L335.805 978.707L335.814 978.711L336.202 977.789ZM335.345 977.209L334.638 977.916L335.345 977.209ZM334.765 976.352L333.843 976.74L333.847 976.749L334.765 976.352ZM334.554 960.095H337.257V958.095H334.554V960.095ZM336.257 959.095V975.297H338.257V959.095H336.257ZM337.257 976.297H348.054V974.297H337.257V976.297ZM349.054 975.297V959.095H347.054V975.297H349.054ZM348.054 960.095H350.757V958.095H348.054V960.095ZM349.757 959.095V975.297H351.757V959.095H349.757ZM349.757 975.297C349.757 975.536 349.712 975.755 349.624 975.964L351.468 976.74C351.661 976.281 351.757 975.797 351.757 975.297H349.757ZM349.628 975.955C349.537 976.167 349.414 976.347 349.259 976.502L350.673 977.916C351.01 977.579 351.274 977.188 351.464 976.749L349.628 975.955ZM349.259 976.502C349.108 976.653 348.927 976.775 348.708 976.867L349.484 978.711C349.932 978.522 350.332 978.257 350.673 977.916L349.259 976.502ZM348.699 976.871C348.504 976.955 348.293 977 348.054 977V979C348.554 979 349.037 978.904 349.493 978.707L348.699 976.871ZM348.054 977H337.257V979H348.054V977ZM337.257 977C337.018 977 336.799 976.955 336.59 976.867L335.814 978.711C336.273 978.904 336.757 979 337.257 979V977ZM336.599 976.871C336.387 976.78 336.208 976.657 336.052 976.502L334.638 977.916C334.975 978.253 335.366 978.517 335.805 978.707L336.599 976.871ZM336.052 976.502C335.897 976.347 335.774 976.167 335.683 975.955L333.847 976.749C334.037 977.188 334.301 977.579 334.638 977.916L336.052 976.502ZM335.687 975.964C335.599 975.755 335.554 975.536 335.554 975.297H333.554C333.554 975.797 333.65 976.281 333.844 976.74L335.687 975.964ZM335.554 975.297V959.095H333.554V975.297H335.554ZM358.05 959.095V958.095H357.05V959.095H358.05ZM373.172 959.095H374.172V958.095H373.172V959.095ZM373.172 961.797V962.797H374.172V961.797H373.172ZM366.962 961.797V960.797H365.962V961.797H366.962ZM366.962 978V979H367.962V978H366.962ZM364.259 978H363.259V979H364.259V978ZM364.259 961.797H365.259V960.797H364.259V961.797ZM358.05 961.797H357.05V962.797H358.05V961.797ZM358.05 960.095H373.172V958.095H358.05V960.095ZM372.172 959.095V961.797H374.172V959.095H372.172ZM373.172 960.797H366.962V962.797H373.172V960.797ZM365.962 961.797V978H367.962V961.797H365.962ZM366.962 977H364.259V979H366.962V977ZM365.259 978V961.797H363.259V978H365.259ZM364.259 960.797H358.05V962.797H364.259V960.797ZM359.05 961.797V959.095H357.05V961.797H359.05Z" fill="#FFB800"/>
<path d="M285.296 984.76L263.7 990.475C261.801 983.388 252.15 985.3 254.159 992.832C253.278 993.194 252.321 992.516 252.369 991.565L252.518 988.665C252.523 988.572 252.515 988.479 252.495 988.388L251.85 985.45L251.522 983.81C251.415 983.275 251.984 982.861 252.46 983.128C252.807 983.322 253.245 983.156 253.375 982.78L253.42 982.653C253.569 982.224 254.097 982.07 254.454 982.352L254.602 982.47C254.975 982.765 255.525 982.499 255.525 982.023C255.525 981.599 255.971 981.324 256.35 981.514L257.602 982.143L263.246 973.305C263.918 972.253 264.96 971.49 266.166 971.167L277.679 968.082C278.839 967.771 280.072 967.888 281.153 968.412L289.642 972.525C290.536 972.959 291.538 973.116 292.522 972.977L294.618 972.68C295.619 972.539 296.568 973.167 296.83 974.143L297.935 978.267C298.364 979.868 297.414 981.513 295.813 981.941L295.294 982.081C293.412 975.057 283.448 977.862 285.296 984.76Z" fill="#FFB800" style="mix-blend-mode:difference"/>
<path d="M285.296 984.76L263.7 990.475C261.801 983.388 252.15 985.3 254.159 992.832C253.278 993.194 252.321 992.516 252.369 991.565L252.518 988.665C252.523 988.572 252.515 988.479 252.495 988.388L251.85 985.45L251.522 983.81C251.415 983.275 251.984 982.861 252.46 983.128C252.807 983.322 253.245 983.156 253.375 982.78L253.42 982.653C253.569 982.224 254.097 982.07 254.454 982.352L254.602 982.47C254.975 982.765 255.525 982.499 255.525 982.023C255.525 981.599 255.971 981.324 256.35 981.514L257.602 982.143L263.246 973.305C263.918 972.253 264.96 971.49 266.166 971.167L277.679 968.082C278.839 967.771 280.072 967.888 281.153 968.412L289.642 972.525C290.536 972.959 291.538 973.116 292.522 972.977L294.618 972.68C295.619 972.539 296.568 973.167 296.83 974.143L297.935 978.267C298.364 979.868 297.414 981.513 295.813 981.941L295.294 982.081C293.412 975.057 283.448 977.862 285.296 984.76Z" stroke="black"/>
<circle cx="258.565" cy="991.115" r="4.2582" transform="rotate(-15 258.565 991.115)" fill="#FFB800" style="mix-blend-mode:difference"/>
<circle cx="258.565" cy="991.115" r="3.21002" transform="rotate(-15 258.565 991.115)" fill="#FFB800" style="mix-blend-mode:difference"/>
<circle cx="290.21" cy="983.104" r="3.21002" transform="rotate(-15 290.21 983.104)" fill="#FFB800" style="mix-blend-mode:difference"/>
<circle cx="290.211" cy="983.104" r="4.2582" transform="rotate(-15 290.211 983.104)" fill="#FFB800" style="mix-blend-mode:difference"/>
<path d="M245.661 979.747L249.51 982.382C249.724 982.528 249.829 982.79 249.774 983.044C249.69 983.435 249.272 983.653 248.903 983.499L244.616 981.711C244.099 981.496 243.86 980.898 244.085 980.385L244.181 980.169C244.433 979.596 245.144 979.393 245.661 979.747Z" fill="#FFB800" style="mix-blend-mode:difference"/>
<path d="M244.889 985.074L249.49 985.848C249.746 985.891 249.95 986.085 250.007 986.338C250.095 986.728 249.808 987.102 249.408 987.117L244.766 987.296C244.207 987.317 243.739 986.875 243.728 986.315L243.724 986.079C243.712 985.453 244.272 984.97 244.889 985.074Z" fill="#FFB800" style="mix-blend-mode:difference"/>
<path d="M250.083 975.29L252.074 979.509C252.185 979.743 252.143 980.022 251.967 980.213C251.697 980.508 251.226 980.485 250.985 980.166L248.189 976.457C247.852 976.01 247.948 975.373 248.401 975.045L248.593 974.906C249.1 974.539 249.816 974.724 250.083 975.29Z" fill="#FFB800" style="mix-blend-mode:difference"/>
<circle cx="306" cy="955" r="75" fill="url(#paint10_linear_107:72)"/>
</g>
<defs>
<filter id="filter0_i_107:72" x="722" y="459" width="475" height="255" filterUnits="userSpaceOnUse" color-interpolation-filters="sRGB">
<feFlood flood-opacity="0" result="BackgroundImageFix"/>
<feBlend mode="normal" in="SourceGraphic" in2="BackgroundImageFix" result="shape"/>
<feColorMatrix in="SourceAlpha" type="matrix" values="0 0 0 0 0 0 0 0 0 0 0 0 0 0 0 0 0 0 127 0" result="hardAlpha"/>
<feMorphology radius="15" operator="erode" in="SourceAlpha" result="effect1_innerShadow_107:72"/>
<feOffset dy="5"/>
<feGaussianBlur stdDeviation="6"/>
<feComposite in2="hardAlpha" operator="arithmetic" k2="-1" k3="1"/>
<feColorMatrix type="matrix" values="0 0 0 0 0 0 0 0 0 0 0 0 0 0 0 0 0 0 0.5 0"/>
<feBlend mode="normal" in2="shape" result="effect1_innerShadow_107:72"/>
</filter>
<filter id="filter1_i_107:72" x="1291" y="469" width="192" height="427" filterUnits="userSpaceOnUse" color-interpolation-filters="sRGB">
<feFlood flood-opacity="0" result="BackgroundImageFix"/>
<feBlend mode="normal" in="SourceGraphic" in2="BackgroundImageFix" result="shape"/>
<feColorMatrix in="SourceAlpha" type="matrix" values="0 0 0 0 0 0 0 0 0 0 0 0 0 0 0 0 0 0 127 0" result="hardAlpha"/>
<feMorphology radius="2" operator="erode" in="SourceAlpha" result="effect1_innerShadow_107:72"/>
<feOffset dx="2" dy="5"/>
<feGaussianBlur stdDeviation="2"/>
<feComposite in2="hardAlpha" operator="arithmetic" k2="-1" k3="1"/>
<feColorMatrix type="matrix" values="0 0 0 0 0 0 0 0 0 0 0 0 0 0 0 0 0 0 0.25 0"/>
<feBlend mode="normal" in2="shape" result="effect1_innerShadow_107:72"/>
</filter>
<filter id="filter2_d_107:72" x="1306" y="672" width="48" height="18" filterUnits="userSpaceOnUse" color-interpolation-filters="sRGB">
<feFlood flood-opacity="0" result="BackgroundImageFix"/>
<feColorMatrix in="SourceAlpha" type="matrix" values="0 0 0 0 0 0 0 0 0 0 0 0 0 0 0 0 0 0 127 0" result="hardAlpha"/>
<feOffset dy="6"/>
<feGaussianBlur stdDeviation="2"/>
<feComposite in2="hardAlpha" operator="out"/>
<feColorMatrix type="matrix" values="0 0 0 0 0 0 0 0 0 0 0 0 0 0 0 0 0 0 0.25 0"/>
<feBlend mode="normal" in2="BackgroundImageFix" result="effect1_dropShadow_107:72"/>
<feBlend mode="normal" in="SourceGraphic" in2="effect1_dropShadow_107:72" result="shape"/>
</filter>
<linearGradient id="paint0_linear_107:72" x1="960" y1="0" x2="960" y2="1080" gradientUnits="userSpaceOnUse">
<stop stop-color="#999999"/>
<stop offset="1" stop-color="#666666"/>
</linearGradient>
<linearGradient id="paint1_linear_107:72" x1="960" y1="1080" x2="960" y2="930" gradientUnits="userSpaceOnUse">
<stop stop-color="#A4A4A4"/>
<stop offset="0.265625" stop-color="#C8C8C8"/>
<stop offset="0.583333" stop-color="#C8C8C8"/>
<stop offset="0.765625" stop-color="#777777"/>
<stop offset="1" stop-color="#777777" stop-opacity="0"/>
</linearGradient>
<linearGradient id="paint2_linear_107:72" x1="1386" y1="459" x2="1386" y2="891" gradientUnits="userSpaceOnUse">
<stop stop-color="#CECECE"/>
<stop offset="1" stop-color="#7A7A7A"/>
</linearGradient>
<linearGradient id="paint3_linear_107:72" x1="1386" y1="469" x2="1386" y2="891" gradientUnits="userSpaceOnUse">
<stop stop-color="#B6B6B6"/>
<stop offset="1" stop-color="#383838"/>
</linearGradient>
<linearGradient id="paint4_linear_107:72" x1="1314" y1="685" x2="1314" y2="693" gradientUnits="userSpaceOnUse">
<stop stop-color="#565656"/>
<stop offset="1" stop-color="#676767"/>
</linearGradient>
<linearGradient id="paint5_linear_107:72" x1="960" y1="891" x2="960" y2="961" gradientUnits="userSpaceOnUse">
<stop stop-opacity="0.5"/>
<stop offset="1" stop-opacity="0"/>
</linearGradient>
<linearGradient id="paint6_linear_107:72" x1="960" y1="391" x2="960" y2="891" gradientUnits="userSpaceOnUse">
<stop stop-opacity="0"/>
<stop offset="1" stop-opacity="0.5"/>
</linearGradient>
<linearGradient id="paint7_linear_107:72" x1="336" y1="829" x2="336.25" y2="1075" gradientUnits="userSpaceOnUse">
<stop stop-color="#D8D8D8"/>
<stop offset="1" stop-color="#A6A6A6"/>
</linearGradient>
<linearGradient id="paint8_linear_107:72" x1="960" y1="0" x2="960" y2="160" gradientUnits="userSpaceOnUse">
<stop stop-color="#7A7A7A"/>
<stop offset="1" stop-color="#B8B8B8"/>
</linearGradient>
<linearGradient id="paint9_linear_107:72" x1="960" y1="160" x2="960" y2="310" gradientUnits="userSpaceOnUse">
<stop stop-opacity="0.25"/>
<stop offset="1" stop-opacity="0"/>
</linearGradient>
<linearGradient id="paint10_linear_107:72" x1="306" y1="880" x2="306" y2="1030" gradientUnits="userSpaceOnUse">
<stop stop-color="white" stop-opacity="0.15"/>
<stop offset="1" stop-opacity="0.2"/>
</linearGradient>
<clipPath id="clip0_107:72">
<rect width="1920" height="1080" fill="white"/>
</clipPath>
</defs>
</svg>
