<svg width="500" height="500" viewBox="0 0 500 500" fill="none" xmlns="http://www.w3.org/2000/svg">
<g clip-path="url(#clip0_182_113)">
<circle cx="250" cy="250" r="245" stroke="white" stroke-width="10"/>
<mask id="path-2-inside-1_182_113" fill="white">
<path fill-rule="evenodd" clip-rule="evenodd" d="M250 500C388.071 500 500 388.071 500 250H380C380 321.797 321.797 380 250 380V500ZM250 370C316.274 370 370 316.274 370 250H340C340 299.706 299.706 340 250 340V370ZM250 330C294.183 330 330 294.183 330 250H270V250.221C270 256.653 266.955 262.373 262.266 266.018L250 278.284V330ZM221.716 250H170C170 205.817 205.817 170 250 170V171C238.954 171 230 179.954 230 191V241.716L221.716 250ZM250 264.142L255.713 258.43C258.304 256.623 260 253.62 260 250.221V250H250V181C244.477 181 240 185.477 240 191V245.858L235.858 250H250V264.142ZM250 160C200.294 160 160 200.294 160 250H130C130 188.806 175.805 138.31 235 130.928V110H205C196.716 110 190 103.284 190 95C190 86.7157 196.716 80 205 80H250V160ZM250 70H205C191.193 70 180 81.1929 180 95C180 108.807 191.193 120 205 120H225V122.403C165.161 134.064 120 186.751 120 250H0C0 111.929 111.929 0 250 0V70Z"/>
</mask>
<path fill-rule="evenodd" clip-rule="evenodd" d="M250 500C388.071 500 500 388.071 500 250H380C380 321.797 321.797 380 250 380V500ZM250 370C316.274 370 370 316.274 370 250H340C340 299.706 299.706 340 250 340V370ZM250 330C294.183 330 330 294.183 330 250H270V250.221C270 256.653 266.955 262.373 262.266 266.018L250 278.284V330ZM221.716 250H170C170 205.817 205.817 170 250 170V171C238.954 171 230 179.954 230 191V241.716L221.716 250ZM250 264.142L255.713 258.43C258.304 256.623 260 253.62 260 250.221V250H250V181C244.477 181 240 185.477 240 191V245.858L235.858 250H250V264.142ZM250 160C200.294 160 160 200.294 160 250H130C130 188.806 175.805 138.31 235 130.928V110H205C196.716 110 190 103.284 190 95C190 86.7157 196.716 80 205 80H250V160ZM250 70H205C191.193 70 180 81.1929 180 95C180 108.807 191.193 120 205 120H225V122.403C165.161 134.064 120 186.751 120 250H0C0 111.929 111.929 0 250 0V70Z" fill="white"/>
<path d="M500 250H510V240H500V250ZM250 500H240V510H250V500ZM380 250V240H370V250H380ZM250 380V370H240V380H250ZM250 370H240V380H250V370ZM370 250H380V240H370V250ZM340 250V240H330V250H340ZM250 340V330H240V340H250ZM250 330H240V340H250V330ZM330 250H340V240H330V250ZM270 250V240H260V250H270ZM262.266 266.018L256.129 258.123L255.636 258.506L255.195 258.947L262.266 266.018ZM250 278.284L242.929 271.213L240 274.142V278.284H250ZM170 250H160V260H170V250ZM221.716 250V260H225.858L228.787 257.071L221.716 250ZM250 170H260V160H250V170ZM250 171V181H260V171H250ZM230 241.716L237.071 248.787L240 245.858V241.716H230ZM250 264.142H240V288.284L257.071 271.213L250 264.142ZM255.713 258.43L249.993 250.227L249.267 250.733L248.642 251.358L255.713 258.43ZM260 250H270V240H260V250ZM250 181H260V171H250V181ZM240 245.858L247.071 252.929L250 250V245.858H240ZM235.858 250L228.787 242.929L211.716 260H235.858V250ZM160 250V260H170V250H160ZM250 160V170H260V160H250ZM130 250H120V260H130V250ZM235 130.928L236.237 140.852L245 139.759V130.928H235ZM235 110H245V100H235V110ZM250 80H260V70H250V80ZM250 70V80H260V70H250ZM225 120H235V110H225V120ZM225 122.403L226.913 132.219L235 130.643V122.403H225ZM120 250V260H130V250H120ZM0 250H-10V260H0V250ZM250 0H260V-10H250V0ZM490 250C490 382.548 382.548 490 250 490V510C393.594 510 510 393.594 510 250H490ZM380 260H500V240H380V260ZM370 250C370 316.274 316.274 370 250 370V390C327.32 390 390 327.32 390 250H370ZM260 500V380H240V500H260ZM250 380C321.797 380 380 321.797 380 250H360C360 310.751 310.751 360 250 360V380ZM340 260H370V240H340V260ZM330 250C330 294.183 294.183 330 250 330V350C305.228 350 350 305.228 350 250H330ZM260 370V340H240V370H260ZM250 340C299.706 340 340 299.706 340 250H320C320 288.66 288.66 320 250 320V340ZM270 260H330V240H270V260ZM260 250V250.221H280V250H260ZM260 250.221C260 253.428 258.492 256.286 256.129 258.123L268.404 273.913C275.418 268.46 280 259.878 280 250.221H260ZM255.195 258.947L242.929 271.213L257.071 285.355L269.337 273.089L255.195 258.947ZM260 330V278.284H240V330H260ZM170 260H221.716V240H170V260ZM250 160C200.294 160 160 200.294 160 250H180C180 211.34 211.34 180 250 180V160ZM260 171V170H240V171H260ZM240 191C240 185.477 244.477 181 250 181V161C233.431 161 220 174.431 220 191H240ZM240 241.716V191H220V241.716H240ZM228.787 257.071L237.071 248.787L222.929 234.645L214.645 242.929L228.787 257.071ZM257.071 271.213L262.784 265.501L248.642 251.358L242.929 257.071L257.071 271.213ZM261.432 266.633C266.591 263.036 270 257.027 270 250.221H250C250 250.225 250 250.228 250 250.23C250 250.232 250 250.233 249.999 250.233C249.999 250.233 250 250.232 250.001 250.228C250.001 250.225 250.002 250.222 250.003 250.22C250.004 250.217 250.005 250.215 250.006 250.214C250.007 250.212 250.006 250.214 250.002 250.218C249.999 250.222 249.995 250.225 249.993 250.227L261.432 266.633ZM270 250.221V250H250V250.221H270ZM250 260H260V240H250V260ZM260 250V181H240V250H260ZM250 171C238.954 171 230 179.954 230 191H250V171ZM230 191V245.858H250V191H230ZM232.929 238.787L228.787 242.929L242.929 257.071L247.071 252.929L232.929 238.787ZM235.858 260H250V240H235.858V260ZM260 264.142V250H240V264.142H260ZM170 250C170 205.817 205.817 170 250 170V150C194.772 150 150 194.772 150 250H170ZM130 260H160V240H130V260ZM233.763 121.005C169.625 129.003 120 183.699 120 250H140C140 193.913 181.986 147.617 236.237 140.852L233.763 121.005ZM225 110V130.928H245V110H225ZM205 120H235V100H205V120ZM180 95C180 108.807 191.193 120 205 120V100C202.239 100 200 97.7614 200 95H180ZM205 70C191.193 70 180 81.1929 180 95H200C200 92.2386 202.239 90 205 90V70ZM250 70H205V90H250V70ZM260 160V80H240V160H260ZM205 80H250V60H205V80ZM190 95C190 86.7157 196.716 80 205 80V60C185.67 60 170 75.67 170 95H190ZM205 110C196.716 110 190 103.284 190 95H170C170 114.33 185.67 130 205 130V110ZM225 110H205V130H225V110ZM235 122.403V120H215V122.403H235ZM130 250C130 191.628 171.68 142.982 226.913 132.219L223.087 112.588C158.641 125.146 110 181.874 110 250H130ZM0 260H120V240H0V260ZM250 -10C106.406 -10 -10 106.406 -10 250H10C10 117.452 117.452 10 250 10V-10ZM260 70V0H240V70H260Z" fill="white" mask="url(#path-2-inside-1_182_113)"/>
<path fill-rule="evenodd" clip-rule="evenodd" d="M370 250C370 316.274 316.274 370 250 370C183.726 370 130 316.274 130 250C130 188.806 175.805 138.31 235 130.928V110H205C196.716 110 190 103.284 190 95C190 86.7157 196.716 80 205 80H295C303.284 80 310 86.7157 310 95C310 103.284 303.284 110 295 110H265V130.928C324.195 138.31 370 188.806 370 250ZM250 340C299.706 340 340 299.706 340 250C340 200.294 299.706 160 250 160C200.294 160 160 200.294 160 250C160 299.706 200.294 340 250 340ZM250 181C255.523 181 260 185.477 260 191V250.221C260 253.62 258.304 256.623 255.713 258.43L227.071 287.071C223.166 290.976 216.834 290.976 212.929 287.071C209.024 283.166 209.024 276.834 212.929 272.929L240 245.858V191C240 185.477 244.477 181 250 181Z" fill="white"/>
</g>
<defs>
<clipPath id="clip0_182_113">
<rect width="500" height="500" fill="white"/>
</clipPath>
</defs>
</svg>
