<svg width="500" height="500" viewBox="0 0 500 500" fill="none" xmlns="http://www.w3.org/2000/svg">
<g clip-path="url(#clip0_189_213)">
<circle cx="250" cy="250" r="245" stroke="white" stroke-width="10"/>
<mask id="path-2-inside-1_189_213" fill="white">
<path fill-rule="evenodd" clip-rule="evenodd" d="M250 500C388.071 500 500 388.071 500 250H292.212L351.567 309.355C363.132 320.92 363.132 339.669 351.567 351.234C340.003 362.798 321.253 362.798 309.689 351.234L250.214 291.759L250 291.973V500ZM250 277.831L250.214 277.617L257.285 284.688L316.76 344.162C324.419 351.822 336.837 351.822 344.496 344.162C352.155 336.503 352.155 324.086 344.496 316.426L285.021 256.952L278.07 250H250V221.93L243.143 215.073L222.887 194.817L215.816 187.746L222.887 180.675L226.012 177.551C231.869 171.693 231.869 162.196 226.012 156.338L215.953 146.279L208.882 139.208C211.327 136.763 213.719 134.444 216.061 132.245C228.527 120.544 239.602 112.27 250 106.708V92.1326C202.117 89.6352 169.266 123.079 155.724 136.865L155.723 136.867C154.876 137.729 154.105 138.514 153.41 139.208L136.281 156.338C130.425 162.194 130.423 171.686 136.274 177.545L136.281 177.551L139.542 180.812L137.745 182.609L132.471 187.883L130.674 189.68L123.74 182.746L123.735 182.741C119.905 178.917 113.7 178.919 109.872 182.746C106.043 186.576 106.043 192.785 109.872 196.614L151.476 238.218C155.306 242.048 161.515 242.048 165.344 238.218C169.171 234.391 169.174 228.188 165.352 224.358L165.344 224.35L158.41 217.416L160.207 215.62L165.481 210.345L167.278 208.548L174.212 215.482C178.04 219.31 184.245 219.312 188.075 215.488L188.08 215.482L195.151 222.554L215.407 242.809L222.478 249.881L222.359 250H250V277.831ZM250 118.224C241.929 123.135 233.112 129.978 223.136 139.32L233.083 149.267C242.846 159.03 242.846 174.859 233.083 184.622L229.958 187.746L250 207.788V118.224ZM250 82.0994C197.943 79.6013 162.414 115.78 148.902 129.54L148.59 129.858C147.734 130.729 146.996 131.48 146.339 132.137L129.21 149.267C123.394 155.082 121.043 163.05 122.155 170.607C115.491 168.744 108.043 170.434 102.801 175.675C95.0663 183.41 95.0663 195.951 102.801 203.685L144.405 245.29C146.596 247.48 149.172 249.05 151.915 250H0C0 111.929 111.929 0 250 0V82.0994ZM164.906 250C167.649 249.05 170.225 247.48 172.415 245.29C177.096 240.609 178.944 234.168 177.96 228.098C180.685 228.54 183.485 228.411 186.167 227.711L208.336 249.881L208.217 250H164.906Z"/>
</mask>
<path fill-rule="evenodd" clip-rule="evenodd" d="M250 500C388.071 500 500 388.071 500 250H292.212L351.567 309.355C363.132 320.92 363.132 339.669 351.567 351.234C340.003 362.798 321.253 362.798 309.689 351.234L250.214 291.759L250 291.973V500ZM250 277.831L250.214 277.617L257.285 284.688L316.76 344.162C324.419 351.822 336.837 351.822 344.496 344.162C352.155 336.503 352.155 324.086 344.496 316.426L285.021 256.952L278.07 250H250V221.93L243.143 215.073L222.887 194.817L215.816 187.746L222.887 180.675L226.012 177.551C231.869 171.693 231.869 162.196 226.012 156.338L215.953 146.279L208.882 139.208C211.327 136.763 213.719 134.444 216.061 132.245C228.527 120.544 239.602 112.27 250 106.708V92.1326C202.117 89.6352 169.266 123.079 155.724 136.865L155.723 136.867C154.876 137.729 154.105 138.514 153.41 139.208L136.281 156.338C130.425 162.194 130.423 171.686 136.274 177.545L136.281 177.551L139.542 180.812L137.745 182.609L132.471 187.883L130.674 189.68L123.74 182.746L123.735 182.741C119.905 178.917 113.7 178.919 109.872 182.746C106.043 186.576 106.043 192.785 109.872 196.614L151.476 238.218C155.306 242.048 161.515 242.048 165.344 238.218C169.171 234.391 169.174 228.188 165.352 224.358L165.344 224.35L158.41 217.416L160.207 215.62L165.481 210.345L167.278 208.548L174.212 215.482C178.04 219.31 184.245 219.312 188.075 215.488L188.08 215.482L195.151 222.554L215.407 242.809L222.478 249.881L222.359 250H250V277.831ZM250 118.224C241.929 123.135 233.112 129.978 223.136 139.32L233.083 149.267C242.846 159.03 242.846 174.859 233.083 184.622L229.958 187.746L250 207.788V118.224ZM250 82.0994C197.943 79.6013 162.414 115.78 148.902 129.54L148.59 129.858C147.734 130.729 146.996 131.48 146.339 132.137L129.21 149.267C123.394 155.082 121.043 163.05 122.155 170.607C115.491 168.744 108.043 170.434 102.801 175.675C95.0663 183.41 95.0663 195.951 102.801 203.685L144.405 245.29C146.596 247.48 149.172 249.05 151.915 250H0C0 111.929 111.929 0 250 0V82.0994ZM164.906 250C167.649 249.05 170.225 247.48 172.415 245.29C177.096 240.609 178.944 234.168 177.96 228.098C180.685 228.54 183.485 228.411 186.167 227.711L208.336 249.881L208.217 250H164.906Z" fill="white"/>
<path d="M500 250H510V240H500V250ZM250 500H240V510H250V500ZM292.212 250V240H268.07L285.141 257.071L292.212 250ZM351.567 351.234L344.496 344.162L344.496 344.162L351.567 351.234ZM309.689 351.234L302.618 358.305L302.618 358.305L309.689 351.234ZM250.214 291.759L257.285 284.688L250.214 277.617L243.143 284.688L250.214 291.759ZM250 291.973L242.929 284.902L240 287.831V291.973H250ZM250.214 277.617L257.285 270.545L250.214 263.474L243.143 270.545L250.214 277.617ZM250 277.831H240V301.973L257.071 284.902L250 277.831ZM257.285 284.688L250.214 291.759L250.214 291.759L257.285 284.688ZM316.76 344.162L323.831 337.091L323.831 337.091L316.76 344.162ZM344.496 316.426L351.567 309.355L351.567 309.355L344.496 316.426ZM278.07 250L285.141 242.929L282.212 240H278.07V250ZM250 221.93H260V217.788L257.071 214.859L250 221.93ZM215.816 187.746L208.745 180.675L201.674 187.746L208.745 194.817L215.816 187.746ZM222.887 180.675L215.816 173.604L215.816 173.604L222.887 180.675ZM226.012 177.551L218.941 170.48L218.941 170.48L226.012 177.551ZM226.012 156.338L233.083 149.267L233.083 149.267L226.012 156.338ZM215.953 146.279L223.024 139.208L223.024 139.208L215.953 146.279ZM208.882 139.208L201.811 132.137L194.74 139.208L201.811 146.279L208.882 139.208ZM216.061 132.245L222.905 139.536L222.905 139.536L216.061 132.245ZM250 106.708L254.717 115.526L260 112.7V106.708H250ZM250 92.1326H260V82.6405L250.521 82.1461L250 92.1326ZM155.724 136.865L148.59 129.858L148.555 129.893L148.521 129.929L155.724 136.865ZM155.723 136.867L162.857 143.874L162.891 143.839L162.926 143.803L155.723 136.867ZM153.41 139.208L160.481 146.279L160.481 146.279L153.41 139.208ZM136.281 156.338L129.21 149.267L129.21 149.267L136.281 156.338ZM136.274 177.545L129.199 184.611L129.203 184.616L136.274 177.545ZM136.281 177.551L129.21 184.622L129.21 184.622L136.281 177.551ZM139.542 180.812L146.613 187.883L153.684 180.812L146.613 173.741L139.542 180.812ZM130.674 189.68L123.603 196.751L130.674 203.823L137.745 196.751L130.674 189.68ZM123.74 182.746L116.664 189.812L116.669 189.817L123.74 182.746ZM123.735 182.741L130.811 175.675L130.806 175.67L130.801 175.665L123.735 182.741ZM109.872 196.614L116.943 189.543L116.943 189.543L109.872 196.614ZM151.476 238.218L144.405 245.29L144.405 245.29L151.476 238.218ZM165.344 238.218L158.273 231.147L158.273 231.147L165.344 238.218ZM165.352 224.358L172.43 217.294L172.423 217.287L165.352 224.358ZM165.344 224.35L158.273 231.421L158.273 231.422L165.344 224.35ZM158.41 217.416L151.339 210.345L144.268 217.416L151.339 224.487L158.41 217.416ZM160.207 215.62L167.278 222.691L167.278 222.691L160.207 215.62ZM165.481 210.345L158.41 203.274L158.41 203.274L165.481 210.345ZM167.278 208.548L174.349 201.477L167.278 194.406L160.207 201.477L167.278 208.548ZM174.212 215.482L167.141 222.554L167.141 222.554L174.212 215.482ZM188.075 215.488L181.014 208.406L181.009 208.411L188.075 215.488ZM188.08 215.482L195.151 208.411L188.091 201.351L181.019 208.401L188.08 215.482ZM195.151 222.554L188.08 229.625L188.08 229.625L195.151 222.554ZM215.407 242.809L222.478 235.738L222.478 235.738L215.407 242.809ZM222.478 249.881L229.549 256.952L236.62 249.881L229.549 242.809L222.478 249.881ZM222.359 250L215.288 242.929L198.217 260H222.359V250ZM250 118.224H260V100.434L244.802 109.681L250 118.224ZM223.136 139.32L216.301 132.021L208.758 139.084L216.065 146.391L223.136 139.32ZM233.083 149.267L226.012 156.338L226.012 156.338L233.083 149.267ZM229.958 187.746L222.887 180.675L215.816 187.746L222.887 194.817L229.958 187.746ZM250 207.788L242.929 214.859L260 231.93V207.788H250ZM148.902 129.54L156.037 136.547L156.037 136.547L148.902 129.54ZM250 82.0994L249.521 92.0879L260 92.5907V82.0994H250ZM148.59 129.858L155.724 136.865L155.725 136.865L148.59 129.858ZM122.155 170.607L119.464 180.238L134.292 184.382L132.049 169.15L122.155 170.607ZM102.801 175.675L109.872 182.746L109.872 182.746L102.801 175.675ZM102.801 203.685L109.872 196.614L109.872 196.614L102.801 203.685ZM144.405 245.29L137.334 252.361L137.334 252.361L144.405 245.29ZM151.915 250V260L155.187 240.55L151.915 250ZM0 250H-10V260H0V250ZM250 0H260V-10H250V0ZM164.906 250L161.634 240.55L164.906 260V250ZM177.96 228.098L179.56 218.227L165.869 216.007L168.089 229.699L177.96 228.098ZM186.167 227.711L193.238 220.64L189.186 216.588L183.641 218.035L186.167 227.711ZM208.336 249.881L215.407 256.952L222.478 249.881L215.407 242.809L208.336 249.881ZM208.217 250V260H212.359L215.288 257.071L208.217 250ZM490 250C490 382.548 382.548 490 250 490V510C393.594 510 510 393.594 510 250H490ZM292.212 260H500V240H292.212V260ZM285.141 257.071L344.496 316.426L358.638 302.284L299.283 242.929L285.141 257.071ZM344.496 316.426C352.155 324.086 352.155 336.503 344.496 344.162L358.638 358.305C374.108 342.835 374.108 317.754 358.638 302.284L344.496 316.426ZM344.496 344.162C336.837 351.822 324.419 351.822 316.76 344.162L302.618 358.305C318.088 373.774 343.169 373.774 358.638 358.305L344.496 344.162ZM316.76 344.162L257.285 284.688L243.143 298.83L302.618 358.305L316.76 344.162ZM243.143 284.688L242.929 284.902L257.071 299.044L257.285 298.83L243.143 284.688ZM260 500V291.973H240V500H260ZM243.143 270.545L242.929 270.76L257.071 284.902L257.285 284.688L243.143 270.545ZM264.356 277.617L257.285 270.545L243.143 284.688L250.214 291.759L264.356 277.617ZM323.831 337.091L264.356 277.617L250.214 291.759L309.689 351.234L323.831 337.091ZM337.425 337.091C333.671 340.845 327.585 340.845 323.831 337.091L309.689 351.234C321.253 362.798 340.003 362.798 351.567 351.234L337.425 337.091ZM337.425 323.498C341.179 327.251 341.179 333.338 337.425 337.091L351.567 351.234C363.132 339.669 363.132 320.92 351.567 309.355L337.425 323.498ZM277.95 264.023L337.425 323.498L351.567 309.355L292.092 249.881L277.95 264.023ZM270.999 257.071L277.95 264.023L292.092 249.881L285.141 242.929L270.999 257.071ZM250 260H278.07V240H250V260ZM260 250V221.93H240V250H260ZM236.072 222.145L242.929 229.001L257.071 214.859L250.214 208.002L236.072 222.145ZM215.816 201.889L236.072 222.145L250.214 208.002L229.958 187.746L215.816 201.889ZM208.745 194.817L215.816 201.889L229.958 187.746L222.887 180.675L208.745 194.817ZM215.816 173.604L208.745 180.675L222.887 194.817L229.958 187.746L215.816 173.604ZM218.941 170.48L215.816 173.604L229.958 187.746L233.083 184.622L218.941 170.48ZM218.941 163.409C220.893 165.362 220.893 168.527 218.941 170.48L233.083 184.622C242.846 174.859 242.846 159.03 233.083 149.267L218.941 163.409ZM208.882 153.351L218.941 163.409L233.083 149.267L223.024 139.208L208.882 153.351ZM201.811 146.279L208.882 153.351L223.024 139.208L215.953 132.137L201.811 146.279ZM209.217 124.954C206.793 127.23 204.325 129.623 201.811 132.137L215.953 146.279C218.329 143.903 220.645 141.658 222.905 139.536L209.217 124.954ZM245.283 97.8902C233.875 103.992 222.092 112.869 209.217 124.954L222.905 139.536C234.963 128.218 245.328 120.548 254.717 115.526L245.283 97.8902ZM260 106.708V92.1326H240V106.708H260ZM162.858 143.873C176.598 129.885 206.549 99.88 249.479 102.119L250.521 82.1461C197.684 79.3904 161.933 116.273 148.59 129.858L162.858 143.873ZM162.926 143.803L162.927 143.802L148.521 129.929L148.52 129.93L162.926 143.803ZM160.481 146.279C161.214 145.547 162.019 144.727 162.857 143.874L148.589 129.859C147.733 130.73 146.996 131.481 146.339 132.137L160.481 146.279ZM143.352 163.409L160.481 146.279L146.339 132.137L129.21 149.267L143.352 163.409ZM143.35 170.478C141.399 168.525 141.4 165.361 143.352 163.409L129.21 149.267C119.45 159.026 119.447 174.847 129.199 184.611L143.35 170.478ZM143.352 170.48L143.345 170.474L129.203 184.616L129.21 184.622L143.352 170.48ZM146.613 173.741L143.352 170.48L129.21 184.622L132.471 187.883L146.613 173.741ZM144.816 189.68L146.613 187.883L132.471 173.741L130.674 175.538L144.816 189.68ZM139.542 194.955L144.816 189.68L130.674 175.538L125.4 180.812L139.542 194.955ZM137.745 196.751L139.542 194.955L125.4 180.812L123.603 182.609L137.745 196.751ZM116.669 189.817L123.603 196.751L137.745 182.609L130.811 175.675L116.669 189.817ZM116.659 189.807L116.664 189.812L130.816 175.681L130.811 175.675L116.659 189.807ZM116.943 189.817C116.944 189.817 116.942 189.819 116.937 189.823C116.933 189.826 116.927 189.83 116.92 189.835C116.906 189.844 116.89 189.853 116.874 189.859C116.843 189.872 116.821 189.874 116.806 189.874C116.792 189.874 116.769 189.872 116.738 189.859C116.723 189.853 116.707 189.845 116.692 189.835C116.685 189.83 116.679 189.826 116.675 189.823C116.671 189.819 116.669 189.817 116.669 189.817L130.801 175.665C123.065 167.941 110.532 167.944 102.801 175.675L116.943 189.817ZM116.943 189.543C116.943 189.543 116.945 189.545 116.948 189.549C116.952 189.553 116.956 189.559 116.961 189.566C116.97 189.581 116.979 189.597 116.985 189.613C116.997 189.643 117 189.666 117 189.68C117 189.695 116.997 189.718 116.985 189.748C116.979 189.764 116.97 189.78 116.961 189.795C116.956 189.802 116.952 189.807 116.948 189.812C116.945 189.816 116.943 189.818 116.943 189.817L102.801 175.675C95.0663 183.41 95.0663 195.951 102.801 203.686L116.943 189.543ZM158.547 231.147L116.943 189.543L102.801 203.685L144.405 245.29L158.547 231.147ZM158.273 231.147C158.273 231.148 158.275 231.146 158.279 231.142C158.283 231.139 158.289 231.135 158.296 231.13C158.31 231.12 158.326 231.112 158.342 231.106C158.373 231.093 158.396 231.091 158.41 231.091C158.425 231.091 158.447 231.093 158.478 231.106C158.494 231.112 158.51 231.12 158.524 231.13C158.531 231.135 158.537 231.139 158.541 231.142C158.546 231.146 158.548 231.148 158.547 231.147L144.405 245.29C152.14 253.024 164.68 253.024 172.415 245.289L158.273 231.147ZM158.273 231.422C158.273 231.422 158.271 231.42 158.268 231.416C158.264 231.411 158.26 231.406 158.256 231.399C158.246 231.384 158.238 231.368 158.231 231.352C158.219 231.322 158.216 231.299 158.216 231.284C158.216 231.27 158.219 231.247 158.231 231.217C158.238 231.201 158.246 231.185 158.256 231.17C158.26 231.163 158.265 231.157 158.268 231.153C158.272 231.149 158.273 231.147 158.273 231.147L172.415 245.29C180.145 237.56 180.15 225.03 172.43 217.294L158.273 231.422ZM158.273 231.422L158.28 231.429L172.423 217.287L172.415 217.279L158.273 231.422ZM151.339 224.487L158.273 231.421L172.415 217.279L165.481 210.345L151.339 224.487ZM153.136 208.548L151.339 210.345L165.481 224.488L167.278 222.691L153.136 208.548ZM158.41 203.274L153.136 208.548L167.278 222.691L172.552 217.416L158.41 203.274ZM160.207 201.477L158.41 203.274L172.552 217.416L174.349 215.619L160.207 201.477ZM181.283 208.411L174.349 201.477L160.207 215.619L167.141 222.554L181.283 208.411ZM181.009 208.411C181.009 208.412 181.011 208.41 181.015 208.406C181.019 208.403 181.025 208.398 181.032 208.394C181.047 208.384 181.063 208.376 181.078 208.369C181.109 208.357 181.132 208.355 181.146 208.355C181.161 208.355 181.183 208.357 181.214 208.37C181.23 208.376 181.246 208.384 181.26 208.394C181.267 208.399 181.273 208.403 181.277 208.406C181.282 208.41 181.284 208.412 181.283 208.411L167.141 222.554C174.872 230.285 187.405 230.288 195.141 222.564L181.009 208.411ZM181.019 208.401L181.014 208.406L195.136 222.569L195.141 222.564L181.019 208.401ZM202.222 215.482L195.151 208.411L181.009 222.553L188.08 229.625L202.222 215.482ZM222.478 235.738L202.222 215.482L188.08 229.625L208.336 249.881L222.478 235.738ZM229.549 242.809L222.478 235.738L208.336 249.881L215.407 256.952L229.549 242.809ZM229.43 257.071L229.549 256.952L215.407 242.809L215.288 242.929L229.43 257.071ZM222.359 260H250V240H222.359V260ZM260 277.831V250H240V277.831H260ZM244.802 109.681C235.988 115.044 226.624 122.353 216.301 132.021L229.971 146.619C239.6 137.603 247.871 131.225 255.198 126.767L244.802 109.681ZM216.065 146.391L226.012 156.338L240.154 142.196L230.207 132.249L216.065 146.391ZM226.012 156.338C231.869 162.196 231.869 171.693 226.012 177.551L240.154 191.693C253.822 178.025 253.822 155.864 240.154 142.196L226.012 156.338ZM226.012 177.551L222.887 180.675L237.029 194.817L240.154 191.693L226.012 177.551ZM222.887 194.817L242.929 214.859L257.071 200.717L237.029 180.675L222.887 194.817ZM260 207.788V118.224H240V207.788H260ZM156.037 136.547C169.697 122.637 202.362 89.8249 249.521 92.0879L250.479 72.1109C193.523 69.3777 155.132 108.924 141.767 122.533L156.037 136.547ZM155.725 136.865L156.037 136.547L141.767 122.533L141.455 122.851L155.725 136.865ZM153.41 139.208C154.105 138.513 154.877 137.728 155.724 136.865L141.456 122.85C140.591 123.73 139.887 124.447 139.268 125.066L153.41 139.208ZM136.281 156.338L153.41 139.208L139.268 125.066L122.139 142.196L136.281 156.338ZM132.049 169.15C131.377 164.588 132.796 159.822 136.281 156.338L122.139 142.196C113.992 150.342 110.708 161.513 112.262 172.064L132.049 169.15ZM109.872 182.746C112.458 180.16 116.136 179.308 119.464 180.238L124.847 160.976C114.847 158.181 103.627 160.707 95.73 168.604L109.872 182.746ZM109.872 196.614C106.043 192.785 106.043 186.576 109.872 182.746L95.73 168.604C84.09 180.244 84.09 199.117 95.73 210.757L109.872 196.614ZM151.476 238.218L109.872 196.614L95.73 210.757L137.334 252.361L151.476 238.218ZM155.187 240.55C153.842 240.085 152.574 239.316 151.476 238.218L137.334 252.361C140.618 255.644 144.501 258.015 148.643 259.45L155.187 240.55ZM0 260H151.915V240H0V260ZM250 -10C106.406 -10 -10 106.406 -10 250H10C10 117.452 117.452 10 250 10V-10ZM260 82.0994V0H240V82.0994H260ZM165.344 238.218C164.247 239.316 162.978 240.085 161.634 240.55L168.178 259.45C172.32 258.015 176.203 255.644 179.486 252.361L165.344 238.218ZM168.089 229.699C168.581 232.733 167.656 235.906 165.344 238.218L179.486 252.361C186.536 245.311 189.307 235.604 187.831 226.498L168.089 229.699ZM183.641 218.035C182.312 218.382 180.917 218.447 179.56 218.227L176.359 237.969C180.453 238.633 184.658 238.44 188.692 237.387L183.641 218.035ZM215.407 242.809L193.238 220.64L179.096 234.782L201.265 256.952L215.407 242.809ZM215.288 257.071L215.407 256.952L201.265 242.809L201.146 242.929L215.288 257.071ZM164.906 260H208.217V240H164.906V260Z" fill="white" mask="url(#path-2-inside-1_189_213)"/>
<path fill-rule="evenodd" clip-rule="evenodd" d="M109.872 196.614L151.476 238.218C155.306 242.048 161.515 242.048 165.344 238.218C169.174 234.389 169.174 228.18 165.344 224.35L158.41 217.416L167.278 208.548L174.212 215.482C178.042 219.312 184.251 219.312 188.08 215.482L222.478 249.881L155.506 316.852C147.847 324.511 147.847 336.929 155.506 344.588C163.166 352.247 175.583 352.247 183.242 344.588L250.214 277.617L316.76 344.162C324.419 351.822 336.837 351.822 344.496 344.162C352.155 336.503 352.155 324.086 344.496 316.426L277.95 249.881L293.739 234.092C302.905 224.926 315.337 219.776 328.299 219.776C349.337 219.776 368.014 206.315 374.666 186.357L384.329 157.37L356.593 185.106L321.923 178.172L314.989 143.502L342.725 115.766L313.738 125.428C293.78 132.081 280.318 150.758 280.318 171.796C280.318 184.758 275.169 197.19 266.003 206.356L250.214 222.145L215.816 187.746L226.012 177.551C231.869 171.693 231.869 162.196 226.012 156.338L208.882 139.208C236.618 111.472 257.42 99.9157 278.222 97.6044C214.992 76.5275 171.782 120.518 155.724 136.865C154.877 137.728 154.105 138.513 153.41 139.208L136.281 156.338C130.423 162.196 130.423 171.693 136.281 177.551L139.542 180.812L130.674 189.68L123.74 182.746C119.911 178.917 113.702 178.917 109.872 182.746C106.043 186.576 106.043 192.785 109.872 196.614Z" fill="white"/>
</g>
<defs>
<clipPath id="clip0_189_213">
<rect width="500" height="500" fill="white"/>
</clipPath>
</defs>
</svg>
