<svg width="1500" height="750" viewBox="0 0 1500 750" fill="none" xmlns="http://www.w3.org/2000/svg">
<path d="M164.5 573L164 418H1315L1295 561L1063 568.5L401.5 577.5L164.5 573Z" fill="url(#paint0_linear)"/>
<path fill-rule="evenodd" clip-rule="evenodd" d="M1027.5 570.048L441 582.048L398 580.707V542V539H398C397.971 476.92 396.183 428.5 283 428.5C169.817 428.5 168.029 476.92 168 539H168V542V573.532L152.5 573.048C148.012 570.924 140.996 569.335 132.681 567.452C100.544 560.174 49 548.501 49 484.548C54.5042 427.389 61.8011 422.218 70.2835 416.206C71.8181 415.119 73.3915 414.004 75.0002 412.548C82 338.548 109.5 318.048 421 287.548C445.621 275.048 469.956 259.033 496.204 241.758C539.251 213.427 587.447 181.707 650.5 156.548C739.5 133.548 956 116.048 1292.5 145.548C1330 166.048 1366.5 197.048 1419.5 278.548C1419.5 278.548 1435.7 317.948 1428.5 421.548C1445 425.548 1467 451.048 1437.5 524.048C1437.5 524.048 1409.5 552.148 1309.5 560.548L1292 561.138V545.5C1292 544.329 1292 543.162 1292 542C1291.96 480.16 1289.88 432 1177 432C1064.12 432 1062.04 480.16 1062 542H1062V545.5V568.886L1027.5 570.048ZM436.498 286.5L424.5 287.5C442.934 277.37 463.739 263.544 486.715 248.276C532.915 217.575 587.889 181.043 650 157L656.958 158.099C660.055 158.588 660.463 163.006 657.532 164.119C607.12 183.273 556.799 215.859 503.128 250.616L503.128 250.616L503.124 250.619L503.12 250.621L503.118 250.623L503.116 250.624C488.583 260.035 473.805 269.605 458.713 279.11C452.016 283.329 444.387 285.843 436.498 286.5ZM1125.76 170.703C1143.88 195.656 1180.44 254.903 1191.08 282.508C1192.75 286.838 1196.78 290 1201.42 290H1289.5C1292.45 290 1294.74 287.472 1293.79 284.681C1282.9 252.666 1205.25 192.091 1168.1 165.604C1164.77 163.226 1160.8 162 1156.71 162H1130.05C1125.75 162 1123.24 167.222 1125.76 170.703ZM859.5 158C757.2 161.426 710.963 184.499 627.91 227.686C624.601 229.407 622.5 232.84 622.5 236.57V290.048H842.5L842.501 290.04C843.277 282.799 843.651 279.305 844.074 275.816C844.468 272.568 844.905 269.324 845.747 263.064L845.748 263.06L845.748 263.057L845.749 263.051L845.75 263.045C847.499 250.04 850.999 224.029 859.5 158ZM891.5 290.048L898.5 158L1067.4 161.774C1073.75 161.916 1079.65 165.063 1083.22 170.322C1102.49 198.718 1162.21 290.048 1133.5 290.048H891.5ZM1399.25 261.5H1408L1405.69 258.394C1367.76 207.491 1349.03 182.359 1301 150.5L1293.98 150.266C1291.9 150.197 1291.02 153.064 1292.75 154.222C1329.67 178.947 1376.2 235.14 1389.84 256.13C1391.93 259.338 1395.43 261.5 1399.25 261.5Z" fill="url(#paint1_linear)"/>
<path d="M441 582.048L440.922 584.547L440.987 584.549L441.051 584.548L441 582.048ZM1027.5 570.048L1027.55 572.547L1027.57 572.547L1027.58 572.547L1027.5 570.048ZM398 580.707H395.5V583.13L397.922 583.206L398 580.707ZM398 539H400.5V536.5H398V539ZM398 539L395.5 539.001L395.501 541.5H398V539ZM168 539V541.5H170.499L170.5 539.001L168 539ZM168 539V536.5H165.5V539H168ZM168 573.532L167.922 576.031L170.5 576.111V573.532H168ZM152.5 573.048L151.431 575.308L151.902 575.531L152.422 575.547L152.5 573.048ZM132.681 567.452L132.129 569.891L132.129 569.891L132.681 567.452ZM49 484.548L46.5115 484.308L46.5 484.428V484.548H49ZM70.2835 416.206L71.729 418.246L71.7291 418.246L70.2835 416.206ZM75.0002 412.548L76.6774 414.402L77.3976 413.75L77.489 412.784L75.0002 412.548ZM421 287.548L421.244 290.036L421.712 289.99L422.132 289.777L421 287.548ZM496.204 241.758L494.83 239.669L494.83 239.669L496.204 241.758ZM650.5 156.548L649.874 154.128L649.721 154.167L649.573 154.226L650.5 156.548ZM1292.5 145.548L1293.7 143.354L1293.24 143.103L1292.72 143.058L1292.5 145.548ZM1419.5 278.548L1421.81 277.597L1421.72 277.381L1421.6 277.185L1419.5 278.548ZM1428.5 421.548L1426.01 421.375L1425.86 423.481L1427.91 423.978L1428.5 421.548ZM1437.5 524.048L1439.27 525.813L1439.63 525.454L1439.82 524.985L1437.5 524.048ZM1309.5 560.548L1309.59 563.047L1309.65 563.045L1309.71 563.039L1309.5 560.548ZM1292 561.138H1289.5V563.723L1292.08 563.636L1292 561.138ZM1292 542L1289.5 542.002L1289.5 542.002L1292 542ZM1062 542V544.5H1064.5L1064.5 542.002L1062 542ZM1062 542V539.5H1059.5V542H1062ZM1062 568.886L1062.08 571.384L1064.5 571.303V568.886H1062ZM424.5 287.5L423.296 285.309L424.708 289.991L424.5 287.5ZM436.498 286.5L436.706 288.992L436.706 288.992L436.498 286.5ZM486.715 248.276L488.099 250.358L488.099 250.358L486.715 248.276ZM650 157L650.39 154.531L649.725 154.426L649.098 154.669L650 157ZM656.958 158.099L656.568 160.568L656.568 160.568L656.958 158.099ZM657.532 164.119L656.644 161.782L656.644 161.782L657.532 164.119ZM503.128 250.616L501.769 248.517L501.697 248.564L501.628 248.616L503.128 250.616ZM503.128 250.616L504.484 252.716L504.558 252.669L504.628 252.616L503.128 250.616ZM503.124 250.619L501.767 248.519L501.763 248.521L503.124 250.619ZM503.12 250.621L501.76 248.524L501.752 248.529L503.12 250.621ZM503.118 250.623L504.459 252.733L504.472 252.724L504.486 252.715L503.118 250.623ZM503.116 250.624L501.775 248.514L501.766 248.52L501.757 248.526L503.116 250.624ZM458.713 279.11L457.381 276.995L457.381 276.995L458.713 279.11ZM1191.08 282.508L1193.41 281.609L1193.41 281.609L1191.08 282.508ZM1125.76 170.703L1127.79 169.234L1127.79 169.234L1125.76 170.703ZM1293.79 284.681L1291.43 285.487L1291.43 285.487L1293.79 284.681ZM1168.1 165.604L1169.56 163.569L1169.56 163.569L1168.1 165.604ZM627.91 227.686L626.757 225.468L626.757 225.468L627.91 227.686ZM859.5 158L861.98 158.319L862.355 155.403L859.416 155.501L859.5 158ZM622.5 290.048H620V292.548H622.5V290.048ZM842.5 290.048V292.548H844.744L844.986 290.317L842.5 290.048ZM842.501 290.04L844.986 290.308L844.987 290.306L842.501 290.04ZM844.074 275.816L841.592 275.515L841.592 275.515L844.074 275.816ZM845.747 263.064L848.225 263.398L848.228 263.377L848.23 263.356L845.747 263.064ZM845.748 263.06L843.274 262.7L843.269 262.734L843.265 262.768L845.748 263.06ZM845.748 263.057L848.222 263.417L848.227 263.385L848.23 263.354L845.748 263.057ZM845.749 263.051L843.268 262.746L843.266 262.755L845.749 263.051ZM845.75 263.045L843.272 262.712L843.27 262.726L843.268 262.74L845.75 263.045ZM898.5 158L898.556 155.501L896.132 155.446L896.004 157.868L898.5 158ZM891.5 290.048L889.004 289.916L888.864 292.548H891.5V290.048ZM1067.4 161.774L1067.34 164.274L1067.34 164.274L1067.4 161.774ZM1083.22 170.322L1081.15 171.725L1081.15 171.725L1083.22 170.322ZM1408 261.5V264H1412.98L1410 260.006L1408 261.5ZM1405.69 258.394L1403.68 259.888L1403.68 259.888L1405.69 258.394ZM1301 150.5L1302.38 148.417L1301.79 148.025L1301.08 148.001L1301 150.5ZM1293.98 150.266L1294.06 147.767L1294.06 147.767L1293.98 150.266ZM1292.75 154.222L1294.14 152.144L1294.14 152.144L1292.75 154.222ZM1389.84 256.13L1387.74 257.492L1387.74 257.492L1389.84 256.13ZM441.051 584.548L1027.55 572.547L1027.45 567.548L440.949 579.549L441.051 584.548ZM397.922 583.206L440.922 584.547L441.078 579.549L398.078 578.208L397.922 583.206ZM395.5 542V580.707H400.5V542H395.5ZM395.5 539V542H400.5V539H395.5ZM398 541.5H398V536.5H398V541.5ZM283 431C339.383 431 367.055 443.085 380.918 461.951C387.89 471.437 391.555 482.869 393.462 495.906C395.371 508.968 395.492 523.455 395.5 539.001L400.5 538.999C400.492 523.505 400.379 508.66 398.409 495.183C396.435 481.681 392.575 469.368 384.947 458.99C369.614 438.125 339.801 426 283 426V431ZM170.5 539.001C170.508 523.455 170.629 508.968 172.538 495.906C174.445 482.869 178.11 471.437 185.082 461.951C198.945 443.085 226.617 431 283 431V426C226.199 426 196.386 438.125 181.053 458.99C173.425 469.368 169.565 481.681 167.591 495.183C165.621 508.66 165.508 523.505 165.5 538.999L170.5 539.001ZM168 541.5H168V536.5H168V541.5ZM170.5 542V539H165.5V542H170.5ZM170.5 573.532V542H165.5V573.532H170.5ZM152.422 575.547L167.922 576.031L168.078 571.033L152.578 570.549L152.422 575.547ZM132.129 569.891C140.571 571.802 147.254 573.331 151.431 575.308L153.57 570.789C148.771 568.517 141.421 566.868 133.234 565.014L132.129 569.891ZM46.5 484.548C46.5 517.347 59.7892 537.015 77.3564 549.302C94.7249 561.45 116.134 566.268 132.129 569.891L133.234 565.014C117.092 561.358 96.6599 556.701 80.222 545.205C63.9828 533.847 51.5 515.703 51.5 484.548H46.5ZM68.838 414.167C66.7301 415.66 64.4581 417.26 62.2794 419.728C60.0854 422.213 58.0661 425.478 56.1948 430.291C52.4886 439.824 49.2662 455.702 46.5115 484.308L51.4885 484.788C54.238 456.235 57.4162 440.948 60.855 432.103C62.5563 427.727 64.2956 424.999 66.0275 423.037C67.7747 421.058 69.5957 419.758 71.729 418.246L68.838 414.167ZM73.3229 410.694C71.8392 412.037 70.3814 413.073 68.838 414.167L71.7291 418.246C73.2549 417.165 74.9438 415.97 76.6774 414.402L73.3229 410.694ZM420.757 285.06C265.111 300.3 179.98 313.068 132.905 331.406C109.276 340.611 94.9355 351.326 86.1229 364.713C77.3412 378.052 74.2695 393.726 72.5113 412.313L77.489 412.784C79.2308 394.371 82.2215 379.732 90.2991 367.462C98.3458 355.239 111.661 345.048 134.72 336.065C181.02 318.028 265.39 305.296 421.244 290.036L420.757 285.06ZM494.83 239.669C468.555 256.962 444.341 272.894 419.869 285.319L422.132 289.777C446.902 277.202 471.357 261.104 497.578 243.846L494.83 239.669ZM649.573 154.226C586.258 179.49 537.873 211.341 494.83 239.669L497.578 243.846C540.63 215.512 588.635 183.925 651.426 158.87L649.573 154.226ZM1292.72 143.058C956.127 113.549 739.288 131.021 649.874 154.128L651.125 158.969C739.711 136.076 955.874 118.547 1292.28 148.039L1292.72 143.058ZM1421.6 277.185C1368.45 195.462 1331.67 164.113 1293.7 143.354L1291.3 147.742C1328.33 167.983 1364.55 198.634 1417.41 279.911L1421.6 277.185ZM1430.99 421.722C1434.61 369.771 1432.35 333.847 1429.18 310.856C1427.59 299.36 1425.77 291.098 1424.34 285.683C1423.62 282.976 1423 280.981 1422.55 279.649C1422.33 278.983 1422.15 278.483 1422.02 278.143C1421.96 277.973 1421.91 277.843 1421.88 277.753C1421.86 277.707 1421.84 277.672 1421.83 277.646C1421.83 277.633 1421.82 277.623 1421.82 277.614C1421.82 277.61 1421.82 277.607 1421.82 277.604C1421.82 277.603 1421.81 277.601 1421.81 277.6C1421.81 277.599 1421.81 277.597 1419.5 278.548C1417.19 279.499 1417.19 279.498 1417.19 279.497C1417.19 279.497 1417.19 279.496 1417.19 279.496C1417.19 279.495 1417.19 279.496 1417.19 279.496C1417.19 279.498 1417.19 279.502 1417.19 279.508C1417.2 279.521 1417.21 279.544 1417.22 279.576C1417.24 279.641 1417.28 279.745 1417.34 279.888C1417.45 280.176 1417.61 280.624 1417.81 281.238C1418.22 282.466 1418.81 284.358 1419.5 286.963C1420.88 292.173 1422.66 300.236 1424.22 311.54C1427.35 334.149 1429.6 369.725 1426.01 421.375L1430.99 421.722ZM1439.82 524.985C1454.66 488.251 1456.73 463.053 1452.68 446.335C1448.6 429.507 1438.33 421.358 1429.09 419.119L1427.91 423.978C1435.17 425.738 1444.15 432.339 1447.82 447.511C1451.52 462.793 1449.84 486.846 1435.18 523.112L1439.82 524.985ZM1309.71 563.039C1359.92 558.822 1392.18 549.648 1411.96 541.458C1421.85 537.363 1428.61 533.514 1432.94 530.656C1435.1 529.227 1436.66 528.047 1437.68 527.208C1438.2 526.789 1438.58 526.455 1438.84 526.219C1438.97 526.101 1439.07 526.007 1439.14 525.938C1439.18 525.904 1439.21 525.877 1439.23 525.856C1439.24 525.845 1439.25 525.836 1439.26 525.829C1439.26 525.826 1439.26 525.823 1439.26 525.82C1439.27 525.818 1439.27 525.817 1439.27 525.816C1439.27 525.814 1439.27 525.813 1437.5 524.048C1435.73 522.284 1435.73 522.282 1435.73 522.281C1435.73 522.281 1435.73 522.28 1435.73 522.279C1435.74 522.278 1435.74 522.278 1435.74 522.277C1435.74 522.277 1435.74 522.278 1435.73 522.282C1435.73 522.288 1435.71 522.3 1435.69 522.32C1435.65 522.358 1435.58 522.423 1435.48 522.513C1435.29 522.692 1434.97 522.97 1434.52 523.336C1433.63 524.067 1432.21 525.147 1430.19 526.484C1426.14 529.157 1419.65 532.859 1410.04 536.838C1390.82 544.798 1359.08 553.875 1309.29 558.057L1309.71 563.039ZM1292.08 563.636L1309.59 563.047L1309.42 558.05L1291.92 558.639L1292.08 563.636ZM1289.5 545.5V561.138H1294.5V545.5H1289.5ZM1289.5 542.002C1289.5 543.163 1289.5 544.326 1289.5 545.5H1294.5C1294.5 544.331 1294.5 543.161 1294.5 541.998L1289.5 542.002ZM1177 434.5C1233.23 434.5 1260.91 446.521 1274.81 465.298C1281.79 474.738 1285.49 486.115 1287.42 499.092C1289.35 512.093 1289.49 526.518 1289.5 542.002L1294.5 541.998C1294.49 526.562 1294.36 511.777 1292.36 498.356C1290.36 484.91 1286.47 472.653 1278.82 462.323C1263.45 441.56 1233.65 429.5 1177 429.5V434.5ZM1064.5 542.002C1064.51 526.518 1064.65 512.093 1066.58 499.092C1068.51 486.115 1072.21 474.738 1079.19 465.298C1093.09 446.521 1120.77 434.5 1177 434.5V429.5C1120.35 429.5 1090.55 441.56 1075.18 462.323C1067.53 472.653 1063.64 484.91 1061.64 498.356C1059.64 511.777 1059.51 526.562 1059.5 541.998L1064.5 542.002ZM1062 544.5H1062V539.5H1062V544.5ZM1064.5 545.5V542H1059.5V545.5H1064.5ZM1064.5 568.886V545.5H1059.5V568.886H1064.5ZM1027.58 572.547L1062.08 571.384L1061.92 566.387L1027.42 567.549L1027.58 572.547ZM424.708 289.991L436.706 288.992L436.291 284.009L424.292 285.009L424.708 289.991ZM485.332 246.194C462.328 261.48 441.618 275.24 423.296 285.309L425.704 289.691C444.249 279.499 465.151 265.608 488.099 250.358L485.332 246.194ZM649.098 154.669C586.694 178.825 531.503 215.512 485.332 246.194L488.099 250.358C534.326 219.638 589.084 183.261 650.902 159.331L649.098 154.669ZM657.348 155.629L650.39 154.531L649.61 159.469L656.568 160.568L657.348 155.629ZM658.42 166.456C663.632 164.476 663.097 156.537 657.348 155.629L656.568 160.568C656.746 160.596 656.819 160.659 656.866 160.714C656.931 160.79 656.999 160.925 657.016 161.109C657.034 161.293 656.993 161.449 656.935 161.552C656.89 161.632 656.817 161.717 656.644 161.782L658.42 166.456ZM504.487 252.714C558.218 217.919 608.304 185.497 658.42 166.456L656.644 161.782C605.935 181.049 555.381 213.799 501.769 248.517L504.487 252.714ZM504.628 252.616L504.628 252.616L501.628 248.616L501.628 248.616L504.628 252.616ZM504.48 252.719L504.484 252.716L501.772 248.516L501.767 248.519L504.48 252.719ZM504.481 252.718L504.484 252.716L501.763 248.521L501.76 248.524L504.481 252.718ZM504.486 252.715L504.488 252.714L501.752 248.529L501.75 248.53L504.486 252.715ZM504.456 252.734L504.459 252.733L501.777 248.513L501.775 248.514L504.456 252.734ZM460.046 281.225C475.153 271.71 489.944 262.132 504.474 252.722L501.757 248.526C487.222 257.938 472.458 267.499 457.381 276.995L460.046 281.225ZM436.706 288.992C444.986 288.301 453.002 285.662 460.046 281.225L457.381 276.995C451.029 280.995 443.787 283.384 436.291 284.009L436.706 288.992ZM1193.41 281.609C1188.01 267.588 1176.11 245.714 1163.37 224.332C1150.61 202.912 1136.9 181.793 1127.79 169.234L1123.74 172.171C1132.74 184.566 1146.36 205.547 1159.08 226.89C1171.81 248.271 1183.51 269.822 1188.74 283.407L1193.41 281.609ZM1201.42 287.5C1197.96 287.5 1194.76 285.115 1193.41 281.609L1188.74 283.407C1190.73 288.562 1195.6 292.5 1201.42 292.5V287.5ZM1289.5 287.5H1201.42V292.5H1289.5V287.5ZM1291.43 285.487C1291.6 286.002 1291.49 286.425 1291.19 286.78C1290.87 287.172 1290.27 287.5 1289.5 287.5V292.5C1291.68 292.5 1293.71 291.564 1295.02 289.995C1296.37 288.388 1296.94 286.152 1296.16 283.875L1291.43 285.487ZM1166.65 167.64C1185.18 180.85 1213.81 202.561 1239.14 224.943C1251.81 236.136 1263.61 247.462 1272.91 257.952C1282.27 268.506 1288.87 277.982 1291.43 285.487L1296.16 283.875C1293.27 275.372 1286.08 265.271 1276.65 254.635C1267.17 243.935 1255.2 232.46 1242.45 221.196C1216.95 198.665 1188.18 176.845 1169.56 163.569L1166.65 167.64ZM1156.71 164.5C1160.3 164.5 1163.76 165.574 1166.65 167.64L1169.56 163.569C1165.78 160.878 1161.31 159.5 1156.71 159.5V164.5ZM1130.05 164.5H1156.71V159.5H1130.05V164.5ZM1127.79 169.234C1126.39 167.303 1127.92 164.5 1130.05 164.5V159.5C1123.58 159.5 1120.09 167.141 1123.74 172.171L1127.79 169.234ZM629.064 229.904C670.618 208.296 702.768 191.826 737.279 180.304C771.738 168.799 808.627 162.205 859.584 160.499L859.416 155.501C808.073 157.221 770.694 163.876 735.696 175.561C700.75 187.229 668.255 203.889 626.757 225.468L629.064 229.904ZM625 236.57C625 233.78 626.575 231.198 629.064 229.904L626.757 225.468C622.627 227.615 620 231.9 620 236.57H625ZM625 290.048V236.57H620V290.048H625ZM842.5 287.548H622.5V292.548H842.5V287.548ZM840.015 289.771L840.014 289.779L844.986 290.317L844.986 290.308L840.015 289.771ZM841.592 275.515C841.167 279.025 840.79 282.539 840.015 289.773L844.987 290.306C845.763 283.059 846.135 279.585 846.556 276.117L841.592 275.515ZM843.27 262.731C842.428 268.985 841.989 272.247 841.592 275.515L846.556 276.117C846.948 272.889 847.382 269.663 848.225 263.398L843.27 262.731ZM843.265 262.768L843.264 262.772L848.23 263.356L848.231 263.352L843.265 262.768ZM843.274 262.697L843.274 262.7L848.222 263.42L848.222 263.417L843.274 262.697ZM843.266 262.755L843.266 262.761L848.23 263.354L848.231 263.347L843.266 262.755ZM843.268 262.74L843.268 262.746L848.23 263.356L848.231 263.351L843.268 262.74ZM857.02 157.681C848.52 223.705 845.021 249.712 843.272 262.712L848.227 263.379C849.978 250.369 853.478 224.353 861.98 158.319L857.02 157.681ZM896.004 157.868L889.004 289.916L893.996 290.18L900.996 158.132L896.004 157.868ZM1067.45 159.275L898.556 155.501L898.444 160.499L1067.34 164.274L1067.45 159.275ZM1085.29 168.918C1081.26 162.975 1074.6 159.434 1067.45 159.275L1067.34 164.274C1072.9 164.398 1078.05 167.151 1081.15 171.725L1085.29 168.918ZM1133.5 292.548C1135.62 292.548 1137.54 292.127 1139.16 291.163C1140.8 290.185 1141.96 288.751 1142.68 287.04C1144.06 283.762 1143.87 279.453 1142.92 274.828C1140.98 265.456 1135.46 252.888 1128.57 239.678C1114.75 213.16 1094.93 183.127 1085.29 168.918L1081.15 171.725C1090.78 185.912 1110.46 215.743 1124.14 241.989C1131 255.161 1136.23 267.201 1138.02 275.84C1138.92 280.221 1138.84 283.268 1138.07 285.096C1137.72 285.938 1137.23 286.494 1136.6 286.867C1135.95 287.256 1134.97 287.548 1133.5 287.548V292.548ZM891.5 292.548H1133.5V287.548H891.5V292.548ZM1408 259H1399.25V264H1408V259ZM1403.68 259.888L1406 262.994L1410 260.006L1407.69 256.9L1403.68 259.888ZM1299.62 152.583C1347.26 184.184 1365.77 209.007 1403.68 259.888L1407.69 256.9C1369.75 205.975 1350.8 180.533 1302.38 148.417L1299.62 152.583ZM1293.89 152.765L1300.92 152.999L1301.08 148.001L1294.06 147.767L1293.89 152.765ZM1294.14 152.144C1294.21 152.192 1294.28 152.288 1294.31 152.392C1294.34 152.472 1294.33 152.513 1294.32 152.522C1294.32 152.53 1294.3 152.583 1294.22 152.647C1294.18 152.682 1294.12 152.715 1294.06 152.738C1293.99 152.761 1293.93 152.766 1293.89 152.765L1294.06 147.767C1291.68 147.688 1290.07 149.339 1289.55 151.045C1289.02 152.745 1289.4 154.991 1291.36 156.299L1294.14 152.144ZM1391.94 254.768C1385.02 244.12 1369.88 224.714 1351.87 204.896C1333.88 185.088 1312.85 164.678 1294.14 152.144L1291.36 156.299C1309.56 168.49 1330.26 188.54 1348.17 208.258C1366.08 227.964 1381.02 247.15 1387.74 257.492L1391.94 254.768ZM1399.25 259C1396.39 259 1393.63 257.367 1391.94 254.768L1387.74 257.492C1390.23 261.309 1394.47 264 1399.25 264V259Z" fill="black"/>
<path fill-rule="evenodd" clip-rule="evenodd" d="M1149.5 299.5H551C548.239 299.5 546 297.261 546 294.5V273.855C546 272.364 546.639 270.97 547.794 270.027C614.31 215.754 741.718 147.357 876 151C888.667 151.344 922.308 151.766 963.54 152.284C1034.67 153.177 1128.4 154.354 1176 155.9C1178.01 155.965 1179.83 156.607 1181.45 157.805C1213.31 181.446 1312.85 260.126 1316.11 295.295C1316.34 297.733 1314.2 299.5 1311.75 299.5H1149.5ZM859.5 158C757.2 161.426 710.963 184.499 627.91 227.686C624.601 229.407 622.5 232.84 622.5 236.57V290.048H842.5C843.276 282.802 843.651 279.306 844.074 275.816C844.468 272.568 844.905 269.324 845.747 263.065L845.749 263.051L845.75 263.042C847.5 250.036 851 224.023 859.5 158ZM891.5 290.048L898.5 158L1067.4 161.774C1073.75 161.916 1079.65 165.063 1083.22 170.322C1102.49 198.718 1162.21 290.048 1133.5 290.048H891.5ZM1126.76 170.702C1144.88 195.656 1181.44 254.903 1192.08 282.508C1193.75 286.838 1197.78 290 1202.42 290H1290.5C1293.45 290 1295.74 287.472 1294.79 284.681C1283.9 252.666 1206.25 192.091 1169.1 165.604C1165.77 163.226 1161.8 162 1157.71 162H1131.05C1126.75 162 1124.24 167.222 1126.76 170.702Z" fill="#545454"/>
<path d="M547.794 270.027L548.743 271.189L548.743 271.189L547.794 270.027ZM876 151L875.959 152.499L875.959 152.499L876 151ZM963.54 152.284L963.559 150.784L963.54 152.284ZM1176 155.9L1175.95 157.399L1175.95 157.399L1176 155.9ZM1181.45 157.805L1182.34 156.601L1182.34 156.601L1181.45 157.805ZM1316.11 295.295L1314.62 295.433L1314.62 295.433L1316.11 295.295ZM627.91 227.686L628.602 229.017L628.602 229.017L627.91 227.686ZM859.5 158L860.988 158.191L861.213 156.442L859.45 156.501L859.5 158ZM622.5 290.048H621V291.548H622.5V290.048ZM842.5 290.048V291.548H843.848L843.991 290.208L842.5 290.048ZM844.074 275.816L845.563 275.997L845.563 275.997L844.074 275.816ZM845.747 263.065L844.261 262.86L844.26 262.865L845.747 263.065ZM845.749 263.051L847.235 263.256L847.236 263.247L845.749 263.051ZM845.75 263.042L844.263 262.842L844.263 262.846L845.75 263.042ZM898.5 158L898.534 156.5L897.079 156.468L897.002 157.921L898.5 158ZM891.5 290.048L890.002 289.969L889.918 291.548H891.5V290.048ZM1067.4 161.774L1067.36 163.274L1067.36 163.274L1067.4 161.774ZM1083.22 170.322L1084.46 169.48L1084.46 169.48L1083.22 170.322ZM1192.08 282.508L1193.48 281.969L1193.48 281.969L1192.08 282.508ZM1126.76 170.702L1125.55 171.584L1125.55 171.584L1126.76 170.702ZM1294.79 284.681L1293.37 285.164L1293.37 285.164L1294.79 284.681ZM1169.1 165.604L1169.98 164.383L1169.98 164.383L1169.1 165.604ZM551 301H1149.5V298H551V301ZM544.5 294.5C544.5 298.09 547.41 301 551 301V298C549.067 298 547.5 296.433 547.5 294.5H544.5ZM544.5 273.855V294.5H547.5V273.855H544.5ZM546.846 268.865C545.329 270.103 544.5 271.929 544.5 273.855H547.5C547.5 272.798 547.948 271.837 548.743 271.189L546.846 268.865ZM876.041 149.501C741.278 145.844 613.53 214.454 546.846 268.865L548.743 271.189C615.09 217.053 742.157 148.869 875.959 152.499L876.041 149.501ZM963.559 150.784C922.318 150.266 888.693 149.844 876.041 149.501L875.959 152.499C888.64 152.843 922.298 153.266 963.522 153.784L963.559 150.784ZM1176.05 154.401C1128.43 152.855 1034.68 151.677 963.559 150.784L963.522 153.784C1034.66 154.677 1128.37 155.854 1175.95 157.399L1176.05 154.401ZM1182.34 156.601C1180.48 155.223 1178.37 154.476 1176.05 154.401L1175.95 157.399C1177.65 157.454 1179.18 157.992 1180.55 159.01L1182.34 156.601ZM1317.61 295.156C1317.17 290.464 1315.15 285.177 1312.01 279.53C1308.86 273.865 1304.52 267.741 1299.34 261.355C1288.99 248.584 1275.18 234.657 1260.52 221.125C1231.19 194.055 1198.29 168.44 1182.34 156.601L1180.55 159.01C1196.46 170.812 1229.26 196.357 1258.49 223.329C1273.1 236.818 1286.79 250.633 1297.01 263.244C1302.12 269.55 1306.35 275.527 1309.39 280.989C1312.44 286.468 1314.24 291.333 1314.62 295.433L1317.61 295.156ZM1311.75 301C1314.81 301 1317.94 298.724 1317.61 295.156L1314.62 295.433C1314.74 296.742 1313.59 298 1311.75 298V301ZM1149.5 301H1311.75V298H1149.5V301ZM628.602 229.017C670.145 207.414 702.364 190.906 736.962 179.355C771.529 167.815 808.516 161.208 859.55 159.499L859.45 156.501C808.184 158.218 770.903 164.861 736.012 176.51C701.153 188.148 668.728 204.77 627.218 226.355L628.602 229.017ZM624 236.57C624 233.404 625.785 230.481 628.602 229.017L627.218 226.355C623.416 228.332 621 232.276 621 236.57H624ZM624 290.048V236.57H621V290.048H624ZM842.5 288.548H622.5V291.548H842.5V288.548ZM842.585 275.636C842.16 279.138 841.784 282.646 841.009 289.888L843.991 290.208C844.768 282.958 845.142 279.474 845.563 275.997L842.585 275.636ZM844.26 262.865C843.419 269.121 842.981 272.375 842.585 275.636L845.563 275.997C845.956 272.76 846.391 269.528 847.234 263.265L844.26 262.865ZM844.263 262.847L844.261 262.86L847.233 263.269L847.235 263.256L844.263 262.847ZM844.263 262.846L844.262 262.856L847.236 263.247L847.237 263.237L844.263 262.846ZM858.012 157.808C849.513 223.829 846.013 249.838 844.263 262.842L847.237 263.242C848.987 250.233 852.487 224.218 860.988 158.191L858.012 157.808ZM897.002 157.921L890.002 289.969L892.998 290.127L899.998 158.079L897.002 157.921ZM1067.43 160.275L898.534 156.5L898.466 159.5L1067.36 163.274L1067.43 160.275ZM1084.46 169.48C1080.62 163.81 1074.26 160.427 1067.43 160.275L1067.36 163.274C1073.24 163.405 1078.69 166.315 1081.98 171.164L1084.46 169.48ZM1133.5 291.548C1135.49 291.548 1137.22 291.153 1138.65 290.304C1140.09 289.447 1141.11 288.188 1141.76 286.651C1143.02 283.664 1142.88 279.607 1141.94 275.03C1140.03 265.805 1134.56 253.343 1127.68 240.14C1113.89 213.676 1094.1 183.684 1084.46 169.48L1081.98 171.164C1091.61 185.355 1111.31 215.227 1125.02 241.527C1131.89 254.706 1137.18 266.852 1139 275.638C1139.91 280.067 1139.89 283.367 1138.99 285.485C1138.56 286.501 1137.94 287.232 1137.11 287.726C1136.27 288.23 1135.1 288.548 1133.5 288.548V291.548ZM891.5 291.548H1133.5V288.548H891.5V291.548ZM1193.48 281.969C1188.11 268.035 1176.25 246.225 1163.51 224.843C1150.76 203.439 1137.07 182.347 1127.98 169.821L1125.55 171.584C1134.57 184.011 1148.21 205.02 1160.93 226.379C1173.67 247.759 1185.41 269.376 1190.68 283.047L1193.48 281.969ZM1202.42 288.5C1198.49 288.5 1194.95 285.804 1193.48 281.969L1190.68 283.047C1192.54 287.872 1197.07 291.5 1202.42 291.5V288.5ZM1290.5 288.5H1202.42V291.5H1290.5V288.5ZM1293.37 285.164C1293.67 286.032 1293.47 286.818 1292.96 287.423C1292.43 288.05 1291.55 288.5 1290.5 288.5V291.5C1292.4 291.5 1294.14 290.686 1295.26 289.352C1296.4 287.995 1296.87 286.122 1296.21 284.198L1293.37 285.164ZM1168.23 166.826C1186.78 180.049 1215.43 201.782 1240.8 224.194C1253.48 235.401 1265.32 246.757 1274.66 257.289C1284.03 267.859 1290.75 277.46 1293.37 285.164L1296.21 284.198C1293.39 275.894 1286.32 265.918 1276.9 255.299C1267.46 244.641 1255.52 233.195 1242.79 221.945C1217.32 199.444 1188.58 177.646 1169.98 164.383L1168.23 166.826ZM1157.71 163.5C1161.5 163.5 1165.16 164.635 1168.23 166.826L1169.98 164.383C1166.38 161.817 1162.1 160.5 1157.71 160.5V163.5ZM1131.05 163.5H1157.71V160.5H1131.05V163.5ZM1127.98 169.821C1126.13 167.27 1128.05 163.5 1131.05 163.5V160.5C1125.45 160.5 1122.35 167.173 1125.55 171.584L1127.98 169.821Z" fill="black"/>
<path d="M135 394.5L230 434" stroke="black" stroke-width="4"/>
<path d="M876.5 146C923.051 145.85 1020.96 143.982 1081.01 148.388C1081.99 148.461 1082.88 148.79 1083.64 149.433C1104.76 167.43 1154.78 245.688 1170.68 293.825C1171.6 296.589 1172 299.48 1172 302.39C1172 344.713 1171.86 368.582 1167.89 413.634C1167.67 416.132 1165.61 418.075 1163.11 418.199C1092.93 421.669 1043.59 438.743 1048 547L855 551.5M876.5 146C861.534 146.048 863.504 146 858.5 146C746.33 146 608.889 193.534 516.895 288.552C515.998 289.479 515.5 290.735 515.499 292.025C515.392 445.845 503.1 557 525.5 557L855 551.5M876.5 146C876.5 187.636 869.498 265.133 867 298C863.846 339.5 853.5 519.184 855 551.5" stroke="black" stroke-width="4"/>
<path d="M90.5 362.5C133 358.5 116 360 162 356C162 356 166 398.5 106 398.5C99 410.5 93.1023 408.196 76 410.5C76 393.5 83 372 90.5 362.5Z" fill="url(#paint2_linear)" stroke="black" stroke-width="4"/>
<path d="M126.5 396C132.5 378.5 133 377 139 358L162.5 356C160.5 378.5 149.5 391.5 126.5 396Z" fill="#D27D2E" stroke="black" stroke-width="4"/>
<path d="M574.227 279.249C575.632 261.661 584.001 243.206 602.606 239.128C605.12 238.577 607.458 240.378 607.93 242.909L616.541 289.15C616.708 290.044 616.251 290.944 615.414 291.302C609.717 293.734 604.333 294.469 592.94 295.455C582.836 296.329 573.42 289.359 574.227 279.249Z" fill="url(#paint3_linear)" stroke="black" stroke-width="3"/>
<path d="M1387.72 307.5L1426.5 307.5C1428.5 320 1430 350 1430 378.5H1409.5C1403.98 378.5 1399.5 374.023 1399.5 368.5L1399.5 358C1399.5 355.239 1397.25 353.068 1394.49 352.924C1384.19 352.386 1384.23 348.03 1382.73 312.745C1382.61 309.9 1384.88 307.5 1387.72 307.5Z" fill="#971D1D" stroke="black" stroke-width="4"/>
<path d="M1428.5 421.5H1278L1248 441.5" stroke="black" stroke-width="4"/>
<path d="M767 342.067C767 316.059 818 314.573 818 342.067C818 360.644 767 360.644 767 342.067Z" fill="url(#paint4_linear)" stroke="black" stroke-width="3"/>
<path d="M760.483 345.767C755.014 345.767 751.534 334.233 760.483 334.233L824.118 334.233C832.5 334.233 832.997 345.767 824.118 345.767L760.483 345.767Z" fill="#C6C6C6" stroke="black" stroke-width="3"/>
<path d="M1077 342.067C1077 316.059 1128 314.573 1128 342.067C1128 360.644 1077 360.644 1077 342.067Z" fill="url(#paint5_linear)" stroke="black" stroke-width="3"/>
<path d="M1070.48 345.767C1065.01 345.767 1061.53 334.233 1070.48 334.233L1134.12 334.233C1142.5 334.233 1143 345.767 1134.12 345.767L1070.48 345.767Z" fill="#C6C6C6" stroke="black" stroke-width="3"/>
<circle cx="284" cy="555" r="105" transform="rotate(90 284 555)" fill="url(#paint6_radial)"/>
<circle cx="284" cy="555" r="80" transform="rotate(90 284 555)" fill="#E7E7E7"/>
<circle cx="284" cy="555" r="70" transform="rotate(90 284 555)" fill="url(#paint7_radial)"/>
<path fill-rule="evenodd" clip-rule="evenodd" d="M357.485 559.773C358.68 559.801 359.632 558.783 359.525 557.593L357.897 539.593C357.79 538.403 356.67 537.572 355.5 537.815L311.737 546.88C309.502 547.343 308.36 544.303 310.348 543.18L349.354 521.144C350.394 520.557 350.69 519.194 349.988 518.227L339.365 503.605C338.662 502.639 337.275 502.5 336.394 503.307L296.147 540.235C294.613 541.642 292.218 540.061 292.908 538.098L310.928 486.841C311.324 485.714 310.65 484.493 309.486 484.228L291.863 480.213C290.698 479.948 289.562 480.756 289.431 481.944L284.66 525.183C284.41 527.451 281.165 527.597 280.712 525.361L271.997 482.383C271.759 481.212 270.555 480.51 269.418 480.879L252.229 486.464C251.093 486.833 250.532 488.11 251.028 489.197L274.059 539.649C274.924 541.543 272.68 543.332 271.026 542.069L227.179 508.582C226.23 507.857 224.86 508.121 224.248 509.146L214.984 524.666C214.372 525.692 214.79 527.022 215.879 527.514L254.664 545.023C256.744 545.962 255.881 549.093 253.613 548.833L211.228 543.976C210.041 543.84 209 544.769 209 545.963L209 564.037C209 565.232 210.041 566.16 211.228 566.024L266.387 559.704C268.456 559.467 269.465 562.154 267.752 563.337L221.976 594.951C220.993 595.629 220.821 597.013 221.607 597.913L233.505 611.519C234.291 612.418 235.685 612.432 236.49 611.548L265.534 579.625C267.07 577.937 269.78 579.725 268.833 581.802L251.028 620.804C250.532 621.891 251.093 623.168 252.229 623.537L269.419 629.122C270.555 629.491 271.759 628.789 271.997 627.618L282.871 573.991C283.285 571.951 286.152 571.822 286.748 573.817L302.51 626.588C302.852 627.733 304.115 628.325 305.213 627.855L321.83 620.744C322.928 620.274 323.372 618.952 322.78 617.914L300.74 579.28C299.609 577.297 302.148 575.272 303.83 576.815L336.395 606.694C337.275 607.501 338.662 607.362 339.365 606.396L349.988 591.773C350.691 590.807 350.394 589.444 349.354 588.857L302.197 562.216C300.385 561.192 301.148 558.426 303.229 558.475L357.485 559.773Z" fill="url(#paint8_radial)"/>
<circle cx="1177" cy="555" r="105" transform="rotate(90 1177 555)" fill="url(#paint9_radial)"/>
<circle cx="1177" cy="555" r="80" transform="rotate(90 1177 555)" fill="#E7E7E7"/>
<circle cx="1177" cy="555" r="70" transform="rotate(90 1177 555)" fill="url(#paint10_radial)"/>
<path fill-rule="evenodd" clip-rule="evenodd" d="M1250.49 559.773C1251.68 559.801 1252.63 558.783 1252.52 557.593L1250.9 539.593C1250.79 538.403 1249.67 537.572 1248.5 537.815L1204.74 546.88C1202.5 547.343 1201.36 544.303 1203.35 543.18L1242.35 521.144C1243.39 520.557 1243.69 519.194 1242.99 518.227L1232.36 503.605C1231.66 502.639 1230.27 502.5 1229.39 503.307L1189.15 540.235C1187.61 541.642 1185.22 540.061 1185.91 538.098L1203.93 486.841C1204.32 485.714 1203.65 484.493 1202.49 484.228L1184.86 480.213C1183.7 479.948 1182.56 480.756 1182.43 481.944L1177.66 525.183C1177.41 527.451 1174.17 527.597 1173.71 525.361L1165 482.383C1164.76 481.212 1163.55 480.51 1162.42 480.879L1145.23 486.464C1144.09 486.833 1143.53 488.11 1144.03 489.197L1167.06 539.649C1167.92 541.543 1165.68 543.332 1164.03 542.069L1120.18 508.582C1119.23 507.857 1117.86 508.121 1117.25 509.146L1107.98 524.666C1107.37 525.692 1107.79 527.022 1108.88 527.514L1147.66 545.023C1149.74 545.962 1148.88 549.093 1146.61 548.833L1104.23 543.976C1103.04 543.84 1102 544.769 1102 545.963L1102 564.037C1102 565.232 1103.04 566.16 1104.23 566.024L1159.39 559.704C1161.46 559.467 1162.46 562.154 1160.75 563.337L1114.98 594.951C1113.99 595.629 1113.82 597.013 1114.61 597.913L1126.5 611.519C1127.29 612.418 1128.69 612.432 1129.49 611.548L1158.53 579.625C1160.07 577.937 1162.78 579.725 1161.83 581.802L1144.03 620.804C1143.53 621.891 1144.09 623.168 1145.23 623.537L1162.42 629.122C1163.55 629.491 1164.76 628.789 1165 627.618L1175.87 573.991C1176.29 571.951 1179.15 571.822 1179.75 573.817L1195.51 626.588C1195.85 627.733 1197.11 628.325 1198.21 627.855L1214.83 620.744C1215.93 620.274 1216.37 618.952 1215.78 617.914L1193.74 579.28C1192.61 577.297 1195.15 575.272 1196.83 576.815L1229.39 606.694C1230.27 607.501 1231.66 607.362 1232.36 606.396L1242.99 591.773C1243.69 590.807 1243.39 589.444 1242.35 588.857L1195.2 562.216C1193.38 561.192 1194.15 558.426 1196.23 558.475L1250.49 559.773Z" fill="url(#paint11_radial)"/>
<path d="M407.234 300.332L423.406 288.722C424.241 288.122 423.785 286.797 422.763 286.908C309.694 299.205 124.58 315.132 92.0908 360.378C91.6101 361.048 92.1722 361.902 92.9935 361.834L114.623 360.031C114.866 360.011 115.08 359.915 115.251 359.741C149.297 324.943 316.874 306.125 406.72 300.517C406.908 300.506 407.081 300.442 407.234 300.332Z" fill="#C6C6C6" stroke="black" stroke-width="4"/>
<path d="M1391.5 259C1407 281 1406 276.5 1406 307.5" stroke="black" stroke-width="4"/>
<defs>
<linearGradient id="paint0_linear" x1="812.296" y1="400.705" x2="812.296" y2="582" gradientUnits="userSpaceOnUse">
<stop stop-color="#0E0907"/>
<stop offset="1" stop-color="#2D1710"/>
</linearGradient>
<linearGradient id="paint1_linear" x1="749.086" y1="129.388" x2="749.086" y2="581.436" gradientUnits="userSpaceOnUse">
<stop offset="0.490135" stop-color="#C7C7C7"/>
<stop offset="1" stop-color="#838383"/>
</linearGradient>
<linearGradient id="paint2_linear" x1="82" y1="366.107" x2="184" y2="370.607" gradientUnits="userSpaceOnUse">
<stop stop-color="white"/>
<stop offset="1" stop-color="#CCCCCC"/>
</linearGradient>
<linearGradient id="paint3_linear" x1="588.491" y1="243.599" x2="599.828" y2="284.512" gradientUnits="userSpaceOnUse">
<stop stop-color="#929292"/>
<stop offset="1" stop-color="#585858"/>
</linearGradient>
<linearGradient id="paint4_linear" x1="792.5" y1="322" x2="792.5" y2="356" gradientUnits="userSpaceOnUse">
<stop stop-color="#A6A6A6"/>
<stop offset="0.505208" stop-color="#626262"/>
<stop offset="1" stop-color="#A6A6A6"/>
</linearGradient>
<linearGradient id="paint5_linear" x1="1102.5" y1="322" x2="1102.5" y2="356" gradientUnits="userSpaceOnUse">
<stop stop-color="#A6A6A6"/>
<stop offset="0.505208" stop-color="#626262"/>
<stop offset="1" stop-color="#A6A6A6"/>
</linearGradient>
<radialGradient id="paint6_radial" cx="0" cy="0" r="1" gradientUnits="userSpaceOnUse" gradientTransform="translate(284 555) rotate(90) scale(105)">
<stop offset="0.661458" stop-color="#111111"/>
<stop offset="1" stop-color="#333333"/>
</radialGradient>
<radialGradient id="paint7_radial" cx="0" cy="0" r="1" gradientUnits="userSpaceOnUse" gradientTransform="translate(284 555) rotate(90) scale(70)">
<stop stop-color="#1A110B"/>
<stop offset="1" stop-color="#3E2B1D"/>
</radialGradient>
<radialGradient id="paint8_radial" cx="0" cy="0" r="1" gradientUnits="userSpaceOnUse" gradientTransform="translate(283.904 554.926) rotate(-180) scale(74.9036 74.4799)">
<stop offset="0.213542" stop-color="#C5C5C5"/>
<stop offset="1" stop-color="#E7E7E7"/>
</radialGradient>
<radialGradient id="paint9_radial" cx="0" cy="0" r="1" gradientUnits="userSpaceOnUse" gradientTransform="translate(1177 555) rotate(90) scale(105)">
<stop offset="0.661458" stop-color="#111111"/>
<stop offset="1" stop-color="#333333"/>
</radialGradient>
<radialGradient id="paint10_radial" cx="0" cy="0" r="1" gradientUnits="userSpaceOnUse" gradientTransform="translate(1177 555) rotate(90) scale(70)">
<stop stop-color="#1A110B"/>
<stop offset="1" stop-color="#3E2B1D"/>
</radialGradient>
<radialGradient id="paint11_radial" cx="0" cy="0" r="1" gradientUnits="userSpaceOnUse" gradientTransform="translate(1176.9 554.926) rotate(-180) scale(74.9036 74.4799)">
<stop offset="0.213542" stop-color="#C5C5C5"/>
<stop offset="1" stop-color="#E7E7E7"/>
</radialGradient>
</defs>
</svg>
